<svg xmlns="http://www.w3.org/2000/svg" viewBox="0 0 415.87 213.32"><defs><style>.cls-1{fill:#a202af;stroke:#a202af;stroke-miterlimit:10;stroke-width:10px;}.cls-2{fill:#f800ff;}.cls-3{fill:#70ff00;}.cls-4{fill:#fff;}.cls-5{fill:#fcfafa;}</style></defs><g id="Capa_2" data-name="Capa 2"><g id="Letras"><path class="cls-1" d="M137.51,80.37c-22,12-37.83,77.22-1.54,79,27.17-1.7,39.94-33.51,33.41-62.21C166.71,82.21,149.31,74,137.51,80.37Zm10.84,40.89c-4,6.32-13.06-.3-9.64-7.06C146.57,94,155.69,106.39,148.35,121.26Z"/><path class="cls-1" d="M136,165.43h-.36c-13.57-.65-22.89-8.56-26.24-22.26-5.61-22.94,7.47-58.58,25-68.1h0c7.11-3.85,16.2-3.94,24.3-.22a29.32,29.32,0,0,1,16.86,21.11c4.42,19.6.59,40.2-10,53.81a39.35,39.35,0,0,1-29.18,15.66Zm4.59-79.75c-11.76,6.4-23.51,35.75-18.88,54.68,2,8.17,6.64,12.38,14.2,12.86,7.82-.59,14.39-4.22,19.52-10.8,8.36-10.71,11.4-28,7.76-44l-.06-.27a17,17,0,0,0-9.86-12.32C148.89,83.83,144.15,83.77,140.61,85.68Zm3.45,44.22a11.79,11.79,0,0,1-5.56-1.42,12.64,12.64,0,0,1-5.61-16.66c3.48-8.86,7.75-13.5,13-14.2a9.38,9.38,0,0,1,8.76,3.74c3.8,5,3.56,14.07-.61,22.52l-.32.56A11.42,11.42,0,0,1,144.06,129.9Z"/><path class="cls-1" d="M321.41,38c-1.47,4.95-7.58,15.55-10.75,21.58-4.62,8.65-11.41.14-18.31,1.61-27.79,4.3-60.63,61.73-31,76.71,21.55,13.85,32.37-24.42,44.06-12.18,6.12,7.87,9.46,10.71,17.45,10.58q23.51-2.06,22.39-16.59c-.29-4.9-3.56-8.12-8-7.14-2.58.13-7.54,7.34-10.33,7.16-6.65.93-11.49-7.11-10.21-14-.14-9.59,20.85-50,21.95-52.46,2.53-5.7,7.43-14.52,6.83-20.12C341.87,21,324.21,25,321.41,38Zm-44.26,63.6c2.21-3.21,6.55-7.88,10.78-7.88C293.49,104.43,261.82,118.73,277.15,101.56Z"/><path class="cls-1" d="M270.65,147.06a23.34,23.34,0,0,1-12.56-3.95C246.4,137,241.4,125.29,244,110c3.82-22.51,25.24-51.29,47.19-54.82,4.29-.84,8.12.45,10.92,1.4.79.26,1.9.64,2.59.78.09-.14.21-.33.34-.58.71-1.35,1.59-3,2.53-4.7,2.82-5.2,6.66-12.28,7.7-15.59a21.57,21.57,0,0,1,19.9-16.71,16,16,0,0,1,16.35,11.74l.15.51.05.52c.67,6.23-2.76,13.48-5.78,19.89-.55,1.16-1.07,2.26-1.52,3.26-.17.39-.71,1.48-1.54,3.12C324.83,94.88,323,103.58,323,105.64v.59l-.11.58a7.51,7.51,0,0,0,1.79,6.2,2,2,0,0,0,1,.64c.65-.51,1.64-1.45,2.29-2.06,2.54-2.4,5-4.67,8.22-5.09a12.55,12.55,0,0,1,9.83,2.09,14.13,14.13,0,0,1,5.5,10.73c.57,7.57-2.32,20.76-28.14,23l-.47,0c-11.33.18-16.27-4.91-22.38-12.73a2.28,2.28,0,0,0-.28-.24c-1.52.52-4.72,3.52-6.88,5.55C288.18,139.82,280.47,147.06,270.65,147.06Zm23.43-80a2.05,2.05,0,0,0-.37,0l-.36.07c-14.61,2.26-33.57,25.27-36.87,44.77-1.73,10.13.89,17,7.77,20.52l.57.33c6.85,4.39,11.28,1.36,19.76-6.59,4.84-4.54,9.78-9.24,16.18-9.06a13.07,13.07,0,0,1,9.27,4.41l.4.47c5.73,7.36,7.46,8.19,12.07,8.15,17.06-1.55,16.61-7.51,16.42-10.06a4.2,4.2,0,0,0-.3-1.45c-.55.48-1.26,1.15-1.79,1.65-2.68,2.52-5.68,5.35-9.57,5.47a14.21,14.21,0,0,1-11.68-4.3,19.35,19.35,0,0,1-5.23-16.3C310.62,98,317,82.45,331.5,53.49c.7-1.39,1.17-2.33,1.32-2.66.46-1,1-2.22,1.61-3.48,1.79-3.77,4.71-10,4.74-13.09a3.3,3.3,0,0,0-3.56-2.32,9,9,0,0,0-8,7.27l-.11.43c-1.31,4.43-5.24,11.67-8.71,18.06-.91,1.68-1.76,3.26-2.47,4.6-5.41,10.12-14.48,7.06-18.36,5.76A15.31,15.31,0,0,0,294.08,67.07Zm-19.74,48.56a7.7,7.7,0,0,1-5.87-2.44c-4.94-5.36,1-12.39,3.64-15.34,2.36-3.34,8.18-10.27,15.82-10.27h3.92L293.59,91c3.53,6.82-.08,15.07-9.19,21C280.67,114.41,277.24,115.63,274.34,115.63Z"/><path class="cls-1" d="M103.57,102.46l-48.39,4c8-.44,20,2.68,20,13.18,0,.28-1.4,3.56-2.8,6.71l-5.24,9.19c-1.33,1.41-4.61,4-6.12,5.25,0,0-8.62,7.42-13.8,8-36.69.51-19-49,1.74-64.77,14.3-15.65,35.25-16.68,53.56-21C82.87,30.22,37,56.12,23.17,84.38,9.79,106.42,2.3,163.69,31,172.23c10.87,3.07,20.34-2.7,29.76-7.49,1.87,5.19.15,14.61-3.56,18.53,25.37-10.43,27.62-43.33,43.62-64.1C104.45,116.14,112.29,102.92,103.57,102.46Z"/><path class="cls-1" d="M33,199.86l19.54-20.69a10.58,10.58,0,0,0,2-4.43c-7.51,3.47-15.84,6-25.32,3.34-9.07-2.7-15.93-9.37-19.94-19.31-9.5-23.56-1.59-60.72,8.3-77.24C27,62.62,50.81,42.58,74.69,41.63c14-.54,25.87,5.94,33.29,18.32l4.21,7L104,68.92c-3.66.87-7.45,1.61-11.1,2.33C78,74.18,63.81,77,53.68,88.05l-.38.41-.45.35c-12.28,9.31-24.2,34.11-19.57,46.72,1.13,3.09,3.75,7.16,13.35,7.16h0c1.87-.44,6.56-3.43,10.14-6.5l.84-.69c1.11-.89,3.24-2.62,4.37-3.67l4.67-8.2c1-2.25,1.72-4,2.11-4.93a4.82,4.82,0,0,0-1.64-3.12c-2.64-2.41-7.86-3.29-11.6-3.08l-.89-12.17,48.82-4,.44,0c4.54.24,8,2.63,9.37,6.4,2.55,7.22-4,17-7.72,20.46-5.23,6.93-8.9,15.38-12.78,24.31-7.22,16.6-14.68,33.76-33.11,41.34ZM64.31,156l2.41,6.7a19,19,0,0,1,1,4.93c5.53-6.79,9.39-15.66,13.38-24.84,4.08-9.39,8.29-19.09,14.61-27.3l.42-.54.53-.44a19.78,19.78,0,0,0,3.79-5.72L79,110.58a17.05,17.05,0,0,1,2.46,9V120c-.07,1.06-.1,1.5-3.29,8.73l-.28.55-2.62,4.59a48.5,48.5,0,0,1-3.53,5.73l0,0a72.09,72.09,0,0,1-6,5.24l-.62.51c-2.46,2.1-10.6,8.69-17.16,9.48l-.69,0c-17.61.27-23.8-9.47-25.93-15.28-6.69-18.21,7.17-47.51,23.22-60C57.48,65.76,75,62.33,90.39,59.3l.92-.19a22.52,22.52,0,0,0-16.1-5.3C58.59,54.47,37.37,69.66,28.89,87l-.26.47c-9.4,15.48-14.88,48.77-7.57,66.89,2.63,6.53,6.49,10.48,11.8,12.05,7.31,2.07,14.28-1.54,22.34-5.72l2.6-1.33Z"/><path class="cls-1" d="M205.24,74.47c-22.05,12-37.83,77.22-1.54,78.95,27.17-1.7,39.94-33.5,33.41-62.2C234.44,76.31,217,68.07,205.24,74.47Zm10.83,40.88c-4,6.33-13-.29-9.63-7C214.3,88.09,223.41,100.49,216.07,115.35Z"/><path class="cls-1" d="M203.74,159.53l-.36,0c-13.56-.65-22.88-8.55-26.23-22.25-5.61-22.94,7.47-58.58,25-68.11h0c7.12-3.86,16.21-3.94,24.31-.22A29.3,29.3,0,0,1,243.31,90c4.42,19.59.59,40.2-10,53.8-7.43,9.52-17.52,14.94-29.18,15.67Zm4.6-79.75h0c-11.76,6.39-23.52,35.75-18.89,54.67,2,8.17,6.65,12.38,14.2,12.86,7.83-.58,14.4-4.22,19.53-10.8,8.35-10.71,11.4-28,7.75-44l-.05-.27A17,17,0,0,0,221,79.94C216.62,77.92,211.88,77.86,208.34,79.78ZM211.78,124a11.88,11.88,0,0,1-5.55-1.41,12.64,12.64,0,0,1-5.62-16.66c3.49-8.86,7.75-13.51,13-14.2a9.36,9.36,0,0,1,8.75,3.74c3.81,5,3.57,14.07-.6,22.51l-.32.57A11.41,11.41,0,0,1,211.78,124Z"/><path class="cls-1" d="M398.05,16.61c-11.82,13.48-17.87,25.72-18.35,47.74.07-1.1-.45,15.79-.39,30,.32,3.31,1.44,4.4,3.36,4.62,3.86.44,4.55,3.72,5.84.51,8.36-21.93,9.64-26.17,13.22-52.15.88-4.65,1.84-11.35,1.69-15.4C404.06,14.6,407.55,4.11,398.05,16.61Z"/><path class="cls-1" d="M387.32,107a8.69,8.69,0,0,1-4.7-1.57,2.57,2.57,0,0,0-.7-.39c-3-.34-8.11-2.11-8.91-10.08l0-.57c0-11,.26-23.5.37-28.23,0-1,0-1.65,0-1.84l3.23,0-3.23-.11c.52-24.6,7.92-37.93,19.69-51.39,3.23-4.25,7.25-9.42,12.91-7.38s5.18,7.3,4.45,16.06c-.25,3.08-.54,6.57-.69,10.44.15,5.53-1.28,13.7-1.78,16.33-3.6,26.17-5.07,31.12-13.52,53.31a8,8,0,0,1-5,5.07A7,7,0,0,1,387.32,107Zm-1.38-42.32a16.67,16.67,0,0,1,.05,1.76c-.1,4-.32,13.48-.36,22.86,5.49-14.81,6.79-20.66,9.83-42.76l.05-.29c.88-4.65,1.72-10.81,1.6-14.09v-.43c.05-1.48.13-2.92.21-4.29-6.93,9.56-10.93,20-11.3,37h-.1a1.23,1.23,0,0,1,0,.2h0Z"/><path class="cls-1" d="M374.37,112.85c-3.12,10.61,3.2,27.89,15,21.44C404.79,123.57,384.81,92.38,374.37,112.85Z"/><path class="cls-1" d="M384.38,141.79a14.18,14.18,0,0,1-8.64-2.95c-7.87-6-10-19-7.46-27.66l.16-.53.25-.5c4.92-9.63,11.74-10.48,15.38-10.15,8.34.79,14.2,8.71,16.29,16.22,2.59,9.26-.23,18.08-7.34,23l-.57.35A16.78,16.78,0,0,1,384.38,141.79ZM380.31,115c-1.31,5.31.64,12.25,3.23,14.21.38.3.86.66,2.36-.09,3.7-2.82,2.82-7.74,2.26-9.76-1.26-4.49-4.17-7.14-5.32-7.25C382.66,112.15,381.64,112.61,380.31,115Z"/><path class="cls-2" d="M132.77,75.8c-22.05,12-37.83,77.22-1.54,79,27.17-1.71,39.94-33.51,33.41-62.21C162,77.64,144.57,69.4,132.77,75.8Zm10.84,40.88c-4,6.33-13.06-.29-9.64-7.05C141.83,89.42,150.94,101.82,143.61,116.68Z"/><path class="cls-2" d="M131.28,160.86l-.37,0c-13.56-.64-22.88-8.55-26.23-22.25-5.61-22.94,7.47-58.58,25-68.1h0c7.11-3.85,16.2-3.94,24.3-.22a29.3,29.3,0,0,1,16.86,21.11c4.42,19.6.59,40.2-10,53.8-7.43,9.52-17.52,14.94-29.18,15.67Zm4.59-79.75c-11.76,6.4-23.52,35.75-18.89,54.68,2,8.16,6.65,12.37,14.21,12.86,7.82-.59,14.39-4.22,19.52-10.81,8.36-10.7,11.4-28,7.76-44l-.06-.27a17.06,17.06,0,0,0-9.86-12.31C144.15,79.25,139.41,79.19,135.87,81.11Zm3.44,44.21a11.76,11.76,0,0,1-5.55-1.41,12.65,12.65,0,0,1-5.62-16.66c3.49-8.86,7.75-13.51,13-14.2a9.35,9.35,0,0,1,8.75,3.74c3.81,5,3.57,14.07-.6,22.52l-.32.56A11.41,11.41,0,0,1,139.31,125.32Z"/><path class="cls-2" d="M316.66,33.39c-1.46,4.94-7.57,15.55-10.74,21.58-4.62,8.65-11.41.14-18.31,1.61-27.8,4.29-60.63,61.73-31,76.71,21.55,13.84,32.37-24.42,44.06-12.18,6.12,7.87,9.46,10.7,17.45,10.58q23.51-2.06,22.39-16.59c-.29-4.9-3.56-8.12-8-7.15-2.58.14-7.54,7.35-10.33,7.16-6.65.94-11.49-7.1-10.21-14-.14-9.58,20.85-50,21.95-52.45,2.53-5.7,7.43-14.53,6.83-20.13C337.13,16.41,319.47,20.4,316.66,33.39ZM272.41,97c2.21-3.2,6.55-7.88,10.78-7.87C288.75,99.86,257.08,114.16,272.41,97Z"/><path class="cls-2" d="M265.91,142.49a23.34,23.34,0,0,1-12.56-4c-11.69-6.07-16.69-17.82-14.09-33.14,3.82-22.51,25.24-51.3,47.19-54.82,4.29-.84,8.11.45,10.92,1.39a25.48,25.48,0,0,0,2.59.78,4.72,4.72,0,0,0,.34-.58c.71-1.34,1.59-3,2.53-4.7,2.82-5.19,6.66-12.27,7.7-15.58a21.56,21.56,0,0,1,19.9-16.71,16,16,0,0,1,16.35,11.74l.15.5L347,28c.67,6.22-2.76,13.48-5.78,19.89-.55,1.16-1.08,2.26-1.52,3.26-.17.39-.71,1.48-1.54,3.12-18.05,36.09-19.93,44.78-19.9,46.85v.59l-.11.57a7.5,7.5,0,0,0,1.79,6.2,2,2,0,0,0,1,.65c.65-.51,1.64-1.45,2.29-2.06,2.54-2.4,4.95-4.67,8.22-5.1A12.59,12.59,0,0,1,341.3,104a14.11,14.11,0,0,1,5.49,10.73c.58,7.58-2.31,20.77-28.13,23l-.47,0c-11.33.17-16.27-4.92-22.38-12.73l-.29-.25c-1.51.53-4.71,3.53-6.87,5.56C283.44,135.25,275.73,142.49,265.91,142.49Zm23.42-80a2,2,0,0,0-.36,0l-.36.07C274,64.86,255,87.87,251.73,107.36c-1.72,10.14.9,17,7.78,20.53l.57.32c6.85,4.4,11.28,1.37,19.76-6.59,4.83-4.53,9.78-9.23,16.18-9.06a13.12,13.12,0,0,1,9.27,4.42l.4.47c5.73,7.35,7.46,8.18,12.07,8.15,17.06-1.55,16.61-7.51,16.42-10.06a4.2,4.2,0,0,0-.3-1.45c-.55.47-1.26,1.15-1.8,1.65-2.67,2.52-5.67,5.35-9.56,5.47a14.21,14.21,0,0,1-11.68-4.3,19.36,19.36,0,0,1-5.23-16.3c.27-7.14,6.66-22.73,21.15-51.69.69-1.39,1.17-2.33,1.32-2.66.46-1,1-2.22,1.61-3.48,1.78-3.78,4.71-10,4.74-13.09a3.31,3.31,0,0,0-3.56-2.33,9,9,0,0,0-8,7.28l-.11.43c-1.31,4.42-5.24,11.67-8.71,18.06-.91,1.68-1.76,3.25-2.47,4.59-5.41,10.13-14.48,7.07-18.36,5.76A15.62,15.62,0,0,0,289.33,62.5ZM269.6,111.06a7.67,7.67,0,0,1-5.87-2.45c-4.94-5.35,1-12.39,3.64-15.33C269.73,89.94,275.55,83,283.19,83h3.92l1.74,3.38c3.53,6.82-.08,15.07-9.2,21C275.93,109.84,272.5,111.06,269.6,111.06Z"/><path class="cls-2" d="M98.82,97.88l-48.38,4c8-.44,20,2.67,20,13.18,0,.28-1.41,3.56-2.8,6.71l-5.24,9.19c-1.33,1.41-4.61,4-6.12,5.24,0,0-8.62,7.42-13.8,8.05-36.69.5-19-49.05,1.74-64.77,14.3-15.65,35.25-16.68,53.56-21C78.12,25.64,32.28,51.55,18.43,79.81c-13.38,22-20.87,79.31,7.82,87.85,10.87,3.06,20.34-2.7,29.76-7.49,1.87,5.19.15,14.61-3.56,18.53,25.37-10.44,27.62-43.34,43.62-64.1C99.71,111.57,107.55,98.35,98.82,97.88Z"/><path class="cls-2" d="M28.24,195.28l19.54-20.69a10.65,10.65,0,0,0,2-4.42c-7.51,3.47-15.84,6-25.32,3.34-9.07-2.7-15.93-9.37-19.95-19.32C-5,130.64,3,93.48,12.84,77,22.22,58.05,46.07,38,70,37.06c14-.54,25.87,5.94,33.29,18.31l4.21,7-8.18,1.94c-3.66.86-7.45,1.61-11.1,2.32-15,2.94-29.1,5.71-39.23,16.8l-.38.42-.45.34C35.83,93.55,23.91,118.35,28.53,131c1.14,3.08,3.76,7.16,13.36,7.16h0c1.87-.44,6.56-3.43,10.14-6.51l.84-.68c1.11-.89,3.24-2.62,4.37-3.67l4.67-8.2c1-2.25,1.72-4,2.11-4.94A4.82,4.82,0,0,0,62.4,111c-2.64-2.41-7.86-3.29-11.6-3.09l-.89-12.16,48.82-4,.44,0c4.54.24,8,2.63,9.37,6.4,2.55,7.22-4.05,17-7.72,20.45C95.59,125.59,91.92,134,88,143c-7.22,16.59-14.68,33.76-33.11,41.34Zm31.33-43.81,2.41,6.7a19,19,0,0,1,1,4.93c5.53-6.8,9.39-15.67,13.38-24.85C80.46,128.87,84.67,119.17,91,111l.42-.54.53-.44a19.78,19.78,0,0,0,3.79-5.72L74.28,106a17.15,17.15,0,0,1,2.46,9v.38c-.07,1-.1,1.49-3.29,8.73l-.28.55-2.62,4.59A48.17,48.17,0,0,1,67,135l0,.05a71.93,71.93,0,0,1-6,5.24l-.62.5c-2.46,2.11-10.6,8.7-17.16,9.49l-.69,0c-17.61.27-23.8-9.46-25.93-15.27-6.69-18.21,7.17-47.51,23.22-60,12.9-13.82,30.37-17.25,45.81-20.28l.92-.18a22.53,22.53,0,0,0-16.1-5.3c-16.62.66-37.84,15.85-46.32,33.17l-.26.48C14.49,98.37,9,131.66,16.32,149.77c2.63,6.54,6.49,10.48,11.8,12.06,7.31,2.07,14.28-1.54,22.34-5.72l2.6-1.34Z"/><path class="cls-2" d="M200.5,69.89c-22.05,12-37.83,77.23-1.54,79,27.17-1.7,39.94-33.51,33.41-62.21C229.7,71.73,212.3,63.5,200.5,69.89Zm10.83,40.89c-4,6.33-13.05-.3-9.63-7C209.56,83.52,218.67,95.92,211.33,110.78Z"/><path class="cls-2" d="M199,155l-.36,0c-13.56-.65-22.88-8.55-26.23-22.26-5.61-22.93,7.46-58.58,25-68.1h0c7.12-3.86,16.21-3.94,24.3-.23a29.35,29.35,0,0,1,16.87,21.11c4.42,19.6.58,40.21-10,53.81a39.34,39.34,0,0,1-29.18,15.66Zm4.6-79.76h0c-11.76,6.4-23.52,35.76-18.89,54.68,2,8.17,6.65,12.38,14.2,12.86,7.83-.59,14.4-4.22,19.53-10.8,8.35-10.71,11.4-28,7.75-44l-.05-.27a17,17,0,0,0-9.87-12.31C211.88,73.35,207.14,73.29,203.6,75.2ZM207,119.42a11.88,11.88,0,0,1-5.55-1.41,12.65,12.65,0,0,1-5.62-16.66c3.49-8.86,7.75-13.51,13-14.21a9.38,9.38,0,0,1,8.75,3.74c3.81,5,3.57,14.08-.6,22.52l-.32.57A11.43,11.43,0,0,1,207,119.42Z"/><path class="cls-2" d="M393.3,12C381.49,25.52,375.44,37.75,375,59.78c.07-1.1-.45,15.79-.4,30,.33,3.3,1.45,4.39,3.37,4.61,3.86.45,4.55,3.73,5.84.51C392.13,73,393.41,68.75,397,42.77c.88-4.64,1.84-11.34,1.69-15.4C399.32,10,402.81-.46,393.3,12Z"/><path class="cls-2" d="M382.58,102.43a8.68,8.68,0,0,1-4.7-1.58,2.38,2.38,0,0,0-.7-.38c-3-.35-8.11-2.11-8.91-10.09l0-.56c0-11,.26-23.51.37-28.23,0-1,0-1.65,0-1.84l3.23,0-3.24-.12c.53-24.59,7.93-37.92,19.7-51.38C391.57,4,395.59-1.15,401.25.89s5.18,7.3,4.45,16.06c-.25,3.08-.55,6.57-.69,10.44.15,5.53-1.28,13.7-1.78,16.33-3.6,26.17-5.07,31.12-13.53,53.31a8,8,0,0,1-5,5.07A7.28,7.28,0,0,1,382.58,102.43ZM381.2,60.11a16.48,16.48,0,0,1,.05,1.75c-.1,4-.32,13.49-.36,22.87,5.49-14.81,6.79-20.66,9.83-42.76l0-.29c.88-4.65,1.72-10.81,1.59-14.09v-.43c.05-1.49.13-2.92.21-4.3-6.93,9.56-10.93,20-11.3,37.05h-.1a1.5,1.5,0,0,1,0,.2h0Z"/><path class="cls-2" d="M369.62,108.27c-3.11,10.62,3.21,27.9,15,21.45C400.05,119,380.07,87.81,369.62,108.27Z"/><path class="cls-2" d="M379.64,137.22a14.15,14.15,0,0,1-8.64-2.95c-7.88-6-10-19-7.46-27.66l.16-.53.25-.5c4.92-9.63,11.74-10.49,15.38-10.15,8.34.78,14.2,8.71,16.29,16.21,2.59,9.27-.23,18.09-7.34,23l-.57.35A16.78,16.78,0,0,1,379.64,137.22Zm-4.07-26.76c-1.31,5.31.64,12.25,3.23,14.21.38.29.86.66,2.36-.09,3.7-2.82,2.82-7.74,2.25-9.76-1.25-4.49-4.16-7.15-5.31-7.25C377.92,107.58,376.9,108,375.57,110.46Z"/><path class="cls-3" d="M129.61,72.75c-22.05,12-37.83,77.22-1.54,79C155.24,150,168,118.2,161.48,89.5,158.81,74.59,141.41,66.35,129.61,72.75Zm10.83,40.89c-4,6.32-13-.3-9.63-7.06C138.67,86.37,147.78,98.77,140.44,113.64Z"/><path class="cls-3" d="M313.5,30.34c-1.46,4.95-7.57,15.55-10.74,21.58-4.62,8.65-11.41.14-18.31,1.61-27.8,4.3-60.63,61.73-31,76.71,21.55,13.84,32.37-24.42,44.06-12.18,6.12,7.87,9.46,10.71,17.45,10.58q23.49-2.05,22.39-16.59c-.29-4.9-3.56-8.12-8-7.14-2.58.13-7.54,7.34-10.33,7.16-6.65.93-11.49-7.11-10.21-14-.14-9.59,20.85-50,21.95-52.46,2.53-5.7,7.43-14.52,6.82-20.12C334,13.36,316.31,17.35,313.5,30.34ZM269.25,93.93c2.2-3.2,6.55-7.87,10.78-7.87C285.59,96.81,253.92,111.11,269.25,93.93Z"/><path class="cls-3" d="M95.66,94.84l-48.38,4c8-.44,20,2.67,20,13.18,0,.28-1.41,3.56-2.8,6.71l-5.24,9.19c-1.33,1.41-4.61,4-6.12,5.25,0,0-8.62,7.42-13.8,8-36.69.51-19-49,1.74-64.77,14.3-15.65,35.25-16.68,53.56-21C75,22.59,29.12,48.5,15.27,76.76c-13.38,22-20.88,79.31,7.82,87.85,10.87,3.06,20.34-2.7,29.76-7.49,1.87,5.19.14,14.61-3.56,18.53,25.37-10.43,27.62-43.33,43.62-64.1C96.55,108.52,104.39,95.3,95.66,94.84Z"/><path class="cls-3" d="M197.34,66.84c-22.05,12-37.83,77.23-1.54,79,27.17-1.7,39.94-33.5,33.41-62.21C226.54,68.69,209.14,60.45,197.34,66.84Zm10.83,40.89c-4,6.33-13-.29-9.63-7C206.4,80.47,215.51,92.87,208.17,107.73Z"/><path class="cls-3" d="M390.14,9c-11.81,13.48-17.86,25.72-18.34,47.74.07-1.1-.45,15.79-.4,30,.33,3.31,1.45,4.39,3.37,4.61,3.86.45,4.55,3.73,5.84.52C389,70,390.25,65.7,393.83,39.73c.88-4.65,1.84-11.35,1.69-15.4C396.16,7,399.65-3.51,390.14,9Z"/><path class="cls-3" d="M366.46,105.23c-3.12,10.61,3.21,27.89,15,21.44C396.89,116,376.91,84.76,366.46,105.23Z"/><path class="cls-4" d="M29.57,62.64a100.68,100.68,0,0,1,13-10,71.49,71.49,0,0,1,14.79-7.46,42.57,42.57,0,0,1,8.19-2.08,22.23,22.23,0,0,1,8.62.47,18.66,18.66,0,0,1,7.65,4.08,20.77,20.77,0,0,1,4.87,6.85l-.25.16a32.83,32.83,0,0,0-5.91-5.34,19.87,19.87,0,0,0-7-2.83,32.79,32.79,0,0,0-15.4,1,69.52,69.52,0,0,0-14.74,6.45,107.91,107.91,0,0,0-13.58,9Z"/><path class="cls-4" d="M119,85.52a44.64,44.64,0,0,1,8-7.43,31.17,31.17,0,0,1,10-4.87,21.84,21.84,0,0,1,5.73-.71,13.4,13.4,0,0,1,5.69,1.38l.66.32.62.38c.41.27.85.49,1.22.79A15.69,15.69,0,0,1,153,77.29a17.31,17.31,0,0,1,3.19,4.58l-.23.19c-2.89-2.27-5.67-4.33-8.79-5.41a19.73,19.73,0,0,0-4.73-1.17,16.8,16.8,0,0,0-5,.09,29,29,0,0,0-9.66,3.78,48.13,48.13,0,0,0-8.57,6.37Z"/><path class="cls-4" d="M186.7,80a44.22,44.22,0,0,1,8-7.42,30.66,30.66,0,0,1,10-4.87,21.41,21.41,0,0,1,5.72-.71,13.28,13.28,0,0,1,5.7,1.37l.66.32.62.38a14.23,14.23,0,0,1,1.22.8,17,17,0,0,1,2.15,1.9,17.2,17.2,0,0,1,3.19,4.59l-.24.18c-2.88-2.26-5.66-4.33-8.78-5.41a20.22,20.22,0,0,0-4.73-1.17,16.8,16.8,0,0,0-5,.09,29.13,29.13,0,0,0-9.67,3.78,48.42,48.42,0,0,0-8.56,6.37Z"/><path class="cls-4" d="M264.86,69.17a21.12,21.12,0,0,1,2.55-3.65c.47-.59,1-1.1,1.52-1.66s1.1-1,1.67-1.52a22.51,22.51,0,0,1,8-4.26,13.46,13.46,0,0,1,2.25-.56,14,14,0,0,1,2.31-.36c.78,0,1.57-.08,2.35-.08s1.54.22,2.3.35l1.14.24c.37.12.73.24,1.09.38.72.28,1.44.54,2.14.85a22.56,22.56,0,0,1,3.83,2.47l-.13.27c-1.54-.14-2.94-.48-4.34-.73-.72-.07-1.41-.19-2.11-.28l-1-.18-1-.05c-.69,0-1.37-.12-2.05-.2s-1.36,0-2.05-.07a19.29,19.29,0,0,0-4.1.28,20.82,20.82,0,0,0-7.74,3.14,25.82,25.82,0,0,0-6.36,5.77Z"/><path class="cls-4" d="M369.48,108.24a14.87,14.87,0,0,1,.69-2.78,11.87,11.87,0,0,1,1.28-2.67,5.68,5.68,0,0,1,2.44-2.15,4.53,4.53,0,0,1,1.79-.34,5.8,5.8,0,0,1,1.74.37,9.82,9.82,0,0,1,4.78,4,12.93,12.93,0,0,1,1.24,2.67,10.78,10.78,0,0,1,.62,2.91l-.26.14a31.89,31.89,0,0,1-4-3.93l-.85-1c-.27-.34-.53-.66-.8-1a6.09,6.09,0,0,0-1.7-1.6,2.49,2.49,0,0,0-1.89-.34,3.92,3.92,0,0,0-1.93,1.21,15,15,0,0,0-2.85,4.58Z"/><path class="cls-4" d="M322.15,25.84a17.11,17.11,0,0,1,3.05-4,9.15,9.15,0,0,1,2.22-1.58,4.69,4.69,0,0,1,3.09-.38,5.73,5.73,0,0,1,2.77,1.69A6.05,6.05,0,0,1,334.65,24a9.24,9.24,0,0,1,.35,2.65,8.62,8.62,0,0,1-.4,2.63l-.3,0a34.35,34.35,0,0,1-2.44-4.22l-.94-1.8a2.58,2.58,0,0,0-1.09-1.2c-.89-.46-2.42,0-3.71.84a19.68,19.68,0,0,0-3.72,3Z"/><path class="cls-5" d="M376.78,32.27a138.51,138.51,0,0,1,9.13-16.45c.88-1.31,1.79-2.62,2.81-3.87a16.16,16.16,0,0,1,1.73-1.79,5,5,0,0,1,2.63-1.27,2.25,2.25,0,0,1,1.83.77,3.32,3.32,0,0,1,.68,1.41,9.32,9.32,0,0,1,.2,2.54,21.2,21.2,0,0,1-.82,4.72l-.2,0c-.11-1.58-.21-3.14-.39-4.64a9.63,9.63,0,0,0-.47-2.08,1.78,1.78,0,0,0-.39-.65c-.14-.1-.13-.08-.27-.06a4.13,4.13,0,0,0-1.46.88,17.3,17.3,0,0,0-1.6,1.51,38.66,38.66,0,0,0-3,3.48c-1.87,2.46-3.62,5.05-5.3,7.67s-3.37,5.26-5,7.95Z"/></g></g></svg>