<svg xmlns="http://www.w3.org/2000/svg" xmlns:xlink="http://www.w3.org/1999/xlink" viewBox="0 0 445.57 166.15"><defs><style>.cls-1{stroke:#f2a007;stroke-width:11px;}.cls-1,.cls-2{stroke-miterlimit:10;}.cls-2{stroke:#f2cb07;stroke-width:6px;}.cls-3{fill:url(#Degradado_sin_nombre_9);}.cls-4{fill:url(#Degradado_sin_nombre_6);}.cls-5{fill:url(#Degradado_sin_nombre_6-2);}.cls-6{fill:url(#Degradado_sin_nombre_6-3);}.cls-7{fill:url(#Degradado_sin_nombre_7);}.cls-8{fill:url(#Degradado_sin_nombre_8);}.cls-9{fill:#fff;}</style><linearGradient id="Degradado_sin_nombre_9" x1="-6.81" y1="132.5" x2="485.27" y2="116.21" gradientUnits="userSpaceOnUse"><stop offset="0" stop-color="#754c24"/><stop offset="1"/></linearGradient><linearGradient id="Degradado_sin_nombre_6" x1="-9.03" y1="65.29" x2="483.04" y2="49" gradientUnits="userSpaceOnUse"><stop offset="0" stop-color="#603813"/><stop offset="1"/></linearGradient><linearGradient id="Degradado_sin_nombre_6-2" x1="-8.64" y1="77.12" x2="483.44" y2="60.83" xlink:href="#Degradado_sin_nombre_6"/><linearGradient id="Degradado_sin_nombre_6-3" x1="-8.57" y1="79.34" x2="483.51" y2="63.06" xlink:href="#Degradado_sin_nombre_6"/><linearGradient id="Degradado_sin_nombre_7" x1="-8.4" y1="84.45" x2="483.68" y2="68.16" gradientUnits="userSpaceOnUse"><stop offset="0" stop-color="#603813"/><stop offset="1"/></linearGradient><linearGradient id="Degradado_sin_nombre_8" x1="-8.29" y1="87.77" x2="483.79" y2="71.49" xlink:href="#Degradado_sin_nombre_7"/></defs><g id="Capa_2" data-name="Capa 2"><g id="Letras"><path class="cls-1" d="M401,113.69c-2.51,0-7.06,2.58-9,6.17-1.55,2.8-1.62,5-1.62,8.56,0,4.19.84,9.07,2.77,12.37a8.44,8.44,0,0,0,7.4,4.47c1.35,0,5.53.56,6.82-.44,5.3-3.64,8.32-7.11,8.32-12.7,0-4.19-2-10.1-4.16-13.64S403.68,113.69,401,113.69Z"/><path class="cls-1" d="M431.86,19.59c-1.84,1.52-3.13,2.95-4.57,4.22-5.23,4.6-10.93,10.09-15.19,17.88q-4.94,9.14-7.93,26.79-.19,1-3.77,29a17.6,17.6,0,0,0-.3,3.14c0,3.6,1.22,4.91,3.49,5.39,4.57,1,5,4.59,6.94,1.31,5.42-9.25,5.05-9.09,6.4-11.19,3.49-7.75,4.18-8.62,9.1-20.2q2.12-6.43,6.57-22.91c.77-2.49,1.52-5,2.23-7.48a53.49,53.49,0,0,0,1.64-8.83C439.31,18.2,444.74,7.4,431.86,19.59Z"/><path class="cls-1" d="M100.26,16.77c-8.68-4.81-13.72-4.52-18-5.22a19.68,19.68,0,0,0-4.94-.13c-.07,0-1.47-.12-3-.1-2.11,0-3.43.15-3.43.35Q49.61,19.16,42.75,22.44A104.84,104.84,0,0,0,16.06,40Q7.17,48,7.16,55.37a11.47,11.47,0,0,0,.19,2.1q.78,4.78,6.1,4.79a8.31,8.31,0,0,0,3.48-.75q.09,0,24-13.77Q55.61,39.5,65.68,37.26q13.14-2.84,18-2.84a26.67,26.67,0,0,1,9.09,1.5,33.66,33.66,0,0,1,5.9,2.39q3.28,2.25,2.8,7a15.25,15.25,0,0,1-3.58,7.49c-.45.55-.89,1.06-1.33,1.53C93.44,57.67,90.29,61,87.43,64.5c-4.09,5.06-7,7.62-10.63,9.69-2.41,1.38-31.55,28.2-11.12-11.33.64-1.7,1.28-3.39,1.93-5.09a18.3,18.3,0,0,0,1.06-5.39,7.69,7.69,0,0,0-1.21-4.27c-.8-1.24,2.61-1.61-2.65-1.87-1.42-.07-2.2,2.48-5.23,4.5a49.92,49.92,0,0,1-6.76,4c-4,2.21-4,2.21-6.25,3-2.57.9-3.24,7.42-3.46,9.25-.91,1.1-.07,4.53-.07,8q0,11.53-.19,14.67c-.11,1.63-.27,3.23-.49,4.78a57.82,57.82,0,0,1-4.12,14.13c-.86,2.07-2,4.75-3.32,8C32.47,122.38,13,156.3,13,159.89s11.64-6,18.49-11.33c2.28-1.77,6-4.79,7.71-5.62,1.51-.72,3.12-1.8,4.35-5.39q1.55-4.94,3-10,4.72-14.05,10.44-22.9A36.29,36.29,0,0,1,70.7,92.2q.78-.3,15.87-6.44,7.55-3,14.6-10.48a45.65,45.65,0,0,0,10.69-17.66,59.53,59.53,0,0,0,3-17.66C114.81,27.38,108.4,21.27,100.26,16.77Z"/><path class="cls-1" d="M176,47.8c-5.94-5.12-14.37-5.87-20.59-5.87a16,16,0,0,0-6,1.11q-12.54,4.7-22.7,21.42-9.46,15.48-11.14,30.82a30.31,30.31,0,0,0-.28,4.14q0,11.07,5.57,18.94a20.62,20.62,0,0,0,17.27,9.26c6.22.18,17.78-1.31,25-6.66,3.52-2.57,9.33-5.3,14.56-14.21,5.83-9.94,7.9-18.24,7.9-29.58,0-3.4.74-8.44,0-12C184.31,58.87,181.92,52.91,176,47.8ZM159.81,84.42a16.28,16.28,0,0,1-2.3,3.92c-5.58,6.27-15.61-2-10.71-8.82l.1-.14c3-4.14,4.17-6.79,7.89-9.46,2.23-1.37,5.31-.17,5.31-.17A5.62,5.62,0,0,1,162,73,22.19,22.19,0,0,1,159.81,84.42Z"/><path class="cls-1" d="M257.88,50.2c-5.95-5.12-14.37-5.87-20.59-5.87a16,16,0,0,0-6,1.11q-12.53,4.7-22.69,21.42-9.48,15.48-11.14,30.82a30.31,30.31,0,0,0-.28,4.14q0,11.07,5.57,18.94A20.61,20.61,0,0,0,220,130c6.22.18,17.79-1.31,25-6.66,3.52-2.57,9.33-5.3,14.56-14.21,5.83-9.94,7.9-18.24,7.9-29.58,0-3.4.74-8.44,0-12C266.21,61.27,263.82,55.31,257.88,50.2ZM241.71,86.82a16.28,16.28,0,0,1-2.3,3.92c-5.58,6.27-15.61-2-10.71-8.82l.1-.14c3-4.14,4.17-6.79,7.88-9.46,2.24-1.37,5.32-.17,5.32-.17a5.62,5.62,0,0,1,1.89,3.28A22.19,22.19,0,0,1,241.71,86.82Z"/><path class="cls-1" d="M354.27,39.84a10.89,10.89,0,0,0-5.51-1.64q-4.63,0-9.87,5.24-1.54,1.65-8.8,10.63c-3.48,4.48-5.7,7.92-8.2,10.25-2.37-5.06-1.62-2.89-3.69-8.91-.84-2.44-4.23-14-4.64-12.64-1.71,5.73,0,0-3.68,14.59-6.27,20.56-5,16.12-7,22.9q-2.43,7.63-4.84,15.27c-2,7.09-4.18,13-3,17.21,2,7.21,1.73,5.48,4.73,10.51,1.47,1.73,3,4.46,4.65,6,2.19,1.69,5.3,7,6.85,7s2-3.9,3.12-5.9c1.74-3.19,4.51-11.09,8.7-20.67A134.72,134.72,0,0,1,332.51,91q7.07-10.79,12.38-15.87c5-4.69,7.86-2.47,16,1.15.14-19.45,0-16.12,0-18.51Q360.85,43.74,354.27,39.84Z"/><path class="cls-2" d="M396.82,105.37c-2.52,0-7.07,2.58-9,6.18-1.55,2.79-1.62,5-1.62,8.55,0,4.19.84,9.07,2.77,12.37a8.44,8.44,0,0,0,7.4,4.47c1.35,0,5.53.56,6.82-.44,5.3-3.63,8.32-7.11,8.32-12.7,0-4.19-2-10.1-4.16-13.64S399.52,105.37,396.82,105.37Z"/><path class="cls-2" d="M427.7,11.27c-1.83,1.52-3.13,3-4.57,4.22-5.23,4.6-10.93,10.09-15.19,17.88Q403,42.51,400,60.16q-.19,1.05-3.77,29a17.55,17.55,0,0,0-.29,3.14c0,3.6,1.21,4.91,3.48,5.39,4.57,1,5,4.59,6.94,1.31,5.42-9.25,5.05-9.09,6.4-11.19,3.49-7.75,4.18-8.62,9.1-20.2q2.11-6.44,6.57-22.91,1.17-3.74,2.23-7.48a53.49,53.49,0,0,0,1.64-8.83C435.15,9.88,440.58-.92,427.7,11.27Z"/><path class="cls-2" d="M96.1,8.45c-8.68-4.8-13.72-4.51-18-5.22a19.68,19.68,0,0,0-4.94-.13c-.07,0-1.47-.12-3-.1-2.11,0-3.43.15-3.43.35Q45.46,10.84,38.59,14.12A104.84,104.84,0,0,0,11.9,31.64Q3,39.73,3,47.06a11.36,11.36,0,0,0,.19,2.09q.78,4.79,6.1,4.79a8.31,8.31,0,0,0,3.48-.75q.09,0,24-13.77Q51.44,31.2,61.52,28.94q13.14-2.84,18-2.84a26.63,26.63,0,0,1,9.09,1.5A33.66,33.66,0,0,1,94.5,30c2.19,1.5,3.12,3.84,2.8,7a15.26,15.26,0,0,1-3.58,7.48c-.45.55-.89,1.06-1.33,1.53-3.11,3.31-6.26,6.61-9.12,10.14-4.09,5.06-7,7.62-10.63,9.69-2.4,1.38-31.55,28.2-11.12-11.33.64-1.7,1.29-3.39,1.93-5.09a18.3,18.3,0,0,0,1.06-5.39,7.69,7.69,0,0,0-1.21-4.27c-.8-1.24,2.61-1.61-2.65-1.87-1.42-.06-2.2,2.48-5.23,4.5a49.92,49.92,0,0,1-6.76,4c-4,2.21-4,2.21-6.25,3-2.57.9-3.24,7.42-3.46,9.25-.9,1.1-.07,4.53-.07,8q0,11.53-.19,14.67c-.11,1.63-.27,3.23-.49,4.78a57.82,57.82,0,0,1-4.12,14.13c-.86,2.07-2,4.75-3.32,8C28.31,114.07,8.82,148,8.82,151.57s11.64-6,18.5-11.33c2.27-1.77,6-4.79,7.7-5.62,1.51-.72,3.12-1.8,4.35-5.39q1.55-4.93,3-10,4.73-14.06,10.44-22.9A36.24,36.24,0,0,1,66.55,83.88q.77-.3,15.86-6.44Q90,74.46,97,67A45.65,45.65,0,0,0,107.7,49.3a59.48,59.48,0,0,0,3-17.66C110.65,19.06,104.24,13,96.1,8.45Z"/><path class="cls-2" d="M171.82,39.48c-5.94-5.12-14.37-5.87-20.59-5.87a16,16,0,0,0-6,1.11q-12.54,4.7-22.7,21.42Q113.09,71.62,111.41,87a30.35,30.35,0,0,0-.28,4.15q0,11.06,5.57,18.93A20.59,20.59,0,0,0,134,119.3c6.22.18,17.78-1.31,25-6.65,3.52-2.58,9.33-5.31,14.56-14.22,5.83-9.94,7.9-18.24,7.9-29.58,0-3.4.74-8.44,0-12C180.15,50.55,177.76,44.59,171.82,39.48ZM155.65,76.11a16.4,16.4,0,0,1-2.3,3.91c-5.58,6.27-15.61-2-10.71-8.82l.1-.14c3-4.14,4.17-6.79,7.89-9.46,2.23-1.37,5.31-.17,5.31-.17a5.57,5.57,0,0,1,1.89,3.28A22.25,22.25,0,0,1,155.65,76.11Z"/><path class="cls-2" d="M253.72,41.88C247.77,36.76,239.35,36,233.13,36a16,16,0,0,0-6,1.11q-12.52,4.7-22.69,21.42Q195,74,193.31,89.36a30.35,30.35,0,0,0-.28,4.15q0,11.05,5.57,18.93a20.59,20.59,0,0,0,17.26,9.26c6.22.18,17.79-1.31,25-6.65,3.52-2.58,9.33-5.31,14.56-14.22,5.83-9.94,7.9-18.24,7.9-29.58,0-3.4.74-8.44,0-12C262.05,53,259.66,47,253.72,41.88ZM237.55,78.51a16.4,16.4,0,0,1-2.3,3.91c-5.58,6.27-15.61-2-10.71-8.82l.1-.14c3-4.14,4.17-6.79,7.88-9.46,2.24-1.37,5.32-.17,5.32-.17a5.62,5.62,0,0,1,1.89,3.28A22.25,22.25,0,0,1,237.55,78.51Z"/><path class="cls-2" d="M350.11,31.53a10.81,10.81,0,0,0-5.51-1.65q-4.64,0-9.87,5.24-1.55,1.65-8.8,10.63c-3.48,4.48-5.7,7.92-8.2,10.25-2.37-5.06-1.62-2.89-3.69-8.91-.84-2.44-4.23-14-4.64-12.64-1.71,5.73,0,0-3.68,14.59-6.27,20.56-5,16.12-7,22.9q-2.43,7.64-4.84,15.27c-2,7.09-4.18,13-3,17.21,2,7.21,1.73,5.48,4.73,10.51,1.47,1.73,3,4.46,4.65,6,2.19,1.69,5.3,7,6.85,7s2-3.9,3.12-5.9c1.74-3.19,4.51-11.09,8.7-20.67a134.72,134.72,0,0,1,9.38-18.56q7.06-10.78,12.38-15.87c5-4.69,7.86-2.47,16,1.15.14-19.45,0-16.12,0-18.51Q356.69,35.42,350.11,31.53Z"/><path class="cls-3" d="M394.74,103.29c-2.52,0-7.07,2.58-9,6.18-1.55,2.79-1.62,5-1.62,8.55,0,4.19.84,9.08,2.77,12.37a8.44,8.44,0,0,0,7.4,4.47c1.35,0,5.53.56,6.82-.44,5.3-3.63,8.32-7.11,8.32-12.7,0-4.19-2-10.1-4.16-13.64S397.44,103.29,394.74,103.29Z"/><path class="cls-4" d="M425.62,9.19c-1.83,1.52-3.12,3-4.57,4.22-5.23,4.6-10.93,10.09-15.19,17.88q-4.94,9.14-7.93,26.79-.19,1.05-3.77,29a17.58,17.58,0,0,0-.29,3.15c0,3.59,1.21,4.9,3.48,5.38,4.57,1,5,4.6,6.94,1.31,5.42-9.25,5-9.09,6.4-11.19,3.49-7.75,4.18-8.61,9.1-20.2q2.11-6.43,6.57-22.9c.78-2.5,1.52-5,2.23-7.49a53.49,53.49,0,0,0,1.64-8.83C433.07,7.8,438.5-3,425.62,9.19Z"/><path class="cls-5" d="M94,6.37C85.34,1.57,80.3,1.86,76,1.15A19.66,19.66,0,0,0,71,1c-.07,0-1.47-.12-3-.1-2.11,0-3.43.15-3.43.35Q43.38,8.76,36.51,12A104.84,104.84,0,0,0,9.82,29.56Q.93,37.65.92,45a11.36,11.36,0,0,0,.19,2.09c.52,3.2,2.55,4.79,6.1,4.79a8.31,8.31,0,0,0,3.48-.75q.09,0,24-13.77,14.68-8.22,24.76-10.48Q72.58,24,77.43,24a26.63,26.63,0,0,1,9.09,1.5,33.66,33.66,0,0,1,5.9,2.39c2.19,1.5,3.12,3.84,2.8,7a15.26,15.26,0,0,1-3.58,7.48c-.45.55-.89,1.06-1.33,1.53-3.11,3.31-6.26,6.61-9.12,10.14-4.09,5.06-7,7.62-10.63,9.69C68.16,65.17,39,92,59.44,52.46c.64-1.7,1.29-3.39,1.93-5.09A18.3,18.3,0,0,0,62.43,42a7.63,7.63,0,0,0-1.21-4.26c-.8-1.25,2.61-1.62-2.65-1.87-1.42-.07-2.2,2.47-5.23,4.49a51.33,51.33,0,0,1-6.76,4c-4,2.2-4,2.2-6.24,3-2.58.9-3.25,7.42-3.47,9.25-.9,1.1-.07,4.53-.07,8q0,11.53-.19,14.67c-.11,1.63-.27,3.23-.49,4.78A57.38,57.38,0,0,1,32,98.16q-1.28,3.11-3.32,8C26.23,112,6.74,145.9,6.74,149.49s11.64-6,18.5-11.33c2.27-1.77,6-4.79,7.7-5.62,1.51-.72,3.12-1.79,4.35-5.39q1.55-4.94,3-10Q45,103.07,50.73,94.22A36.24,36.24,0,0,1,64.47,81.8q.77-.3,15.86-6.44,7.55-3,14.6-10.48a45.65,45.65,0,0,0,10.69-17.66,59.16,59.16,0,0,0,2.95-17.66C108.57,17,102.16,10.87,94,6.37Z"/><path class="cls-6" d="M169.74,37.4c-5.94-5.12-14.37-5.87-20.59-5.87a16,16,0,0,0-6,1.11q-12.54,4.7-22.7,21.42Q111,69.54,109.33,84.88a30.35,30.35,0,0,0-.28,4.15q0,11.06,5.57,18.93a20.59,20.59,0,0,0,17.27,9.26c6.22.18,17.78-1.31,25-6.65,3.53-2.58,9.33-5.31,14.56-14.22,5.83-9.94,7.9-18.24,7.9-29.58,0-3.4.74-8.44,0-12C178.07,48.47,175.68,42.51,169.74,37.4ZM153.57,74a16.4,16.4,0,0,1-2.3,3.91c-5.58,6.27-15.61-2-10.71-8.82l.1-.14c3-4.14,4.17-6.79,7.89-9.46,2.23-1.37,5.31-.17,5.31-.17a5.57,5.57,0,0,1,1.89,3.28A22.25,22.25,0,0,1,153.57,74Z"/><path class="cls-7" d="M251.64,39.8c-5.94-5.12-14.37-5.87-20.59-5.87a16,16,0,0,0-6,1.11q-12.52,4.7-22.69,21.42-9.48,15.48-11.14,30.82a30.35,30.35,0,0,0-.28,4.15q0,11.05,5.57,18.93a20.59,20.59,0,0,0,17.27,9.26c6.21.18,17.78-1.31,25-6.65,3.52-2.58,9.33-5.31,14.56-14.22,5.83-9.94,7.9-18.24,7.9-29.58,0-3.4.74-8.44,0-12C260,50.87,257.58,44.91,251.64,39.8ZM235.47,76.43a16.4,16.4,0,0,1-2.3,3.91c-5.58,6.27-15.61-2-10.71-8.82l.1-.14c3-4.14,4.17-6.79,7.88-9.46,2.24-1.37,5.32-.17,5.32-.17A5.62,5.62,0,0,1,237.65,65,22.25,22.25,0,0,1,235.47,76.43Z"/><path class="cls-8" d="M348,29.45a10.81,10.81,0,0,0-5.51-1.65q-4.63,0-9.87,5.24-1.54,1.65-8.8,10.63c-3.48,4.48-5.7,7.92-8.2,10.25C313.28,48.86,314,51,312,45c-.84-2.44-4.23-14-4.63-12.64-1.72,5.73,0,0-3.69,14.59-6.27,20.56-5,16.12-7,22.9q-2.43,7.64-4.84,15.27c-2,7.09-4.18,13-3,17.21,2,7.21,1.73,5.48,4.73,10.51,1.47,1.73,3,4.46,4.65,6,2.19,1.69,5.3,7,6.85,7s2-3.9,3.12-5.9c1.74-3.19,4.51-11.09,8.7-20.67a134.72,134.72,0,0,1,9.38-18.56q7.07-10.78,12.38-15.87c5-4.69,7.86-2.47,16,1.15.14-19.45,0-16.12,0-18.51Q354.61,33.34,348,29.45Z"/><path class="cls-9" d="M36.37,18.92A119.54,119.54,0,0,1,52.6,11.17,90.36,90.36,0,0,1,70,6.3a55.57,55.57,0,0,1,9.14-.83A30,30,0,0,1,88.4,6.88c.74.28,1.49.51,2.21.84l2.12,1,2,1.28a21.66,21.66,0,0,1,1.84,1.48A21,21,0,0,1,101.89,19l-.26.15a30.09,30.09,0,0,0-6.37-6,24.29,24.29,0,0,0-7.72-3.42A47.63,47.63,0,0,0,70.37,8.67,89.29,89.29,0,0,0,53.1,12.58a129.83,129.83,0,0,0-16.58,6.61Z"/><path class="cls-9" d="M129.24,46.28A68.59,68.59,0,0,1,141,40.1a44.27,44.27,0,0,1,13-3.2,24.14,24.14,0,0,1,7,.51,14.51,14.51,0,0,1,6.35,3.32,15.59,15.59,0,0,1,4,5.84,19.71,19.71,0,0,1,1.39,6.64l-.3.06c-1.78-4.05-3.82-7.85-7-10.26a18.63,18.63,0,0,0-11.3-3.71,42.45,42.45,0,0,0-12.61,2.21,73.43,73.43,0,0,0-12.07,5Z"/><path class="cls-9" d="M210.39,46.7a68,68,0,0,1,11.73-6.18,44.19,44.19,0,0,1,13-3.2,24.1,24.1,0,0,1,7,.51,14.35,14.35,0,0,1,6.35,3.32,15.48,15.48,0,0,1,4,5.84,19.48,19.48,0,0,1,1.39,6.64l-.29.06c-1.79-4-3.82-7.85-7-10.26a18.62,18.62,0,0,0-11.29-3.71,42.46,42.46,0,0,0-12.62,2.21,74.16,74.16,0,0,0-12.07,5Z"/><path class="cls-9" d="M325.81,45.65a44.83,44.83,0,0,1,6.94-7.71,24.49,24.49,0,0,1,4.38-3,11.36,11.36,0,0,1,5.44-1.44,8.32,8.32,0,0,1,5.52,2.31,12.47,12.47,0,0,1,3,4.82c.25.88.53,1.75.71,2.62s.34,1.76.38,2.64.13,1.76.11,2.64-.06,1.76-.17,2.63l-.3,0c-1.24-3.29-2.15-6.54-3.51-9.44A19.59,19.59,0,0,0,346,37.86a5.25,5.25,0,0,0-3.53-2,9.13,9.13,0,0,0-4.47.81,21.88,21.88,0,0,0-4.29,2.44,48.34,48.34,0,0,0-7.62,6.71Z"/><path class="cls-9" d="M407.71,32.74c1.48-2.17,3.09-4.24,4.73-6.31a67.14,67.14,0,0,1,5.33-5.89,35.19,35.19,0,0,1,3.05-2.75,9.86,9.86,0,0,1,1.87-1.16,5.13,5.13,0,0,1,2.64-.54,3.17,3.17,0,0,1,1.68.72,3.06,3.06,0,0,1,.9,1.4,5.33,5.33,0,0,1,.14,2.41,11.4,11.4,0,0,1-1.36,3.93l-.29-.06c-.17-1.35-.25-2.67-.46-3.84a4,4,0,0,0-.48-1.43c-.1-.16-.18-.22-.21-.19s0,0-.12,0a4.19,4.19,0,0,0-1.14.39c-.48.21-1,.49-1.52.78a24.17,24.17,0,0,0-3.11,2.09c-2,1.59-3.93,3.33-5.82,5.11s-3.75,3.62-5.6,5.48Z"/></g></g></svg>