<svg xmlns="http://www.w3.org/2000/svg" viewBox="0 0 605.83 161.73"><defs><style>.cls-1,.cls-2,.cls-3{fill:#666;}.cls-1{stroke:#047faa;stroke-width:12px;}.cls-1,.cls-2{stroke-miterlimit:10;}.cls-2{stroke:#29abe2;stroke-width:7px;}.cls-4{fill:#fff;}</style></defs><g id="Capa_2" data-name="Capa 2"><g id="Letras"><path class="cls-1" d="M93.13,113.37c0-1.8-1.58-5.37-3.26-9.14C89,102.3,88.2,100.47,87.66,99a62.91,62.91,0,0,1-1.8-6.19c-.26-1-.51-2-.79-3a74.59,74.59,0,0,0-4.43-11.11,86.51,86.51,0,0,1-4.25-10.05C83.15,61.9,87.07,54.24,88,45.84a68.29,68.29,0,0,0,.39-6.94c0-8.18-2.23-13.72-6.64-16.46-14.21-8.67-29.63-8.23-44.58.69a75.68,75.68,0,0,0-11.92,9l-.46.41c-.57.52-.63.57-.77.82a7.6,7.6,0,0,1-.72,1c-1.57,1.94-6.84,9.6-7.07,9.93l-.08.16c-3.5,8.77-5.58,17.85-7.3,26.36,0,.12-.06.24-.08.36l1.57.3c0-.11.05-.22.07-.32a10.58,10.58,0,0,1,2.12-3.81A98.44,98.44,0,0,1,28.22,51.05a40.84,40.84,0,0,1,3.84-2.78,11.44,11.44,0,0,1,4.53,6c1.76,4.91,1.48,9.81,1.18,15-.06.88-.11,1.77-.15,2.66a70.44,70.44,0,0,1-.71,9c-.55,2-.81,3.31-1.09,4.67-.34,1.69-.73,3.6-1.79,7.42-.55,2-1.15,3.74-1.69,5.31-1,2.84-1.74,5.08-1.77,7.12,0,3,.44,5,1.47,6.33a9.43,9.43,0,0,0,1.1,1.08c.5.45,1.16,1,2,1.83,0,0,3.35,3.27,4.35,3.27,1.45,0,1.47-1.78,1.49-3.66a13.43,13.43,0,0,1,.39-3.78,25,25,0,0,0,.63-2.72c.29-1.41.64-3.18,1.21-5.33a37.58,37.58,0,0,1,2.3-6.77C50.68,84.94,55,79.94,59,79.94a6.56,6.56,0,0,1,6,3.59c.11.24.55,1,2.75,4.81,2.55,4.46,4.29,10.25,5.19,17.2.93,7.31,4.31,9,8.23,11.06.53.27,1.08.55,1.64.86,4.5,2.44,6.89,3.26,8.33,3.26a2.42,2.42,0,0,0,1.44-.4c1.25-.84,1-2.62.81-4.51A22.46,22.46,0,0,1,93.13,113.37ZM72.35,43.66l-.67,4.51s-1.22,4.06-4,5.7A17.34,17.34,0,0,1,59,56.51c-2.79,0-3.6-.46-3.64-2.06a26,26,0,0,1,1-6.72c0-.08,1.92-8,2.3-11.77q.43-.14.87-.24A13.92,13.92,0,0,0,61,35.24a6.09,6.09,0,0,1,3-.46l6.16.46c2.38.11,2.31,3.2,2.31,3.33l-.06,2.12Z"/><path class="cls-1" d="M231.43,20.14C232,8.64,231,7.23,230.08,6.8a1.37,1.37,0,0,0-1.57.38c-3.83,3.65-11.17,36.51-13.32,46.5-3.15,14.54-8.75,42.92-7.43,46.2h0c1.5,3.62,3.06,5.39,4.76,5.39a1.83,1.83,0,0,0,.33,0c6.51-.86,10.72-29.7,15.17-64.46,1.11-8.67,2.17-16.92,2.82-19.46l.52.44Z"/><path class="cls-1" d="M300.06,53.89h0a11,11,0,0,0-2.18-.25c-3,0-5.31,2.33-6.95,6.93a65.13,65.13,0,0,1-3.87,8.35c-.74,1.38-1.56,3.4-2.36,5.35-.46,1.13-.92,2.27-1.37,3.29,0-.1-.07-.2-.1-.3a16.37,16.37,0,0,1-.82-3,12.52,12.52,0,0,1,1.23-4.08,25.93,25.93,0,0,0,1.51-4.33q1.83-8,2-8.95a19.15,19.15,0,0,1,.67-1.89,4.56,4.56,0,0,0,.5-2.51c-.45-2.57-2.65-4.18-6.53-4.76-4.94-.76-9,2.92-12.09,10.9a65,65,0,0,0-4,23.61,57.14,57.14,0,0,0,.46,7.53c.24,1.81.36,3.58.49,5.3.35,5,.65,9.24,3.48,11.09,2,1.3,4.91,1.21,9.16-.3a9.8,9.8,0,0,1,2.05-.4,14.3,14.3,0,0,0,1.89-.31c0,.43,0,.87,0,1.33a47.62,47.62,0,0,1-4,19.23c-2.72,6.28-5.87,9.46-9.38,9.46-2.28,0-4.41-1.75-6.4-3.55l-.38-.35c-2.93-2.65-5.05-4.56-5.84-8.26a11.34,11.34,0,0,0-.61-1.84c-.14-.33-.27-.66-.38-1a16.48,16.48,0,0,1-.22-6.67,4.48,4.48,0,0,1,.92-2.83c1.07-1,3.05-.41,4.14,0l1.11.45V110A3.58,3.58,0,0,0,259,106.7a8.88,8.88,0,0,0-4.15.77c-2.64,1-5.19,2.2-5.92,4.74a8.35,8.35,0,0,0,.15,4.06c.6,2.83,1,5.63,1.37,8.34,1,7.28,2,14.14,6.62,20.94s9.84,10.18,15.53,10.18c4.48,0,8.35-2.35,11.5-7,3.69-5.47,6.89-13.71,9.51-24.5,1.31-5.51,3.09-15,5.3-28.3a99.43,99.43,0,0,1,3.5-14.29c.6-1.88,2.17-6.37,4.68-13.34a12,12,0,0,0,.77-4.16,10.21,10.21,0,0,0-2.6-6.92A9.32,9.32,0,0,0,300.06,53.89Z"/><path class="cls-1" d="M384.16,48.27l2.93-9.38a45.55,45.55,0,0,0,2.25-12.35c0-3.07-.67-5.46-2-7.13a3.84,3.84,0,0,0-2.91-1.67c-2.05,0-5.34,1.91-10.23,18.41a124.78,124.78,0,0,1-5.7,15c-3.95,8.94-6,13.59-6,13.73-2.26,5.53-3.74,9.48-4.52,12.07a43.91,43.91,0,0,0-2.26,12.93,24.91,24.91,0,0,0,3.3,12.74c2.92,5.2,6.84,7.83,11.66,7.83,3.65,0,7.44-1.51,11.26-4.51a36.94,36.94,0,0,0,9-10.52c3-5.27,4.54-11.91,4.54-19.72a46.08,46.08,0,0,0-3.05-17.21C390.34,53.31,387.57,49.87,384.16,48.27Zm1,20.23A25.47,25.47,0,0,1,383,77.23c-3.66,9-8.51,14.64-14.42,16.73q0-.49,0-1c0-5.61,2.76-12.74,8.22-21.18,1.68-2.62,2.65-4.1,3-4.5,1.16-1.45,2.23-2.22,3.1-2.22a2.24,2.24,0,0,1,1.56.75A3.68,3.68,0,0,1,385.2,68.5Z"/><path class="cls-1" d="M194,94.76a2.82,2.82,0,0,1-3.75-.09c-.5-.85-3.69-6.51-3.69-11.43,0-3.41,1.9-9.18,5.34-16.26,0-.07.07-.15.11-.23a1.6,1.6,0,0,0,.19-.29l.45-.87c1.33-2.55,3-5.72,3.12-8.8.16-7-1.39-12.18-4.59-15.45-2.76-2.83-6.79-4.26-12-4.26a35.86,35.86,0,0,0-14.88,3.61,51.7,51.7,0,0,0-20.2,16,43.48,43.48,0,0,0-8.84,26.46c0,6,1,11,3.13,15.07,2.38,4.64,5.65,7,9.72,7a14.41,14.41,0,0,0,7.64-2.55,19.78,19.78,0,0,1,5.78-2c.84-.2,1.67-.39,2.45-.62a20.53,20.53,0,0,1,2.28-.57,21.55,21.55,0,0,1,8.39.56,12.93,12.93,0,0,1,3.46,2.1c.44.33.88.66,1.29,1l.41.34.54.45c2.44,1.68,4.69,1.4,7.29,1.07l.55-.06,1.41-.6,1.41-1.12,2.55-3L195.44,98l.79-1.16c2.67-3.32,2.54-3.85,2-4.35S196.85,92.26,194,94.76ZM174,74.54c-1.13,6.5-2.37,9.68-4.28,11-1.23.83-2.94,1-5.51.42a18.24,18.24,0,0,1-1.89-3c-2-5.35,1.1-9.06,3.13-10.8,3.93-3.37,6.4-4.87,7.37-4.42C174,68.24,174,72.59,174,74.54Z"/><path class="cls-1" d="M111.78,90.42h0a5.86,5.86,0,0,1-3.28-.93A3.35,3.35,0,0,1,107,86.16a4.05,4.05,0,0,1,2.69-3.34l3.42-1.12A23,23,0,0,0,121.47,76a22.19,22.19,0,0,0,4.91-11.65,68.54,68.54,0,0,0,.93-8.84,15.09,15.09,0,0,0-3.67-10.47,13.25,13.25,0,0,0-10-4.73c-5.81,0-10.78,3.29-14.77,9.77A52.59,52.59,0,0,0,91.39,78c0,10,2.54,18.44,7.56,25,2.78,3.6,6.86,5.43,12.12,5.43a20,20,0,0,0,13.34-4.87c3.83-3.2,6.19-7.62,6.33-11.83,0-.93,0-1.83,0-2.73a27.23,27.23,0,0,1,0-3.38,19.18,19.18,0,0,0-.05-2.44c-.08-1.49-.2-3.75.2-4.44h0L129.48,78C126,84,118.94,90.42,111.78,90.42Zm-3.87-29.84a5.26,5.26,0,0,1,3.37-1q.36,0,.69,0c.56.15,1.94,2.4,2.1,2.91a6.55,6.55,0,0,0,.16,1.38,2.33,2.33,0,0,1-.37,2.12c-2,3-4.38,4.53-6.91,4.55a5.33,5.33,0,0,1-2.49-2.4,3.18,3.18,0,0,1,.07-2.85v0A10.46,10.46,0,0,1,107.91,60.58Z"/><path class="cls-1" d="M254.33,21.34l.51.44.08-1.64c.52-11.5-.43-12.91-1.36-13.34a1.37,1.37,0,0,0-1.57.38c-3.82,3.65-11.16,36.51-13.32,46.5-3.14,14.54-8.74,42.92-7.43,46.21,1.5,3.62,3.06,5.39,4.76,5.39a1.94,1.94,0,0,0,.34,0c6.5-.86,10.71-29.7,15.16-64.46C252.61,32.13,253.67,23.88,254.33,21.34Z"/><path class="cls-1" d="M462.17,100.56a2.82,2.82,0,0,1-3.75-.09c-.49-.85-3.69-6.51-3.69-11.43,0-3.41,1.9-9.18,5.34-16.25l.11-.24a1.6,1.6,0,0,0,.19-.29l.45-.87c1.33-2.55,3-5.71,3.12-8.8.16-7-1.39-12.18-4.59-15.45-2.76-2.83-6.79-4.26-12-4.26a35.87,35.87,0,0,0-14.89,3.61,51.6,51.6,0,0,0-20.19,16A43.5,43.5,0,0,0,403.46,89c0,6,1.05,11,3.13,15.06,2.38,4.64,5.65,7,9.73,7a14.4,14.4,0,0,0,7.63-2.55,19.59,19.59,0,0,1,5.78-2c.84-.21,1.67-.4,2.46-.63a19.84,19.84,0,0,1,2.27-.57,16.05,16.05,0,0,1,2.58-.17,16.75,16.75,0,0,1,5.81.73,13.19,13.19,0,0,1,3.46,2.1c.44.33.88.67,1.3.95l.44.38.5.41c2.43,1.68,4.69,1.4,7.29,1.07l.56-.06,1.4-.6,1.41-1.12,2.56-2.95,1.8-2.23.8-1.16c2.66-3.32,2.53-3.85,2-4.35S465,98.06,462.17,100.56Zm-20-20.22c-1.13,6.5-2.37,9.68-4.28,11-1.23.83-2.94,1-5.51.42a18.24,18.24,0,0,1-1.89-3c-2-5.35,1.1-9.06,3.13-10.8,3.94-3.37,6.41-4.86,7.37-4.41C442.12,74,442.12,78.39,442.13,80.34Z"/><path class="cls-1" d="M552.57,26h0a17.36,17.36,0,0,0-5.43-.95c-5,0-9,2.89-12,8.59a70.75,70.75,0,0,1-7.23,10.55c-1.52,1.94-2.86,3.7-4,5.21a5.65,5.65,0,0,1-7.84,1.27,13.38,13.38,0,0,0-7.65-2A30,30,0,0,0,488.78,56C473,69.28,465.06,81.18,465.06,91.38c0,6.15,3.09,11.46,9.17,15.76a17.24,17.24,0,0,0,10,3.26c4.26,0,9.11-1.66,14.45-5,1.48-1,3.77-2.67,6.81-5a5.67,5.67,0,0,1,4.32-1.14,5.6,5.6,0,0,1,3.79,2.29c3.18,4.4,3.43,4.66,3.53,4.75a15.91,15.91,0,0,0,11.42,5.49c.71,0,1.41,0,2.08,0,8,0,13.5-1.47,16.68-4.48a9.9,9.9,0,0,0,3.06-7.2,7.08,7.08,0,0,0-1.84-5.31A6.48,6.48,0,0,0,543.13,93c-1.33.08-3,.9-5.11,2.53-1.81,1.39-3.32,2.1-4.49,2.1a6.54,6.54,0,0,1-5.18-2.4,8.11,8.11,0,0,1-2.13-5.56,11.53,11.53,0,0,1,.37-2.9c1.66-5.6,5.2-12.33,10.54-20C548.34,50.83,550,48.41,550.23,48q2.43-3.61,4.78-7.27c2.06-3.39,3.06-6.09,3.06-8.28C558.07,29.41,556.22,27.23,552.57,26ZM501.29,76.33c-.06.28-.1.54-.14.79-.16,1-.24,1.48-.89,2a11,11,0,0,0-.95.74l-4.12,3.29a2.73,2.73,0,0,1-1.06.4l-.58.16a13.66,13.66,0,0,1-5.48.91H488a7.24,7.24,0,0,1,1.19-1.69l.29-.35c.47-.4,2.47-2.14,2.79-2.51a20.08,20.08,0,0,1,4.45-3.48l.81-.43a6.88,6.88,0,0,1,2.2-.89l1.36,0Z"/><path class="cls-1" d="M570.55,87.24c-2.17,0-5.74,2.11-7.25,4.92-1.22,2.19-1.28,3.94-1.28,6.62a19.52,19.52,0,0,0,2.13,9.41,7,7,0,0,0,6.08,3.66l.84,0c.66,0,1.29.07,1.88.07a4.64,4.64,0,0,0,2.7-.57c3.85-2.64,6.41-5.34,6.41-9.92a23,23,0,0,0-3.15-10.35C577.19,88.29,572.87,87.24,570.55,87.24Z"/><path class="cls-1" d="M599,15.08c-1.15-.64-2.78.33-6.46,3.8-.79.66-1.44,1.28-2.06,1.89-.43.41-.83.81-1.26,1.18-4,3.53-8.14,7.57-11.25,13.25-2.43,4.5-4.4,11.15-5.86,19.75,0,.2-.15.79-2.75,21.17a13.8,13.8,0,0,0-.22,2.43c0,2.79,1,4.24,3.17,4.71a6.34,6.34,0,0,1,2.57,1.24,2.77,2.77,0,0,0,1.56.71,1.53,1.53,0,0,0,.3,0,2.46,2.46,0,0,0,1.48-1.35c2.26-3.86,3.15-5.48,3.67-6.44.38-.7.57-1,1-1.78.88-2,1.52-3.33,2.13-4.63,1.11-2.37,2.16-4.61,4.52-10.17,1-3.13,2.65-8.76,4.8-16.71.56-1.82,1.11-3.64,1.62-5.45A31.3,31.3,0,0,0,597,33.27c.06-.41.11-.8.17-1.17.48-3.17,1.06-6,1.57-8.44C599.85,18.47,600.39,15.87,599,15.08Z"/><path class="cls-2" d="M88.34,110.18c0-1.81-1.58-5.37-3.25-9.14-.86-1.93-1.68-3.76-2.22-5.24a63.11,63.11,0,0,1-1.8-6.2c-.26-1-.51-2-.79-3a73.94,73.94,0,0,0-4.42-11.11,82.39,82.39,0,0,1-4.25-10.06c6.76-6.72,10.67-14.38,11.63-22.78a68.64,68.64,0,0,0,.4-6.94C83.64,27.52,81.4,22,77,19.25c-14.21-8.67-29.62-8.24-44.58.69a75.68,75.68,0,0,0-11.92,9L20,29.3c-.57.51-.63.57-.77.81a5.65,5.65,0,0,1-.72,1C17,33,11.7,40.69,11.47,41l-.08.15C7.9,50,5.81,59,4.09,67.54c0,.12,0,.24-.07.36l1.57.3.06-.32a10.73,10.73,0,0,1,2.12-3.81A98.44,98.44,0,0,1,23.43,47.86a40.84,40.84,0,0,1,3.84-2.78,11.45,11.45,0,0,1,4.53,6c1.76,4.92,1.48,9.82,1.18,15l-.15,2.66a70.19,70.19,0,0,1-.71,9c-.55,2-.81,3.32-1.08,4.67-.35,1.7-.74,3.61-1.8,7.43-.54,2-1.15,3.74-1.69,5.31-1,2.84-1.74,5.08-1.76,7.12-.05,3,.43,5,1.46,6.33a9.71,9.71,0,0,0,1.11,1.08c.5.45,1.16,1,1.95,1.83,0,0,3.36,3.27,4.35,3.27,1.46,0,1.48-1.78,1.5-3.66a13.4,13.4,0,0,1,.38-3.78,22.8,22.8,0,0,0,.63-2.72c.29-1.41.64-3.18,1.21-5.33a37,37,0,0,1,2.31-6.78c5.2-10.72,9.49-15.72,13.5-15.72a7.39,7.39,0,0,1,2.66.52,7.47,7.47,0,0,1,3.29,3.07c.12.24.55,1,2.75,4.81,2.55,4.46,4.3,10.25,5.19,17.2.93,7.31,4.32,9.05,8.23,11.06l1.65.85c4.49,2.45,6.88,3.27,8.33,3.27a2.4,2.4,0,0,0,1.43-.4c1.25-.84,1-2.63.82-4.51A20.23,20.23,0,0,1,88.34,110.18ZM67.57,40.47,66.89,45s-1.22,4.06-4,5.7a17.31,17.31,0,0,1-8.67,2.64c-2.78,0-3.6-.47-3.64-2.06a25.85,25.85,0,0,1,1-6.72c0-.08,1.91-8,2.29-11.77.29-.09.58-.18.87-.24a13.18,13.18,0,0,0,1.46-.48,6.09,6.09,0,0,1,3-.46l6.16.45c2.39.12,2.32,3.21,2.31,3.34l-.06,2.11Z"/><path class="cls-2" d="M226.65,17c.52-11.5-.43-12.92-1.36-13.34a1.36,1.36,0,0,0-1.57.38C219.9,7.64,212.56,40.5,210.4,50.48,207.25,65,201.65,93.41,203,96.69h0c1.5,3.62,3.06,5.39,4.76,5.39l.34,0c6.5-.87,10.71-29.71,15.16-64.46,1.11-8.67,2.17-16.93,2.83-19.47l.51.45Z"/><path class="cls-2" d="M295.28,50.7h0a11.57,11.57,0,0,0-2.18-.24c-3,0-5.3,2.33-6.94,6.92a67.39,67.39,0,0,1-3.87,8.36c-.75,1.37-1.57,3.4-2.37,5.35-.45,1.12-.92,2.27-1.37,3.29,0-.1-.07-.2-.1-.3a17.22,17.22,0,0,1-.82-3A12.33,12.33,0,0,1,278.85,67a26.85,26.85,0,0,0,1.5-4.33q1.83-8,2-9a19.15,19.15,0,0,1,.67-1.89,4.51,4.51,0,0,0,.51-2.51c-.46-2.57-2.66-4.18-6.54-4.77-4.94-.75-9,2.92-12.09,10.91A65,65,0,0,0,261,79a57.07,57.07,0,0,0,.47,7.53c.23,1.81.36,3.58.48,5.3.35,5,.66,9.23,3.49,11.09,2,1.3,4.9,1.21,9.16-.3a9.58,9.58,0,0,1,2-.4,14.72,14.72,0,0,0,1.9-.31c0,.43,0,.87,0,1.32a47.8,47.8,0,0,1-4,19.24c-2.72,6.28-5.88,9.46-9.39,9.46-2.27,0-4.41-1.76-6.4-3.56l-.38-.34c-2.93-2.65-5.05-4.56-5.84-8.27a11.55,11.55,0,0,0-.61-1.83c-.13-.33-.27-.66-.38-1a16.49,16.49,0,0,1-.22-6.67,4.54,4.54,0,0,1,.92-2.83c1.07-1,3-.41,4.15,0l1.1.45v-1.2a3.6,3.6,0,0,0-3.26-3.25,8.92,8.92,0,0,0-4.16.77c-2.64,1-5.19,2.2-5.92,4.74a8.55,8.55,0,0,0,.15,4c.6,2.83,1,5.64,1.37,8.35,1,7.27,2,14.14,6.62,20.94s9.84,10.18,15.54,10.18c4.48,0,8.34-2.35,11.49-7,3.69-5.46,6.89-13.7,9.52-24.49,1.3-5.51,3.08-15,5.29-28.3a99.43,99.43,0,0,1,3.5-14.29c.6-1.88,2.18-6.37,4.69-13.34a12,12,0,0,0,.76-4.17,10.21,10.21,0,0,0-2.6-6.91A9.33,9.33,0,0,0,295.28,50.7Z"/><path class="cls-2" d="M379.38,45.08l2.92-9.38a45.55,45.55,0,0,0,2.25-12.35c0-3.07-.67-5.47-2-7.13a3.81,3.81,0,0,0-2.91-1.67c-2.05,0-5.33,1.91-10.23,18.41a122.4,122.4,0,0,1-5.7,15c-3.94,8.95-6,13.6-6,13.74-2.26,5.53-3.74,9.48-4.52,12.07a43.91,43.91,0,0,0-2.26,12.93,25,25,0,0,0,3.3,12.73c2.92,5.21,6.85,7.84,11.66,7.84,3.65,0,7.44-1.51,11.26-4.51a36.63,36.63,0,0,0,9-10.52c3-5.28,4.55-11.91,4.55-19.72a45.93,45.93,0,0,0-3.06-17.22C385.55,50.11,382.78,46.68,379.38,45.08Zm1,20.23A25.47,25.47,0,0,1,378.25,74c-3.66,9-8.5,14.64-14.42,16.73q0-.49,0-1c0-5.61,2.77-12.74,8.23-21.19,1.67-2.62,2.64-4.09,3-4.49,1.16-1.46,2.24-2.22,3.1-2.22a2.22,2.22,0,0,1,1.56.75A3.67,3.67,0,0,1,380.41,65.31Z"/><path class="cls-2" d="M189.25,91.57a2.82,2.82,0,0,1-3.75-.09c-.49-.85-3.69-6.51-3.69-11.43,0-3.41,1.9-9.19,5.34-16.26a1.63,1.63,0,0,0,.11-.23,2,2,0,0,0,.2-.3l.44-.86c1.33-2.55,3-5.72,3.12-8.8.16-7-1.38-12.18-4.59-15.45-2.76-2.83-6.79-4.27-12-4.27a35.89,35.89,0,0,0-14.89,3.62,51.6,51.6,0,0,0-20.19,16A43.49,43.49,0,0,0,130.54,80c0,6,1.05,11,3.13,15.07,2.38,4.64,5.65,7,9.73,7A14.46,14.46,0,0,0,151,99.47a19.72,19.72,0,0,1,5.77-2c.85-.2,1.67-.4,2.46-.62a18,18,0,0,1,2.27-.57,21.55,21.55,0,0,1,8.39.56,12.93,12.93,0,0,1,3.46,2.1c.44.33.88.66,1.29,1l.41.34.54.45c2.44,1.68,4.69,1.4,7.29,1.07l.56-.07,1.4-.59,1.41-1.12,2.56-3,1.81-2.23.79-1.16c2.66-3.32,2.54-3.86,2-4.35S192.06,89.06,189.25,91.57Zm-20-20.22c-1.13,6.5-2.37,9.68-4.28,11-1.23.83-2.93,1-5.51.42a18.24,18.24,0,0,1-1.89-3c-2-5.35,1.1-9.06,3.13-10.8,3.94-3.37,6.41-4.87,7.37-4.42C169.2,65.05,169.2,69.4,169.21,71.35Z"/><path class="cls-2" d="M107,87.22h0a5.85,5.85,0,0,1-3.28-.92A3.38,3.38,0,0,1,102.25,83a4.05,4.05,0,0,1,2.69-3.34l3.42-1.13a22.81,22.81,0,0,0,8.32-5.65,22.19,22.19,0,0,0,4.91-11.65,66.74,66.74,0,0,0,.93-8.84,15,15,0,0,0-3.67-10.47,13.2,13.2,0,0,0-10-4.73c-5.81,0-10.78,3.29-14.77,9.76a52.64,52.64,0,0,0-7.52,27.9c0,10,2.54,18.45,7.57,25,2.77,3.61,6.85,5.44,12.12,5.44a20,20,0,0,0,13.33-4.88c3.83-3.19,6.19-7.61,6.34-11.82,0-.93,0-1.83,0-2.73a29.32,29.32,0,0,1,0-3.38,21.58,21.58,0,0,0-.06-2.44c-.08-1.49-.2-3.76.2-4.44h0l-1.37-.81C121.19,80.78,114.16,87.23,107,87.22Zm-3.87-29.84a5.34,5.34,0,0,1,3.37-1.05q.38,0,.69,0c.56.15,1.94,2.41,2.1,2.92a7.28,7.28,0,0,0,.16,1.38,2.25,2.25,0,0,1-.37,2.11c-1.95,3-4.37,4.54-6.91,4.55a5.23,5.23,0,0,1-2.49-2.39,3.22,3.22,0,0,1,.07-2.85l0,0A10.46,10.46,0,0,1,103.12,57.38Z"/><path class="cls-2" d="M249.54,18.14l.52.45.07-1.64c.53-11.5-.42-12.92-1.35-13.34A1.37,1.37,0,0,0,247.2,4C243.38,7.64,236,40.5,233.88,50.48c-3.14,14.55-8.74,42.93-7.42,46.22,1.49,3.62,3,5.39,4.76,5.39l.33,0c6.5-.87,10.72-29.71,15.17-64.46C247.83,28.94,248.88,20.68,249.54,18.14Z"/><path class="cls-2" d="M457.38,97.37a2.82,2.82,0,0,1-3.75-.09c-.49-.85-3.69-6.51-3.69-11.43,0-3.41,1.9-9.18,5.34-16.25a1.33,1.33,0,0,0,.11-.24,1.43,1.43,0,0,0,.2-.3l.45-.86c1.32-2.55,3-5.72,3.11-8.8.16-7-1.38-12.18-4.58-15.45-2.77-2.83-6.79-4.27-12-4.27a35.89,35.89,0,0,0-14.89,3.62,51.6,51.6,0,0,0-20.19,16,43.49,43.49,0,0,0-8.85,26.46c0,6,1.05,11,3.13,15.07,2.38,4.64,5.66,7,9.73,7a14.46,14.46,0,0,0,7.64-2.55,19.72,19.72,0,0,1,5.77-2c.85-.2,1.67-.39,2.46-.62a19.84,19.84,0,0,1,2.27-.57,17.31,17.31,0,0,1,2.58-.18,17,17,0,0,1,5.81.74,12.93,12.93,0,0,1,3.46,2.1c.44.33.88.66,1.3,1l.45.38.49.41c2.44,1.68,4.69,1.4,7.3,1.07l.55-.07,1.4-.59,1.41-1.12,2.56-3,1.81-2.23.79-1.16c2.66-3.32,2.54-3.86,2-4.35S460.19,94.86,457.38,97.37Zm-20-20.22c-1.12,6.5-2.37,9.68-4.28,11-1.23.83-2.93,1-5.51.42a19,19,0,0,1-1.89-3c-2-5.35,1.1-9.06,3.13-10.8,3.94-3.37,6.41-4.87,7.38-4.42C437.33,70.85,437.33,75.2,437.34,77.15Z"/><path class="cls-2" d="M547.78,22.78h0a17.63,17.63,0,0,0-5.43-.94c-5,0-9,2.89-12,8.59A71.85,71.85,0,0,1,523.15,41c-1.53,1.94-2.87,3.7-4,5.21a5.64,5.64,0,0,1-7.84,1.26,13.45,13.45,0,0,0-7.64-2A30,30,0,0,0,484,52.83C468.26,66.09,460.28,78,460.28,88.19c0,6.15,3.08,11.45,9.16,15.76a17.24,17.24,0,0,0,10,3.26c4.25,0,9.1-1.66,14.44-5,1.48-1,3.77-2.68,6.81-5A5.71,5.71,0,0,1,505,96.09a5.61,5.61,0,0,1,3.79,2.28c3.18,4.41,3.43,4.66,3.53,4.76a16,16,0,0,0,11.42,5.49l2.08,0c8,0,13.51-1.46,16.68-4.47A9.84,9.84,0,0,0,545.57,97a7,7,0,0,0-1.84-5.31,6.46,6.46,0,0,0-5.39-1.85c-1.33.08-3,.9-5.11,2.53-1.81,1.39-3.32,2.1-4.48,2.1a6.58,6.58,0,0,1-5.19-2.4,8.17,8.17,0,0,1-2.13-5.57,12,12,0,0,1,.37-2.89c1.66-5.6,5.21-12.33,10.54-20,11.22-15.93,12.86-18.35,13.1-18.75q2.44-3.63,4.78-7.28c2.07-3.38,3.07-6.08,3.07-8.27C553.29,26.22,551.43,24,547.78,22.78ZM496.5,73.14c-.06.28-.1.54-.14.79a2.71,2.71,0,0,1-.89,2,11,11,0,0,0-1,.74L490.4,80a2.73,2.73,0,0,1-1.06.4l-.58.16a13.66,13.66,0,0,1-5.48.91h0a7.3,7.3,0,0,1,1.2-1.68l.29-.35c.46-.4,2.46-2.14,2.78-2.51A20.23,20.23,0,0,1,492,73.4l.8-.42a6.94,6.94,0,0,1,2.21-.89l1.35,0Z"/><path class="cls-2" d="M565.76,84.05c-2.17,0-5.74,2.11-7.25,4.91-1.22,2.2-1.28,4-1.28,6.62a19.64,19.64,0,0,0,2.13,9.42,7,7,0,0,0,6.08,3.66l.84,0c.66,0,1.3.07,1.88.07a4.56,4.56,0,0,0,2.7-.58c3.85-2.64,6.41-5.33,6.41-9.91a23.11,23.11,0,0,0-3.15-10.36C572.4,85.1,568.08,84.05,565.76,84.05Z"/><path class="cls-2" d="M594.19,11.89c-1.15-.64-2.78.32-6.45,3.8-.8.66-1.45,1.28-2.07,1.89-.42.41-.83.8-1.26,1.18-4,3.52-8.14,7.57-11.25,13.25-2.43,4.5-4.4,11.15-5.85,19.75,0,.2-.15.79-2.75,21.17a13.75,13.75,0,0,0-.23,2.43c0,2.79,1,4.24,3.17,4.71a6.46,6.46,0,0,1,2.58,1.24,2.78,2.78,0,0,0,1.55.71,1.53,1.53,0,0,0,.3,0,2.46,2.46,0,0,0,1.48-1.35c2.27-3.86,3.15-5.48,3.68-6.44.38-.7.56-1,1-1.78.89-2,1.52-3.34,2.13-4.63,1.12-2.37,2.17-4.61,4.53-10.18,1-3.12,2.64-8.75,4.79-16.7.57-1.82,1.11-3.65,1.62-5.45a31.45,31.45,0,0,0,1.07-5.38c0-.42.1-.81.16-1.17.48-3.17,1.06-6,1.57-8.44C595.06,15.28,595.6,12.68,594.19,11.89Z"/><path class="cls-3" d="M85.15,110.18c0-1.81-1.58-5.37-3.25-9.14-.86-1.93-1.68-3.76-2.22-5.24a63.11,63.11,0,0,1-1.8-6.2c-.26-1-.51-2-.79-3a75,75,0,0,0-4.42-11.11,84.48,84.48,0,0,1-4.26-10.06c6.76-6.72,10.68-14.38,11.64-22.78a68.44,68.44,0,0,0,.39-6.94c0-8.19-2.23-13.72-6.64-16.46-14.21-8.67-29.63-8.24-44.58.69a75.68,75.68,0,0,0-11.92,9l-.46.41c-.57.51-.63.57-.77.81a5.65,5.65,0,0,1-.72,1C13.78,33,8.51,40.69,8.28,41l-.08.15C4.7,50,2.62,59,.9,67.54c0,.12-.05.24-.07.36l1.56.3c0-.11,0-.22.07-.32a10.58,10.58,0,0,1,2.12-3.81A98.44,98.44,0,0,1,20.24,47.86a40.84,40.84,0,0,1,3.84-2.78,11.45,11.45,0,0,1,4.53,6c1.76,4.92,1.48,9.82,1.18,15-.05.88-.11,1.77-.15,2.66a70.19,70.19,0,0,1-.71,9c-.55,2-.81,3.32-1.09,4.67-.34,1.7-.73,3.61-1.79,7.43-.55,2-1.15,3.74-1.69,5.31-1,2.84-1.74,5.08-1.77,7.12,0,3,.44,5,1.47,6.33a10.32,10.32,0,0,0,1.1,1.08c.5.45,1.16,1,2,1.83,0,0,3.35,3.27,4.35,3.27,1.45,0,1.47-1.78,1.5-3.66a13.4,13.4,0,0,1,.38-3.78,25,25,0,0,0,.63-2.72c.29-1.41.64-3.18,1.21-5.33a38.15,38.15,0,0,1,2.3-6.78C42.7,81.75,47,76.75,51,76.75a7.43,7.43,0,0,1,2.66.52A7.52,7.52,0,0,1,57,80.34c.11.24.55,1,2.75,4.81,2.55,4.46,4.29,10.25,5.19,17.2.93,7.31,4.32,9.05,8.23,11.06l1.64.85c4.5,2.45,6.89,3.27,8.33,3.27a2.42,2.42,0,0,0,1.44-.4c1.25-.84,1-2.63.81-4.51A22.46,22.46,0,0,1,85.15,110.18ZM64.37,40.47,63.7,45s-1.22,4.06-4,5.7A17.34,17.34,0,0,1,51,53.32c-2.79,0-3.6-.47-3.64-2.06a25.84,25.84,0,0,1,1-6.72c0-.08,1.92-8,2.3-11.77.29-.09.58-.18.87-.24A13.18,13.18,0,0,0,53,32.05a6.09,6.09,0,0,1,3-.46l6.16.45c2.38.12,2.31,3.21,2.31,3.34l-.06,2.11Z"/><path class="cls-3" d="M223.45,17C224,5.45,223,4,222.1,3.61a1.36,1.36,0,0,0-1.57.38c-3.83,3.65-11.16,36.51-13.32,46.49-3.15,14.55-8.75,42.93-7.43,46.21h0c1.5,3.62,3.06,5.39,4.76,5.39l.33,0c6.51-.87,10.72-29.71,15.17-64.46,1.11-8.67,2.17-16.93,2.82-19.47l.52.45Z"/><path class="cls-3" d="M292.08,50.7h0a11.57,11.57,0,0,0-2.18-.24c-3,0-5.31,2.33-6.95,6.92a64.59,64.59,0,0,1-3.87,8.36c-.74,1.37-1.56,3.4-2.36,5.35-.46,1.12-.92,2.27-1.37,3.29,0-.1-.07-.2-.1-.3a16.37,16.37,0,0,1-.82-3A12.33,12.33,0,0,1,275.66,67a26.85,26.85,0,0,0,1.5-4.33q1.83-8,2-9a19.15,19.15,0,0,1,.67-1.89,4.69,4.69,0,0,0,.51-2.51c-.46-2.57-2.66-4.18-6.54-4.77-4.94-.75-9,2.92-12.09,10.91a65,65,0,0,0-4,23.61,57.14,57.14,0,0,0,.46,7.53c.24,1.81.37,3.58.49,5.3.35,5,.65,9.23,3.48,11.09,2,1.3,4.91,1.21,9.16-.3a9.8,9.8,0,0,1,2.05-.4,14.72,14.72,0,0,0,1.9-.31c0,.43,0,.87,0,1.32a47.64,47.64,0,0,1-4,19.24c-2.72,6.28-5.87,9.46-9.38,9.46-2.28,0-4.41-1.76-6.4-3.56l-.38-.34c-2.93-2.65-5.05-4.56-5.84-8.27a11.55,11.55,0,0,0-.61-1.83c-.14-.33-.27-.66-.38-1a16.49,16.49,0,0,1-.22-6.67,4.48,4.48,0,0,1,.92-2.83c1.07-1,3-.41,4.14,0l1.11.45v-1.2a3.58,3.58,0,0,0-3.26-3.25,8.88,8.88,0,0,0-4.15.77c-2.64,1-5.19,2.2-5.92,4.74a8.3,8.3,0,0,0,.15,4c.6,2.83,1,5.64,1.37,8.35,1,7.27,2,14.14,6.62,20.94s9.84,10.18,15.53,10.18c4.48,0,8.35-2.35,11.5-7,3.69-5.46,6.89-13.7,9.51-24.49,1.31-5.51,3.09-15,5.3-28.3a99.43,99.43,0,0,1,3.5-14.29c.6-1.88,2.18-6.37,4.68-13.34a12,12,0,0,0,.77-4.17,10.21,10.21,0,0,0-2.6-6.91A9.32,9.32,0,0,0,292.08,50.7Z"/><path class="cls-3" d="M376.19,45.08l2.92-9.38a45.55,45.55,0,0,0,2.25-12.35c0-3.07-.67-5.47-2-7.13a3.81,3.81,0,0,0-2.91-1.67c-2.05,0-5.34,1.91-10.23,18.41a124.06,124.06,0,0,1-5.7,15c-3.95,8.95-6,13.6-6,13.74-2.26,5.53-3.74,9.48-4.52,12.07a43.91,43.91,0,0,0-2.26,12.93A24.85,24.85,0,0,0,351,99.42c2.92,5.21,6.85,7.84,11.66,7.84,3.65,0,7.44-1.51,11.26-4.51a36.94,36.94,0,0,0,9-10.52c3-5.28,4.54-11.91,4.54-19.72a45.93,45.93,0,0,0-3.05-17.22C382.36,50.11,379.59,46.68,376.19,45.08Zm1,20.23A25.47,25.47,0,0,1,375.06,74c-3.66,9-8.51,14.64-14.42,16.73q0-.49,0-1c0-5.61,2.76-12.74,8.23-21.19,1.67-2.62,2.64-4.09,3-4.49,1.16-1.46,2.23-2.22,3.1-2.22a2.22,2.22,0,0,1,1.56.75A3.67,3.67,0,0,1,377.22,65.31Z"/><path class="cls-3" d="M186.06,91.57a2.82,2.82,0,0,1-3.75-.09c-.49-.85-3.69-6.51-3.69-11.43,0-3.41,1.9-9.19,5.34-16.26,0-.07.07-.15.11-.23a1.37,1.37,0,0,0,.19-.3l.45-.86c1.33-2.55,3-5.72,3.12-8.8.16-7-1.39-12.18-4.59-15.45-2.76-2.83-6.79-4.27-12-4.27a35.88,35.88,0,0,0-14.88,3.62,51.6,51.6,0,0,0-20.19,16A43.49,43.49,0,0,0,127.35,80c0,6,1.05,11,3.13,15.07,2.38,4.64,5.65,7,9.73,7a14.46,14.46,0,0,0,7.64-2.55,19.72,19.72,0,0,1,5.77-2c.85-.2,1.67-.4,2.46-.62a18,18,0,0,1,2.27-.57,21.55,21.55,0,0,1,8.39.56,12.93,12.93,0,0,1,3.46,2.1c.44.33.88.66,1.29,1l.41.34.54.45c2.44,1.68,4.69,1.4,7.29,1.07l.55-.07,1.41-.59L183.1,100l2.55-3,1.81-2.23.79-1.16c2.67-3.32,2.54-3.86,2-4.35S188.87,89.06,186.06,91.57ZM166,71.35c-1.13,6.5-2.37,9.68-4.28,11-1.23.83-2.94,1-5.51.42a18.24,18.24,0,0,1-1.89-3c-2-5.35,1.1-9.06,3.13-10.8,3.94-3.37,6.4-4.87,7.37-4.42C166,65.05,166,69.4,166,71.35Z"/><path class="cls-3" d="M103.8,87.22h0a5.85,5.85,0,0,1-3.28-.92A3.36,3.36,0,0,1,99.06,83a4.05,4.05,0,0,1,2.69-3.34l3.42-1.13a22.81,22.81,0,0,0,8.32-5.65A22.19,22.19,0,0,0,118.4,61.2a68.54,68.54,0,0,0,.93-8.84,15,15,0,0,0-3.67-10.47,13.21,13.21,0,0,0-10-4.73c-5.81,0-10.78,3.29-14.77,9.76a52.64,52.64,0,0,0-7.52,27.9c0,10,2.54,18.45,7.57,25,2.77,3.61,6.85,5.44,12.11,5.44a20,20,0,0,0,13.34-4.88c3.83-3.19,6.19-7.61,6.34-11.82,0-.93,0-1.83,0-2.73a27.23,27.23,0,0,1,0-3.38,19.16,19.16,0,0,0,0-2.44c-.08-1.49-.2-3.76.2-4.44h0l-1.38-.81C118,80.78,111,87.23,103.8,87.22ZM99.93,57.38a5.34,5.34,0,0,1,3.37-1.05c.24,0,.48,0,.69,0,.56.15,1.94,2.41,2.1,2.92a6.55,6.55,0,0,0,.16,1.38,2.28,2.28,0,0,1-.37,2.11c-1.95,3-4.38,4.54-6.91,4.55a5.23,5.23,0,0,1-2.49-2.39,3.18,3.18,0,0,1,.07-2.85v0A10.55,10.55,0,0,1,99.93,57.38Z"/><path class="cls-3" d="M246.35,18.14l.51.45.08-1.64c.53-11.5-.42-12.92-1.36-13.34A1.36,1.36,0,0,0,244,4c-3.82,3.65-11.16,36.51-13.32,46.49C227.55,65,222,93.41,223.26,96.7c1.5,3.62,3.06,5.39,4.76,5.39l.34,0c6.5-.87,10.72-29.71,15.16-64.46C244.63,28.94,245.69,20.68,246.35,18.14Z"/><path class="cls-3" d="M454.19,97.37a2.82,2.82,0,0,1-3.75-.09c-.49-.85-3.69-6.51-3.69-11.43,0-3.41,1.9-9.18,5.34-16.25l.11-.24a2,2,0,0,0,.2-.3l.44-.86c1.33-2.55,3-5.72,3.12-8.8.16-7-1.38-12.18-4.59-15.45-2.76-2.83-6.79-4.27-12-4.27a35.89,35.89,0,0,0-14.89,3.62,51.6,51.6,0,0,0-20.19,16,43.49,43.49,0,0,0-8.85,26.46c0,6,1,11,3.13,15.07,2.38,4.64,5.65,7,9.73,7a14.46,14.46,0,0,0,7.64-2.55,19.72,19.72,0,0,1,5.77-2c.85-.2,1.67-.39,2.46-.62a19.84,19.84,0,0,1,2.27-.57,17.31,17.31,0,0,1,2.58-.18,17,17,0,0,1,5.81.74,12.93,12.93,0,0,1,3.46,2.1c.44.33.88.66,1.3,1l.44.38.5.41c2.44,1.68,4.69,1.4,7.29,1.07l.56-.07,1.4-.59,1.41-1.12,2.56-3,1.8-2.23.8-1.16c2.66-3.32,2.53-3.86,2-4.35S457,94.86,454.19,97.37Zm-20-20.22c-1.13,6.5-2.37,9.68-4.28,11-1.23.83-2.94,1-5.51.42a18.24,18.24,0,0,1-1.89-3c-2-5.35,1.1-9.06,3.13-10.8,3.94-3.37,6.41-4.87,7.37-4.42C434.14,70.85,434.14,75.2,434.15,77.15Z"/><path class="cls-3" d="M544.59,22.78h0a17.63,17.63,0,0,0-5.43-.94c-5,0-9,2.89-12,8.59A71.27,71.27,0,0,1,520,41c-1.52,1.94-2.86,3.7-4,5.21a5.64,5.64,0,0,1-7.84,1.26,13.45,13.45,0,0,0-7.64-2,30,30,0,0,0-19.7,7.44C465.06,66.09,457.08,78,457.08,88.19c0,6.15,3.09,11.45,9.17,15.76a17.24,17.24,0,0,0,10,3.26c4.26,0,9.11-1.66,14.45-5,1.48-1,3.77-2.68,6.81-5a5.71,5.71,0,0,1,4.32-1.13,5.61,5.61,0,0,1,3.79,2.28c3.18,4.41,3.43,4.66,3.53,4.76a16,16,0,0,0,11.42,5.49l2.08,0c8,0,13.5-1.46,16.68-4.47A9.92,9.92,0,0,0,542.38,97a7,7,0,0,0-1.84-5.31,6.47,6.47,0,0,0-5.39-1.85c-1.33.08-3,.9-5.11,2.53-1.81,1.39-3.32,2.1-4.49,2.1a6.58,6.58,0,0,1-5.18-2.4,8.12,8.12,0,0,1-2.13-5.57,12,12,0,0,1,.37-2.89c1.66-5.6,5.2-12.33,10.54-20,11.21-15.93,12.86-18.35,13.1-18.75q2.43-3.63,4.78-7.28c2.06-3.38,3.07-6.08,3.07-8.27C550.1,26.22,548.24,24,544.59,22.78ZM493.31,73.14c-.06.28-.1.54-.14.79a2.71,2.71,0,0,1-.89,2,11,11,0,0,0-.95.74L487.21,80a2.73,2.73,0,0,1-1.06.4l-.58.16a13.66,13.66,0,0,1-5.48.91h0a7.48,7.48,0,0,1,1.19-1.68l.29-.35c.47-.4,2.47-2.14,2.79-2.51a20.39,20.39,0,0,1,4.45-3.49l.81-.42a6.88,6.88,0,0,1,2.2-.89l1.36,0Z"/><path class="cls-3" d="M562.57,84.05c-2.17,0-5.74,2.11-7.25,4.91-1.22,2.2-1.28,4-1.28,6.62a19.53,19.53,0,0,0,2.13,9.42,7,7,0,0,0,6.08,3.66l.84,0c.66,0,1.29.07,1.88.07a4.56,4.56,0,0,0,2.7-.58c3.85-2.64,6.41-5.33,6.41-9.91a23.11,23.11,0,0,0-3.15-10.36C569.21,85.1,564.89,84.05,562.57,84.05Z"/><path class="cls-3" d="M591,11.89c-1.15-.64-2.78.32-6.46,3.8-.79.66-1.44,1.28-2.06,1.89-.43.41-.83.8-1.26,1.18-4,3.52-8.14,7.57-11.25,13.25-2.43,4.5-4.4,11.15-5.86,19.75,0,.2-.14.79-2.75,21.17a14.73,14.73,0,0,0-.22,2.43c0,2.79,1,4.24,3.17,4.71a6.46,6.46,0,0,1,2.58,1.24,2.78,2.78,0,0,0,1.55.71,1.53,1.53,0,0,0,.3,0,2.49,2.49,0,0,0,1.48-1.35c2.26-3.86,3.15-5.48,3.67-6.44.38-.7.57-1,1-1.78.88-2,1.52-3.34,2.13-4.63,1.11-2.37,2.17-4.61,4.52-10.18,1-3.12,2.65-8.75,4.8-16.7.56-1.82,1.11-3.65,1.62-5.45a31.45,31.45,0,0,0,1.07-5.38c0-.42.1-.81.16-1.17.48-3.17,1.06-6,1.57-8.44C591.87,15.28,592.41,12.68,591,11.89Z"/><path class="cls-4" d="M30.66,26.49a60.42,60.42,0,0,1,10.24-6.2,45.16,45.16,0,0,1,11.53-3.76,28.6,28.6,0,0,1,6.22-.43,16.78,16.78,0,0,1,6.2,1.46A17.25,17.25,0,0,1,70,21.3a16.65,16.65,0,0,1,3.25,5.23L73,26.7a36.77,36.77,0,0,0-4.4-3.82,21.45,21.45,0,0,0-4.88-2.55,28.16,28.16,0,0,0-5.33-1.27,22.58,22.58,0,0,0-5.64-.15,43.53,43.53,0,0,0-11.26,2.76,66.11,66.11,0,0,0-10.65,5.07Z"/><path class="cls-4" d="M92.47,50.31a36.7,36.7,0,0,1,4.69-5.45,21.91,21.91,0,0,1,6.06-4.22,12.53,12.53,0,0,1,3.85-1.08,6.85,6.85,0,0,1,4.13,1,9.79,9.79,0,0,1,1.63,1.34A9.93,9.93,0,0,1,114,43.52a9.15,9.15,0,0,1,1.1,3.63l-.28.12c-1.72-1.76-3.25-3.42-5-4.09a8.85,8.85,0,0,0-2.67-.65,8.15,8.15,0,0,0-3.05.36,15.55,15.55,0,0,0-3,1.32A29.47,29.47,0,0,0,98.11,46a42.5,42.5,0,0,0-5.4,4.48Z"/><path class="cls-4" d="M155.16,42.81a40.07,40.07,0,0,1,8.05-4.49,22.43,22.43,0,0,1,9.3-1.84,12.51,12.51,0,0,1,4.94,1.21,9.26,9.26,0,0,1,3.8,3.56,13.07,13.07,0,0,1,1.6,4.69,16,16,0,0,1,.18,2.38,20.66,20.66,0,0,1-.21,2.37l-.3,0a31.78,31.78,0,0,0-3.77-7.8A11.59,11.59,0,0,0,176,40.27a8.81,8.81,0,0,0-3.7-1.4,20.63,20.63,0,0,0-8.58.87,44.16,44.16,0,0,0-8.38,3.32Z"/><path class="cls-4" d="M216.92,20.05c.11-1.62.33-3.22.54-4.83a39.81,39.81,0,0,1,1-4.83c.12-.41.23-.82.38-1.26a7.16,7.16,0,0,1,.28-.69,2.69,2.69,0,0,1,.66-.91,1.83,1.83,0,0,1,1.38-.44,1.77,1.77,0,0,1,.87.35,2.05,2.05,0,0,1,.42.41,3.1,3.1,0,0,1,.49,1,5.56,5.56,0,0,1,.21,1.43,10.63,10.63,0,0,1-.27,2.54,9.15,9.15,0,0,1-.87,2.44h-.3a19.88,19.88,0,0,1-1.54-4.62c-.08-.34-.16-.69-.23-.93s-.08-.23,0-.07a1,1,0,0,0,.21.2,1.24,1.24,0,0,0,.6.23,1.12,1.12,0,0,0,.84-.24c.11-.14,0,0-.09,0a2.37,2.37,0,0,0-.28.37,8,8,0,0,0-.54,1c-.64,1.39-1.21,2.89-1.79,4.38s-1.12,3-1.7,4.51Z"/><path class="cls-4" d="M241.3,18.27c0-1.58.14-3.16.24-4.74a45.86,45.86,0,0,1,.6-4.76l.24-1.24a5.44,5.44,0,0,1,.18-.69,2.49,2.49,0,0,1,.52-1,1.74,1.74,0,0,1,.68-.46,1.65,1.65,0,0,1,.77-.08,1.75,1.75,0,0,1,1.08.59,1.5,1.5,0,0,1,.18.24,2.52,2.52,0,0,1,.19.35,4.36,4.36,0,0,1,.26.86,7.86,7.86,0,0,1,.11,1.33,11,11,0,0,1-.33,2.44,9.29,9.29,0,0,1-.88,2.38h-.3a16.75,16.75,0,0,1-1.48-4.57l-.19-1a2.31,2.31,0,0,1,0-.28s0,0,.06.09a.58.58,0,0,0,.1.12,1.37,1.37,0,0,0,.27.23,1.45,1.45,0,0,0,.57.21,1.58,1.58,0,0,0,.62-.07,1.11,1.11,0,0,0,.45-.3c.14-.21,0-.06-.07,0a3.72,3.72,0,0,0-.24.41,10.56,10.56,0,0,0-.44,1c-.51,1.42-1,2.92-1.44,4.41l-1.41,4.51Z"/><path class="cls-4" d="M267.21,50.33a9.65,9.65,0,0,1,1.86-3.21,6.33,6.33,0,0,1,3.51-2.06,5.14,5.14,0,0,1,4.22.69,6.58,6.58,0,0,1,1.39,1.5,5.92,5.92,0,0,1,.69,1.93l-.22.2a7.6,7.6,0,0,1-1.84-.52,15.48,15.48,0,0,1-1.5-.5,3.3,3.3,0,0,1-.64-.26,6.46,6.46,0,0,1-.6-.27,2,2,0,0,0-.6-.26,1.63,1.63,0,0,0-.65-.12,5,5,0,0,0-2.79.82,10.62,10.62,0,0,0-2.57,2.2Z"/><path class="cls-4" d="M285.47,57.25A9.56,9.56,0,0,1,287.34,54a6.29,6.29,0,0,1,3.5-2.05,5.19,5.19,0,0,1,4.23.68,6.32,6.32,0,0,1,1.38,1.5,6.09,6.09,0,0,1,.69,1.93l-.22.2a7,7,0,0,1-1.83-.52,15.48,15.48,0,0,1-1.5-.5,2.83,2.83,0,0,1-.65-.25c-.2-.11-.4-.16-.59-.27a1.71,1.71,0,0,0-.61-.26,1.64,1.64,0,0,0-.65-.13,5.11,5.11,0,0,0-2.79.82,10.58,10.58,0,0,0-2.56,2.2Z"/><path class="cls-4" d="M369.77,25a26,26,0,0,1,1.44-3.82,12.9,12.9,0,0,1,2.42-3.54A4.93,4.93,0,0,1,376,16.19a3,3,0,0,1,1.73.14,4.06,4.06,0,0,1,.74.4c.2.17.37.34.55.52a4.7,4.7,0,0,1,1,2.27,5.25,5.25,0,0,1-.11,2.26l-.29.09a6.59,6.59,0,0,1-.81-.75c-.25-.24-.48-.47-.7-.7a7.86,7.86,0,0,0-1.18-1,3.72,3.72,0,0,0-.56-.26,1.61,1.61,0,0,0-1.19.32,14.09,14.09,0,0,0-2.67,2.5,35.52,35.52,0,0,0-2.42,3.12Z"/><path class="cls-4" d="M424.19,48.77a40.65,40.65,0,0,1,8.06-4.49,22.7,22.7,0,0,1,9.29-1.84,12.61,12.61,0,0,1,4.95,1.22,9.27,9.27,0,0,1,3.79,3.55,13.36,13.36,0,0,1,1.61,4.69,19.22,19.22,0,0,1,.18,2.39,20.7,20.7,0,0,1-.22,2.36l-.3,0a31.42,31.42,0,0,0-3.77-7.8A11.37,11.37,0,0,0,445,46.24a8.82,8.82,0,0,0-3.7-1.41,20.65,20.65,0,0,0-8.58.87A44.75,44.75,0,0,0,424.36,49Z"/><path class="cls-4" d="M478.68,59.87a58.2,58.2,0,0,1,7.22-6.34,33.15,33.15,0,0,1,8.62-4.66A14.19,14.19,0,0,1,499.7,48a7.73,7.73,0,0,1,5.13,2.26,10.25,10.25,0,0,1,1.63,2.24,12.07,12.07,0,0,1,.88,2.46,14.17,14.17,0,0,1,.32,5l-.3,0c-.37-.74-.63-1.49-1-2.2s-.62-1.42-1-2a10.07,10.07,0,0,0-2.56-3.25A7.44,7.44,0,0,0,499.39,51a10.49,10.49,0,0,0-4.22.2,31.22,31.22,0,0,0-8.45,3.61,66,66,0,0,0-7.83,5.3Z"/><path class="cls-4" d="M530.26,30.31a22,22,0,0,1,3.53-3.7A12.85,12.85,0,0,1,538.51,24a8.27,8.27,0,0,1,3-.29,4.85,4.85,0,0,1,2.86,1.37,6,6,0,0,1,1.56,2.5,6.24,6.24,0,0,1,.32,2.74l-.28.11a23.6,23.6,0,0,0-3.49-3,9.47,9.47,0,0,0-1.59-.8A4.08,4.08,0,0,0,539,26.4a12.71,12.71,0,0,0-4.35,1.46,26.19,26.19,0,0,0-4.14,2.66Z"/><path class="cls-4" d="M574,27.64c1.37-1.7,2.83-3.3,4.31-4.91a53.1,53.1,0,0,1,4.8-4.54A16,16,0,0,1,586,16.14a4.16,4.16,0,0,1,1.17-.36,2.54,2.54,0,0,1,.93.05,2.15,2.15,0,0,1,1.11.64,2.6,2.6,0,0,1,.65,1.78,5.68,5.68,0,0,1-.16,1.12,10.81,10.81,0,0,1-1.54,3.2A13.65,13.65,0,0,1,586,25.15l-.27-.14a28.9,28.9,0,0,1,.56-3.27,26.18,26.18,0,0,0,.53-2.92,2.07,2.07,0,0,0,0-.49c0-.1-.08,0,.16.26a.85.85,0,0,0,.43.25c.1,0,.13,0,.12,0a.93.93,0,0,0-.39,0,10.79,10.79,0,0,0-2.62,1.24c-1.76,1.12-3.49,2.41-5.2,3.71s-3.4,2.65-5.09,4Z"/><path class="cls-4" d="M557.6,90.69a10.44,10.44,0,0,1,3.23-3.76,6.86,6.86,0,0,1,2.49-1.05,6.31,6.31,0,0,1,2.83.15,7.67,7.67,0,0,1,4.46,3,9,9,0,0,1,1.13,2.31,7.92,7.92,0,0,1,.43,2.54l-.26.14A15.06,15.06,0,0,1,570,92.49c-.59-.52-1.13-1-1.65-1.53s-1-1-1.45-1.46a4.87,4.87,0,0,0-1.52-1.21,4.64,4.64,0,0,0-3.8,0,10.63,10.63,0,0,0-3.69,2.6Z"/></g></g></svg>