<svg xmlns="http://www.w3.org/2000/svg" xmlns:xlink="http://www.w3.org/1999/xlink" viewBox="0 0 567.7 236.22"><defs><style>.cls-1{fill:#bf3939;}.cls-2{fill:#d9320d;}.cls-3{fill:url(#Degradado_sin_nombre_19);}.cls-4{fill:url(#Degradado_sin_nombre_19-2);}.cls-5{fill:url(#Degradado_sin_nombre_19-3);}.cls-6{fill:url(#Degradado_sin_nombre_19-4);}.cls-7{fill:url(#Degradado_sin_nombre_19-5);}.cls-8{fill:url(#Degradado_sin_nombre_19-6);}.cls-9{fill:url(#Degradado_sin_nombre_19-7);}.cls-10{fill:url(#Degradado_sin_nombre_19-8);}.cls-11{fill:url(#Degradado_sin_nombre_19-9);}.cls-12{fill:url(#Degradado_sin_nombre_19-10);}.cls-13{fill:#fcfafa;}</style><linearGradient id="Degradado_sin_nombre_19" x1="8.47" y1="160.83" x2="113.15" y2="160.83" gradientUnits="userSpaceOnUse"><stop offset="0" stop-color="#f2cb07"/><stop offset="1" stop-color="#f2a007"/></linearGradient><linearGradient id="Degradado_sin_nombre_19-2" x1="119.63" y1="152.98" x2="173.48" y2="152.98" xlink:href="#Degradado_sin_nombre_19"/><linearGradient id="Degradado_sin_nombre_19-3" x1="179.31" y1="139.4" x2="240.65" y2="139.4" xlink:href="#Degradado_sin_nombre_19"/><linearGradient id="Degradado_sin_nombre_19-4" x1="305.44" y1="115.3" x2="307.72" y2="115.3" xlink:href="#Degradado_sin_nombre_19"/><linearGradient id="Degradado_sin_nombre_19-5" x1="238.4" y1="125.11" x2="327.03" y2="125.11" xlink:href="#Degradado_sin_nombre_19"/><linearGradient id="Degradado_sin_nombre_19-6" x1="386.37" y1="103.51" x2="436.39" y2="103.51" xlink:href="#Degradado_sin_nombre_19"/><linearGradient id="Degradado_sin_nombre_19-7" x1="430.25" y1="79.63" x2="506.98" y2="79.63" xlink:href="#Degradado_sin_nombre_19"/><linearGradient id="Degradado_sin_nombre_19-8" x1="517.76" y1="95.48" x2="543.54" y2="95.48" xlink:href="#Degradado_sin_nombre_19"/><linearGradient id="Degradado_sin_nombre_19-9" x1="524.37" y1="44.06" x2="554.2" y2="44.06" xlink:href="#Degradado_sin_nombre_19"/><linearGradient id="Degradado_sin_nombre_19-10" x1="325.63" y1="118.39" x2="379.48" y2="118.39" xlink:href="#Degradado_sin_nombre_19"/></defs><g id="Capa_2" data-name="Capa 2"><g id="Letras"><path class="cls-1" d="M100.9,111.86c-9.1-1.77-14-.65-18.38-.36a27.19,27.19,0,0,0-4.88.81c-.06,0-1.46.18-2.91.46-2.08.41-3.37.73-3.34.87q-20.12,9.06-26.49,12.6a118.87,118.87,0,0,0-24.28,17q-7.83,7.24-7,12.35a5.69,5.69,0,0,0,.44,1.42c.87,2.13,3.06,2.87,6.55,2.23A11.66,11.66,0,0,0,24,158.11q.09,0,22-13.93,13.53-8.4,23.18-11.79,12.63-4.35,17.4-5.24a36.71,36.71,0,0,1,9.13-.61,43.82,43.82,0,0,1,6.09.6,4.33,4.33,0,0,1,3.57,4.38q0,2.47-2.66,5.86c-.38.47-.76.9-1.14,1.31-2.68,2.86-5.41,5.73-7.81,8.71a36.08,36.08,0,0,1-9.36,8.67c-2.21,1.4-27.83,25.35-12.27-5.87l1.32-3.89a9.74,9.74,0,0,0,.43-3.94,4.26,4.26,0,0,0-1.68-2.75c-.94-.72,2.38-1.59-2.84-.82-1.4.21-1.88,2.12-4.63,4.07a57.76,57.76,0,0,1-6.2,4,39.67,39.67,0,0,1-5.81,3.23c-2.43,1.09-2.34,5.75-2.35,7.06-.76.93.46,3.17.87,5.6q1.32,8,1.5,10.24c.08,1.16.1,2.29.07,3.41A32.92,32.92,0,0,1,50.39,187L48,193.18c-1.75,4.47-17,31.61-16.62,34.1S42.2,221,48.34,216.05a72.77,72.77,0,0,1,6.93-5.31,6.87,6.87,0,0,0,3.67-4.54q1-3.72,1.8-7.53a67.43,67.43,0,0,1,7.65-17.83,35.73,35.73,0,0,1,12.09-11.13l14.89-7.36a45.48,45.48,0,0,0,13.18-9.94q6.67-7.12,8.49-14.23a31.29,31.29,0,0,0,.87-12.83C116.46,116.6,109.44,113.51,100.9,111.86Z"/><path class="cls-1" d="M32,236.22a9.08,9.08,0,0,1-3.3-.64,8.85,8.85,0,0,1-5.64-6.91c-.65-3.93.52-6.75,11.42-27.49,2.29-4.35,5.13-9.75,5.66-11.06L42.47,184a24.5,24.5,0,0,0,1.89-7.83c0-.83,0-1.69-.06-2.56,0-.5-.27-2.57-1.41-9.46-.06-.35-.22-.91-.38-1.46a15.16,15.16,0,0,1-.78-5.75l-7.68,4.86c-3.32,2.09-5,3.18-6.12,3.78l0,0a20.17,20.17,0,0,1-5.79,2c-10.88,2-14.83-4.78-15.86-7.17a14.31,14.31,0,0,1-1-3.42c-1.59-9.61,6.83-17.39,9.59-19.95a128.08,128.08,0,0,1,26-18.23c4.49-2.48,13.3-6.68,26.93-12.84a12.21,12.21,0,0,1,2.42-.88c.73-.19,1.69-.39,2.92-.64s2.33-.4,3-.48a35.54,35.54,0,0,1,5.81-.92H82c.72,0,1.46-.13,2.24-.21a57.08,57.08,0,0,1,18.33.69h0c5.2,1,21,4.08,23.74,20.43a39.56,39.56,0,0,1-1,16.31c-1.57,6.11-5.1,12.14-10.51,17.91A53.86,53.86,0,0,1,99.07,170l-14.53,7.19a27.49,27.49,0,0,0-9,8.26A59.38,59.38,0,0,0,69,200.76c-.56,2.5-1.17,5-1.81,7.54l-.07.27a15.18,15.18,0,0,1-7.71,9.58c-.8.48-3.35,2.56-4.57,3.56L52,224C41.71,232.35,36.66,236.22,32,236.22ZM61.06,171c.07.58.1,1,.13,1.3.09,1.34.13,2.63.1,3.89a37.83,37.83,0,0,1,2.22-3.07,10.16,10.16,0,0,1-1-.69A10.6,10.6,0,0,1,61.06,171Zm-2.22-12.84c.13.42.26.91.39,1.43a34,34,0,0,1,1.21-4c-.64.38-1.12.66-1.58.91,0,.15,0,.3,0,.47Zm-2.46-.46-.11.05Zm24.7-20.35A12.61,12.61,0,0,1,82.24,141a16.83,16.83,0,0,1-.35,6.53,32.22,32.22,0,0,0,5.29-5.45c2-2.48,4.17-4.84,6.31-7.13a30.35,30.35,0,0,0-5.37.54A66.71,66.71,0,0,0,81.08,137.38Zm18.83-2Zm-25.2-13.95-1.57.71c1.24-.41,2.41-.78,3.49-1.11l-.28,0C75.55,121.24,75,121.35,74.71,121.43Z"/><path class="cls-1" d="M153.86,177.52a12,12,0,0,1-5.19-.09c-4.51-1.16-3.94-6.09.62-8.08l4.37-1.89a33.38,33.38,0,0,0,10-7.2,18.67,18.67,0,0,0,4.61-11.91,48,48,0,0,0-.14-8.56,11.41,11.41,0,0,0-6.25-8.62,20.19,20.19,0,0,0-13.38-1.93q-11.24,2.07-17.57,12.47a40.1,40.1,0,0,0-5.65,28.08q2.34,14.18,13.89,21.6,6.15,3.92,16.34,2a34,34,0,0,0,16.6-7.67c4-3.42,6.89-8,6.4-12.24-.24-2-.9-3.78-1-5.86-.08-1.61-1.64-5.49-.8-7C172.85,167.37,164.13,175.63,153.86,177.52Zm-15-23.12a12.54,12.54,0,0,1,4.09-5.65,11.89,11.89,0,0,1,6.09-2.29c1.54-.19,4.34,2.51,4.39,2.84.24,1.46,1.41,1.93.16,3.84a14.37,14.37,0,0,1-9.62,6.59C143.32,159.86,137.06,158.55,138.91,154.4Z"/><path class="cls-1" d="M149.33,202.49a26.86,26.86,0,0,1-14.71-4c-9.79-6.3-15.73-15.49-17.7-27.35a48.6,48.6,0,0,1,6.76-33.85c5.53-9.07,13.36-14.59,23.29-16.42a28.63,28.63,0,0,1,18.83,2.75,19.82,19.82,0,0,1,10.68,14.75,53.1,53.1,0,0,1,.25,10.32,28.39,28.39,0,0,1-2.45,10.57l9.75,5.61a5.87,5.87,0,0,0,.87-3.21c0,.32.25,1.2.38,1.72a20.46,20.46,0,0,1,.67,3.77,14,14,0,0,0,.35,1.94,33.74,33.74,0,0,1,.62,3.4c.79,6.74-2.6,13.9-9.3,19.64a45.11,45.11,0,0,1-28.29,10.32Zm-16.15-38.93a33.79,33.79,0,0,0,.45,4.85,23.14,23.14,0,0,0,5.05,11.47,11.66,11.66,0,0,1-1.55-4.92,12.51,12.51,0,0,1,2-7.68A14.77,14.77,0,0,1,133.18,163.56Zm13.59-9.14.1.05a5.12,5.12,0,0,0-.23-.73,5.65,5.65,0,0,0-.87-1.5,5,5,0,0,0,.12.79A7.08,7.08,0,0,0,146.77,154.42Zm2.3-16.42c3.86,0,8.31,2.53,10.84,5.8a17.79,17.79,0,0,0-.14-2.63,3,3,0,0,0-1.84-2.51,11.73,11.73,0,0,0-7.89-1.1,21.28,21.28,0,0,0-2.09.51h.12A8.26,8.26,0,0,1,149.07,138Z"/><path class="cls-1" d="M245.73,134.81c-2.11-13.56-1.86-11.21-2.14-12.88q-1.62-9.78-8.55-11.3a14.28,14.28,0,0,0-5.62-.15q-4.57.84-9.12,5.44-1.34,1.42-7.44,9c-2.91,3.76-4.7,6.55-6.9,8.63-2.92-3.1-1.93-1.72-4.67-5.53-1.1-1.55-5.78-9-6-8-1,4.3,0,0-2,10.82-3.8,15.44-3,12.12-4.22,17.2l-3,11.5c-1.15,5.3-2.62,9.8-1,12.52,2.83,4.65,2.34,3.5,5.88,6.46,1.65.93,3.44,2.56,5.26,3.3,2.36.78,6,3.88,7.56,3.6s1.54-3.08,2.39-4.67c1.35-2.54,3.16-8.54,6.18-16a90.65,90.65,0,0,1,7.11-14.62,78,78,0,0,1,10.36-13.29C234.29,132.73,237.33,133.77,245.73,134.81Z"/><path class="cls-1" d="M203.62,193.94c-3.27,0-6-1.67-8.3-3.05-.58-.35-1.45-.87-1.82-1l-.4-.15a24.24,24.24,0,0,1-5-2.92c-.48-.33-1-.71-1.29-.87l-.66-.38-.59-.48c-.72-.6-1.25-1-1.66-1.33-2.75-2.1-3.65-3.32-6-7.24-3.19-5.25-1.81-11.18-.59-16.41.17-.75.35-1.52.52-2.3l.08-.34,3-11.39c.7-3,.72-3.06,1.41-5.85.47-1.87,1.24-5,2.75-11.08.9-5.05,1.12-6.55,1.22-7.28a31,31,0,0,1,.78-3.75,8.58,8.58,0,0,1,6.82-6.46c5.49-1,8.25,2.42,12.18,8.27l.13-.17.1-.13c5.57-6.9,7.12-8.67,7.84-9.45l.17-.18c4.26-4.3,8.84-6.93,13.6-7.8a22.64,22.64,0,0,1,8.93.19c4.72,1,12.91,4.76,15.13,18.2,0,.19.05.27.08.38.18.86.44,2,2.07,12.59l1.72,11.08-11.13-1.38-2.79-.37a28.45,28.45,0,0,0-5.37-.46,5,5,0,0,0-.8.64,71.55,71.55,0,0,0-9.12,11.78A84.64,84.64,0,0,0,220.26,168c-1.36,3.34-2.45,6.33-3.41,9a74.67,74.67,0,0,1-3,7.46c0,.14-.07.28-.11.41-1.34,5.16-4.17,8.17-8.4,8.95A9.63,9.63,0,0,1,203.62,193.94Zm10.1-9.24,0,.05ZM199.42,174l.42.16c.34-.91.72-1.95,1.09-3,1-2.65,2.16-5.94,3.63-9.55a98.25,98.25,0,0,1,7.82-16,85.43,85.43,0,0,1,11.6-14.8l.07-.07a17.79,17.79,0,0,1,11.6-5.28c-.1-.59-.15-.82-.19-1-.06-.33-.12-.58-.22-1.19-.16-1-.78-4.15-2-4.42a6,6,0,0,0-2.28-.09,10,10,0,0,0-4.53,3c-.45.49-1.95,2.23-6.92,8.38-.82,1.06-1.55,2-2.22,3a47.49,47.49,0,0,1-5.51,6.58l-6.16,5.82-5.69-6c-.55,2.24-.93,3.73-1.19,4.81-.68,2.7-.69,2.76-1.38,5.71l-.25,1-2.76,10.58c-.18.8-.36,1.59-.54,2.35a44,44,0,0,0-.92,4.62c.32.54.7,1.14.92,1.44l.42.32c.42.33,1,.75,1.69,1.33s1.39.92,2,1.35S199.08,173.8,199.42,174Z"/><path class="cls-1" d="M312.35,123.35c-5,2.83,2-1,.1-.06Z"/><path class="cls-1" d="M310.45,132.88a8.48,8.48,0,0,1-3.77-16l1.49-.86.44-.24a8.5,8.5,0,0,1,11.69,3.46c.16.3,3.73,7.34-4.13,11.76-.48.28-1.05.59-1.39.77A9.07,9.07,0,0,1,310.45,132.88Zm-2.87-16.42a8.47,8.47,0,0,0,8.19,14.6,5.63,5.63,0,0,0,.45-.38l-2.24-4.4-1.63-2.93,1.29,2.28-1.19-2.34,4,7.16a8.48,8.48,0,0,0-8.89-14Z"/><path class="cls-1" d="M332,106.86a16.23,16.23,0,0,0-.07-4q-.68-4.07-4.49-3.36a22,22,0,0,0-6,2.62q-4.69,2.48-5.62,2.86-4.49,1.91-9,3.91c-3.61,1.52-12.89,6.53-15.43,7-1.85.34,1.82-4.94,3.11-9,2.26-5.35,2.26-5.35,4.51-10.7q5-9.93,10.94-11a11.06,11.06,0,0,1,4-.62,33.74,33.74,0,0,1,4.4.68c18,5,14.53,4.16,6.61-9.91-2.34-4.15-3.36-7.83-8.37-9.62a26.57,26.57,0,0,0-14.3-.91,17.17,17.17,0,0,0-6.95,2.46Q279.27,77.73,271.68,116q-.81,4-6.62,6.81Q260,125,254.94,127c-3.34,1.62-8.23,3.94-7.87,6.09.27,1.67,4.43,4,7.14,5.53,1.4.6,2.14.84,4.52,1.63,2.61.87,4,1.23,4.76,1.6a4.85,4.85,0,0,1,2.56,4.25c.53,9.49-1.61,18.31-3,26.52-1.73,10.55-8.27,23.35-19.61,23.42l14.62,5.27a16.33,16.33,0,0,0,10.26,1.36q4.2-.76,6.22-5.76c.28-.69,1-3.47,2.05-8.32A226.38,226.38,0,0,0,281.57,149a34.27,34.27,0,0,1,1.05-8.46c3-3.77.92-1.61,4-4,1-.33,2.61-1.89,7.56-4.6,1.69-.93,13.95-6.72,15.21-7l3.07-1.62C321.3,118.31,331.47,113,332,106.86Z"/><path class="cls-1" d="M265.22,211.39a24.76,24.76,0,0,1-10.35-2.28l-59-21.27,47.56-.31c5.95,0,10.19-9.56,11.3-16.32.28-1.67.58-3.36.89-5.08,1-5.66,2.08-11.49,2.05-17.36l-1.6-.52-.24-.08a52,52,0,0,1-4.94-1.8l-.73-.35c-5.52-3-10.54-6.15-11.44-11.58-1.39-8.34,7.16-12.49,12.27-15l.83-.38c3.25-1.28,6.53-2.62,9.75-4a8.14,8.14,0,0,0,1.9-1.2C269,86.1,278,68.5,290.75,60.17a25.64,25.64,0,0,1,10.18-3.74,35.13,35.13,0,0,1,18.63,1.3c7.23,2.61,9.9,7.77,11.84,11.53.32.62.65,1.25,1,1.89,1.24,2.22,2.37,4.07,3.36,5.71,3.13,5.19,6.38,10.55,2.31,15.9a9.71,9.71,0,0,1-1.37,1.47,12.87,12.87,0,0,1,3.61,7.29,24.28,24.28,0,0,1,.14,6v.06c-.93,10.18-11.82,16.29-22.35,22.19l-1.81,1-2.93,1.55-.95.51-.66.16c-2.3.91-12.06,5.52-13.52,6.31a53.92,53.92,0,0,0-5.08,3.12c-.7.47-1.37.92-2.11,1.32l-.57.42,0,.06a50.07,50.07,0,0,0-.41,5.07,235.85,235.85,0,0,1-5.14,41.06c-1.65,7.35-2.09,8.7-2.45,9.61-3.3,8.12-9.27,10.34-12.54,10.94A25.71,25.71,0,0,1,265.22,211.39Zm-2.16-17.25a7.66,7.66,0,0,0,3.34.23,4.3,4.3,0,0,0,.26-.5c.12-.44.55-2,1.71-7.18.31-1.37.61-2.77.89-4.19A41.78,41.78,0,0,1,263.06,194.14Zm.16-61.38.42.13a22.88,22.88,0,0,1,3.71,1.39l.16.09a13.11,13.11,0,0,1,6.21,7.24,21.74,21.74,0,0,1,.9-3.85l.47-1.34.88-1.12c.69-.87,1.08-1.39,1.33-1.73a10.73,10.73,0,0,1,2.94-2.86,14.11,14.11,0,0,0,1.16-.85l1.16-.91.71-.23.4-.27a73.88,73.88,0,0,1,6.44-3.94l.27-.14a8.76,8.76,0,0,1-6.15-3.42c-3.48-4.58-1.16-9.33.54-12.8a35.19,35.19,0,0,0,1.68-3.8l.27-.73,1.68-4c.83-2,1.33-3.16,2.82-6.7l.23-.5c4.49-9,10.14-14.25,16.8-15.55l.2-.05a15.65,15.65,0,0,1,6.48-.7l1,.12c-1.18-2.24-1.4-2.32-2.14-2.58l-.08,0a18.28,18.28,0,0,0-9.82-.53l-.2,0a9,9,0,0,0-3.57,1.13l-.1.07c-6,3.89-14.34,14.58-20,43.35-.76,3.75-3.32,9-11.28,12.79l-.39.18C266.64,131.36,264.93,132.07,263.22,132.76Zm48.25.36-.1,0Zm2-40.13-.23.07a16.17,16.17,0,0,1-1.71.43s-1.95.68-4.76,6.22c1.91-.84,3.84-1.67,5.77-2.49.13-.06,1-.47,4.87-2.5l1.22-.66-1.92-.54-.53-.14A26.46,26.46,0,0,0,313.44,93Zm-5-16.15h0Z"/><path class="cls-1" d="M438.64,112q-1.62.3-3.92,3l-4.51,8.52c-3.15,3.16-8.72,7.73-11.59,8.1s-10,.93-11.47-1.33c-6.62-3.21-1.85-28,5.49-34.7,8.13-7.4,3.67,9,10,6.79a15.65,15.65,0,0,0,11-13.59,5.27,5.27,0,0,0-.24-2.55q-2.28-5.47-9.82-5.92a23.69,23.69,0,0,0-5.84.33Q405.16,83,397.4,96.38T392,123.83a33.15,33.15,0,0,0,2.1,7.34,19.16,19.16,0,0,0,10.14,10.21q7.33,3.42,13.94,1.78a34.44,34.44,0,0,0,13.18-6.67A26.67,26.67,0,0,0,440,125.61a19.62,19.62,0,0,0,1.2-10.52C440.83,112.8,440,111.77,438.64,112Z"/><path class="cls-1" d="M413.8,152.17a30.91,30.91,0,0,1-13.15-3.12,27.5,27.5,0,0,1-14.39-14.65,41.87,41.87,0,0,1-2.62-9.19c-1.88-11.31.29-22.44,6.43-33.07,6.45-11.13,15.27-17.8,26.22-19.82a31.82,31.82,0,0,1,7.94-.45c11.09.65,15.46,7.25,17.07,11.12l.08.19a13.55,13.55,0,0,1,.75,6.61,24.43,24.43,0,0,1-6.65,14.33,12,12,0,0,1,1.62-.43h0a10.06,10.06,0,0,1,7.68,1.65c2.54,1.79,4.15,4.6,4.77,8.37a28.06,28.06,0,0,1-1.66,15,35.16,35.16,0,0,1-11.3,14.46,43.19,43.19,0,0,1-16.4,8.24A26.58,26.58,0,0,1,413.8,152.17Zm-1.25-28.68a29.09,29.09,0,0,0,4.45-.2,35,35,0,0,0,6.34-4.9l4.34-8.19.62-.72.38-.45a27.24,27.24,0,0,1-3.22,1.35,10.85,10.85,0,0,1-9-.63,9.5,9.5,0,0,1-1.69-1.16C413.07,113.79,412,120.34,412.55,123.49Zm11.17-34.67a10.91,10.91,0,0,1,1,1.42,8.16,8.16,0,0,0,.38-1.15A6.51,6.51,0,0,0,423.72,88.82Z"/><path class="cls-1" d="M482.23,93.68q2.34-1.83,8.73-3.54c4.53-1.19,7.55-2.29,9.09-3.29,5.85-3.79,13.34-11.95,11.81-21.19C504,68.23,497.49,70,498.65,69.87c-3.4.9-14.19,5.07-16.54,4.29,3.14-6.31,11.45-16.34,11-19s-2.05-5.06-4.9-7.69a5.5,5.5,0,0,0-4.78-1.58Q478,46.9,473.17,58c-3.36,7-5.78,12.35-8,16-3.76,6.19-5.57,6.29-11.35,7.35-1.15.21-2.86.46-5.14.73s-12.31-.14-13.39.06c.34,5.59,7.95,10.07,9.09,10.4,11.89,3.39,4.67,1.28,12.49,4.19a21.09,21.09,0,0,0,3.5.93c2.34.27,1.65.06,2,.3,2.39,1.67,1.75,2.06,2.35,5.29l1.24,7.45a28.21,28.21,0,0,0,6.44,14q5.83,6.81,12.7,5.55,8.87-1.62,15-11.77c4.08-6.77,5.84-16.46,7.64-25.41a86.21,86.21,0,0,1-10.27,9.25c-4.22,3-6.38,4.54-6.5,4.64a21.15,21.15,0,0,1-5.65,2.65c-2.47.45-4.23-1-5.26-4.51a21.3,21.3,0,0,1-.64-2.67Q478.5,96.62,482.23,93.68Z"/><path class="cls-1" d="M483,138.84c-4.94,0-11.1-1.86-17-8.72A36.52,36.52,0,0,1,457.64,112l-1.1-6.62c-1.42-.38-2.56-.8-2.58-.81-3-1.09-4-1.57-4.85-2l-.05,0c-.49-.16-2.19-.64-4.91-1.42l-2.06-.58c-3.16-.91-14.57-7.44-15.21-18l-.46-7.48,7.38-1.36c1.26-.23,2.52-.22,7.11-.15,2.06,0,5.9.09,6.86,0,2.53-.31,3.88-.52,4.55-.65l.7-.12a29,29,0,0,0,3.07-.66A13.55,13.55,0,0,0,458,69.55c1.49-2.44,3.25-6.16,5.49-10.87q.94-2,2-4.22c4.46-10.14,9.83-15.67,16.43-16.88a14,14,0,0,1,11.93,3.57l.12.11c4.27,3.93,6.8,8.14,7.53,12.53a11.39,11.39,0,0,1-1,6.56c2.36-.72,5.43-1.66,8.76-2.74l9.36-3,1.61,9.71a23.66,23.66,0,0,1,.32,4l1.06-1.06-5.86,29.12c-1.85,9.26-3.77,18.83-8.36,26.44C502,131.67,495,137,486.67,138.5A20.25,20.25,0,0,1,483,138.84Zm-7.1-24.43a18.92,18.92,0,0,0,3,4.7c2.66,3.12,4.11,2.85,4.73,2.74,2.83-.52,5.38-2.34,7.75-5.54a17.89,17.89,0,0,1-4.47,1.54A12.21,12.21,0,0,1,475.87,114.41Zm-19.69-10.74h0Zm11.41-12.46a12.82,12.82,0,0,1,3.83,4.1A16.14,16.14,0,0,1,477,87l0,0c2.53-2,6.26-3.56,11.74-5a38.42,38.42,0,0,0,6.48-2.11c-8,2.61-12.14,3.57-15.82,2.34l-7.77-2.59c-3.78,5.8-7.09,7.86-11.88,9.11l.08,0c.34.12,1.25.39,1.64.47.66.08.94.1,1.07.1A8.66,8.66,0,0,1,467.59,91.21Zm.8.74h0Zm-1.14-1h0ZM461.4,89.2h0Zm36.81-24.62,2.1,10.86c2.11-2.49,3.67-5.51,3.19-8.39l2.82-.47a8.6,8.6,0,0,0-6.38-5.06C499.45,62.49,498.88,63.5,498.21,64.58Z"/><path class="cls-1" d="M531.92,93c-2.48.46-6.66,3.08-8.16,5.93-1.2,2.23-1,3.75-.6,6.25a13.85,13.85,0,0,0,4.16,8.1,9.3,9.3,0,0,0,7.8,1.77c1.33-.24,5.51-.62,6.67-1.54,4.8-3.5,7.38-6.46,6.73-10.35-.48-2.92-3.13-6.66-5.67-8.74S534.58,92.49,531.92,93Z"/><path class="cls-1" d="M533.06,123.69a17.26,17.26,0,0,1-11.22-4,22.21,22.21,0,0,1-7-13.18c-.47-2.85-1.12-6.76,1.49-11.61,2.82-5.33,9.37-9.41,14.09-10.28,1.16-.21,11.54-1.94,17.83,3.19,3.66,3,7.76,8.46,8.67,13.91,1.64,9.94-6.44,15.92-10,18.52-2.48,1.88-5.58,2.44-9.35,3-.35,0-.65.08-.86.12A19.9,19.9,0,0,1,533.06,123.69Zm-.33-17a2.91,2.91,0,0,0,.86,0c.37-.07.92-.15,1.57-.24s1.67-.24,2.4-.39a18.63,18.63,0,0,0,2.37-2.06,11.21,11.21,0,0,0-2-2.7,13.87,13.87,0,0,0-4.3,0,7.42,7.42,0,0,0-2.23,1.5c0,.35.12.78.15,1A6.43,6.43,0,0,0,532.73,106.74ZM531.18,103Zm2.27-1.67Z"/><path class="cls-1" d="M551.49,21.9c-1.63,1.39-2.74,2.62-4,3.77-4.62,4.15-9.6,9-12.9,15.19q-3.81,7.26-4.72,20.09-.08.77-.37,20.89a9.15,9.15,0,0,0,.08,2.24c.41,2.5,1.76,3.19,4.05,3.11,4.62-.15,5.47,2.29,7-.35,4.27-7.41,3.93-7.24,5-8.94,2.54-6,3.12-6.76,6.63-15.71q1.35-4.86,3.83-17.13.72-2.82,1.33-5.61A28.79,28.79,0,0,0,558,33C558.67,19.58,562.78,11.08,551.49,21.9Z"/><path class="cls-1" d="M539.12,96.51a13.49,13.49,0,0,1-3.84-.61,3.42,3.42,0,0,0-1.39-.24c-6.72.22-11.6-3.69-12.69-10.2a17.65,17.65,0,0,1-.18-4c.27-18.61.34-20.56.39-21.2.7-9.77,2.55-17.4,5.66-23.33,3.88-7.28,9.38-12.74,14.75-17.56.43-.4.85-.8,1.28-1.22.76-.75,1.61-1.59,2.7-2.52,4.23-4.06,10-9.44,16.57-6.14,6.38,3.18,5.57,10,4.84,16-.28,2.36-.6,5-.74,7.9,0,.28,0,.58,0,.91a30.58,30.58,0,0,1-.79,7c-.41,1.86-.86,3.73-1.32,5.58-1.69,8.35-3,14.08-3.94,17.52l-.11.41-.16.41c-2.35,6-3.45,8.46-4.61,11.09-.6,1.35-1.24,2.77-2.1,4.82l-.28.66-.39.61a14.59,14.59,0,0,0-.74,1.31c-.58,1.09-1.56,2.93-4.07,7.3A10.07,10.07,0,0,1,539.12,96.51Zm-.82-35c0,.55-.09,3-.23,12.47v0c.79-1.84,1.39-3.2,2-4.49,1.11-2.49,2.06-4.64,4.16-10,.84-3.1,2-8.52,3.58-16.13l.09-.4c.45-1.78.88-3.58,1.28-5.36l0-.19a11.5,11.5,0,0,0,.29-2A40.22,40.22,0,0,0,542,44.85C540.08,48.58,538.82,54.21,538.3,61.54Zm0,.18v0Zm0-.14v0Z"/><path class="cls-1" d="M359.85,142.93a12,12,0,0,1-5.18-.09c-4.51-1.16-3.94-6.09.62-8.08l4.37-1.89a33.38,33.38,0,0,0,10-7.2,18.67,18.67,0,0,0,4.61-11.91,46.74,46.74,0,0,0-.15-8.56,11.37,11.37,0,0,0-6.24-8.62,20.19,20.19,0,0,0-13.38-1.93q-11.24,2.07-17.57,12.47a40.15,40.15,0,0,0-5.66,28.08q2.36,14.18,13.9,21.6,6.13,3.91,16.34,2a34,34,0,0,0,16.6-7.67c4-3.42,6.89-8,6.4-12.24-.24-2-.9-3.78-1-5.86-.08-1.61-1.64-5.49-.8-7C378.85,132.78,370.13,141,359.85,142.93Zm-14.94-23.12a12.54,12.54,0,0,1,4.09-5.65,11.89,11.89,0,0,1,6.09-2.29c1.54-.19,4.34,2.51,4.39,2.84.24,1.46,1.4,1.93.16,3.84a14.39,14.39,0,0,1-9.62,6.59C349.32,125.27,343.06,124,344.91,119.81Z"/><path class="cls-1" d="M355.33,167.9a26.86,26.86,0,0,1-14.71-4c-9.79-6.3-15.73-15.49-17.7-27.35a48.6,48.6,0,0,1,6.76-33.85C335.21,93.66,343,88.15,353,86.32a28.57,28.57,0,0,1,18.83,2.76,19.79,19.79,0,0,1,10.68,14.73,53.93,53.93,0,0,1,.25,10.32,28.4,28.4,0,0,1-2.45,10.58l9.75,5.61a5.87,5.87,0,0,0,.87-3.21c0,.32.25,1.2.38,1.72a20.46,20.46,0,0,1,.67,3.77,12.46,12.46,0,0,0,.35,1.94c.2.93.46,2.08.62,3.39.78,6.75-2.6,13.91-9.3,19.65a45.15,45.15,0,0,1-28.29,10.32ZM339.18,129a33.79,33.79,0,0,0,.45,4.85,23.05,23.05,0,0,0,5.05,11.47,11.52,11.52,0,0,1-1.55-4.91,12.39,12.39,0,0,1,1.95-7.69A14.77,14.77,0,0,1,339.18,129Zm13.59-9.14.1,0a6.83,6.83,0,0,0-.23-.73,5.65,5.65,0,0,0-.87-1.5,5.14,5.14,0,0,0,.12.8A7.25,7.25,0,0,0,352.77,119.83Zm2.3-16.42c3.87,0,8.31,2.53,10.83,5.8a18.86,18.86,0,0,0-.13-2.63,3,3,0,0,0-1.85-2.51A11.71,11.71,0,0,0,356,103a21.28,21.28,0,0,0-2.09.51h.12A8.26,8.26,0,0,1,355.07,103.41Z"/><path class="cls-2" d="M95.82,103.39c-9.1-1.77-14-.65-18.38-.35a27,27,0,0,0-4.88.8c-.06,0-1.46.18-2.91.47-2.08.4-3.37.72-3.34.86q-20.12,9.08-26.49,12.61a118.1,118.1,0,0,0-24.28,17q-7.83,7.23-7,12.34A6,6,0,0,0,9,148.57q1.32,3.19,6.56,2.23a11.65,11.65,0,0,0,3.35-1.15q.09,0,22-13.94,13.53-8.39,23.18-11.78,12.63-4.37,17.4-5.25a37.16,37.16,0,0,1,9.13-.6,42.92,42.92,0,0,1,6.09.59,4.34,4.34,0,0,1,3.57,4.39q0,2.46-2.66,5.86c-.38.46-.76.89-1.14,1.3-2.68,2.87-5.41,5.74-7.81,8.71a35.89,35.89,0,0,1-9.36,8.67C77.12,149,51.5,173,67.06,141.74l1.32-3.89a9.79,9.79,0,0,0,.43-3.95,4.29,4.29,0,0,0-1.68-2.75c-.94-.72,2.38-1.59-2.84-.81-1.4.2-1.88,2.12-4.63,4.07a61.12,61.12,0,0,1-6.2,4,40.31,40.31,0,0,1-5.81,3.22c-2.43,1.09-2.34,5.75-2.35,7.06-.76.93.46,3.17.87,5.6q1.32,8,1.5,10.24c.08,1.16.1,2.3.07,3.42a32.86,32.86,0,0,1-2.43,10.57L43,184.71c-1.75,4.47-17,31.61-16.62,34.11s10.78-6.27,16.92-11.24a72.77,72.77,0,0,1,6.93-5.31,6.84,6.84,0,0,0,3.67-4.54c.64-2.48,1.24-5,1.8-7.52a67.28,67.28,0,0,1,7.65-17.83A35.76,35.76,0,0,1,75.4,161.24q.73-.35,14.89-7.36a45.48,45.48,0,0,0,13.18-9.94q6.68-7.12,8.49-14.23a31.24,31.24,0,0,0,.87-12.82C111.38,108.14,104.36,105,95.82,103.39Z"/><path class="cls-2" d="M26.93,227.76a9.29,9.29,0,0,1-3.3-.64A8.86,8.86,0,0,1,18,220.2c-.65-3.92.52-6.75,11.42-27.48,2.29-4.35,5.13-9.76,5.66-11.06l2.32-6.15a24.45,24.45,0,0,0,1.89-7.82c0-.84,0-1.7-.06-2.57,0-.5-.27-2.57-1.41-9.45a14.61,14.61,0,0,0-.38-1.46,15.22,15.22,0,0,1-.78-5.76L29,153.31c-3.32,2.1-5,3.19-6.12,3.78l0,0a20.19,20.19,0,0,1-5.79,2c-10.88,2-14.83-4.79-15.86-7.18a14,14,0,0,1-1-3.42c-1.59-9.61,6.83-17.39,9.59-19.94a127.72,127.72,0,0,1,26-18.24c4.49-2.48,13.3-6.68,26.93-12.83a12.21,12.21,0,0,1,2.42-.89c.73-.18,1.69-.39,2.92-.63s2.33-.4,3-.49a35.33,35.33,0,0,1,5.81-.91h.09c.72,0,1.46-.13,2.24-.21a56.8,56.8,0,0,1,18.32.7h0c5.21,1,21,4.08,23.75,20.42a39.72,39.72,0,0,1-1,16.31c-1.57,6.11-5.1,12.14-10.51,17.92A54.22,54.22,0,0,1,94,161.5c-4.74,2.35-12.58,6.23-14.53,7.18a27.3,27.3,0,0,0-9,8.27,59.08,59.08,0,0,0-6.56,15.35c-.56,2.49-1.17,5-1.81,7.54l-.07.26a15.23,15.23,0,0,1-7.71,9.59c-.8.47-3.35,2.55-4.57,3.55l-2.8,2.28C36.63,223.89,31.58,227.76,26.93,227.76ZM56,162.57c.07.58.1,1,.13,1.29.09,1.34.13,2.63.1,3.89a37.83,37.83,0,0,1,2.22-3.07,10,10,0,0,1-1-.68A11.2,11.2,0,0,1,56,162.57Zm-2.22-12.84c.13.42.26.9.39,1.43a36,36,0,0,1,1.2-4c-.63.38-1.11.66-1.57.91,0,.15,0,.31,0,.47Zm-2.46-.46-.11,0ZM76,128.91a12.61,12.61,0,0,1,1.16,3.61,16.88,16.88,0,0,1-.35,6.54,32.61,32.61,0,0,0,5.29-5.45c2-2.49,4.17-4.85,6.31-7.13A30.3,30.3,0,0,0,83,127,66.71,66.71,0,0,0,76,128.91Zm18.83-2Zm-25.2-14-1.57.71c1.24-.41,2.41-.77,3.49-1.11l-.28.06C70.47,112.77,69.94,112.89,69.63,113Z"/><path class="cls-2" d="M148.78,169.05a12,12,0,0,1-5.19-.08c-4.51-1.16-3.94-6.09.62-8.08l4.37-1.89a33.39,33.39,0,0,0,10-7.21,18.67,18.67,0,0,0,4.61-11.9,48,48,0,0,0-.14-8.57,11.41,11.41,0,0,0-6.25-8.61,20.19,20.19,0,0,0-13.38-1.94q-11.23,2.07-17.57,12.47a40.12,40.12,0,0,0-5.65,28.09q2.34,14.16,13.89,21.59,6.15,3.92,16.34,2a33.93,33.93,0,0,0,16.6-7.67c4-3.42,6.89-8,6.4-12.24-.24-2-.9-3.78-1-5.86-.08-1.61-1.64-5.49-.8-7C167.77,158.9,159.05,167.16,148.78,169.05Zm-14.95-23.11a12.43,12.43,0,0,1,4.09-5.65A11.89,11.89,0,0,1,144,138c1.54-.18,4.34,2.51,4.39,2.84.24,1.46,1.41,1.94.16,3.84a14.44,14.44,0,0,1-9.62,6.6C138.24,151.4,132,150.08,133.83,145.94Z"/><path class="cls-2" d="M144.25,194a26.86,26.86,0,0,1-14.71-4c-9.79-6.29-15.73-15.49-17.7-27.35a48.6,48.6,0,0,1,6.76-33.85c5.53-9.07,13.36-14.59,23.29-16.42a28.63,28.63,0,0,1,18.83,2.76,19.8,19.8,0,0,1,10.68,14.74,53.1,53.1,0,0,1,.25,10.32,28.35,28.35,0,0,1-2.45,10.57l9.75,5.61a5.86,5.86,0,0,0,.87-3.21c0,.32.25,1.2.38,1.72a20.42,20.42,0,0,1,.67,3.78,12.58,12.58,0,0,0,.35,1.93,33.74,33.74,0,0,1,.62,3.4c.79,6.74-2.6,13.9-9.3,19.65A45.37,45.37,0,0,1,144.25,194ZM128.1,155.09a33.65,33.65,0,0,0,.45,4.85,23.05,23.05,0,0,0,5,11.47,11.52,11.52,0,0,1-1.55-4.91,12.47,12.47,0,0,1,1.95-7.69A14.77,14.77,0,0,1,128.1,155.09ZM141.69,146l.1,0a7.63,7.63,0,0,0-.23-.73,5.42,5.42,0,0,0-.87-1.49,5.19,5.19,0,0,0,.12.79A7.77,7.77,0,0,0,141.69,146Zm2.3-16.43c3.86,0,8.31,2.53,10.84,5.8a17.56,17.56,0,0,0-.14-2.62,3,3,0,0,0-1.84-2.52A11.67,11.67,0,0,0,145,129.1a18.78,18.78,0,0,0-2.09.5H143A8.26,8.26,0,0,1,144,129.53Z"/><path class="cls-2" d="M240.65,126.35c-2.11-13.56-1.86-11.22-2.14-12.88q-1.62-9.8-8.55-11.31a14.27,14.27,0,0,0-5.62-.14q-4.58.84-9.12,5.43-1.33,1.42-7.44,9c-2.91,3.76-4.7,6.55-6.9,8.63-2.92-3.1-1.93-1.72-4.67-5.53-1.1-1.55-5.78-9-6-8-1,4.3,0,0-1.95,10.82-3.8,15.45-3,12.12-4.22,17.2l-3,11.5c-1.15,5.3-2.62,9.8-1,12.52,2.83,4.66,2.34,3.51,5.88,6.46,1.65.93,3.44,2.56,5.26,3.3,2.36.78,6,3.88,7.55,3.6s1.55-3.08,2.4-4.67c1.35-2.53,3.16-8.53,6.18-16a90.65,90.65,0,0,1,7.11-14.62,78.39,78.39,0,0,1,10.36-13.29C229.21,124.27,232.25,125.3,240.65,126.35Z"/><path class="cls-2" d="M198.53,185.47c-3.26,0-6-1.67-8.29-3-.58-.36-1.45-.88-1.82-1.05l-.4-.15a24.7,24.7,0,0,1-5-2.91c-.48-.34-1-.72-1.29-.88l-.66-.37-.59-.49c-.72-.6-1.25-1-1.66-1.32-2.75-2.11-3.65-3.33-6-7.24-3.19-5.25-1.81-11.18-.59-16.42.17-.74.35-1.51.52-2.3l.08-.33,3-11.4c.7-3,.72-3.06,1.41-5.85.47-1.87,1.24-5,2.75-11.08.9-5,1.12-6.55,1.22-7.28a31,31,0,0,1,.78-3.74,8.57,8.57,0,0,1,6.82-6.47c5.49-1,8.25,2.42,12.18,8.27a1.83,1.83,0,0,1,.13-.16l.1-.14c5.57-6.9,7.12-8.67,7.84-9.45l.17-.17c4.26-4.31,8.84-6.93,13.6-7.81a22.83,22.83,0,0,1,8.93.19c4.72,1,12.91,4.76,15.13,18.2,0,.2,0,.28.08.38.18.87.44,2.05,2.07,12.59l1.72,11.09-11.13-1.39-2.79-.37a28.45,28.45,0,0,0-5.37-.46,5,5,0,0,0-.8.64,71.27,71.27,0,0,0-9.12,11.79,84.45,84.45,0,0,0-6.34,13.16c-1.36,3.34-2.45,6.34-3.41,9a72.74,72.74,0,0,1-3,7.46c0,.14-.07.28-.11.42-1.34,5.15-4.17,8.16-8.4,8.94A9.65,9.65,0,0,1,198.53,185.47Zm10.11-9.23,0,0Zm-14.3-10.73.42.17,1.09-3c1-2.64,2.16-5.94,3.63-9.54a97.19,97.19,0,0,1,7.82-16,85.82,85.82,0,0,1,11.6-14.8l.07-.07a17.75,17.75,0,0,1,11.6-5.27c-.1-.6-.15-.83-.19-1-.07-.33-.12-.58-.22-1.19-.16-1-.78-4.15-2-4.42a6,6,0,0,0-2.28-.09,10,10,0,0,0-4.53,3c-.45.49-2,2.24-6.92,8.39-.82,1.06-1.55,2-2.22,2.94a47.59,47.59,0,0,1-5.51,6.59L200.53,137l-5.69-6c-.55,2.23-.93,3.72-1.19,4.8-.68,2.71-.69,2.76-1.38,5.71l-.25,1-2.76,10.58c-.18.8-.36,1.59-.54,2.36a44,44,0,0,0-.92,4.62c.32.53.7,1.13.92,1.43l.42.33c.42.32,1,.74,1.69,1.32s1.39.93,2,1.35S194,165.33,194.34,165.51Z"/><path class="cls-2" d="M307.27,114.88c-5,2.84,2-1,.1-.06Z"/><path class="cls-2" d="M305.37,124.41a8.48,8.48,0,0,1-3.77-16l1.49-.86.44-.23a8.5,8.5,0,0,1,11.69,3.45c.16.3,3.73,7.34-4.13,11.77-.48.27-1,.59-1.39.76A9.07,9.07,0,0,1,305.37,124.41ZM302.5,108a8.47,8.47,0,0,0,8.19,14.6,5.54,5.54,0,0,0,.45-.37l-2.24-4.41-1.63-2.93,1.29,2.28-1.19-2.34,4,7.16a8.48,8.48,0,0,0-8.89-14Z"/><path class="cls-2" d="M327,98.4a16.23,16.23,0,0,0-.07-4q-.67-4.06-4.49-3.36a21.87,21.87,0,0,0-6,2.61c-3.13,1.65-5,2.61-5.62,2.86q-4.49,1.9-9,3.91c-3.61,1.52-12.89,6.54-15.43,7-1.85.34,1.82-4.93,3.11-9,2.26-5.35,2.26-5.35,4.51-10.7q4.95-9.93,10.94-11a10.82,10.82,0,0,1,4.05-.63,33.74,33.74,0,0,1,4.4.68c18,5,14.53,4.16,6.61-9.91-2.34-4.15-3.36-7.82-8.37-9.62a26.66,26.66,0,0,0-14.3-.91,17.47,17.47,0,0,0-6.95,2.46q-16.14,10.49-23.73,48.81-.81,4-6.63,6.8c-3.36,1.41-6.74,2.78-10.11,4.12-3.34,1.62-8.23,3.93-7.87,6.08.27,1.67,4.43,4.06,7.14,5.54,1.4.59,2.14.84,4.52,1.62,2.61.87,4,1.24,4.76,1.61A4.83,4.83,0,0,1,261,137.6c.53,9.49-1.61,18.3-3,26.52-1.73,10.55-8.27,23.34-19.61,23.41L253,192.8a16.41,16.41,0,0,0,10.26,1.37q4.2-.78,6.22-5.77.42-1,2.05-8.32a226.38,226.38,0,0,0,4.94-39.55,34.17,34.17,0,0,1,1.05-8.45c3-3.78.92-1.62,4-4,1-.33,2.61-1.89,7.56-4.6,1.69-.92,14-6.72,15.21-7,1.69-.91,2.62-1.4,3.07-1.63C316.22,109.84,326.39,104.49,327,98.4Z"/><path class="cls-2" d="M260.14,202.93a24.77,24.77,0,0,1-10.35-2.29l-59-21.27,47.56-.3c6,0,10.19-9.57,11.3-16.32.28-1.67.58-3.37.89-5.08,1-5.67,2.08-11.5,2.05-17.37l-1.6-.52-.24-.08a52,52,0,0,1-4.94-1.8l-.73-.35c-5.52-3-10.54-6.15-11.44-11.58-1.39-8.34,7.16-12.49,12.27-15l.83-.38c3.25-1.28,6.53-2.61,9.75-4a8.14,8.14,0,0,0,1.9-1.2C264,77.63,272.89,60,285.67,51.7A25.64,25.64,0,0,1,295.85,48a35.13,35.13,0,0,1,18.63,1.3c7.23,2.61,9.89,7.77,11.84,11.54.32.61.65,1.24,1,1.89,1.24,2.21,2.37,4.07,3.36,5.7C333.82,73.58,337.07,79,333,84.3a9.62,9.62,0,0,1-1.37,1.46,12.9,12.9,0,0,1,3.61,7.29,24.28,24.28,0,0,1,.14,6v.07c-.93,10.18-11.82,16.28-22.35,22.18l-1.81,1c-.43.22-1.32.68-2.93,1.54l-1,.51-.66.16c-2.3.92-12.06,5.52-13.52,6.32a54.39,54.39,0,0,0-5.08,3.11,23.21,23.21,0,0,1-2.11,1.32l-.57.42,0,.06a47.42,47.42,0,0,0-.41,5.07,235.72,235.72,0,0,1-5.14,41.06c-1.65,7.36-2.09,8.71-2.45,9.61-3.3,8.12-9.28,10.34-12.54,10.94A25.73,25.73,0,0,1,260.14,202.93ZM258,185.67a7.82,7.82,0,0,0,3.34.24,4.61,4.61,0,0,0,.26-.51c.12-.44.55-2,1.71-7.18.31-1.37.61-2.77.89-4.19A41.64,41.64,0,0,1,258,185.67Zm.16-61.37.42.13a22.92,22.92,0,0,1,3.71,1.38l.16.09a13.08,13.08,0,0,1,6.2,7.25,22.72,22.72,0,0,1,.91-3.86L270,128l.88-1.11c.69-.87,1.08-1.4,1.33-1.73a10.61,10.61,0,0,1,2.94-2.87,12.89,12.89,0,0,0,1.16-.84l1.16-.91.71-.24.4-.27A73.88,73.88,0,0,1,285,116l.27-.14a8.72,8.72,0,0,1-6.15-3.42c-3.48-4.58-1.16-9.33.54-12.79a36.08,36.08,0,0,0,1.68-3.8l.27-.74,1.68-4c.83-2,1.33-3.16,2.82-6.7l.23-.5c4.49-9,10.14-14.24,16.8-15.54l.2-.06a15.69,15.69,0,0,1,6.48-.69l1,.11c-1.18-2.24-1.4-2.31-2.14-2.58l-.08,0a18.19,18.19,0,0,0-9.82-.52l-.2,0a9.15,9.15,0,0,0-3.57,1.13l-.1.07c-6,3.9-14.34,14.58-20,43.35-.76,3.75-3.32,9-11.28,12.8l-.39.17C261.56,122.9,259.85,123.6,258.14,124.3Zm48.25.35-.1,0Zm2-40.12-.23.07a16.48,16.48,0,0,1-1.71.42s-1.95.68-4.76,6.22c1.91-.83,3.84-1.67,5.77-2.48.13-.06,1-.47,4.87-2.5l1.22-.67-1.92-.53-.53-.15A25.47,25.47,0,0,0,308.36,84.53Zm-5-16.16h0Z"/><path class="cls-2" d="M433.56,103.55q-1.62.3-3.92,3l-4.51,8.52c-3.15,3.16-8.72,7.73-11.59,8.11s-10,.92-11.47-1.33c-6.62-3.22-1.85-28,5.49-34.71,8.13-7.4,3.67,9,10,6.8a15.67,15.67,0,0,0,11-13.6,5.23,5.23,0,0,0-.24-2.54q-2.28-5.49-9.82-5.92a23.22,23.22,0,0,0-5.84.32q-12.66,2.34-20.42,15.73t-5.41,27.45a33.24,33.24,0,0,0,2.1,7.35,19.18,19.18,0,0,0,10.14,10.2q7.34,3.43,13.94,1.78A34.55,34.55,0,0,0,426.27,128a26.8,26.8,0,0,0,8.66-10.88,19.67,19.67,0,0,0,1.2-10.53Q435.56,103.19,433.56,103.55Z"/><path class="cls-2" d="M408.72,143.7a31,31,0,0,1-13.15-3.11,27.52,27.52,0,0,1-14.39-14.66,41.79,41.79,0,0,1-2.62-9.18c-1.88-11.31.29-22.44,6.43-33.08,6.44-11.13,15.26-17.8,26.22-19.82a32.3,32.3,0,0,1,7.94-.44c11.09.65,15.46,7.24,17.07,11.11l.08.19a13.55,13.55,0,0,1,.75,6.61,24.43,24.43,0,0,1-6.65,14.33,10.69,10.69,0,0,1,1.62-.42h0a10.06,10.06,0,0,1,7.68,1.64c2.54,1.79,4.15,4.6,4.77,8.37a28.1,28.1,0,0,1-1.66,15,35.19,35.19,0,0,1-11.3,14.45,43.19,43.19,0,0,1-16.4,8.24A26.09,26.09,0,0,1,408.72,143.7ZM407.47,115a28.85,28.85,0,0,0,4.45-.19,35.15,35.15,0,0,0,6.34-4.91l4.34-8.19.62-.72c.12-.15.25-.29.38-.44a29,29,0,0,1-3.22,1.34,10.89,10.89,0,0,1-9-.62,10.69,10.69,0,0,1-1.69-1.16C408,105.32,406.94,111.87,407.47,115Zm11.17-34.67a10.91,10.91,0,0,1,1,1.42,7.75,7.75,0,0,0,.38-1.15A6.51,6.51,0,0,0,418.64,80.35Z"/><path class="cls-2" d="M477.15,85.21q2.34-1.83,8.73-3.54c4.53-1.19,7.55-2.28,9.09-3.28,5.85-3.8,13.34-12,11.81-21.19-7.88,2.56-14.37,4.34-13.21,4.2-3.4.9-14.19,5.08-16.54,4.29,3.14-6.3,11.45-16.34,11-19S486,41.65,483.14,39a5.51,5.51,0,0,0-4.78-1.59q-5.43,1-10.27,12.09c-3.36,7-5.78,12.35-8,16-3.76,6.19-5.57,6.29-11.35,7.35-1.15.21-2.86.46-5.14.73s-12.31-.14-13.39.06c.34,5.59,7.95,10.08,9.09,10.4,11.89,3.39,4.67,1.29,12.49,4.19a21.09,21.09,0,0,0,3.5.93c2.34.28,1.65.06,2,.3,2.39,1.67,1.75,2.06,2.35,5.29l1.24,7.46a28.17,28.17,0,0,0,6.44,14q5.83,6.82,12.7,5.56,8.86-1.63,15-11.78c4.08-6.76,5.84-16.46,7.64-25.41a87.48,87.48,0,0,1-10.27,9.26c-4.22,3-6.38,4.54-6.5,4.63a20.83,20.83,0,0,1-5.65,2.65c-2.47.46-4.23-1-5.26-4.5a21.43,21.43,0,0,1-.64-2.68Q473.42,88.15,477.15,85.21Z"/><path class="cls-2" d="M477.89,130.37c-4.94,0-11.1-1.85-17-8.71a36.59,36.59,0,0,1-8.36-18.09L451.46,97c-1.42-.39-2.56-.81-2.58-.81-3-1.1-4-1.57-4.85-2l0,0c-.49-.16-2.19-.65-4.91-1.42L437,92.16c-3.17-.9-14.57-7.43-15.21-18l-.46-7.48,7.38-1.36c1.26-.23,2.52-.22,7.11-.15,2.06,0,5.9.1,6.86,0,2.53-.31,3.88-.52,4.55-.64l.7-.13a26.67,26.67,0,0,0,3.07-.66,13.64,13.64,0,0,0,1.88-2.63c1.49-2.45,3.25-6.17,5.49-10.88.63-1.33,1.3-2.74,2-4.21,4.46-10.15,9.83-15.67,16.43-16.89a14,14,0,0,1,11.93,3.57l.12.11c4.27,3.93,6.8,8.14,7.53,12.54a11.37,11.37,0,0,1-1,6.55c2.36-.72,5.43-1.65,8.76-2.74l9.36-3,1.61,9.71a23.66,23.66,0,0,1,.32,4l1.06-1.06-5.86,29.12c-1.85,9.26-3.77,18.84-8.36,26.45-5.37,8.89-12.34,14.18-20.7,15.72A20.25,20.25,0,0,1,477.89,130.37Zm-7.1-24.43a19.16,19.16,0,0,0,3,4.71c2.66,3.11,4.11,2.84,4.73,2.73,2.83-.52,5.38-2.34,7.75-5.54a18.38,18.38,0,0,1-4.47,1.55A12.24,12.24,0,0,1,470.79,105.94ZM451.1,95.21Zm11.41-12.46a12.82,12.82,0,0,1,3.83,4.1,16.09,16.09,0,0,1,5.57-8.29l0,0c2.53-2,6.26-3.57,11.74-5a38.42,38.42,0,0,0,6.48-2.11C482.16,74,478,75,474.35,73.72l-7.77-2.59c-3.78,5.8-7.09,7.87-11.88,9.11l.08,0a15.7,15.7,0,0,0,1.64.47c.66.08.94.1,1.07.11A8.52,8.52,0,0,1,462.51,82.75Zm.8.73h0Zm-1.14-1h0Zm-5.85-1.77h0Zm36.81-24.62L495.23,67c2.11-2.49,3.67-5.51,3.19-8.39l2.81-.46a8.56,8.56,0,0,0-6.37-5.07C494.37,54,493.79,55,493.13,56.11Z"/><path class="cls-2" d="M526.84,84.51c-2.48.46-6.66,3.08-8.16,5.93-1.2,2.23-1,3.75-.6,6.25a13.82,13.82,0,0,0,4.16,8.1,9.34,9.34,0,0,0,7.8,1.78c1.33-.25,5.51-.62,6.67-1.55,4.8-3.49,7.38-6.46,6.73-10.35-.48-2.92-3.13-6.66-5.67-8.74S529.5,84,526.84,84.51Z"/><path class="cls-2" d="M528,115.22a17.2,17.2,0,0,1-11.22-4,22.16,22.16,0,0,1-7-13.17c-.47-2.86-1.12-6.76,1.49-11.62,2.82-5.33,9.37-9.4,14.09-10.27,1.16-.22,11.54-2,17.82,3.19,3.67,3,7.77,8.46,8.68,13.9,1.64,9.94-6.44,15.92-10,18.52-2.48,1.88-5.58,2.44-9.35,3l-.86.12A19,19,0,0,1,528,115.22Zm-.33-17a2.59,2.59,0,0,0,.86,0c.37-.07.92-.15,1.57-.24s1.66-.24,2.4-.38a18.42,18.42,0,0,0,2.37-2.07,11.41,11.41,0,0,0-2-2.7,14.19,14.19,0,0,0-4.3,0,7.42,7.42,0,0,0-2.23,1.5c0,.35.12.79.15,1A6.43,6.43,0,0,0,527.65,98.27Zm-1.55-3.76Zm2.27-1.67Z"/><path class="cls-2" d="M546.41,13.43c-1.63,1.39-2.74,2.62-4,3.77-4.62,4.15-9.6,9-12.9,15.2q-3.81,7.24-4.72,20.08-.07.77-.37,20.89a9.13,9.13,0,0,0,.08,2.24c.41,2.5,1.76,3.19,4,3.12,4.62-.16,5.47,2.28,7-.36,4.27-7.41,3.93-7.24,5-8.94,2.54-6,3.12-6.75,6.63-15.71q1.35-4.86,3.83-17.13c.48-1.87.92-3.75,1.33-5.61a28.75,28.75,0,0,0,.6-6.45C553.59,11.12,557.7,2.61,546.41,13.43Z"/><path class="cls-2" d="M534,88a13.15,13.15,0,0,1-3.84-.61,3.6,3.6,0,0,0-1.39-.24c-6.72.22-11.6-3.69-12.69-10.19a17.67,17.67,0,0,1-.18-4c.27-18.62.34-20.57.39-21.21.7-9.77,2.55-17.4,5.66-23.32,3.88-7.29,9.38-12.75,14.75-17.57.43-.39.84-.8,1.27-1.22.77-.75,1.62-1.59,2.71-2.52,4.23-4.05,10-9.43,16.57-6.14,6.38,3.19,5.57,10,4.84,16-.28,2.36-.6,5-.74,7.9,0,.28,0,.59,0,.91a30.66,30.66,0,0,1-.79,7c-.41,1.85-.86,3.72-1.32,5.57-1.69,8.35-3,14.09-3.94,17.52l-.11.42-.16.4c-2.35,6-3.45,8.47-4.61,11.09-.6,1.35-1.24,2.77-2.1,4.82l-.28.67-.39.61a12.9,12.9,0,0,0-.74,1.3c-.58,1.09-1.56,2.93-4.07,7.3A10.07,10.07,0,0,1,534,88Zm-.82-35c0,.55-.09,3-.23,12.47v0c.79-1.85,1.39-3.2,2-4.5,1.11-2.48,2.06-4.64,4.16-10,.84-3.11,2-8.53,3.58-16.14l.09-.4c.45-1.77.88-3.58,1.28-5.36l0-.19a11.52,11.52,0,0,0,.29-2A40.17,40.17,0,0,0,537,36.38C535,40.11,533.74,45.74,533.22,53.07Zm0,.18v0Zm0-.13v0Z"/><path class="cls-2" d="M354.77,134.46a12,12,0,0,1-5.18-.08c-4.52-1.16-3.94-6.09.62-8.08l4.37-1.89a33.39,33.39,0,0,0,10-7.21,18.67,18.67,0,0,0,4.61-11.9,46.82,46.82,0,0,0-.15-8.57,11.36,11.36,0,0,0-6.24-8.61,20.19,20.19,0,0,0-13.38-1.94q-11.24,2.07-17.57,12.47a40.18,40.18,0,0,0-5.66,28.09q2.35,14.16,13.9,21.59,6.14,3.91,16.34,2a33.93,33.93,0,0,0,16.6-7.67c4-3.42,6.89-8,6.4-12.24-.24-2-.91-3.78-1-5.86-.08-1.61-1.65-5.49-.8-7C373.77,124.31,365.05,132.57,354.77,134.46Zm-14.94-23.11a12.43,12.43,0,0,1,4.09-5.65,11.89,11.89,0,0,1,6.09-2.3c1.54-.18,4.34,2.51,4.39,2.84.24,1.46,1.4,1.94.16,3.84a14.46,14.46,0,0,1-9.62,6.6C344.24,116.81,338,115.49,339.83,111.35Z"/><path class="cls-2" d="M350.25,159.44a26.86,26.86,0,0,1-14.71-4c-9.79-6.29-15.73-15.49-17.7-27.35a48.6,48.6,0,0,1,6.76-33.85c5.53-9.07,13.36-14.59,23.29-16.42a28.63,28.63,0,0,1,18.83,2.76A19.82,19.82,0,0,1,377.4,95.35a53.89,53.89,0,0,1,.25,10.32,28.39,28.39,0,0,1-2.45,10.57l9.75,5.61a5.86,5.86,0,0,0,.87-3.21c0,.32.25,1.2.38,1.72a20.46,20.46,0,0,1,.67,3.77,12.26,12.26,0,0,0,.35,1.94c.2.93.46,2.09.62,3.4.78,6.74-2.6,13.9-9.3,19.65a45.37,45.37,0,0,1-28.29,10.32ZM334.1,120.5a33.65,33.65,0,0,0,.45,4.85,23.05,23.05,0,0,0,5.05,11.47,11.34,11.34,0,0,1-1.55-4.91,12.41,12.41,0,0,1,1.95-7.69A14.77,14.77,0,0,1,334.1,120.5Zm13.59-9.13.1,0a7.63,7.63,0,0,0-.23-.73,5.42,5.42,0,0,0-.87-1.49,5.32,5.32,0,0,0,.12.8A8,8,0,0,0,347.69,111.37ZM350,94.94c3.87,0,8.31,2.53,10.83,5.8a18.62,18.62,0,0,0-.13-2.62,3,3,0,0,0-1.85-2.52A11.65,11.65,0,0,0,351,94.51a18.78,18.78,0,0,0-2.09.5H349A8.26,8.26,0,0,1,350,94.94Z"/><path class="cls-3" d="M95.82,103.39c-9.1-1.77-14-.65-18.38-.35a27,27,0,0,0-4.88.8c-.06,0-1.46.18-2.91.47-2.08.4-3.37.72-3.34.86q-20.12,9.08-26.49,12.61a118.1,118.1,0,0,0-24.28,17q-7.83,7.23-7,12.34A6,6,0,0,0,9,148.57q1.32,3.19,6.56,2.23a11.65,11.65,0,0,0,3.35-1.15q.09,0,22-13.94,13.53-8.39,23.18-11.78,12.63-4.37,17.4-5.25a37.16,37.16,0,0,1,9.13-.6,42.92,42.92,0,0,1,6.09.59,4.34,4.34,0,0,1,3.57,4.39q0,2.46-2.66,5.86c-.38.46-.76.89-1.14,1.3-2.68,2.87-5.41,5.74-7.81,8.71a35.89,35.89,0,0,1-9.36,8.67C77.12,149,51.5,173,67.06,141.74l1.32-3.89a9.79,9.79,0,0,0,.43-3.95,4.29,4.29,0,0,0-1.68-2.75c-.94-.72,2.38-1.59-2.84-.81-1.4.2-1.88,2.12-4.63,4.07a61.12,61.12,0,0,1-6.2,4,40.31,40.31,0,0,1-5.81,3.22c-2.43,1.09-2.34,5.75-2.35,7.06-.76.93.46,3.17.87,5.6q1.32,8,1.5,10.24c.08,1.16.1,2.3.07,3.42a32.86,32.86,0,0,1-2.43,10.57L43,184.71c-1.75,4.47-17,31.61-16.62,34.11s10.78-6.27,16.92-11.24a72.77,72.77,0,0,1,6.93-5.31,6.84,6.84,0,0,0,3.67-4.54c.64-2.48,1.24-5,1.8-7.52a67.28,67.28,0,0,1,7.65-17.83A35.76,35.76,0,0,1,75.4,161.24q.73-.35,14.89-7.36a45.48,45.48,0,0,0,13.18-9.94q6.68-7.12,8.49-14.23a31.24,31.24,0,0,0,.87-12.82C111.38,108.14,104.36,105,95.82,103.39Z"/><path class="cls-4" d="M148.78,169.05a12,12,0,0,1-5.19-.08c-4.51-1.16-3.94-6.09.62-8.08l4.37-1.89a33.39,33.39,0,0,0,10-7.21,18.67,18.67,0,0,0,4.61-11.9,48,48,0,0,0-.14-8.57,11.41,11.41,0,0,0-6.25-8.61,20.19,20.19,0,0,0-13.38-1.94q-11.23,2.07-17.57,12.47a40.12,40.12,0,0,0-5.65,28.09q2.34,14.16,13.89,21.59,6.15,3.92,16.34,2a33.93,33.93,0,0,0,16.6-7.67c4-3.42,6.89-8,6.4-12.24-.24-2-.9-3.78-1-5.86-.08-1.61-1.64-5.49-.8-7C167.77,158.9,159.05,167.16,148.78,169.05Zm-14.95-23.11a12.43,12.43,0,0,1,4.09-5.65A11.89,11.89,0,0,1,144,138c1.54-.18,4.34,2.51,4.39,2.84.24,1.46,1.41,1.94.16,3.84a14.44,14.44,0,0,1-9.62,6.6C138.24,151.4,132,150.08,133.83,145.94Z"/><path class="cls-5" d="M240.65,126.35c-2.11-13.56-1.86-11.22-2.14-12.88q-1.62-9.8-8.55-11.31a14.27,14.27,0,0,0-5.62-.14q-4.58.84-9.12,5.43-1.33,1.42-7.44,9c-2.91,3.76-4.7,6.55-6.9,8.63-2.92-3.1-1.93-1.72-4.67-5.53-1.1-1.55-5.78-9-6-8-1,4.3,0,0-1.95,10.82-3.8,15.45-3,12.12-4.22,17.2l-3,11.5c-1.15,5.3-2.62,9.8-1,12.52,2.83,4.66,2.34,3.51,5.88,6.46,1.65.93,3.44,2.56,5.26,3.3,2.36.78,6,3.88,7.55,3.6s1.55-3.08,2.4-4.67c1.35-2.53,3.16-8.53,6.18-16a90.65,90.65,0,0,1,7.11-14.62,78.39,78.39,0,0,1,10.36-13.29C229.21,124.27,232.25,125.3,240.65,126.35Z"/><path class="cls-6" d="M307.27,114.88c-5,2.84,2-1,.1-.06Z"/><path class="cls-7" d="M327,98.4a16.23,16.23,0,0,0-.07-4q-.67-4.06-4.49-3.36a21.87,21.87,0,0,0-6,2.61c-3.13,1.65-5,2.61-5.62,2.86q-4.49,1.9-9,3.91c-3.61,1.52-12.89,6.54-15.43,7-1.85.34,1.82-4.93,3.11-9,2.26-5.35,2.26-5.35,4.51-10.7q4.95-9.93,10.94-11a10.82,10.82,0,0,1,4.05-.63,33.74,33.74,0,0,1,4.4.68c18,5,14.53,4.16,6.61-9.91-2.34-4.15-3.36-7.82-8.37-9.62a26.66,26.66,0,0,0-14.3-.91,17.47,17.47,0,0,0-6.95,2.46q-16.14,10.49-23.73,48.81-.81,4-6.63,6.8c-3.36,1.41-6.74,2.78-10.11,4.12-3.34,1.62-8.23,3.93-7.87,6.08.27,1.67,4.43,4.06,7.14,5.54,1.4.59,2.14.84,4.52,1.62,2.61.87,4,1.24,4.76,1.61A4.83,4.83,0,0,1,261,137.6c.53,9.49-1.61,18.3-3,26.52-1.73,10.55-8.27,23.34-19.61,23.41L253,192.8a16.41,16.41,0,0,0,10.26,1.37q4.2-.78,6.22-5.77.42-1,2.05-8.32a226.38,226.38,0,0,0,4.94-39.55,34.17,34.17,0,0,1,1.05-8.45c3-3.78.92-1.62,4-4,1-.33,2.61-1.89,7.56-4.6,1.69-.92,14-6.72,15.21-7,1.69-.91,2.62-1.4,3.07-1.63C316.22,109.84,326.39,104.49,327,98.4Z"/><path class="cls-8" d="M433.56,103.55q-1.62.3-3.92,3l-4.51,8.52c-3.15,3.16-8.72,7.73-11.59,8.11s-10,.92-11.47-1.33c-6.62-3.22-1.85-28,5.49-34.71,8.13-7.4,3.67,9,10,6.8a15.67,15.67,0,0,0,11-13.6,5.23,5.23,0,0,0-.24-2.54q-2.28-5.49-9.82-5.92a23.22,23.22,0,0,0-5.84.32q-12.66,2.34-20.42,15.73t-5.41,27.45a33.24,33.24,0,0,0,2.1,7.35,19.18,19.18,0,0,0,10.14,10.2q7.34,3.43,13.94,1.78A34.55,34.55,0,0,0,426.27,128a26.8,26.8,0,0,0,8.66-10.88,19.67,19.67,0,0,0,1.2-10.53Q435.56,103.19,433.56,103.55Z"/><path class="cls-9" d="M477.15,85.21q2.34-1.83,8.73-3.54c4.53-1.19,7.55-2.28,9.09-3.28,5.85-3.8,13.34-12,11.81-21.19-7.88,2.56-14.37,4.34-13.21,4.2-3.4.9-14.19,5.08-16.54,4.29,3.14-6.3,11.45-16.34,11-19S486,41.65,483.14,39a5.51,5.51,0,0,0-4.78-1.59q-5.43,1-10.27,12.09c-3.36,7-5.78,12.35-8,16-3.76,6.19-5.57,6.29-11.35,7.35-1.15.21-2.86.46-5.14.73s-12.31-.14-13.39.06c.34,5.59,7.95,10.08,9.09,10.4,11.89,3.39,4.67,1.29,12.49,4.19a21.09,21.09,0,0,0,3.5.93c2.34.28,1.65.06,2,.3,2.39,1.67,1.75,2.06,2.35,5.29l1.24,7.46a28.17,28.17,0,0,0,6.44,14q5.83,6.82,12.7,5.56,8.86-1.63,15-11.78c4.08-6.76,5.84-16.46,7.64-25.41a87.48,87.48,0,0,1-10.27,9.26c-4.22,3-6.38,4.54-6.5,4.63a20.83,20.83,0,0,1-5.65,2.65c-2.47.46-4.23-1-5.26-4.5a21.43,21.43,0,0,1-.64-2.68Q473.42,88.15,477.15,85.21Z"/><path class="cls-10" d="M526.84,84.51c-2.48.46-6.66,3.08-8.16,5.93-1.2,2.23-1,3.75-.6,6.25a13.82,13.82,0,0,0,4.16,8.1,9.34,9.34,0,0,0,7.8,1.78c1.33-.25,5.51-.62,6.67-1.55,4.8-3.49,7.38-6.46,6.73-10.35-.48-2.92-3.13-6.66-5.67-8.74S529.5,84,526.84,84.51Z"/><path class="cls-11" d="M546.41,13.43c-1.63,1.39-2.74,2.62-4,3.77-4.62,4.15-9.6,9-12.9,15.2q-3.81,7.24-4.72,20.08-.07.77-.37,20.89a9.13,9.13,0,0,0,.08,2.24c.41,2.5,1.76,3.19,4,3.12,4.62-.16,5.47,2.28,7-.36,4.27-7.41,3.93-7.24,5-8.94,2.54-6,3.12-6.75,6.63-15.71q1.35-4.86,3.83-17.13c.48-1.87.92-3.75,1.33-5.61a28.75,28.75,0,0,0,.6-6.45C553.59,11.12,557.7,2.61,546.41,13.43Z"/><path class="cls-12" d="M354.77,134.46a12,12,0,0,1-5.18-.08c-4.52-1.16-3.94-6.09.62-8.08l4.37-1.89a33.39,33.39,0,0,0,10-7.21,18.67,18.67,0,0,0,4.61-11.9,46.82,46.82,0,0,0-.15-8.57,11.36,11.36,0,0,0-6.24-8.61,20.19,20.19,0,0,0-13.38-1.94q-11.24,2.07-17.57,12.47a40.18,40.18,0,0,0-5.66,28.09q2.35,14.16,13.9,21.59,6.14,3.91,16.34,2a33.93,33.93,0,0,0,16.6-7.67c4-3.42,6.89-8,6.4-12.24-.24-2-.91-3.78-1-5.86-.08-1.61-1.65-5.49-.8-7C373.77,124.31,365.05,132.57,354.77,134.46Zm-14.94-23.11a12.43,12.43,0,0,1,4.09-5.65,11.89,11.89,0,0,1,6.09-2.3c1.54-.18,4.34,2.51,4.39,2.84.24,1.46,1.4,1.94.16,3.84a14.46,14.46,0,0,1-9.62,6.6C344.24,116.81,338,115.49,339.83,111.35Z"/><path class="cls-13" d="M53.3,114.27a125.91,125.91,0,0,1,12.31-4.94,117.08,117.08,0,0,1,12.83-3.57c2.19-.47,4.39-.89,6.61-1.22a36.41,36.41,0,0,1,6.77-.3,30.27,30.27,0,0,1,6.74,1.14,17.67,17.67,0,0,1,6.09,3l-.14.26a41,41,0,0,0-12.75-1.43,114.87,114.87,0,0,0-12.89.88A118.19,118.19,0,0,0,66,110.76c-4.25,1.07-8.47,2.35-12.62,3.79Z"/><path class="cls-13" d="M137.13,125a29,29,0,0,1,6.12-2.74,20.38,20.38,0,0,1,6.76-1,14.17,14.17,0,0,1,3.5.55,8.62,8.62,0,0,1,3.17,1.73,11.89,11.89,0,0,1,1.26,1.3,10.28,10.28,0,0,1,1,1.49,9.91,9.91,0,0,1,1.09,3.28l-.19.07a18.49,18.49,0,0,0-4.36-4.56,12.72,12.72,0,0,0-5.58-2.27,19.33,19.33,0,0,0-6.37.34,30.35,30.35,0,0,0-6.27,2Z"/><path class="cls-13" d="M213.17,111.72a37.92,37.92,0,0,1,5.6-4.64,22.06,22.06,0,0,1,6.76-3.2,12,12,0,0,1,4.05-.39,6.64,6.64,0,0,1,3.93,1.84,9,9,0,0,1,1.3,1.7,9.14,9.14,0,0,1,.74,1.89,9.53,9.53,0,0,1,.28,3.82l-.3.06c-1.3-2.13-2.43-4.15-4-5.2a7.52,7.52,0,0,0-2.47-1.18,7.6,7.6,0,0,0-3.07-.18,23.32,23.32,0,0,0-6.49,2.14,45,45,0,0,0-6.14,3.57Z"/><path class="cls-13" d="M285.53,64.94a48.47,48.47,0,0,1,8.31-5.23,32.82,32.82,0,0,1,9.53-3.06,19.52,19.52,0,0,1,5.24-.07,11.38,11.38,0,0,1,5,2,11.89,11.89,0,0,1,3.52,4,13.19,13.19,0,0,1,1.58,4.84l-.28.11a37,37,0,0,0-3-3.71A14.17,14.17,0,0,0,312,61.06a17.54,17.54,0,0,0-4-1.56A14.59,14.59,0,0,0,303.6,59a31.33,31.33,0,0,0-9.17,2.05,53.75,53.75,0,0,0-8.73,4.1Z"/><path class="cls-13" d="M342.53,89.67A28.93,28.93,0,0,1,349,87.39a22,22,0,0,1,6.93-.45,16.63,16.63,0,0,1,3.5.77,9.18,9.18,0,0,1,3.14,1.86,12.17,12.17,0,0,1,1.26,1.33,11,11,0,0,1,1,1.51,10.09,10.09,0,0,1,1.12,3.33l-.18.08a20,20,0,0,0-4.43-4.7,14.76,14.76,0,0,0-5.63-2.6,20.86,20.86,0,0,0-6.51-.14,31.37,31.37,0,0,0-6.52,1.47Z"/><path class="cls-13" d="M402.41,78.05a39.93,39.93,0,0,1,6.22-3.42,27.65,27.65,0,0,1,6.92-2.11,18.74,18.74,0,0,1,3.78-.3,8.5,8.5,0,0,1,3.85,1.06,8,8,0,0,1,2.89,2.83,7.56,7.56,0,0,1,1,3.68l-.29.09a22,22,0,0,0-2.34-2.44A9.08,9.08,0,0,0,421.86,76a15.82,15.82,0,0,0-6.07-1.08A31.71,31.71,0,0,0,409.13,76a49.08,49.08,0,0,0-6.57,2.27Z"/><path class="cls-13" d="M473.24,41.86a13.53,13.53,0,0,1,3.61-2.27,7.69,7.69,0,0,1,4.6-.53,6.77,6.77,0,0,1,2.41,1,4.62,4.62,0,0,1,1.61,2,6,6,0,0,1,.5,2.32,5.54,5.54,0,0,1-.4,2.29l-.3.05a8.91,8.91,0,0,1-.71-.89c-.22-.28-.42-.56-.6-.83-.41-.52-.74-1-1.1-1.45l-.94-1.22a3.12,3.12,0,0,0-1.16-1,6.72,6.72,0,0,0-3.51-.32,15.63,15.63,0,0,0-3.85,1.08Z"/><path class="cls-13" d="M496.22,62.24a21.87,21.87,0,0,1,2.76-2,12.78,12.78,0,0,1,3.26-1.4,6.52,6.52,0,0,1,2.13-.25,2.79,2.79,0,0,1,1.33.49,2.73,2.73,0,0,1,1,1.24,3,3,0,0,1-.12,2.38,3.59,3.59,0,0,1-1.26,1.53l-.28-.09c-.26-.64-.39-1.2-.55-1.66a1.55,1.55,0,0,0-.49-.85c-.07,0-.06,0-.08,0s0,0-.05,0-.06-.06-.12-.09a2.11,2.11,0,0,0-1.14-.27,15.39,15.39,0,0,0-3,.42c-1.06.2-2.11.52-3.18.83Z"/><path class="cls-13" d="M524.49,86.75a17.41,17.41,0,0,1,4.9-1.49,13.65,13.65,0,0,1,5.31.22l1.35.38,1.31.55a6.43,6.43,0,0,1,1.2.8,6.19,6.19,0,0,1,.55.47l.45.56a7.36,7.36,0,0,1,1.55,5.22l-.28.1c-.76-.59-1.23-1.24-1.82-1.77-.3-.26-.56-.53-.82-.8s-.57-.46-.83-.7a6.31,6.31,0,0,0-.79-.68c-.28-.2-.51-.49-.79-.69l-.86-.65c-.31-.19-.64-.35-1-.52a14.07,14.07,0,0,0-4.49-1,19.9,19.9,0,0,0-4.86.27Z"/><path class="cls-13" d="M533.11,29.24c1.54-2.11,3.17-4.15,4.82-6.18s3.41-4,5.26-5.86c.93-.94,1.87-1.87,2.9-2.75a12.8,12.8,0,0,1,1.71-1.22,8.2,8.2,0,0,1,1-.48,3.32,3.32,0,0,1,1.38-.21,1.92,1.92,0,0,1,1.55,1,3,3,0,0,1,.31,1.35,7.93,7.93,0,0,1-.34,2.14,16.32,16.32,0,0,1-1.62,3.67l-.19-.06c.14-1.32.33-2.61.42-3.86a8.38,8.38,0,0,0,0-1.75,1.25,1.25,0,0,0-.18-.53c-.07,0,0,.05,0,0a3.54,3.54,0,0,0-1.25.51c-.51.28-1,.62-1.53,1a31.71,31.71,0,0,0-3,2.35c-1.94,1.69-3.8,3.51-5.62,5.36s-3.63,3.73-5.41,5.64Z"/></g></g></svg>