<svg xmlns="http://www.w3.org/2000/svg" viewBox="0 0 384.72 258.29"><defs><style>.cls-1{fill:#543ea3;stroke:#7d029b;stroke-width:11px;}.cls-1,.cls-2,.cls-3{stroke-miterlimit:10;}.cls-2,.cls-4{fill:#fff;}.cls-2{stroke:#bd2be0;stroke-width:7px;}.cls-3{fill:#0303ff;stroke:blue;}.cls-5{fill:#fcfafa;}</style></defs><g id="Capa_2" data-name="Capa 2"><g id="Letras"><path class="cls-1" d="M93,134.72a2.55,2.55,0,0,0-2.64-.53l-42.11,8.5c3.51.1,8-.18,11.49,1.09,3.7,1.36,7.57,8.88,7.79,12.46,0,.32-.78,4.21-1.6,8l-3.44,11L60.7,178l-2.91,3.79S51.15,191,46.67,192.14a15.38,15.38,0,0,1-5.7.3Q33.78,191.8,28,181a26.09,26.09,0,0,1-2.55-7.57Q23.08,161,28.21,142.45c.49-1.78,1-3.53,1.6-5.25,2-6,6.16-13.41,10.11-19.8,6.4-10.32,14.81-17.68,24.34-21.12,6.84-2.47,13.82-4.46,20.15-7.46C80.88,79.87,75.28,77,69.73,75.16a31.67,31.67,0,0,0-5.27-1.36c-6.53-1-13.26,1.66-19,5.11q-19.39,11.34-28.19,41-9.21,30.95-2.35,67.31,5.76,30.57,20.46,33.24a20.71,20.71,0,0,0,9.06-.17c6.27-1.59,10.81-7,16.19-10.88,2.31,5.82,2,16.81-.77,21.63a78.21,78.21,0,0,0,6.55-7l1.35-1.56c1.25-1.45,2.51-2.9,3.72-4.42,5.07-6.35,6-18.93,8.27-28.1q2.35-9.65,4.69-19.43c1.48-5.76,3.17-11.95,5.65-16.88s5.16-9,3.93-16.27A5.53,5.53,0,0,0,93,134.72Z"/><path class="cls-1" d="M281.65,156.81c-1.74,3.63-4.84,1-4.84,1s-5.52-8.22-7.05-16.31c-1.68-8.93.95-26.2.86-25.89a1.52,1.52,0,0,0,.09-.31c.59-4.07,1.6-9.61.86-14.32Q266.86,73.57,251,77.59q-6.7,1.71-13.29,8.75-10.41,11-15.17,27.69a86.32,86.32,0,0,0-1.44,39.7q2.4,12.71,7,20.47,5.08,8.66,10.61,7.24c2.53-.64,4.67-2.8,6.4-5.31,1.88-2.72,5.11-4.22,7.5-6a16.4,16.4,0,0,1,2.17-1.45,12.71,12.71,0,0,1,2.6-1,12.51,12.51,0,0,1,6.17-.38c2.06.5,3.82,2.12,5.74,3.34l1.1.88c2.72,1.74,4.71.63,7.37-.56l1-1.06.87-1.61,1.69-4.86,1.13-3.59.49-1.95S286.38,146.9,281.65,156.81Zm-32.37-4.9c-.62,0-3.24-4.45-3.24-4.45a19.86,19.86,0,0,1,.1-17.71c6.6-13.14,8.14-10.47,10.51,2.12C257.78,148.3,256.11,152.32,249.28,151.91Z"/><path class="cls-1" d="M138.48,106.91a5.94,5.94,0,0,0-4.26-.73q-3.3.84-6,7.3-.77,2-4.17,12.78c-1.59,5.36-2.49,9.38-3.82,12.29a64.42,64.42,0,0,1-4.39-8.71c-1.09-2.42-5.8-14-5.82-12.47-.08,6.35,0,0,.27,16-.4,22.77-.35,17.86-.43,25.36l-.42,17c0,7.82-.41,14.43,1.28,18.66,2.87,7.22,2.32,5.46,5.46,10.2,1.39,1.55,3,4.16,4.49,5.43,1.9,1.39,5.17,6.37,6.27,6.08s.67-4.47,1.06-6.77c.6-3.67,1-12.49,2.1-23.34a187.73,187.73,0,0,1,3-21.23q2.89-12.63,5.68-19c2.66-5.85,5.12-4,11.62-1.68-3.76-20.5-3.2-17-3.68-19.49Q143.94,109.82,138.48,106.91Z"/><path class="cls-1" d="M206.84,158.68c-.32-2.42-2.12-8.37-1.71-10.5-1.83,9.66-7.08,21.22-14.52,23.11a5,5,0,0,1-3.92-.6c-3.58-2.15-3.94-9.49-.82-12,1-.82,2-1.63,3-2.43a26.54,26.54,0,0,0,6.38-9.88q2.46-6.9,1.56-17.4c-.51-6-1-10.31-1.48-12.84q-1.65-8.8-6.08-13.47Q184,97.19,178.85,98.5q-8.15,2.07-11.24,17.06-4,19.33.23,41.54,4,21.43,13.93,33.61,5.25,6.42,12.64,4.55,7.17-1.83,11.27-10a29.59,29.59,0,0,0,2.86-17.74C208.05,164.51,207.26,161.8,206.84,158.68Zm-31.19-23.37a19.11,19.11,0,0,1,2.18-8.09,5.33,5.33,0,0,1,4.22-2.87c1.13-.14,3.67,4.15,3.76,4.65.42,2.21,1.37,3,.74,5.77-1.81,7.87-5.41,8.79-6.19,9C179.85,143.89,174.92,141.34,175.65,135.31Z"/><path class="cls-1" d="M373.17,120.41c-2.24-3.34-6.53-3.63-8.46-3.14s-4.53,4-5.19,8.14c-.56,3.22-.17,5.52.54,9.3.83,4.41,2.4,9.4,4.43,12.51s4.32,3.84,6.16,3.37c1-.24,4.06-.42,4.78-1.7,3.06-4.79,4.53-9,3.42-14.88A42.24,42.24,0,0,0,373.17,120.41Z"/><path class="cls-1" d="M368.07,12.64c-1,1.92-1.64,3.67-2.42,5.27a76.36,76.36,0,0,0-7.29,21.57Q356.67,50,358,69.12q.08,1.14,3.07,31.25a28,28,0,0,0,.42,3.36c.71,3.78,1.83,4.94,3.55,5,3.45.19,4.49,3.92,5.21.11,2-10.71,1.8-10.48,2.35-12.93.95-8.79,1.27-9.83,2.48-22.92q.24-7.16.14-25.3.09-4.14.11-8.28a83.91,83.91,0,0,0-.58-9.59C373.12,9.82,374.85-2.54,368.07,12.64Z"/><path class="cls-1" d="M324.49,99Q329.3,97,330.8,95c3.8-5.14,8.14-16.67,5.51-30.64-5.53,3.11-10.13,5.19-9.28,5.08-2.42,1-9.88,6.3-11.78,4.91,1.36-9.15,6-23.42,5.27-27.41a36,36,0,0,0-4.93-12c-1.38-2.18-2.66-3.12-3.86-2.82q-3.93,1-5.8,17.17c-1.41,10.15-2.37,18-3.44,23.16-1.85,8.91-3.19,8.9-7.38,10a31.94,31.94,0,0,1-3.75.62c-1.67.21-9.3-1.34-10.08-1.14,1.15,8.4,7.6,15.82,8.51,16.4,9.5,6.17,3.73,2.36,10.09,7.43a14.48,14.48,0,0,0,2.78,1.71c1.8.63,1.25.24,1.54.63,2.07,2.72,1.66,3.25,2.63,8.14L309,127.47A79.64,79.64,0,0,0,316,149q5.49,10.74,10.46,9.48,6.42-1.62,9.41-16.26c2-9.75,1.76-24.1,1.69-37.34-3,7-4.58,10.29-6.26,12.92-2.7,4.09-4.08,6.21-4.15,6.33q-2.6,3.15-3.83,3.46-2.7.67-4.69-7.23c-.37-1.45-.67-2.8-.91-4.06q-1.63-8.67.71-12.73Q319.94,101,324.49,99Z"/><path class="cls-2" d="M84.52,132.34a2.55,2.55,0,0,0-2.63-.53l-42.11,8.5c3.5.11,8-.18,11.49,1.1,3.7,1.35,7.57,8.88,7.79,12.45,0,.33-.78,4.22-1.61,8l-3.43,11-1.82,2.75-2.91,3.79s-6.64,9.25-11.13,10.39a15.16,15.16,0,0,1-5.7.29q-7.17-.63-13-11.47A26.09,26.09,0,0,1,16.9,171q-2.32-12.39,2.8-30.94c.5-1.78,1-3.53,1.61-5.25,2-6,6.16-13.41,10.11-19.8,6.4-10.32,14.81-17.69,24.34-21.13,6.84-2.47,13.82-4.46,20.15-7.45-3.53-9-9.14-11.78-14.68-13.66A30.72,30.72,0,0,0,56,71.43c-6.53-1-13.26,1.65-19,5.11q-19.39,11.34-28.19,41-9.21,30.93-2.36,67.31,5.78,30.57,20.47,33.24a20.71,20.71,0,0,0,9.06-.17c6.27-1.59,10.81-7,16.19-10.89,2.31,5.83,2,16.82-.77,21.64a78.21,78.21,0,0,0,6.55-7l1.35-1.56c1.25-1.45,2.5-2.9,3.72-4.42,5.07-6.35,6-18.94,8.27-28.11Q73.61,178,76,168.16c1.48-5.75,3.17-11.94,5.64-16.87s5.17-9,3.94-16.27A5.48,5.48,0,0,0,84.52,132.34Z"/><path class="cls-2" d="M273.15,154.44c-1.74,3.63-4.85,1-4.85,1s-5.52-8.21-7-16.31c-1.68-8.92.94-26.19.85-25.88,0,.1.08-.2.09-.31.6-4.07,1.61-9.61.87-14.32q-4.72-27.4-20.56-23.38-6.7,1.69-13.29,8.74-10.41,11-15.17,27.7a86.18,86.18,0,0,0-1.44,39.7q2.4,12.69,7,20.47,5.08,8.64,10.61,7.23c2.53-.64,4.67-2.79,6.4-5.3,1.87-2.72,5.11-4.22,7.5-6a17.54,17.54,0,0,1,2.17-1.46,12.84,12.84,0,0,1,2.6-.94A12.39,12.39,0,0,1,255,165c2.06.5,3.82,2.11,5.74,3.34l1.09.88c2.73,1.74,4.72.63,7.38-.57l1-1,.87-1.61,1.68-4.86,1.14-3.6.48-1.95S277.88,144.52,273.15,154.44Zm-32.37-4.9c-.62,0-3.25-4.45-3.25-4.45a19.9,19.9,0,0,1,.11-17.72c6.6-13.13,8.14-10.47,10.51,2.13C249.28,145.93,247.61,150,240.78,149.54Z"/><path class="cls-2" d="M130,104.54a6,6,0,0,0-4.26-.74q-3.31.86-6,7.31-.78,2-4.17,12.78c-1.59,5.36-2.49,9.37-3.82,12.28a64.34,64.34,0,0,1-4.4-8.71c-1.08-2.41-5.79-14-5.81-12.46-.08,6.35,0,0,.27,16-.4,22.78-.35,17.87-.43,25.37l-.42,17c0,7.82-.41,14.42,1.28,18.66,2.87,7.22,2.32,5.45,5.45,10.2,1.4,1.55,3,4.16,4.5,5.43,1.9,1.39,5.16,6.36,6.27,6.08s.67-4.47,1-6.77c.61-3.67,1-12.49,2.11-23.34a186,186,0,0,1,3-21.24q2.9-12.62,5.68-18.94c2.66-5.85,5.12-4,11.61-1.69-3.75-20.5-3.19-17-3.67-19.48Q135.44,107.45,130,104.54Z"/><path class="cls-2" d="M198.34,156.3c-.32-2.42-2.12-8.36-1.71-10.49-1.83,9.66-7.08,21.22-14.52,23.11a5,5,0,0,1-3.92-.61c-3.59-2.14-3.94-9.48-.82-12l3-2.43a26.34,26.34,0,0,0,6.39-9.87q2.46-6.9,1.56-17.4-.77-9.06-1.48-12.84-1.66-8.82-6.08-13.47-5.22-5.45-10.39-4.13-8.15,2.07-11.25,17.06-3.94,19.32.24,41.54,4,21.44,13.92,33.61,5.27,6.42,12.64,4.54,7.18-1.81,11.28-10A29.58,29.58,0,0,0,200,165.17C199.54,162.14,198.76,159.43,198.34,156.3Zm-31.19-23.37a18.92,18.92,0,0,1,2.18-8.08,5.37,5.37,0,0,1,4.22-2.88c1.13-.14,3.67,4.16,3.76,4.66.42,2.21,1.37,3,.74,5.77-1.81,7.87-5.41,8.79-6.2,9C171.35,141.51,166.42,139,167.15,132.93Z"/><path class="cls-2" d="M364.67,118c-2.24-3.33-6.53-3.62-8.46-3.13s-4.53,4-5.2,8.14c-.55,3.22-.17,5.51.55,9.29.83,4.41,2.4,9.4,4.43,12.52s4.32,3.84,6.16,3.37c1-.25,4.06-.42,4.78-1.7,3.06-4.79,4.52-9,3.42-14.89A42.56,42.56,0,0,0,364.67,118Z"/><path class="cls-2" d="M359.57,10.26c-1,1.93-1.64,3.67-2.42,5.27a76.55,76.55,0,0,0-7.29,21.58q-1.69,10.5-.34,29.63.06,1.16,3.07,31.25a30.28,30.28,0,0,0,.41,3.36c.72,3.78,1.84,5,3.55,5,3.46.2,4.49,3.93,5.22.12,2-10.71,1.8-10.48,2.35-12.93.95-8.79,1.26-9.83,2.48-22.92q.24-7.15.14-25.3c.06-2.76.1-5.53.11-8.28a86.66,86.66,0,0,0-.58-9.6C364.62,7.45,366.35-4.91,359.57,10.26Z"/><path class="cls-2" d="M316,96.66c3.22-1.36,5.32-2.72,6.32-4.08,3.8-5.15,8.14-16.67,5.51-30.65-5.53,3.12-10.13,5.19-9.28,5.09-2.42,1-9.88,6.3-11.78,4.9,1.36-9.15,6-23.41,5.26-27.41a35.75,35.75,0,0,0-4.92-11.95c-1.38-2.18-2.66-3.12-3.86-2.82q-3.93,1-5.8,17.16c-1.41,10.16-2.38,18-3.45,23.16-1.84,8.92-3.19,8.9-7.37,10a31.94,31.94,0,0,1-3.75.62c-1.67.21-9.3-1.34-10.09-1.14,1.16,8.4,7.61,15.81,8.52,16.4,9.5,6.17,3.72,2.36,10.08,7.43a14.58,14.58,0,0,0,2.79,1.71c1.8.63,1.25.24,1.54.63,2.07,2.72,1.66,3.25,2.63,8.14l2.12,11.28a79.76,79.76,0,0,0,7.09,21.5Q313,157.34,318,156.08q6.4-1.64,9.41-16.26c2-9.75,1.76-24.1,1.69-37.34-3,7-4.59,10.29-6.26,12.91-2.7,4.1-4.08,6.21-4.16,6.34q-2.58,3.13-3.83,3.45-2.69.69-4.69-7.23c-.36-1.44-.67-2.8-.9-4.06q-1.63-8.65.71-12.73C311,99.49,313,98,316,96.66Z"/><path class="cls-3" d="M84.52,130a2.53,2.53,0,0,0-2.63-.53l-42.11,8.5c3.5.11,8-.18,11.49,1.09,3.7,1.36,7.57,8.88,7.79,12.46,0,.33-.78,4.22-1.61,8l-3.43,11-1.82,2.76L49.29,177s-6.64,9.24-11.13,10.38a15,15,0,0,1-5.7.3q-7.17-.63-13-11.47a26.19,26.19,0,0,1-2.54-7.57q-2.32-12.39,2.8-31c.5-1.78,1-3.53,1.61-5.24,2-6,6.16-13.42,10.11-19.8C37.82,102.34,46.23,95,55.76,91.53c6.84-2.47,13.82-4.46,20.15-7.45-3.53-9-9.14-11.78-14.68-13.66A31.71,31.71,0,0,0,56,69.05c-6.53-1-13.26,1.66-19,5.11q-19.39,11.34-28.19,41-9.21,30.93-2.36,67.3,5.78,30.59,20.47,33.25a20.86,20.86,0,0,0,9.06-.17c6.27-1.59,10.81-7,16.19-10.89,2.31,5.83,2,16.82-.77,21.64a77,77,0,0,0,6.55-7l1.35-1.55c1.25-1.45,2.5-2.91,3.72-4.43,5.07-6.34,6-18.93,8.27-28.1q2.35-9.63,4.69-19.43c1.48-5.75,3.17-11.94,5.64-16.88s5.17-9,3.94-16.27A5.48,5.48,0,0,0,84.52,130Z"/><path class="cls-3" d="M273.15,152.07c-1.74,3.63-4.85,1-4.85,1s-5.52-8.22-7-16.31c-1.68-8.92.94-26.19.85-25.88,0,.1.08-.2.09-.31.6-4.08,1.61-9.61.87-14.33q-4.72-27.4-20.56-23.37-6.7,1.7-13.29,8.74-10.41,11-15.17,27.7a86.18,86.18,0,0,0-1.44,39.7q2.4,12.69,7,20.47,5.08,8.64,10.61,7.23c2.53-.64,4.67-2.79,6.4-5.3,1.87-2.72,5.11-4.22,7.5-6a18.63,18.63,0,0,1,2.17-1.45,12.84,12.84,0,0,1,2.6-.94,12.28,12.28,0,0,1,6.17-.38c2.06.49,3.82,2.11,5.74,3.34,0,0,1.05.85,1.09.87,2.73,1.75,4.72.63,7.38-.56l1-1,.87-1.61,1.68-4.86,1.14-3.6.48-1.95S277.88,142.15,273.15,152.07Zm-32.37-4.91c-.62,0-3.25-4.44-3.25-4.44a19.9,19.9,0,0,1,.11-17.72c6.6-13.14,8.14-10.47,10.51,2.12C249.28,143.56,247.61,147.58,240.78,147.16Z"/><path class="cls-3" d="M130,102.17a5.9,5.9,0,0,0-4.26-.74q-3.31.84-6,7.31-.78,2-4.17,12.78c-1.59,5.35-2.49,9.37-3.82,12.28a64.94,64.94,0,0,1-4.4-8.71c-1.08-2.41-5.79-14-5.81-12.47-.08,6.35,0,0,.27,16-.4,22.77-.35,17.86-.43,25.37L100.94,171c0,7.83-.41,14.43,1.28,18.66,2.87,7.23,2.32,5.46,5.45,10.21,1.4,1.55,3,4.15,4.5,5.42,1.9,1.39,5.16,6.37,6.27,6.09s.67-4.47,1-6.77c.61-3.68,1-12.5,2.11-23.34a185.67,185.67,0,0,1,3-21.24q2.9-12.62,5.68-18.94c2.66-5.85,5.12-4,11.61-1.69-3.75-20.5-3.19-17-3.67-19.48Q135.44,105.08,130,102.17Z"/><path class="cls-3" d="M198.34,153.93c-.32-2.42-2.12-8.36-1.71-10.49-1.83,9.65-7.08,21.21-14.52,23.1a5,5,0,0,1-3.92-.6c-3.59-2.15-3.94-9.48-.82-12l3-2.43a26.34,26.34,0,0,0,6.39-9.87q2.46-6.9,1.56-17.41-.77-9-1.48-12.83-1.66-8.82-6.08-13.48-5.22-5.43-10.39-4.12-8.15,2.07-11.25,17.06-3.94,19.32.24,41.54,4,21.42,13.92,33.6,5.27,6.43,12.64,4.55,7.18-1.83,11.28-10A29.58,29.58,0,0,0,200,162.8C199.54,159.77,198.76,157.06,198.34,153.93Zm-31.19-23.37a18.92,18.92,0,0,1,2.18-8.08,5.37,5.37,0,0,1,4.22-2.88c1.13-.14,3.67,4.15,3.76,4.66.42,2.2,1.37,3,.74,5.76-1.81,7.88-5.41,8.79-6.2,9C171.35,139.14,166.42,136.6,167.15,130.56Z"/><path class="cls-3" d="M364.67,115.66c-2.24-3.33-6.53-3.62-8.46-3.13s-4.53,4-5.2,8.13c-.55,3.23-.17,5.52.55,9.3.83,4.41,2.4,9.4,4.43,12.51s4.32,3.84,6.16,3.38c1-.25,4.06-.42,4.78-1.71,3.06-4.79,4.52-9,3.42-14.88A42.56,42.56,0,0,0,364.67,115.66Z"/><path class="cls-3" d="M359.57,7.89c-1,1.93-1.64,3.67-2.42,5.27a76.44,76.44,0,0,0-7.29,21.58q-1.69,10.5-.34,29.63.06,1.14,3.07,31.25A30.28,30.28,0,0,0,353,99c.72,3.78,1.84,4.94,3.55,5,3.46.2,4.49,3.92,5.22.11,2-10.71,1.8-10.48,2.35-12.93.95-8.79,1.26-9.83,2.48-22.91q.24-7.17.14-25.3.09-4.16.11-8.28a86.66,86.66,0,0,0-.58-9.6C364.62,5.08,366.35-7.28,359.57,7.89Z"/><path class="cls-3" d="M316,94.29c3.22-1.37,5.32-2.73,6.32-4.08,3.8-5.15,8.14-16.68,5.51-30.65-5.53,3.11-10.13,5.19-9.28,5.08-2.42,1-9.88,6.3-11.78,4.91,1.36-9.15,6-23.42,5.26-27.41a35.75,35.75,0,0,0-4.92-11.95c-1.38-2.18-2.66-3.12-3.86-2.82q-3.93,1-5.8,17.16c-1.41,10.15-2.38,18-3.45,23.16-1.84,8.92-3.19,8.9-7.37,10a31.94,31.94,0,0,1-3.75.62c-1.67.21-9.3-1.34-10.09-1.14,1.16,8.4,7.61,15.81,8.52,16.4,9.5,6.17,3.72,2.36,10.08,7.42a14.1,14.1,0,0,0,2.79,1.72c1.8.62,1.25.24,1.54.62,2.07,2.73,1.66,3.25,2.63,8.15l2.12,11.27a79.64,79.64,0,0,0,7.09,21.5Q313,155,318,153.71q6.4-1.64,9.41-16.26c2-9.75,1.76-24.11,1.69-37.35-3,7-4.59,10.29-6.26,12.92-2.7,4.1-4.08,6.21-4.16,6.34q-2.58,3.14-3.83,3.45-2.69.69-4.69-7.23c-.36-1.44-.67-2.8-.9-4.06q-1.63-8.67.71-12.73C311,97.11,313,95.61,316,94.29Z"/><path class="cls-4" d="M19.63,90.92A95.84,95.84,0,0,1,31.84,80.21a58.82,58.82,0,0,1,14.3-7.9,30.87,30.87,0,0,1,8.13-1.82c.7,0,1.41-.06,2.12,0s1.42.1,2.13.19l2.09.49c.67.22,1.34.49,2,.74a18.07,18.07,0,0,1,6.6,5.21,25.4,25.4,0,0,1,4,7.21l-.18.08c-.38-.56-.76-1.12-1.11-1.69a12.67,12.67,0,0,0-1.15-1.64l-1.21-1.58L68.17,78a18.82,18.82,0,0,0-6.32-4.31c-4.73-1.9-10.18-1.5-15.2.1A57.28,57.28,0,0,0,32.41,81a95.16,95.16,0,0,0-12.64,10Z"/><path class="cls-4" d="M116,121.81a73.49,73.49,0,0,1,2.58-8.66,33.2,33.2,0,0,1,4.24-8.13,8.45,8.45,0,0,1,3.91-3.07,4.82,4.82,0,0,1,2.79,0,10,10,0,0,1,1.24.58c.34.27.7.52,1,.8a16.71,16.71,0,0,1,4.17,8.28l-.18.08c-.45-.62-.83-1.27-1.25-1.89L133.23,108a17.77,17.77,0,0,0-2.8-3.13,3.64,3.64,0,0,0-3.22-1A6.41,6.41,0,0,0,124,106a32.15,32.15,0,0,0-4.55,7.49,72.13,72.13,0,0,0-3.3,8.33Z"/><path class="cls-4" d="M158.46,119.43a88.28,88.28,0,0,1,3-10,38.89,38.89,0,0,1,4.86-9.43,9.62,9.62,0,0,1,4.44-3.56c.25-.08.5-.15.76-.21l.81,0,.4,0,.4.08c.26.05.53.09.79.16a10,10,0,0,1,1.4.67c.39.3.8.59,1.16.91a20.32,20.32,0,0,1,4.85,9.54l-.18.08c-.5-.73-.92-1.49-1.38-2.23l-1.4-2.16c-.54-.66-1-1.41-1.53-2-.28-.3-.53-.64-.81-.93l-.87-.8c-.3-.24-.62-.43-.93-.66s-.63-.3-.95-.44l-.49-.11-.24-.06h-.74l-.5.12a7.63,7.63,0,0,0-3.74,2.66,37.53,37.53,0,0,0-5.18,8.81,83.75,83.75,0,0,0-3.72,9.71Z"/><path class="cls-4" d="M220.81,95.69A68.57,68.57,0,0,1,227,84.82a36.09,36.09,0,0,1,8.8-9.07,16.17,16.17,0,0,1,6-2.55,12,12,0,0,1,3.39-.06,11.29,11.29,0,0,1,3.23,1,15.6,15.6,0,0,1,5.13,4l.54.6.47.64.93,1.29c.55.91,1.07,1.82,1.56,2.75l-.17.11c-.74-.75-1.38-1.56-2.1-2.29l-1.1-1.07-.54-.54-.58-.49-1.15-1-1.22-.85a10.65,10.65,0,0,0-1.26-.74l-.64-.34a6.16,6.16,0,0,0-.67-.26,11.09,11.09,0,0,0-5.54-.8,13.61,13.61,0,0,0-5.46,2,34.58,34.58,0,0,0-8.86,8.31A66.87,66.87,0,0,0,221,95.78Z"/><path class="cls-4" d="M297.68,49.59c.05-2.62.25-5.23.52-7.84a50.47,50.47,0,0,1,1.46-7.8,13.39,13.39,0,0,1,1.67-3.87,3.38,3.38,0,0,1,2.2-1.49,3,3,0,0,1,1.5.2,4.24,4.24,0,0,1,1.07.71,10.29,10.29,0,0,1,2.3,3.55,18,18,0,0,1,1.15,3.83l-.18.08-2.2-3.23A12.57,12.57,0,0,0,304.83,31a1.41,1.41,0,0,0-1-.39,1.72,1.72,0,0,0-.95.66,10.39,10.39,0,0,0-1.7,3.15,48.48,48.48,0,0,0-2,7.44c-.53,2.55-.94,5.12-1.31,7.7Z"/><path class="cls-5" d="M314.71,66.63a32.24,32.24,0,0,1,4-3.25A17.23,17.23,0,0,1,323.45,61a6,6,0,0,1,3-.16A3.61,3.61,0,0,1,328.89,63a6.27,6.27,0,0,1,.38,2.86,10,10,0,0,1-.22,1.33c-.13.43-.26.86-.43,1.27l-.2,0a17.27,17.27,0,0,0-1.33-4.56,2.59,2.59,0,0,0-1.24-1.13,3.74,3.74,0,0,0-2.06-.16,15.8,15.8,0,0,0-4.58,1.65,40.09,40.09,0,0,0-4.37,2.55Z"/><path class="cls-5" d="M297.72,27.86q1.11-4.27,2.44-8.5a80.41,80.41,0,0,1,3.17-8.3,19.25,19.25,0,0,1,2.33-4,5.4,5.4,0,0,1,1-.92l.37-.2c.15,0,.3-.1.47-.14a2,2,0,0,1,1.09.09,2.64,2.64,0,0,1,1.3,1.19,6.82,6.82,0,0,1,.51,1.21,17.06,17.06,0,0,1,.55,4.58,28.92,28.92,0,0,1-.33,4.46h-.2c-.32-1.46-.6-2.91-.87-4.33a25.47,25.47,0,0,0-1.05-4.07,3.72,3.72,0,0,0-.38-.8,1,1,0,0,0-.26-.3s0-.06-.17.05a3.17,3.17,0,0,0-.62.51,15.47,15.47,0,0,0-2.36,3.41,79.37,79.37,0,0,0-3.66,7.93c-1.14,2.7-2.2,5.44-3.19,8.2Z"/><path class="cls-5" d="M351.43,118.65a13.72,13.72,0,0,1,4.08-4.27,6.59,6.59,0,0,1,3-1,5.49,5.49,0,0,1,3.19.72,9.77,9.77,0,0,1,2.46,2.05,10.35,10.35,0,0,1,1.6,2.63,15.66,15.66,0,0,1,1.23,5.83l-.19.06c-1.08-1.7-1.9-3.41-2.83-5s-1.73-3.23-3.11-4.21a4.51,4.51,0,0,0-4.83-.17,14.16,14.16,0,0,0-4.4,3.5Z"/><path class="cls-5" d="M351.12,32c.9-2.94,1.83-5.87,2.81-8.79s2.06-5.8,3.2-8.67c.57-1.43,1.15-2.87,1.79-4.3a15,15,0,0,1,2.6-4.15,2.63,2.63,0,0,1,.29-.25,2.08,2.08,0,0,1,.38-.25,2,2,0,0,1,.56-.21,1.41,1.41,0,0,1,.85.11,1.11,1.11,0,0,1,.34.22,1.34,1.34,0,0,1,.23.26,1.94,1.94,0,0,1,.24.44,3.51,3.51,0,0,1,.19.74,10.79,10.79,0,0,1,0,2.48,25.48,25.48,0,0,1-.91,4.6l-.2,0-.29-4.59a13,13,0,0,0-.32-2.11,3.34,3.34,0,0,0-.13-.36c0-.07,0,0,0,0s0,0,0,0a.7.7,0,0,0,.1.07.54.54,0,0,0,.29.05s.07,0,0,0a2.15,2.15,0,0,0-.22.22,13,13,0,0,0-1.14,1.71c-.38.62-.76,1.27-1.11,1.94-.75,1.31-1.43,2.67-2.09,4-1.31,2.76-2.54,5.57-3.74,8.39s-2.4,5.65-3.55,8.5Z"/></g></g></svg>