<?xml version="1.0" encoding="UTF-8" standalone="no"?>
<!-- Uploaded to: SVG Repo, www.svgrepo.com, Generator: SVG Repo Mixer Tools -->

<svg
   width="800px"
   height="800px"
   viewBox="0 0 64 64"
   aria-hidden="true"
   role="img"
   class="iconify iconify--emojione"
   preserveAspectRatio="xMidYMid meet"
   version="1.1"
   id="svg70"
   xmlns="http://www.w3.org/2000/svg"
   xmlns:svg="http://www.w3.org/2000/svg">
  <defs
     id="defs74" />
  <g
     id="g391"
     transform="matrix(-1,0,0,1,64.0008,2.2560475e-7)">
    <path
       d="m 52.4,5.1 c 7.9,-0.8 15.2,8 3.4,14 -7.9,4 -15.1,9.2 -21.3,15.3 L 17.5,17.5 C 24.9,10.3 36,6.8 52.4,5.1"
       fill="#fbbf67"
       id="path2"
       style="fill:#d4aa00" />
    <path
       d="m 5.1,52.4 c 1.4,-16.7 5,-27.7 12.4,-34.9 l 17,16.9 c -6.2,6.2 -11.4,13.4 -15.4,21.3 -6,12 -14.7,4.5 -14,-3.3"
       fill="#d99634"
       id="path4"
       style="fill:#aa8800" />
    <path
       d="m 53.3,9 c -12.7,0.2 -22.6,1.7 -30.4,5 7,-4.1 16.2,-6.4 28.3,-7.8 4.3,-0.5 8.5,2 9.3,5.3 C 58.7,10 56.1,8.9 53.3,9"
       fill="#ffebb8"
       id="path6"
       style="fill:#ffd42a" />
    <path
       d="m 11.7,54.7 c 4.3,1.8 8.6,1 9.8,-1.5 6.4,-13 16.9,-23.5 30,-29.9 C 54,22 54.8,17.7 53,13.5 52.5,12.4 52,11.2 51.5,10.1 49.7,5.8 45.4,3.5 42,5.2 25.2,13.4 11.7,27 3.4,43.8 c -1.7,3.4 0.7,7.8 4.9,9.5 1.1,0.5 2.3,1 3.4,1.4"
       fill="#d99634"
       id="path8"
       style="fill:#aa8800" />
    <path
       d="m 10.3,52.1 c 4.1,1.6 8.3,0.7 9.6,-1.8 6.8,-13 17.4,-23.6 30.4,-30.3 2.5,-1.3 3.4,-5.5 1.8,-9.6 C 51.7,9.3 51.2,8.2 50.8,7.1 49.2,3 45.1,0.9 41.7,2.6 25,11.3 11.3,25 2.6,41.7 0.9,45 3,49.2 7.1,50.8 c 1.1,0.4 2.2,0.8 3.2,1.3"
       fill="#fbbf67"
       id="path10"
       style="fill:#d4aa00" />
    <path
       d="M 42.2,7.2 C 34,10.5 26.4,14.9 19.4,20.2 25.8,13.9 33.2,8.6 41.2,4.5 44.6,2.8 48.9,5 50.6,9.2 l 0.9,2.1 C 49.5,7.7 45.6,5.8 42.2,7.2"
       fill="#ffebb8"
       id="path12"
       style="fill:#ffd42a" />
    <path
       d="m 16.7,45.5 c 4,1.5 8.3,0.1 10.1,-2.9 3.9,-6.5 9.4,-12 15.9,-15.9 3,-1.8 4.4,-6.1 2.9,-10.1 C 44.3,13.5 43,10.3 41.7,7.2 40.2,3.2 34.5,1.7 29.6,4.6 19.3,10.8 10.8,19.3 4.7,29.5 1.8,34.4 3.3,40.1 7.3,41.6 c 3.1,1.3 6.2,2.6 9.4,3.9"
       fill="#fbbf67"
       id="path14"
       style="fill:#aa8800" />
    <path
       d="m 17.9,48.4 c 4.2,1.6 8.6,0.1 10.3,-3 3.7,-6.7 9.1,-12.4 15.6,-16.4 3,-1.9 4.3,-6.3 2.5,-10.4 -1.5,-3.2 -3,-6.5 -4.5,-9.7 C 40,4.8 34.1,3.3 29.1,6.3 18.8,12.5 10.4,21.3 4.6,31.9 1.9,37 3.8,42.8 8,44.4 c 3.3,1.3 6.6,2.7 9.9,4"
       fill="#d99634"
       id="path16"
       style="fill:#aa8800" />
    <path
       d="m 16.4,45.2 c 4,1.5 8.3,0.1 10.1,-2.9 3.9,-6.5 9.4,-12 15.9,-15.9 3,-1.8 4.4,-6.1 2.9,-10.1 C 44,13.2 42.7,10 41.4,6.9 39.9,2.9 34.2,1.4 29.3,4.3 19,10.5 10.5,19 4.4,29.2 c -3,5 -1.4,10.6 2.5,12.1 3.2,1.3 6.3,2.6 9.5,3.9"
       fill="#fbbf67"
       id="path18"
       style="fill:#d4aa00" />
    <path
       d="M 43.4,19 C 42,16.2 40.7,13.3 39.3,10.5 37.7,6.9 32.4,5.7 28.1,8.6 c -9,5.9 -16.4,14 -21.5,23.5 -1,2 -1.3,4 -1,5.8 -1.3,-2.3 -1.3,-5.6 0.5,-8.7 5.6,-9.5 13.6,-17.4 23,-23 4.6,-2.7 9.8,-1.3 11.2,2.4 l 3.6,8.7 c 0.7,1.9 0.7,3.9 0.2,5.6 C 44.2,21.7 44,20.3 43.4,19"
       fill="#ffebb8"
       id="path20"
       style="fill:#ffd42a" />
    <path
       d="M 27.9,30.9 C 31.6,34.6 28,6.3 22.9,7.5 17.1,8.8 8.7,17.2 7.4,22.9 6.3,28 18.3,21.3 27.9,30.9"
       fill="#d99634"
       id="path22"
       style="fill:#aa8800" />
    <path
       d="M 26.1,27.9 C 31.7,33.5 27.2,4.2 22.2,5.5 16.6,7 8,15.5 6.5,21.2 c -1.3,5 10.3,-2.6 19.6,6.7"
       fill="#fbbf67"
       id="path24"
       style="fill:#d4aa00" />
    <g
       fill="#ffebb8"
       id="g40"
       style="fill:#ffd42a">
      <path
         d="M 20.6,10.8 C 17,11.8 12.2,17.5 10,21.4 9.7,20.8 9.5,20.2 9.7,19.6 10.8,15.4 17.2,9 21.4,7.9 c 3.7,-1 6,9.6 6.1,14.7 C 26,18.1 23.7,10 20.6,10.8"
         id="path26"
         style="fill:#ffd42a" />
      <path
         d="m 18.56,17.803 0.92,-0.918 0.918,0.92 -0.92,0.918 z"
         id="path28"
         style="fill:#ffd42a" />
      <path
         d="m 21.56,17.508 0.92,-0.919 0.92,0.92 -0.92,0.919 z"
         id="path30"
         style="fill:#ffd42a" />
      <path
         d="m 9.142,31.498 0.92,-0.92 0.918,0.92 -0.92,0.92 z"
         id="path32"
         style="fill:#ffd42a" />
      <path
         d="m 7.829,35.338 0.919,-0.92 0.92,0.92 -0.92,0.92 z"
         id="path34"
         style="fill:#ffd42a" />
      <path
         d="m 3.11,44.566 0.918,-0.92 0.92,0.92 -0.919,0.919 z"
         id="path36"
         style="fill:#ffd42a" />
      <path
         d="m 4.018,47.067 0.92,-0.918 0.918,0.92 -0.92,0.918 z"
         id="path38"
         style="fill:#ffd42a" />
    </g>
    <g
       fill="#fbbf67"
       id="g46"
       style="fill:#d4aa00">
      <path
         d="m 10.416,57.058 0.92,-0.92 0.918,0.92 -0.92,0.92 z"
         id="path42"
         style="fill:#d4aa00" />
      <path
         d="m 9.09,58.819 0.92,-0.92 0.92,0.92 -0.92,0.919 z"
         id="path44"
         style="fill:#d4aa00" />
    </g>
    <g
       fill="#ffebb8"
       id="g66"
       style="fill:#ffd42a">
      <path
         d="m 34.811,9.775 0.92,-0.92 0.918,0.92 -0.919,0.919 z"
         id="path48"
         style="fill:#ffd42a" />
      <path
         d="m 36.677,14.06 0.919,-0.92 0.919,0.92 -0.92,0.92 z"
         id="path50"
         style="fill:#ffd42a" />
      <path
         d="m 49.07,13.135 0.92,-0.92 0.92,0.92 -0.92,0.92 z"
         id="path52"
         style="fill:#ffd42a" />
      <path
         d="m 48.144,10.14 0.92,-0.92 0.919,0.92 -0.92,0.919 z"
         id="path54"
         style="fill:#ffd42a" />
      <path
         d="m 47.2,12.151 0.92,-0.919 0.92,0.92 -0.92,0.919 z"
         id="path56"
         style="fill:#ffd42a" />
      <path
         d="m 57.292,12.133 0.92,-0.919 0.918,0.92 -0.92,0.919 z"
         id="path58"
         style="fill:#ffd42a" />
      <path
         d="m 56.414,14.416 0.92,-0.92 0.919,0.92 -0.92,0.92 z"
         id="path60"
         style="fill:#ffd42a" />
      <path
         d="m 19.375,14.882 1.344,-1.344 1.343,1.344 -1.344,1.344 z"
         id="path62"
         style="fill:#ffd42a" />
      <path
         d="m 9.54,37.178 1.343,-1.344 1.343,1.344 -1.343,1.343 z"
         id="path64"
         style="fill:#ffd42a" />
    </g>
    <path
       fill="#fbbf67"
       d="m 7.678,55.697 1.344,-1.343 1.343,1.344 -1.344,1.343 z"
       id="path68"
       style="fill:#d4aa00" />
  </g>
</svg>
