<svg id="Capa_1" data-name="Capa 1" xmlns="http://www.w3.org/2000/svg" viewBox="0 0 35.4 51.41"><defs><style>.cls-1{fill:#683c11;stroke:#683c11;stroke-miterlimit:10;}.cls-2{fill:#fff;}.cls-3{fill:#d5d5d4;opacity:0.6;}</style></defs><g id="Boton_slider_SFX" data-name="Boton slider_SFX"><path class="cls-1" d="M966.33,399.44c0,13.65-7.58,24.7-16.9,24.7s-16.88-11.08-16.86-24.73,7.58-24.71,16.9-24.7S966.34,385.79,966.33,399.44Z" transform="translate(-931.43 -373.23)"/><path class="cls-2" d="M965.19,398c0,13.65-7.58,24.71-16.9,24.7s-16.87-11.08-16.86-24.73,7.58-24.71,16.9-24.7S965.21,384.31,965.19,398Z" transform="translate(-931.43 -373.23)"/><path class="cls-3" d="M938.06,407c0-13.65,7.58-24.71,16.9-24.7a12.8,12.8,0,0,1,7.78,2.79c-3-7.11-8.3-11.85-14.41-11.86-9.32,0-16.89,11-16.9,24.7,0,9.54,3.68,17.81,9.08,21.94A33.47,33.47,0,0,1,938.06,407Z" transform="translate(-931.43 -373.23)"/></g></svg>