<svg id="Capa_1" data-name="Capa 1" xmlns="http://www.w3.org/2000/svg" xmlns:xlink="http://www.w3.org/1999/xlink" viewBox="0 0 1920 1080"><defs><style>.cls-1{fill:url(#linear-gradient);}.cls-2{opacity:0.5;fill:url(#linear-gradient-2);}.cls-3{fill:url(#linear-gradient-3);}.cls-4{fill:url(#linear-gradient-4);}.cls-5{fill:url(#linear-gradient-5);}.cls-6{fill:url(#linear-gradient-6);}.cls-7{fill:url(#linear-gradient-7);}.cls-8{fill:url(#linear-gradient-8);}.cls-9{fill:url(#linear-gradient-9);}.cls-10{fill:url(#linear-gradient-10);}.cls-11{fill:#328164;}.cls-12{fill:url(#linear-gradient-11);}.cls-13{fill:url(#linear-gradient-12);}.cls-14{fill:url(#linear-gradient-13);}.cls-15{fill:url(#linear-gradient-14);}.cls-16{fill:url(#linear-gradient-15);}.cls-17{fill:url(#linear-gradient-16);}.cls-18{fill:url(#linear-gradient-17);}.cls-19{fill:url(#linear-gradient-18);}.cls-20{fill:#faba63;}.cls-21{fill:#f8ab3b;opacity:0.7;}.cls-22{fill:#fccd94;}.cls-23{fill:url(#linear-gradient-19);}.cls-24{fill:url(#linear-gradient-20);}.cls-25{fill:url(#linear-gradient-21);}.cls-26{fill:url(#linear-gradient-22);}.cls-27{fill:url(#linear-gradient-23);}.cls-28{fill:url(#linear-gradient-24);}.cls-29{fill:url(#linear-gradient-25);}.cls-30{fill:url(#linear-gradient-26);}.cls-31{fill:url(#linear-gradient-27);}.cls-32,.cls-33{font-size:46.08px;font-family:PasseroOne-Regular, Passero One;}.cls-32{fill:#613a14;}.cls-33{fill:#fff;}.cls-34{fill:url(#linear-gradient-28);}.cls-35{fill:url(#linear-gradient-29);}.cls-36{fill:url(#linear-gradient-30);}.cls-37{fill:url(#linear-gradient-31);}.cls-38{fill:url(#linear-gradient-32);}.cls-39{fill:url(#linear-gradient-33);}.cls-40{fill:url(#linear-gradient-34);}.cls-41{fill:url(#linear-gradient-35);}.cls-42{fill:url(#linear-gradient-36);}.cls-43{fill:url(#linear-gradient-37);}.cls-44{fill:url(#linear-gradient-38);}.cls-45{fill:url(#Degradado_sin_nombre_68);}.cls-46{opacity:0.25;}.cls-47{fill:url(#linear-gradient-39);}.cls-48{fill:url(#linear-gradient-40);}.cls-49{fill:url(#linear-gradient-41);}.cls-50{fill:url(#linear-gradient-42);}.cls-51{fill:url(#linear-gradient-43);}.cls-52{fill:url(#linear-gradient-44);}.cls-53{fill:url(#linear-gradient-45);}.cls-54{fill:url(#linear-gradient-46);}.cls-55{fill:url(#linear-gradient-47);}.cls-56{fill:url(#linear-gradient-48);}.cls-57{fill:url(#linear-gradient-49);}.cls-58{fill:#e1eab8;}</style><linearGradient id="linear-gradient" x1="172.78" y1="1.36" x2="307.72" y2="252.82" gradientUnits="userSpaceOnUse"><stop offset="0" stop-color="#f6a45c"/><stop offset="0.22" stop-color="#c78046"/><stop offset="0.47" stop-color="#965b2f"/><stop offset="0.7" stop-color="#72401f"/><stop offset="0.88" stop-color="#5c2f15"/><stop offset="1" stop-color="#542911"/></linearGradient><linearGradient id="linear-gradient-2" x1="228.82" y1="121.95" x2="251.35" y2="272.76" gradientUnits="userSpaceOnUse"><stop offset="0" stop-color="#f6a45c"/><stop offset="0.38" stop-color="#cd7b3d"/><stop offset="0.79" stop-color="#a65420"/><stop offset="1" stop-color="#974515"/></linearGradient><linearGradient id="linear-gradient-3" x1="207.78" y1="9.92" x2="239.03" y2="177.55" xlink:href="#linear-gradient-2"/><linearGradient id="linear-gradient-4" x1="311.43" y1="125.57" x2="312.02" y2="136.39" gradientUnits="userSpaceOnUse"><stop offset="0.38" stop-color="#974515"/><stop offset="0.4" stop-color="#9b4918"/><stop offset="0.5" stop-color="#b86528"/></linearGradient><linearGradient id="linear-gradient-5" x1="147.92" y1="133.77" x2="147.23" y2="154.25" xlink:href="#linear-gradient-4"/><linearGradient id="linear-gradient-6" x1="249.68" y1="149.06" x2="249.88" y2="155.87" xlink:href="#linear-gradient-4"/><linearGradient id="linear-gradient-7" x1="108.75" y1="82.84" x2="107.92" y2="93.35" xlink:href="#linear-gradient-4"/><linearGradient id="linear-gradient-8" x1="169.07" y1="48.68" x2="169.57" y2="54.28" xlink:href="#linear-gradient-4"/><linearGradient id="linear-gradient-9" x1="347.55" y1="81.97" x2="345.78" y2="93.97" xlink:href="#linear-gradient-4"/><linearGradient id="linear-gradient-10" x1="-7.59" y1="179.48" x2="223.34" y2="179.48" gradientUnits="userSpaceOnUse"><stop offset="0" stop-color="#97c449"/><stop offset="0.27" stop-color="#73ac53"/><stop offset="0.58" stop-color="#50955c"/><stop offset="0.83" stop-color="#3a8662"/><stop offset="1" stop-color="#328164"/></linearGradient><linearGradient id="linear-gradient-11" x1="-7.59" y1="95.6" x2="223.34" y2="95.6" xlink:href="#linear-gradient-10"/><linearGradient id="linear-gradient-12" x1="111.84" y1="76.79" x2="161.66" y2="189.98" xlink:href="#linear-gradient"/><linearGradient id="linear-gradient-13" x1="248.93" y1="201.1" x2="95.53" y2="84.09" xlink:href="#linear-gradient-2"/><linearGradient id="linear-gradient-14" x1="106.34" y1="66.59" x2="162.96" y2="180.7" xlink:href="#linear-gradient-2"/><linearGradient id="linear-gradient-15" x1="71.88" y1="89.96" x2="72.76" y2="101.54" xlink:href="#linear-gradient-4"/><linearGradient id="linear-gradient-16" x1="130.04" y1="116.21" x2="132.22" y2="132.6" xlink:href="#linear-gradient-4"/><linearGradient id="linear-gradient-17" x1="168.9" y1="145.65" x2="171.55" y2="157.21" xlink:href="#linear-gradient-4"/><linearGradient id="linear-gradient-18" x1="155.39" y1="62" x2="158.67" y2="77.73" xlink:href="#linear-gradient-4"/><linearGradient id="linear-gradient-19" x1="1832.23" y1="-5.65" x2="1862.81" y2="207.94" xlink:href="#linear-gradient-10"/><linearGradient id="linear-gradient-20" x1="1722.78" y1="18.91" x2="1753.36" y2="232.5" xlink:href="#linear-gradient-10"/><linearGradient id="linear-gradient-21" x1="1770.29" y1="101.19" x2="1831.94" y2="241.25" xlink:href="#linear-gradient"/><linearGradient id="linear-gradient-22" x1="1939.92" y1="255.01" x2="1750.11" y2="110.22" xlink:href="#linear-gradient-2"/><linearGradient id="linear-gradient-23" x1="1763.48" y1="88.57" x2="1833.54" y2="229.76" xlink:href="#linear-gradient-2"/><linearGradient id="linear-gradient-24" x1="1720.84" y1="117.48" x2="1721.92" y2="131.81" xlink:href="#linear-gradient-4"/><linearGradient id="linear-gradient-25" x1="1792.8" y1="149.96" x2="1795.51" y2="170.24" xlink:href="#linear-gradient-4"/><linearGradient id="linear-gradient-26" x1="1840.9" y1="186.39" x2="1844.17" y2="200.69" xlink:href="#linear-gradient-4"/><linearGradient id="linear-gradient-27" x1="1824.17" y1="82.88" x2="1828.23" y2="102.35" xlink:href="#linear-gradient-4"/><linearGradient id="linear-gradient-28" x1="1730.34" y1="-71.46" x2="1820.17" y2="-80.67" gradientTransform="matrix(0.57, -0.82, 0.82, 0.57, 816.38, 2529.49)" xlink:href="#linear-gradient-10"/><linearGradient id="linear-gradient-29" x1="3249.92" y1="-478.59" x2="3339.74" y2="-487.8" gradientTransform="matrix(-0.67, -0.74, 0.74, -0.67, 4434.78, 3144.15)" xlink:href="#linear-gradient-10"/><linearGradient id="linear-gradient-30" x1="2898.66" y1="-888.75" x2="2988.49" y2="-897.95" gradientTransform="matrix(0.57, 0.82, 0.82, -0.57, 816.38, -2009.17)" xlink:href="#linear-gradient-10"/><linearGradient id="linear-gradient-31" x1="4304.62" y1="480.73" x2="4394.44" y2="471.52" gradientTransform="matrix(-0.67, 0.74, 0.74, 0.67, 4434.78, -2623.83)" xlink:href="#linear-gradient-10"/><linearGradient id="linear-gradient-32" x1="1800.8" y1="930.19" x2="1855.37" y2="1054.17" xlink:href="#linear-gradient"/><linearGradient id="linear-gradient-33" x1="1950.95" y1="1066.35" x2="1782.94" y2="938.19" xlink:href="#linear-gradient-2"/><linearGradient id="linear-gradient-34" x1="1794.78" y1="919.02" x2="1856.79" y2="1044" xlink:href="#linear-gradient-2"/><linearGradient id="linear-gradient-35" x1="1757.03" y1="944.62" x2="1757.99" y2="957.3" xlink:href="#linear-gradient-4"/><linearGradient id="linear-gradient-36" x1="1820.73" y1="973.36" x2="1823.12" y2="991.31" xlink:href="#linear-gradient-4"/><linearGradient id="linear-gradient-37" x1="1863.3" y1="1005.61" x2="1866.19" y2="1018.27" xlink:href="#linear-gradient-4"/><linearGradient id="linear-gradient-38" x1="1848.5" y1="913.99" x2="1852.09" y2="931.23" xlink:href="#linear-gradient-4"/><linearGradient id="Degradado_sin_nombre_68" x1="1824.48" y1="983.73" x2="1783.21" y2="887.85" gradientUnits="userSpaceOnUse"><stop offset="0" stop-color="#fff69e"/><stop offset="0.01" stop-color="#fff69e"/><stop offset="0.61" stop-color="#e9edb1"/><stop offset="1" stop-color="#e1eab8"/></linearGradient><linearGradient id="linear-gradient-39" x1="749.57" y1="-1477.38" x2="839.4" y2="-1486.58" gradientTransform="matrix(0.57, -0.82, 0.82, 0.57, 816.38, 2529.49)" xlink:href="#linear-gradient-10"/><linearGradient id="linear-gradient-40" x1="4404.93" y1="-1745.12" x2="4494.75" y2="-1754.32" gradientTransform="matrix(-0.67, -0.74, 0.74, -0.67, 4434.78, 3144.15)" xlink:href="#linear-gradient-10"/><linearGradient id="linear-gradient-41" x1="1914.24" y1="-2292.11" x2="2004.07" y2="-2301.31" gradientTransform="matrix(0.57, 0.82, 0.82, -0.57, 816.38, -2009.17)" xlink:href="#linear-gradient-10"/><linearGradient id="linear-gradient-42" x1="5456.33" y1="-788.8" x2="5546.15" y2="-798" gradientTransform="matrix(-0.67, 0.74, 0.74, 0.67, 4434.78, -2623.83)" xlink:href="#linear-gradient-10"/><linearGradient id="linear-gradient-43" x1="86.62" y1="927.97" x2="141.19" y2="1051.94" xlink:href="#linear-gradient"/><linearGradient id="linear-gradient-44" x1="236.77" y1="1064.12" x2="68.76" y2="935.96" xlink:href="#linear-gradient-2"/><linearGradient id="linear-gradient-45" x1="80.59" y1="916.79" x2="142.61" y2="1041.77" xlink:href="#linear-gradient-2"/><linearGradient id="linear-gradient-46" x1="42.85" y1="942.39" x2="43.81" y2="955.07" xlink:href="#linear-gradient-4"/><linearGradient id="linear-gradient-47" x1="106.55" y1="971.14" x2="108.94" y2="989.08" xlink:href="#linear-gradient-4"/><linearGradient id="linear-gradient-48" x1="149.12" y1="1003.38" x2="152.01" y2="1016.04" xlink:href="#linear-gradient-4"/><linearGradient id="linear-gradient-49" x1="134.32" y1="911.76" x2="137.91" y2="929" xlink:href="#linear-gradient-4"/></defs><path class="cls-1" d="M295.74,174.86c-7.26-.63-14.16-6.65-21.42-7.08s-14.75,4.76-22,4.55-14.47-5.82-21.75-5.82-14.48,5.61-21.75,5.82-14.76-5-22-4.55-14.16,6.45-21.41,7.08c-5.17.44-10.09-5.24-15.06-6.08s-11.44,2.92-16.11.87-6.62-9.5-10.72-12.67-11.41-2.93-14.65-7.08-1.55-11.56-3.71-16.48-8.58-8.29-9.47-13.71c0-.08-.06-.42-.08-.5l-.07-.46-.06-.43c-1-5.76,4.21-11.54,5-17.09s-2.39-12.77.07-17.9,9.79-6.63,13.55-10.87,4.54-12,9.25-15.06c4.49-2.95,11.62-.44,16.93-2.24,5-1.71,9.32-8.21,14.93-8.7,8.33-.73,17,4.16,25.38,3.67s16.48-6.35,24.83-6.6,16.79,5.14,25.15,5.14,16.79-5.38,25.15-5.14,16.49,6.11,24.84,6.6,17.05-4.4,25.38-3.67c5.6.49,9.91,7,14.92,8.7,5.31,1.8,12.45-.71,16.94,2.24,4.7,3.09,5.61,11,9.24,15.06s11.15,5.84,13.56,10.87-.78,12.26.06,17.9,6,11.33,5,17.09l-.06.43-.07.46c0,.08-.06.42-.08.5-.88,5.42-7.38,8.93-9.47,13.71s-.49,12.37-3.7,16.49-10.56,3.88-14.66,7.07-6,10.59-10.72,12.67-11-1.72-16.11-.87S300.9,175.3,295.74,174.86Z"/><path class="cls-2" d="M359.12,113c0,.06-.05.31-.07.39s-.05.36-.06.43-.05.4-.07.46c-.64,3.71-4.24,6.46-6.91,9.42a13.49,13.49,0,0,0-2.34,3.3,14.36,14.36,0,0,0-1.07,4.3c-.49,3.92-.29,8.27-2.54,11-3.17,3.85-10.3,3.6-14.31,6.56s-5.84,9.83-10.45,11.75-10.76-1.58-15.72-.79-9.65,6-14.69,5.64c-7.08-.59-13.81-6.18-20.9-6.57s-14.4,4.41-21.5,4.21-14.12-5.39-21.22-5.39-14.12,5.2-21.22,5.39-14.42-4.61-21.5-4.21-13.82,6-20.9,6.57c-5,.41-9.84-4.87-14.69-5.64s-11.16,2.71-15.72.79-6.47-8.8-10.45-11.75-11.14-2.71-14.31-6.56S107,131.54,104.87,127c-2.05-4.42-8.38-7.69-9.25-12.72,0-.06-.06-.39-.07-.46s-.06-.36-.06-.43-.06-.33-.07-.39c-.93-5.35,4.1-10.72,4.91-15.87s-2.33-11.85.06-16.61,9.56-6.16,13.23-10.1,4.43-11.11,9-14C127,53.66,134,56,139.16,54.32c4.89-1.57,9.1-7.61,14.57-8.07,8.13-.67,16.62,3.86,24.76,3.4s16.09-5.89,24.24-6.11,16.38,4.76,24.54,4.76,16.39-5,24.54-4.76,16.09,5.67,24.24,6.11,16.63-4.07,24.76-3.4c5.47.46,9.68,6.5,14.57,8.07,5.18,1.68,12.14-.66,16.52,2.08,4.59,2.87,5.48,10.18,9,14s10.88,5.42,13.23,10.1a10.24,10.24,0,0,1,.91,5,47.28,47.28,0,0,1-.59,5.32,22.09,22.09,0,0,0-.26,6.34C355,102.24,360.05,107.61,359.12,113Z"/><path class="cls-3" d="M357,112.4c0,.07-.05.32-.07.39l-.06.43c0,.07-.07.38-.07.46-.65,3.76-4.36,6.51-7,9.51a13.11,13.11,0,0,0-2.14,3.11,15.27,15.27,0,0,0-1.12,4.71c-.42,3.78-.32,7.85-2.47,10.47-3.14,3.83-10.22,3.59-14.19,6.52s-5.8,9.75-10.37,11.66-10.68-1.58-15.59-.79-9.58,6-14.58,5.59c-7-.58-13.69-6.12-20.73-6.51s-14.28,4.37-21.31,4.18-14-5.36-21.07-5.36-14,5.16-21.05,5.36-14.29-4.57-21.32-4.18-13.72,5.93-20.74,6.51c-5,.41-9.76-4.82-14.57-5.59s-11.07,2.68-15.59.79-6.42-8.73-10.37-11.67c-2.6-1.9-6.52-2.46-9.78-3.71a9.75,9.75,0,0,1-4.41-2.8c-1.59-1.93-1.95-4.62-2.2-7.43s-.36-5.51-1.39-7.75c-2-4.41-8.31-7.63-9.17-12.62a4,4,0,0,1-.07-.46c0-.08-.06-.35-.08-.43s0-.32,0-.39c-.92-5.3,4.07-10.63,4.87-15.74.38-2.41-.09-5.11-.47-7.78A27.15,27.15,0,0,1,99.46,84a9.24,9.24,0,0,1,.89-3.83c2.33-4.64,9.48-6.11,13.12-10s4.39-11,9-13.87c4.35-2.72,11.26-.4,16.39-2.06,4.85-1.57,9-7.56,14.45-8,5.87-.49,11.94,1.76,17.92,2.86a28.86,28.86,0,0,0,6.65.51,34.56,34.56,0,0,0,9.52-2.23c4.82-1.67,9.63-3.7,14.52-3.83,8.09-.23,16.26,4.73,24.34,4.73s16.26-5,24.34-4.73,16,5.62,24.05,6.06,16.5-4.05,24.57-3.37c5.42.45,9.59,6.44,14.44,8,5.15,1.66,12.05-.66,16.4,2.06,4.55,2.85,5.44,10.1,8.95,13.87s10.79,5.37,13.11,10-.75,11.28.07,16.48S357.93,107.1,357,112.4Z"/><path class="cls-4" d="M352,123.66a13.49,13.49,0,0,0-2.34,3.3,14.36,14.36,0,0,0-1.07,4.3c-48.19,4.12-76.42-4.57-77.82-5C296.48,131.34,327.47,128.14,352,123.66Z"/><path class="cls-5" d="M189.5,138.24c-17.66,7.21-57.53,6.75-76.71,6a9.75,9.75,0,0,1-4.41-2.8c-1.59-1.93-1.95-4.62-2.2-7.43C119.76,137.14,152.34,143,189.5,138.24Z"/><path class="cls-6" d="M212.23,152.23s64.8-4.56,71.63-6.9.67,0,.67,0S254,158.75,212.23,152.23Z"/><path class="cls-7" d="M117.57,87.54a102.45,102.45,0,0,1-17.75,1.34A27.15,27.15,0,0,1,99.46,84,120.53,120.53,0,0,0,117.57,87.54Z"/><path class="cls-8" d="M187.35,47.37c-4.66,5.38-23.48,6.16-36.33,5.13,5.33-.55,13.85-2.14,20.16-3.41a28.86,28.86,0,0,0,6.65.51A34.56,34.56,0,0,0,187.35,47.37Z"/><path class="cls-9" d="M355.06,85.43a47.28,47.28,0,0,1-.59,5.32,51.15,51.15,0,0,1-15.64-5.32Z"/><path class="cls-10" d="M173.76,152.69l-.09-.11a1.51,1.51,0,0,0-1.12-.43L53.28,157.06a1.54,1.54,0,0,0-1,.43,67.31,67.31,0,0,0-4.79,5.4c-3.5,4.47-4.44,7.39-3,9.19l.12.13a1.52,1.52,0,0,0,1.08.48,1.47,1.47,0,0,0,1.08-.46c2-2.06,5.23-3.64,8-4.71a48.66,48.66,0,0,1-11.41,8.2,1.48,1.48,0,0,0-.75,1.68,1.38,1.38,0,0,0,.29.58,1.5,1.5,0,0,0,1.15.55c4.79,0,8.78-2,12.63-3.95,1.43-.71,2.87-1.44,4.38-2.08a23,23,0,0,0-2.75,7.28,1.51,1.51,0,0,0,.32,1.2,1.68,1.68,0,0,0,.51.4,1.5,1.5,0,0,0,1.77-.37,14.89,14.89,0,0,1,3.3-2.41,38.77,38.77,0,0,0-2.63,3.1,1.49,1.49,0,0,0,0,1.84l.07.08a1.49,1.49,0,0,0,1.92.2c4.05-2.78,9.19-3.3,12.19-3.34a40.42,40.42,0,0,0-3.51,9.89,1.49,1.49,0,0,0,2.91.62c0-.16,1-3.74,6.44-5.21-1.92,3-7.28,6.66-11.31,8.76a1.5,1.5,0,0,0-.69,1.89,1.6,1.6,0,0,0,.23.38,1.49,1.49,0,0,0,1.6.47c.23-.07,5.54-1.77,19.2-7.31-.87,2.94-4.85,5-4.9,5a1.49,1.49,0,0,0-.67,2,1.53,1.53,0,0,0,.19.3,1.49,1.49,0,0,0,1.77.41c.19-.08,4.06-1.88,9.58-7.2.27,3.78,1.71,8.5,4,11.35a7,7,0,0,0,4.33,2.7,1.5,1.5,0,0,0,1.44-.62,1.47,1.47,0,0,0,.09-1.56,8.6,8.6,0,0,1-.84-7.26c1.29-3.65,5-6.31,7.51-7.73-.44,2.87-1.5,7.47-4,10.56a1.49,1.49,0,0,0-.1,1.75l.1.14a1.5,1.5,0,0,0,1.54.49c4.63-1.23,8.84-6.54,11.38-10.43.08,4.9-.52,11.42-3.4,14.42a1.47,1.47,0,0,0-.26,1.71,1.59,1.59,0,0,0,.18.27,1.48,1.48,0,0,0,1.36.52c11.15-1.63,15.13-11.62,16.53-17.83a30.77,30.77,0,0,0,3.05,4.53c2.55,3.11,5.33,4.92,8.26,5.39a1.49,1.49,0,0,0,1.39-2.42c-1.79-2.17-2-6.56-1.68-10.85a27.94,27.94,0,0,0,2.54,6.79,1.07,1.07,0,0,0,.15.22,1.51,1.51,0,0,0,.77.49,1.45,1.45,0,0,0,1.15-.16,4.45,4.45,0,0,0,1.38-1.44,55.47,55.47,0,0,1-2.58,8,1.48,1.48,0,0,0,.23,1.51l.08.09a1.49,1.49,0,0,0,1.59.36c9.35-3.47,13.75-16.83,15.42-23.62a49.43,49.43,0,0,0,4,5.79c3,3.68,5.93,5.64,8.63,5.83a1.49,1.49,0,0,0,1.26-2.43,2,2,0,0,0-.34-.3,8.33,8.33,0,0,1-1.85-1.7c-6.78-8.25-5.91-31.12-5.9-31.35A1.47,1.47,0,0,0,173.76,152.69Z"/><path class="cls-11" d="M168.17,174.93s-3.43,21.23-14.72,25.42c6.57-16.15,2.83-27.6,2.83-27.6s-.1,17.32-3.74,19.52c-3.44-6.18-3.52-15.51-3.52-15.51s-4.11,15.61.34,21c-7.51-1.2-11.81-13-11.81-13s-.71,18.45-15.39,20.6c5.2-5.4,3.37-19.58,3.37-19.58s-5.92,11.64-12.44,13.37c4.11-5,4.47-13.53,4.47-13.53s-15.46,6.36-9.37,17.56c-5.49-.81-8-13-6.44-16-6.68,7.32-11.63,9.56-11.63,9.56s6.61-3.32,5.54-8.25c-14.75,6-20.37,7.81-20.37,7.81s12.3-6.42,12.34-11.56c-8.51,1-9.72,6.57-9.72,6.57s1.51-7.24,4.55-11.13c0,0-8.76-1-15.1,3.36,0,0,5.55-7.39,11-9-10.36,2.57-13.87,6.58-13.87,6.58s1.47-8.49,6.86-10.41c-8.62,1.37-14,7.53-22,7.53,10.67-5.64,14.72-12.09,14.72-12.09s-9,2.2-13.1,6.48c-2.37-2.55,7.3-12.16,7.3-12.16l114.65-4.72s-1.12,27,8.1,33C174.71,188.29,168.17,174.93,168.17,174.93Z"/><path class="cls-12" d="M69.24,161.68a1.52,1.52,0,0,1-1.07,0c-.21-.08-21.66-8.1-31.61-4.26a8.55,8.55,0,0,0-2.2,1.22,1.54,1.54,0,0,1-.39.23,1.5,1.5,0,0,1-1.92-2c1-2.51,3.81-4.64,8.26-6.36a49.49,49.49,0,0,1,6.76-2c-5.93-3.72-17.22-12.1-17.58-22.07a1.48,1.48,0,0,1,.84-1.39l.12,0a1.49,1.49,0,0,1,1.5.25,54,54,0,0,0,6.8,5,4.28,4.28,0,0,1-.94-1.76,1.51,1.51,0,0,1,.2-1.15,1.55,1.55,0,0,1,.72-.57,1.17,1.17,0,0,1,.25-.07,27.45,27.45,0,0,1,7.24-.28c-4-1.68-8.2-2.83-10.82-1.82a1.48,1.48,0,0,1-1.86-2.07c1.36-2.64,4-4.71,7.71-6.16a31.78,31.78,0,0,1,5.26-1.46c-5.46-3.29-13.69-10.2-11.73-21.3a1.48,1.48,0,0,1,.93-1.13,1.09,1.09,0,0,1,.31-.08,1.47,1.47,0,0,1,1.54.78C39.5,96.88,45.5,99.5,50.18,101c-2.89-3.63-6.62-9.3-6.33-14.09a1.51,1.51,0,0,1,.95-1.3l.17,0a1.49,1.49,0,0,1,1.63.65c2.13,3.37,6.17,5.82,8.76,7.14-.57-2.81-1.92-7.18-5-9.56a8.57,8.57,0,0,0-7.15-1.48,1.5,1.5,0,0,1-1.6-2.14,7,7,0,0,1,3.93-3.26c3.44-1.33,8.38-1.21,12-.28-3.32-6.91-3.81-11.16-3.83-11.36a1.49,1.49,0,0,1,.95-1.55,1.79,1.79,0,0,1,.35-.09,1.49,1.49,0,0,1,1.66,1.26s.71,4.48,3.23,6.23c-1-14.71-.91-20.28-.91-20.52a1.49,1.49,0,0,1,1-1.37,1.43,1.43,0,0,1,.42-.1A1.51,1.51,0,0,1,62,50.35c.73,4.48,2.55,10.74,4.76,13.49.33-5.75-2.89-7.73-2.93-7.75a1.49,1.49,0,0,1-.52-2,1.4,1.4,0,0,1,.75-.63,1.49,1.49,0,0,1,1.28.09A41.54,41.54,0,0,1,73.65,60c.91-2.87,2-7.92.66-12.62a1.51,1.51,0,0,1,.79-1.76l.11,0a1.48,1.48,0,0,1,1.76.54,40.58,40.58,0,0,1,2.11,3.47,14.65,14.65,0,0,0-1.26-3.91,1.5,1.5,0,0,1,.23-1.78,1.4,1.4,0,0,1,.53-.35,1.5,1.5,0,0,1,1.24.07,23,23,0,0,1,6,4.9c-.14-1.63-.37-3.23-.6-4.81C84.63,39.4,84,35,85.49,30.44a1.44,1.44,0,0,1,.88-.92,1.41,1.41,0,0,1,.65-.1,1.48,1.48,0,0,1,1.35,1.24,48.39,48.39,0,0,0,4.2,13.41c-.16-2.93-.65-6.5-2-9a1.5,1.5,0,0,1,.69-2l.17-.07c2.17-.84,4.65,1,7.79,5.7a66,66,0,0,1,3.62,6.24,1.55,1.55,0,0,1,.1,1.08L70.13,160.7a1.5,1.5,0,0,1-.76.93Z"/><path class="cls-11" d="M95.37,41c2.76,5.27,2,14.47,2,14.47s-4.85-5.87-6.86-17.77c-2.49,7.53,1.65,14.62.24,23.23-.13-5.73-7.73-9.79-7.73-9.79S85.77,55.77,85,66.42c.15-5.69-5.12-13.28-5.12-13.28,2.14,7.38-1.56,15.38-1.56,15.38-2.73-4.11-9.14-7.81-9.14-7.81S74,63.6,72.31,72c-4.86-1.64-7.09-15.33-7.09-15.33s-.07,5.89,1,21.78c-5-.53-6.09-7.85-6.09-7.85s.57,5.41,5.42,14c-2.37-2.38-14.75-3.88-17.24,1.08C60.87,83.45,62,100.13,62,100.13s-8-3-11.44-8.5c-.41,6.73,8.78,16,8.78,16s-14-2.72-17.52-9.35c-2.58,14.6,14.71,21.08,14.71,21.08s-12.54.38-16,7.12c6.53-2.52,20.06,6.3,20.06,6.3s-8.88-2.86-15.83-1.54c.94,4.14,17.35,9.69,17.35,9.69s-12-.05-25.31-11.37c.43,12,19.5,22,19.5,22s-14.73,2-17.15,7.87c8.64-6.85,33.91,2.7,33.91,2.7L104.62,51.79S98.54,39.58,95.37,41Z"/><path class="cls-13" d="M207.54,112.54c0,6.86-7.46,12.65-9.15,19-1.75,6.55,1.76,15.28-1.56,21s-12.71,7.11-17.43,11.83-6,14.07-11.84,17.44-14.46-.2-21,1.55c-6.32,1.69-12.11,9.15-19,9.15s-12.65-7.46-19-9.15c-6.55-1.75-15.28,1.76-21-1.55s-7.12-12.72-11.84-17.44-14.07-6-17.43-11.83.2-14.47-1.55-21c-1.69-6.32-9.15-12.11-9.15-19s7.46-12.65,9.15-19c1.75-6.54-1.77-15.28,1.55-21S71,65.43,75.75,60.72s6-14.08,11.84-17.44,14.46.2,21-1.55c6.33-1.69,12.12-9.15,19-9.15s12.65,7.46,19,9.15c6.55,1.75,15.28-1.77,21,1.55S174.68,56,179.4,60.72s14.07,6,17.43,11.83-.19,14.47,1.56,21C200.08,99.89,207.54,105.68,207.54,112.54Z"/><path class="cls-14" d="M203.54,108.54a11,11,0,0,1-.93,4.23,28.75,28.75,0,0,1-2.91,5.1c-1.94,2.9-4.06,5.73-4.86,8.69-1.08,4.05,0,9-.05,13.43a13,13,0,0,1-1.42,6.54,9.36,9.36,0,0,1-1.16,1.57c-3.82,4.24-11.38,5.65-15.4,9.67-4.48,4.48-5.72,13.37-11.24,16.56s-13.75-.19-20,1.48c-6,1.6-11.5,8.69-18,8.69s-12-7.09-18-8.69c-6.22-1.67-14.52,1.67-20-1.48s-6.76-12.08-11.25-16.56S65,152.05,61.78,146.53c-.12-.22-.24-.44-.35-.67a13.74,13.74,0,0,1-1.06-5.69c0-4.5,1-9.5-.06-13.61-1.61-6-8.69-11.5-8.69-18s7.08-12,8.69-18c1.66-6.22-1.68-14.51,1.47-20s12.09-6.76,16.56-11.24,5.73-13.37,11.25-16.57,13.74.19,20-1.47c6-1.6,11.51-8.69,18-8.69s12,7.09,18,8.69c6.22,1.66,14.52-1.68,20,1.47s6.69,11.6,10.87,16.18l.37.39c3.22,3.22,8.7,4.76,12.72,7.42a11.78,11.78,0,0,1,3.84,3.82c3.15,5.45-.19,13.74,1.47,20C196.45,96.52,203.54,102,203.54,108.54Z"/><path class="cls-15" d="M193.27,125.53c-1.65,6.15,1.66,14.36-1.46,19.74S179.86,152,175.43,156.4s-5.66,13.21-11.12,16.37-13.59-.18-19.74,1.46c-5.94,1.59-11.38,8.6-17.83,8.6s-11.88-7-17.83-8.6c-6.15-1.64-14.35,1.66-19.74-1.46s-6.69-11.94-11.12-16.38-13.22-5.66-16.38-11.12.19-13.59-1.46-19.74c-1.59-5.94-8.59-11.38-8.59-17.82,0-3.35,1.89-6.42,3.93-9.44a49.52,49.52,0,0,0,3.81-6.12,13.63,13.63,0,0,0,.85-2.27c1.65-6.16-1.65-14.36,1.46-19.74s12-6.69,16.38-11.13,5.66-13.22,11.12-16.38,13.59.19,19.74-1.45c6-1.6,11.39-8.6,17.83-8.6s11.89,7,17.83,8.6c6.15,1.64,14.35-1.66,19.74,1.45,5.22,3,6.57,11.16,10.54,15.75.18.22.38.43.58.63,3.18,3.18,8.6,4.71,12.57,7.34a11.41,11.41,0,0,1,3.81,3.79c3.12,5.38-.19,13.58,1.46,19.74,1.59,5.94,8.6,11.38,8.6,17.83S194.86,119.59,193.27,125.53Z"/><path class="cls-16" d="M87.94,95.38a311.27,311.27,0,0,1-32.39,2.89,49.52,49.52,0,0,0,3.81-6.12,270.52,270.52,0,0,0,28.29.4A1.42,1.42,0,0,1,87.94,95.38Z"/><path class="cls-17" d="M202.61,112.77a28.75,28.75,0,0,1-2.91,5.1c-80.88,2.3-120.23,17.25-138.27,28a13.74,13.74,0,0,1-1.06-5.69q2-2.32,4.36-5.08C109.42,117.69,178.92,113.67,202.61,112.77Z"/><path class="cls-18" d="M194.79,140a13,13,0,0,1-1.42,6.54,9.36,9.36,0,0,1-1.16,1.57c-7.8,2-27.76,6.8-47,8.71a1.06,1.06,0,0,1-.29-2.1C164.54,151.1,184.25,144.08,194.79,140Z"/><path class="cls-19" d="M189.53,66.73c-10,2.66-38.62,9.67-63.24,9.77A1.26,1.26,0,0,1,126,74c19.64-3.69,39.63-10.87,50.4-15.09l.37.39C180,62.53,185.51,64.07,189.53,66.73Z"/><path class="cls-20" d="M170.73,81.17c6,.27,12.38,4.57,13.09,8.91a5.35,5.35,0,0,1-4.92,6.45c-2.16,0-8.43,2.59-9.3,1.66S169.16,81.7,170.73,81.17Z"/><path class="cls-21" d="M171.54,86.55s8.43.38,12.25,4.12c.39,1.35-3.42,4-12.2,4.35,0,.66-.86,1.49-2.24,2.33a1.91,1.91,0,0,0,.25.84c.87.93,7.14-1.61,9.3-1.66a5.35,5.35,0,0,0,4.92-6.45c-.71-4.34-7.11-8.64-13.09-8.91-.37.13-.67,1.06-.9,2.42A4.82,4.82,0,0,1,171.54,86.55Z"/><path class="cls-20" d="M156.68,76.09c5.27-.8,11.11-.84,13.12,1.93s2.59,19.56.6,22.73-10.58,5.76-12.78,3.58S152.89,78.29,156.68,76.09Z"/><path class="cls-21" d="M170.4,100.75a14.11,14.11,0,0,0,1.1-5.36c-.77,1.8-6.27,4.48-12.63,5.44,0,0-3.45-14.56-.36-18.13,10.31-.83,12,.32,12.94,3.53-.27-3.8-.84-7.12-1.65-8.21-2-2.77-7.85-2.73-13.12-1.93-3.79,2.2-1.26,26.06.94,28.24S168.4,103.93,170.4,100.75Z"/><path class="cls-20" d="M132.73,72.49c8.4-2,22.29-3.45,24,2s4,34.17.69,36.54-11.1,7.22-14.92,3.63S127.58,77.45,132.73,72.49Z"/><path class="cls-21" d="M132.55,82.57c-.05-2.08,1.39-6.47,9.09-6.71s14.42.35,16.17,5.47l.18.12a46.06,46.06,0,0,0-1.23-7c-1.74-5.42-15.63-4-24-2-2.57,2.48-1.08,12.1,1.53,21.56C133.22,88.7,132.58,83.53,132.55,82.57Z"/><path class="cls-21" d="M139.05,107.21a1.44,1.44,0,0,1-.51-.28c1.54,3.88,3,6.78,4,7.7,3.82,3.59,11.58-1.25,14.92-3.63,1-.68,1.46-3.55,1.64-7.41C153.32,107.25,142.35,108.06,139.05,107.21Z"/><path class="cls-20" d="M108.5,144.72c-.39,4.88-2.06,10.89-2,13.85-6,4.18-15.69.48-17.85-5.85a51.66,51.66,0,0,1-2.49-12.13Z"/><path class="cls-21" d="M106.45,158.57a15,15,0,0,1,.14-1.86l0-.13c0-.36.1-.73.16-1.12v-.05l.09-.53s0-.09,0-.13.06-.29.08-.45c.33-1.81.74-3.94,1.06-5.83h0s0-.08,0-.11a1.85,1.85,0,0,0,0-.23h0c.18-1.15.34-2.31.42-3.4l-21.88-4-.49.15a52,52,0,0,0,2.47,11.89C90.76,159.05,100.41,162.75,106.45,158.57Zm-13.23-2.82c-2.7-1.46-3.63-4.47-2.55-7.68,4,1.55,9.09,1.56,13.52,1,1.41.87,1.34,4.5.26,7.05C101,157.1,95.13,156.79,93.22,155.75Z"/><path class="cls-20" d="M117.53,135.92c-1.43,4.09-2.92,9.66-5.7,10s-24.2,1.59-33.29-7.43c-1.23-3.17.45-3.1-1-7.77-.82-2.6-.77-12.65,4.85-14.62C89.22,117.58,106.81,132,117.53,135.92Z"/><path class="cls-22" d="M110.11,138.43a35.32,35.32,0,0,1-7-.74c-.42,1.88-1.65,4.68-.8,5.14s6.29-.38,7-.65S111,139,110.11,138.43Z"/><path class="cls-21" d="M111.83,145.9c2.78-.32,4.27-5.89,5.7-10-10.72-3.9-28.31-18.34-35.15-19.84-5.62,2-5.67,12-4.85,14.62,1.46,4.67-.22,4.6,1,7.77C87.63,147.49,109,146.22,111.83,145.9Zm-18.78-2.47c-7.18-.92-11.57-5.57-10.71-7.46s-.77-3-.6-6.56-.72-5.7,3.83-2.94c3.43,2.08,12.38,7.68,19.67,9.34s7.87,2.58,7.48,4.35.62,3-.66,4.12S100.22,144.34,93.05,143.43Z"/><path class="cls-20" d="M88.26,93c-8.66,4.21-12.38,14.58-8.43,21.74S97.13,135.3,120.56,137c1.7-.37,3.89-7.55,4-9.77S93,93,88.26,93Z"/><path class="cls-21" d="M124.56,127.18C124.67,125,93,93,88.26,93c-8.66,4.21-12.38,14.58-8.43,21.74S97.13,135.3,120.56,137C122.26,136.58,124.45,129.4,124.56,127.18Zm-34.94-5c-5-5-9.8-13.51-5-21.45S89.18,109,106,120.26c12.78,8.89,15.53,9.16,15.31,10.64s-1.27,3.95-2.49,3.89S100.29,133.36,89.62,122.2Z"/><path class="cls-20" d="M134.77,78.07c-1.26-9-2.62-15.7-18.6-12.56S80.91,79.8,87.7,95.1s35.7,40.19,46,34.57,13.6-8,9.6-17.38C136.93,97.46,136.9,88,134.77,78.07Z"/><path class="cls-21" d="M133.66,129.67c10.26-5.62,13.6-8,9.6-17.38-6.33-14.83-6.36-24.33-8.49-34.22-1.26-9-2.62-15.7-18.6-12.56S80.91,79.8,87.7,95.1,123.4,135.29,133.66,129.67Zm-8.28-3.49c-15.75-4.86-32.25-25.79-33-36.22C93.63,74.14,121.87,68.29,123,68.34s5.07-.07,6.87.9,1.79,2.42,2.82,8.44c1.19,7,7.73,33.89,9.94,39S133.9,127.9,125.38,126.18Z"/><path class="cls-22" d="M136.69,105.25c1.78.53,2.43,6,2.09,7.65-1.62,4.82-9.31,9.5-15.12,9.66-4.14-.07-8-3.52-9-5.79S124.28,114.35,136.69,105.25Z"/><path class="cls-22" d="M155,95.9c-3.23,0-11,1.14-13.17,2.23-.44,2.65,1.39,6.29,1.39,6.29l12.72-2.54S155.52,97,155,95.9Z"/><path class="cls-22" d="M169.28,92.09c-2.45-.26-7.57.85-8.63.5s.54,4.63.54,4.63S169.83,96.57,169.28,92.09Z"/><path class="cls-22" d="M116.61,129.5c-2.7-1.31-9.31-4.43-10.33-5.52-1.69,3-3,5.66-2,6.15s10,3.27,10.93,2.72S116.61,129.5,116.61,129.5Z"/><path class="cls-23" d="M1863.9,174a.57.57,0,0,1-.18,0,1.88,1.88,0,0,1-1.24-.91l-77-132.67a1.92,1.92,0,0,1-.22-1.37,84.69,84.69,0,0,1,2.54-8.92c2.43-6.88,4.94-9.91,7.92-9.55l.23,0a1.92,1.92,0,0,1,1.51,2.33c-.86,3.58-.34,8.18.39,11.89a62.37,62.37,0,0,0,1-18,1.92,1.92,0,0,1,1.3-2,2,2,0,0,1,.84-.09,1.93,1.93,0,0,1,1.39.88c3.3,5.18,3.89,10.89,4.45,16.41.21,2,.42,4.11.77,6.18a29.23,29.23,0,0,1,6-8,1.89,1.89,0,0,1,1.51-.49,2,2,0,0,1,.79.28,1.91,1.91,0,0,1,.82,2.16,19.28,19.28,0,0,0-.32,5.25,50.49,50.49,0,0,1,1.53-5,1.92,1.92,0,0,1,2-1.23l.15,0a1.89,1.89,0,0,1,1.53,1.94c-.22,6.3,2.77,12.23,4.81,15.52A52.26,52.26,0,0,1,1834.66,38a1.93,1.93,0,0,1,1.57-.53,1.88,1.88,0,0,1,1.14.56,1.92,1.92,0,0,1,0,2.7c-.14.15-3.38,3.65-1.2,10.58,1.88-4.12,2.19-12.49,1.68-18.31a1.92,1.92,0,0,1,1.58-2.05,1.77,1.77,0,0,1,.56,0,1.91,1.91,0,0,1,1.62,1.41c.08.3,1.91,7.23,5.34,25.86,2.59-3,2.07-8.71,2.06-8.78a1.92,1.92,0,0,1,1.68-2.09,1.77,1.77,0,0,1,.46,0,1.9,1.9,0,0,1,1.66,1.63c0,.26.77,5.7-1.19,15.36,4.29-2.32,10.4-4,15.1-3.45a8.93,8.93,0,0,1,5.92,2.83,1.91,1.91,0,0,1,.33,2,1.94,1.94,0,0,1-1.64,1.18c-3.73.25-6.49,1.6-8.44,4.09-3.06,3.93-3.37,9.81-3.2,13.48,2.81-2.45,7.07-6.78,8.67-11.65a1.91,1.91,0,0,1,1.83-1.32h.22a1.91,1.91,0,0,1,1.59,1.32c1.87,5.87-1,14.11-3.44,19.55,5.36-3.3,12-8.46,13.27-13.65a1.92,1.92,0,0,1,1.68-1.46,1.86,1.86,0,0,1,.41,0,1.91,1.91,0,0,1,1.52,1.11c5.93,13.22-2.15,24.43-7.92,30.24a39,39,0,0,1,7,.17c5.13.62,9,2.38,11.55,5.24a1.91,1.91,0,0,1-1.66,3.17c-3.6-.44-8.51,2.34-12.93,5.67a35.57,35.57,0,0,1,9.12-1.93,1.29,1.29,0,0,1,.34,0,1.9,1.9,0,0,1,1.68,1.85,5.62,5.62,0,0,1-.61,2.49,69.62,69.62,0,0,0,6.91-8.33,1.94,1.94,0,0,1,1.79-.79l.15,0a1.93,1.93,0,0,1,1.49,1.48c2.69,12.53-8.74,26.53-14.95,33a62.77,62.77,0,0,1,9,.36c6.08.73,10.21,2.52,12.29,5.32a1.92,1.92,0,0,1-1.77,3,1.86,1.86,0,0,1-.56-.15,10.71,10.71,0,0,0-3.13-.83c-13.62-1.65-37.81,15.08-38,15.25A1.91,1.91,0,0,1,1863.9,174Z"/><path class="cls-11" d="M1878.32,153.79s20.53-18.27,17.3-33.33c-12.91,18.18-27.82,22-27.82,22s18.6-12,18.47-17.44c-9,.54-19.13,6.86-19.13,6.86s14-15.16,22.89-14.08c-6.45-7.27-22.12-3.81-22.12-3.81s19.4-13.44,11.63-30.73c-2.24,9.31-18.79,17.07-18.79,17.07s8.48-14.38,5.87-22.59c-2.58,7.87-11.52,14.12-11.52,14.12s-3.77-21.05,12.5-22.18c-4.65-5.35-19.52.38-21.71,4.07,3.3-12.22,2.32-19.11,2.32-19.11s1,9.42-5.1,11.65c-3.63-20-5.57-27.32-5.57-27.32s1.53,17.67-4,21.23c-4.73-9.88.4-15,.4-15s-6.77,6.6-8.88,12.54c0,0-7.09-8.75-6.74-18.58,0,0-4.16,11.06-2.19,18.07-4.35-12.94-2.43-19.47-2.43-19.47s-8.15,7.4-6.52,14.54c-4.44-10.23-1.53-20.31-7-28.87,1.24,15.38-2.93,24.18-2.93,24.18s-3.78-11.17-2-18.57c-4.38-.82-8.09,16.22-8.09,16.22l73.67,126.85s28.33-19.75,41.18-14C1897.21,151.67,1878.32,153.79,1878.32,153.79Z"/><path class="cls-24" d="M1801.46,54.53a1.9,1.9,0,0,0-.73-1.15c-.24-.18-23.74-17.89-26.45-31.33a10.62,10.62,0,0,1-.19-3.23,1.87,1.87,0,0,0,0-.58,1.94,1.94,0,0,0-1.21-1.41,1.91,1.91,0,0,0-2.24.69c-2,2.85-2.4,7.34-1.19,13.34a62.63,62.63,0,0,0,2.51,8.7c-8.13-3.85-25-10.3-36.06-3.81a1.94,1.94,0,0,0-.93,1.88l0,.16a1.93,1.93,0,0,0,1.31,1.45,69.75,69.75,0,0,1,10.08,3.93,5.68,5.68,0,0,0-2.55.2,1.94,1.94,0,0,0-1.1,1,1.89,1.89,0,0,0-.14,1.17c0,.11.06.22.1.33a35.72,35.72,0,0,0,4.7,8c-4.55-3.14-8.73-6.93-9.44-10.48a1.92,1.92,0,0,0-3.54-.58c-1.91,3.3-2.36,7.55-1.34,12.61a38.55,38.55,0,0,0,2,6.72c-7.34-3.65-20.52-7.8-31.19,2a1.9,1.9,0,0,0-.59,1.79,2,2,0,0,0,.13.39,1.9,1.9,0,0,0,1.91,1.14c5.32-.44,12.31,4.26,17.13,8.31-5.94-.62-14.65-.74-19.64,2.87a1.92,1.92,0,0,0-.75,1.93,1.74,1.74,0,0,0,.05.22,1.92,1.92,0,0,0,1.83,1.32c5.13,0,10.57,2.66,13.79,4.56-3.43,1.32-9.11,2.88-13.8,1.2-3-1.07-5.13-3.27-6.55-6.72a1.9,1.9,0,0,0-3.41-.25,9,9,0,0,0-.83,6.51c.94,4.64,4.48,9.91,8,13.25-9.79,1.17-14.73,3.58-15,3.7a1.9,1.9,0,0,0-1,2.09,1.76,1.76,0,0,0,.15.44,1.91,1.91,0,0,0,2.51.93c.06,0,5.35-2.33,9-.8-16.6,9.11-22.61,13-22.87,13.19a1.94,1.94,0,0,0-.82,2,1.78,1.78,0,0,0,.19.53,1.91,1.91,0,0,0,2.44.86c5.37-2.31,13.41-4.65,17.91-4.16-6,4.32-10.37,2.21-10.42,2.18a1.92,1.92,0,0,0-2.57.84,1.83,1.83,0,0,0-.17,1.25,1.92,1.92,0,0,0,1,1.32,52.9,52.9,0,0,0,12.7,4.52c-2.48,3-7.18,7.68-13.21,9.44a1.91,1.91,0,0,0-1.36,2.07.77.77,0,0,0,0,.15,1.9,1.9,0,0,0,1.8,1.53,50.44,50.44,0,0,0,5.22-.11,19.45,19.45,0,0,1-5.1,1.34,1.91,1.91,0,0,0-1.77,1.47,1.94,1.94,0,0,0,0,.83,1.92,1.92,0,0,0,.93,1.28,29.4,29.4,0,0,0,9.49,3.17c-1.87,1-3.77,1.83-5.63,2.67-5.07,2.27-10.3,4.62-14.19,9.39a1.92,1.92,0,0,0-.39,1.59,2,2,0,0,0,.35.77,1.91,1.91,0,0,0,2.27.61,62.87,62.87,0,0,1,17.44-4.72c-3.28,1.86-7.49,3.8-11.15,4.11a1.91,1.91,0,0,0-1.74,2.17,1.85,1.85,0,0,0,0,.23c.59,2.93,4.26,4.37,11.55,4.51a83.19,83.19,0,0,0,9.28-.4,1.91,1.91,0,0,0,1.23-.63L1801,56.18a1.94,1.94,0,0,0,.47-1.46Z"/><path class="cls-11" d="M1683.94,167.29c7.58-.64,17-7.75,17-7.75s-9.66-1.19-23.87,4.82c6.41-7.86,16.89-8.26,25.21-15.7-6.26,3.8-15.86-1.61-15.86-1.61s6.81-.23,17.72-8.43c-6,4.07-17.84,3.6-17.84,3.6,9.44-2.76,15.52-12.24,15.52-12.24-6.31-.13-14.7-4.49-14.7-4.49s6.46,3.27,14.35-4.32c-5.11-4.11-21.4,2.89-21.4,2.89s6.3-4.13,24.18-13.88c-4-5-12.66-1.17-12.66-1.17s6.23-3.1,18.87-3.81c-4.19-.92-14.31-13.23-10.69-19.33,6.19,15.09,25,4.89,25,4.89s-8.74-6.52-17-6.5c7-5.06,23.29-1.53,23.29-1.53s-12.57-13.26-22.12-12.47c14-12.81,32.84,1.39,32.84,1.39s-8.22-13.79-3.34-22.2c1.77,8.78,20.56,17.3,20.56,17.3s-9.18-7.61-12.53-16c5.12-1.82,22.37,12.06,22.37,12.06s-8.33-12.95-29.64-19.49c13.27-7.8,37.08,5.94,37.08,5.94s-8-17.26-3.3-23.9c-1.45,14,26.2,34.7,26.2,34.7l-97.26,109.82S1684.55,171.71,1683.94,167.29Z"/><path class="cls-25" d="M1888.7,145.42c0,8.49-9.23,15.65-11.32,23.48-2.17,8.1,2.18,18.91-1.92,26s-15.74,8.81-21.58,14.64-7.45,17.42-14.64,21.58-17.9-.25-26,1.92c-7.83,2.09-15,11.32-23.48,11.32s-15.66-9.23-23.48-11.32c-8.11-2.17-18.91,2.18-26-1.92s-8.81-15.74-14.65-21.58-17.41-7.45-21.57-14.64.24-17.9-1.92-26c-2.1-7.83-11.33-15-11.33-23.48s9.23-15.65,11.33-23.48c2.16-8.1-2.19-18.91,1.92-26s15.73-8.81,21.57-14.65,7.45-17.41,14.65-21.57,17.89.24,26-1.92c7.82-2.1,15-11.33,23.48-11.33s15.65,9.23,23.48,11.33c8.1,2.16,18.91-2.19,26,1.92s8.81,15.73,14.64,21.57,17.41,7.45,21.58,14.65-.25,17.9,1.92,26C1879.47,129.77,1888.7,136.93,1888.7,145.42Z"/><path class="cls-26" d="M1883.75,140.47a13.72,13.72,0,0,1-1.14,5.24A36.81,36.81,0,0,1,1879,152c-2.41,3.58-5,7.09-6,10.75-1.34,5-.06,11.11-.08,16.62a16.07,16.07,0,0,1-1.75,8.09,11.42,11.42,0,0,1-1.44,2c-4.72,5.24-14.08,7-19.06,11.95-5.54,5.55-7.07,16.55-13.91,20.5s-17-.23-24.7,1.83c-7.43,2-14.24,10.75-22.3,10.75s-14.87-8.77-22.31-10.75c-7.7-2.06-18,2.07-24.7-1.83s-8.37-14.95-13.92-20.5-16.53-7.07-20.49-13.9c-.15-.27-.3-.55-.43-.83a16.74,16.74,0,0,1-1.31-7c-.06-5.57,1.27-11.76-.08-16.84-2-7.43-10.76-14.24-10.76-22.3s8.77-14.87,10.76-22.31c2.06-7.7-2.08-18,1.82-24.7s15-8.37,20.49-13.91,7.09-16.54,13.92-20.5,17,.24,24.7-1.82c7.44-2,14.24-10.75,22.31-10.75s14.87,8.76,22.3,10.75c7.7,2.06,18-2.08,24.7,1.82s8.28,14.35,13.46,20l.45.48c4,4,10.78,5.89,15.75,9.19a14.48,14.48,0,0,1,4.75,4.72c3.9,6.74-.23,17,1.83,24.7C1875,125.6,1883.75,132.4,1883.75,140.47Z"/><path class="cls-27" d="M1871,161.49c-2,7.61,2.06,17.77-1.8,24.44s-14.78,8.27-20.27,13.76S1842,216,1835.21,220s-16.82-.23-24.42,1.81c-7.36,2-14.09,10.64-22.06,10.64s-14.72-8.68-22.07-10.64c-7.61-2-17.76,2.05-24.42-1.81s-8.28-14.78-13.76-20.27-16.37-7-20.27-13.75.22-16.83-1.81-24.44c-2-7.35-10.64-14.08-10.64-22.05,0-4.14,2.34-7.95,4.86-11.68a61.81,61.81,0,0,0,4.72-7.57,16.4,16.4,0,0,0,1.06-2.82c2-7.61-2.05-17.76,1.81-24.42s14.78-8.28,20.27-13.76,7-16.36,13.76-20.27,16.81.23,24.42-1.81c7.35-2,14.09-10.63,22.07-10.63s14.7,8.66,22,10.63c7.61,2,17.77-2,24.43,1.81,6.45,3.73,8.13,13.8,13,19.48a10.5,10.5,0,0,0,.72.79c3.93,3.93,10.63,5.82,15.55,9.07a14.27,14.27,0,0,1,4.71,4.69c3.86,6.66-.23,16.81,1.8,24.42,2,7.36,10.65,14.09,10.65,22.07S1873,154.14,1871,161.49Z"/><path class="cls-28" d="M1740.71,124.18c-13.09,2.1-29.41,3.11-40.09,3.58a61.81,61.81,0,0,0,4.72-7.57,335.79,335.79,0,0,0,35,.49A1.76,1.76,0,0,1,1740.71,124.18Z"/><path class="cls-29" d="M1882.61,145.71A36.81,36.81,0,0,1,1879,152c-100.09,2.85-148.78,21.34-171.1,34.63a16.74,16.74,0,0,1-1.31-7c1.62-1.92,3.42-4,5.38-6.29C1767.29,151.79,1853.29,146.81,1882.61,145.71Z"/><path class="cls-30" d="M1872.92,179.39a16.07,16.07,0,0,1-1.75,8.09,11.42,11.42,0,0,1-1.44,2c-9.65,2.48-34.35,8.41-58.14,10.76a1.3,1.3,0,0,1-.37-2.58C1835.5,193.13,1859.88,184.45,1872.92,179.39Z"/><path class="cls-31" d="M1866.42,88.74c-12.38,3.29-47.79,12-78.26,12.08a1.55,1.55,0,0,1-.3-3.08c24.3-4.57,49-13.45,62.36-18.67l.45.48C1854.66,83.53,1861.45,85.44,1866.42,88.74Z"/><text class="cls-32" transform="translate(1737.29 124.78)">Timer</text><text class="cls-33" transform="translate(1736.56 122.73)">Timer</text><path class="cls-34" d="M1750.33,985.89h.12a1.16,1.16,0,0,1,.87.37l64.45,69.24a1.18,1.18,0,0,1,.32.79,52.35,52.35,0,0,1-.31,5.72c-.52,4.46-1.61,6.63-3.45,6.82h-.15a1.23,1.23,0,0,1-.87-.33,1.17,1.17,0,0,1-.35-.86,18.71,18.71,0,0,0-1.86-7.09,38.27,38.27,0,0,0,1.86,11,1.18,1.18,0,0,1-.51,1.36,1.3,1.3,0,0,1-.49.17,1.2,1.2,0,0,1-1-.34c-2.69-2.67-3.82-6-4.92-9.26-.4-1.2-.81-2.41-1.3-3.61a18.22,18.22,0,0,1-2.51,5.63,1.19,1.19,0,0,1-.85.5,1.12,1.12,0,0,1-.51-.06,1.19,1.19,0,0,1-.79-1.19,11.92,11.92,0,0,0-.52-3.2,31.34,31.34,0,0,1-.24,3.21,1.17,1.17,0,0,1-1,1h-.1a1.18,1.18,0,0,1-1.19-1c-.72-3.82-3.33-7-5-8.67a32.48,32.48,0,0,1-3.53,7.53,1.18,1.18,0,0,1-.87.53,1.15,1.15,0,0,1-.76-.18,1.17,1.17,0,0,1-.36-1.62c.06-.11,1.53-2.66-.72-6.53-.57,2.73.39,7.81,1.48,11.24a1.18,1.18,0,0,1-.66,1.45,1.4,1.4,0,0,1-.34.08,1.19,1.19,0,0,1-1.17-.62c-.08-.17-2.13-4.09-6.74-14.82-1.15,2.14,0,5.52,0,5.56a1.19,1.19,0,0,1-.72,1.49,1.4,1.4,0,0,1-.28.06,1.17,1.17,0,0,1-1.22-.75,30.58,30.58,0,0,1-1.38-9.4,17.28,17.28,0,0,1-8.61,4.14,5.53,5.53,0,0,1-3.95-.9,1.18,1.18,0,0,1,.36-2.08,6.78,6.78,0,0,0,4.51-3.62c1.31-2.78.69-6.35.09-8.54-1.36,1.86-3.33,5-3.62,8.19a1.19,1.19,0,0,1-.92,1.05l-.14,0a1.19,1.19,0,0,1-1.14-.58c-1.92-3.27-1.33-8.61-.6-12.22-2.77,2.72-6.07,6.73-6.11,10a1.19,1.19,0,0,1-.81,1.11l-.25,0a1.16,1.16,0,0,1-1.06-.47c-5.38-7.13-2-15,.62-19.26a23.87,23.87,0,0,1-4.24.86c-3.17.33-5.75-.2-7.66-1.57a1.17,1.17,0,0,1-.45-1.26,1.19,1.19,0,0,1,1-.88c2.22-.22,4.79-2.56,7-5.17a22,22,0,0,1-5.21,2.41l-.21,0a1.27,1.27,0,0,1-.71-.15,1.2,1.2,0,0,1-.56-.74,3.69,3.69,0,0,1,0-1.58,43.38,43.38,0,0,0-3,6,1.19,1.19,0,0,1-1,.73h-.1a1.17,1.17,0,0,1-1.09-.68c-3.33-7.17,1.63-17.14,4.47-21.9a40,40,0,0,1-5.49,1c-3.75.39-6.48-.13-8.11-1.52a1.17,1.17,0,0,1,.64-2.07,1.09,1.09,0,0,1,.36,0,6.5,6.5,0,0,0,2,.08c8.42-.87,20.68-14.24,20.8-14.38A1.21,1.21,0,0,1,1750.33,985.89Z"/><path class="cls-11" d="M1746.94,1002s-9.22,12.92-5.47,21c4.93-11.88,12.83-16,12.83-16s-8.93,9.14-8.16,12.18c5-1.46,9.89-6.31,9.89-6.31s-5.94,10.32-11.08,10.85c4.56,3.27,12.94-.68,12.94-.68s-9.21,10-2.62,18.79c.07-5.53,8.39-12,8.39-12s-2.93,9.18-.41,13.47c.45-4.76,4.68-9.42,4.68-9.42s4.81,11.36-4.2,14.08c3.3,2.42,10.94-2.71,11.7-5.07-.3,7.3,1.14,11,1.14,11s-1.75-5.18,1.37-7.2c4.61,10.81,6.64,14.66,6.64,14.66s-3.12-9.75-.48-12.46c3.93,5,1.69,8.49,1.69,8.49s3-4.58,3.39-8.2c0,0,5.11,4,6.18,9.6,0,0,.92-6.76-1.08-10.45,4.1,6.72,3.86,10.65,3.86,10.65s3.64-5.22,1.81-9c3.8,5.2,3.45,11.24,7.62,15.36-2.67-8.5-1.45-14-1.45-14s3.56,5.8,3.51,10.19c2.57-.1,2.48-10.16,2.48-10.16l-57.7-62s-13.41,14.74-21.39,13.13C1736.58,1005.61,1746.94,1002,1746.94,1002Z"/><path class="cls-35" d="M1811.29,1042.55a.5.5,0,0,1,0-.12,1.14,1.14,0,0,1,.56-.76l81.74-47.61a1.2,1.2,0,0,1,.85-.13,50.49,50.49,0,0,1,5.5,1.56c4.24,1.49,6.12,3,5.9,4.87l0,.14a1.16,1.16,0,0,1-.51.78,1.24,1.24,0,0,1-.92.16,18.35,18.35,0,0,0-7.33.25,38.87,38.87,0,0,0,11.13.6,1.18,1.18,0,0,1,1.21.8,1,1,0,0,1,0,.52,1.17,1.17,0,0,1-.53.85c-3.2,2-6.72,2.41-10.12,2.76-1.26.13-2.53.26-3.81.48a18.46,18.46,0,0,1,4.94,3.68,1.18,1.18,0,0,1,.3.94,1.3,1.3,0,0,1-.17.49,1.2,1.2,0,0,1-1.34.5,11.9,11.9,0,0,0-3.23-.19,30.39,30.39,0,0,1,3.08.94,1.19,1.19,0,0,1,.76,1.24s0,.06,0,.09a1.18,1.18,0,0,1-1.2,1c-3.88-.13-7.54,1.72-9.56,3a32.07,32.07,0,0,1,6.57,5.1,1.19,1.19,0,0,1,0,1.66,1.17,1.17,0,0,1-1.66,0c-.1-.09-2.26-2.09-6.53-.74,2.54,1.16,7.7,1.34,11.29,1a1.18,1.18,0,0,1,1.27,1,1.3,1.3,0,0,1,0,.34,1.17,1.17,0,0,1-.87,1c-.19,0-4.46,1.18-15.94,3.32,1.84,1.59,5.37,1.26,5.42,1.26a1.19,1.19,0,0,1,1.29,1,1.41,1.41,0,0,1,0,.29,1.18,1.18,0,0,1-1,1c-.16,0-3.51.48-9.47-.72a17.3,17.3,0,0,1,2.14,9.31,5.55,5.55,0,0,1-1.74,3.65,1.18,1.18,0,0,1-1.23.2,1.2,1.2,0,0,1-.73-1,6.8,6.8,0,0,0-2.53-5.2c-2.42-1.88-6-2.07-8.31-2,1.52,1.73,4.19,4.35,7.19,5.34a1.17,1.17,0,0,1,.82,1.12c0,.05,0,.09,0,.14a1.19,1.19,0,0,1-.82,1c-3.61,1.16-8.69-.6-12-2.11,2,3.31,5.22,7.41,8.43,8.18a1.17,1.17,0,0,1,.9,1,2.26,2.26,0,0,1,0,.26,1.18,1.18,0,0,1-.68.93c-8.15,3.67-15.06-1.3-18.65-4.86a24.55,24.55,0,0,1-.1,4.33c-.38,3.16-1.47,5.56-3.22,7.13a1.2,1.2,0,0,1-1.34.16,1.19,1.19,0,0,1-.62-1.19c.26-2.22-1.45-5.24-3.51-8a21.53,21.53,0,0,1,1.2,5.61,1.61,1.61,0,0,1,0,.22,1.23,1.23,0,0,1-.31.66,1.2,1.2,0,0,1-.84.38,3.55,3.55,0,0,1-1.53-.38,42.58,42.58,0,0,0,5.14,4.25,1.2,1.2,0,0,1,.49,1.11.29.29,0,0,1,0,.09,1.18,1.18,0,0,1-.9.92c-7.73,1.67-16.37-5.37-20.38-9.19a39.14,39.14,0,0,1-.21,5.58c-.45,3.74-1.55,6.29-3.28,7.58a1.17,1.17,0,0,1-1.44,0,1.15,1.15,0,0,1-.43-1.06,1,1,0,0,1,.09-.34,7,7,0,0,0,.51-1.93c1-8.4-9.33-23.31-9.43-23.46A1.17,1.17,0,0,1,1811.29,1042.55Z"/><path class="cls-11" d="M1826.26,1049.41s10.56,11.84,19.25,10c-10.5-7.43-12.73-16-12.73-16s7,10.73,10.09,10.65c-.32-5.21-4-11-4-11s8.76,8.07,8.14,13.21c4.2-3.73,2.19-12.78,2.19-12.78s7.77,11.19,17.75,6.7c-5.38-1.29-9.87-10.84-9.87-10.84s8.3,4.89,13,3.38c-4.54-1.49-8.15-6.64-8.15-6.64s12.14-2.2,12.8,7.19c3.09-2.68-.23-11.26-2.36-12.52,7.06,1.89,11,1.32,11,1.32s-5.43.56-6.73-2.93c11.57-2.11,15.77-3.24,15.77-3.24s-10.2.9-12.26-2.28c5.7-2.74,8.65.22,8.65.22s-3.81-3.91-7.25-5.11c0,0,5-4.1,10.72-3.91,0,0-6.38-2.39-10.42-1.25,7.46-2.52,11.23-1.42,11.23-1.42s-4.28-4.7-8.4-3.75c5.91-2.57,11.73-.9,16.66-4-8.87.73-14-1.67-14-1.67s6.45-2.19,10.72-1.18c.47-2.53-9.37-4.65-9.37-4.65l-73.17,42.61s11.42,16.33,8.09,23.76C1827.49,1060.31,1826.26,1049.41,1826.26,1049.41Z"/><path class="cls-36" d="M1750.33,960.22h.12a1.2,1.2,0,0,0,.87-.38l64.45-69.24a1.16,1.16,0,0,0,.32-.79,52.45,52.45,0,0,0-.31-5.72c-.52-4.46-1.61-6.63-3.45-6.82h-.15a1.23,1.23,0,0,0-.87.33,1.17,1.17,0,0,0-.35.86,18.8,18.8,0,0,1-1.86,7.1,38.28,38.28,0,0,1,1.86-11,1.19,1.19,0,0,0-.51-1.36,1.13,1.13,0,0,0-.49-.16,1.19,1.19,0,0,0-1,.33c-2.69,2.67-3.82,6-4.92,9.26-.4,1.2-.81,2.41-1.3,3.62a18.33,18.33,0,0,0-2.51-5.64,1.22,1.22,0,0,0-.85-.5,1.49,1.49,0,0,0-.51.06,1.19,1.19,0,0,0-.79,1.19,11.92,11.92,0,0,1-.52,3.2,31.34,31.34,0,0,0-.24-3.21,1.17,1.17,0,0,0-1-1h-.1a1.19,1.19,0,0,0-1.19,1c-.72,3.82-3.33,7-5,8.67a32.72,32.72,0,0,0-3.53-7.53,1.22,1.22,0,0,0-.87-.53,1.15,1.15,0,0,0-.76.18,1.18,1.18,0,0,0-.36,1.63c.06.11,1.53,2.65-.72,6.52-.57-2.73.39-7.8,1.48-11.23a1.17,1.17,0,0,0-.66-1.45,1.07,1.07,0,0,0-.34-.09,1.18,1.18,0,0,0-1.17.63c-.08.17-2.13,4.08-6.74,14.81-1.15-2.14,0-5.52,0-5.56a1.18,1.18,0,0,0-.72-1.48,1,1,0,0,0-.28-.07,1.18,1.18,0,0,0-1.22.76,30.41,30.41,0,0,0-1.38,9.4,17.28,17.28,0,0,0-8.61-4.14,5.48,5.48,0,0,0-3.95.89,1.18,1.18,0,0,0,.36,2.08,6.81,6.81,0,0,1,4.51,3.62c1.31,2.78.69,6.36.09,8.54-1.36-1.86-3.33-5-3.62-8.19a1.18,1.18,0,0,0-.92-1l-.14,0a1.21,1.21,0,0,0-1.14.58c-1.92,3.28-1.33,8.62-.6,12.22-2.77-2.71-6.07-6.72-6.11-10a1.17,1.17,0,0,0-.81-1.1l-.25-.06a1.16,1.16,0,0,0-1.06.47c-5.38,7.13-2,15,.62,19.26a24.8,24.8,0,0,0-4.24-.86c-3.17-.32-5.75.2-7.66,1.57a1.19,1.19,0,0,0,.57,2.14c2.22.23,4.79,2.57,7,5.17a22,22,0,0,0-5.21-2.4l-.21,0a1.27,1.27,0,0,0-.71.15,1.2,1.2,0,0,0-.56.74,3.69,3.69,0,0,0,0,1.58,42.81,42.81,0,0,1-3-6,1.18,1.18,0,0,0-1-.72h-.1a1.17,1.17,0,0,0-1.09.68c-3.33,7.17,1.63,17.15,4.47,21.91a38.5,38.5,0,0,0-5.49-1c-3.75-.38-6.48.13-8.11,1.53a1.18,1.18,0,0,0-.3,1.41,1.21,1.21,0,0,0,.94.66,1.45,1.45,0,0,0,.36,0,6.52,6.52,0,0,1,2-.07c8.42.87,20.68,14.24,20.8,14.37A1.16,1.16,0,0,0,1750.33,960.22Z"/><path class="cls-11" d="M1746.94,944.11s-9.22-12.91-5.47-21c4.93,11.88,12.83,15.94,12.83,15.94s-8.93-9.14-8.16-12.18c5,1.46,9.89,6.31,9.89,6.31s-5.94-10.32-11.08-10.85c4.56-3.27,12.94.69,12.94.69s-9.21-10-2.62-18.79c.07,5.53,8.39,12,8.39,12s-2.93-9.18-.41-13.46c.45,4.75,4.68,9.41,4.68,9.41s4.81-11.36-4.2-14.08c3.3-2.42,10.94,2.72,11.7,5.07-.3-7.3,1.14-11.05,1.14-11.05s-1.75,5.18,1.37,7.21c4.61-10.82,6.64-14.67,6.64-14.67s-3.12,9.75-.48,12.46c3.93-4.95,1.69-8.48,1.69-8.48s3,4.58,3.39,8.19c0,0,5.11-4,6.18-9.59,0,0,.92,6.75-1.08,10.45,4.1-6.73,3.86-10.65,3.86-10.65s3.64,5.21,1.81,9c3.8-5.19,3.45-11.24,7.62-15.36-2.67,8.5-1.45,14-1.45,14s3.56-5.81,3.51-10.2c2.57.1,2.48,10.16,2.48,10.16l-57.7,62S1741,941.93,1733,943.54C1736.58,940.5,1746.94,944.11,1746.94,944.11Z"/><path class="cls-37" d="M1811.29,903.57a.52.52,0,0,0,0,.11,1.19,1.19,0,0,0,.56.77l81.74,47.6a1.21,1.21,0,0,0,.85.14,56.27,56.27,0,0,0,5.5-1.56c4.24-1.49,6.12-3,5.9-4.88l0-.14a1.12,1.12,0,0,0-.51-.77,1.15,1.15,0,0,0-.92-.16,18.73,18.73,0,0,1-7.33-.25,38.45,38.45,0,0,1,11.13-.61,1.16,1.16,0,0,0,1.21-.8,1,1,0,0,0,0-.52,1.19,1.19,0,0,0-.53-.85c-3.2-2-6.72-2.41-10.12-2.76-1.26-.13-2.53-.26-3.81-.47a18.39,18.39,0,0,0,4.94-3.69,1.17,1.17,0,0,0,.3-.94,1.2,1.2,0,0,0-.17-.48,1.19,1.19,0,0,0-1.34-.51,12.09,12.09,0,0,1-3.23.2c1.73-.45,3-.9,3.08-.94a1.2,1.2,0,0,0,.76-1.25s0-.06,0-.09a1.18,1.18,0,0,0-1.2-1c-3.88.13-7.54-1.71-9.56-3a32.84,32.84,0,0,0,6.57-5.1,1.2,1.2,0,0,0,0-1.67,1.17,1.17,0,0,0-1.66,0c-.1.08-2.26,2.08-6.53.73,2.54-1.16,7.7-1.34,11.29-1a1.19,1.19,0,0,0,1.27-1,1.29,1.29,0,0,0,0-.34,1.19,1.19,0,0,0-.87-1c-.19,0-4.46-1.18-15.94-3.31,1.84-1.6,5.37-1.27,5.42-1.27a1.17,1.17,0,0,0,1.29-1,1.31,1.31,0,0,0,0-.28,1.2,1.2,0,0,0-1-1,30.6,30.6,0,0,0-9.47.72,17.28,17.28,0,0,0,2.14-9.31,5.55,5.55,0,0,0-1.74-3.65,1.19,1.19,0,0,0-2,.81,6.78,6.78,0,0,1-2.53,5.2c-2.42,1.89-6,2.07-8.31,2,1.52-1.73,4.19-4.35,7.19-5.33a1.19,1.19,0,0,0,.82-1.13s0-.09,0-.14a1.19,1.19,0,0,0-.82-1c-3.61-1.16-8.69.6-12,2.11,2-3.3,5.22-7.4,8.43-8.17a1.19,1.19,0,0,0,.9-1,2,2,0,0,0,0-.25,1.18,1.18,0,0,0-.68-.94c-8.15-3.67-15.06,1.31-18.65,4.86a24.56,24.56,0,0,0-.1-4.33c-.38-3.16-1.47-5.56-3.22-7.12a1.2,1.2,0,0,0-1.34-.17,1.19,1.19,0,0,0-.62,1.19c.26,2.22-1.45,5.25-3.51,8a21.69,21.69,0,0,0,1.2-5.62,1.47,1.47,0,0,0,0-.21,1.16,1.16,0,0,0-.31-.66,1.12,1.12,0,0,0-.84-.38,3.39,3.39,0,0,0-1.53.37,43.54,43.54,0,0,1,5.14-4.25,1.19,1.19,0,0,0,.49-1.1.3.3,0,0,0,0-.1,1.18,1.18,0,0,0-.9-.92c-7.73-1.67-16.37,5.37-20.38,9.2a39.09,39.09,0,0,0-.21-5.58c-.45-3.75-1.55-6.3-3.28-7.58a1.19,1.19,0,0,0-1.44,0,1.16,1.16,0,0,0-.43,1.06,1.06,1.06,0,0,0,.09.35,6.82,6.82,0,0,1,.51,1.93c1,8.4-9.33,23.3-9.43,23.45A1.2,1.2,0,0,0,1811.29,903.57Z"/><path class="cls-11" d="M1826.26,896.7s10.56-11.84,19.25-10c-10.5,7.44-12.73,16-12.73,16s7-10.73,10.09-10.65c-.32,5.21-4,11-4,11s8.76-8.07,8.14-13.2c4.2,3.73,2.19,12.77,2.19,12.77S1857,891.55,1867,896c-5.38,1.3-9.87,10.84-9.87,10.84s8.3-4.89,13-3.37c-4.54,1.48-8.15,6.64-8.15,6.64s12.14,2.19,12.8-7.2c3.09,2.69-.23,11.27-2.36,12.53,7.06-1.9,11-1.33,11-1.33s-5.43-.56-6.73,2.93c11.57,2.12,15.77,3.24,15.77,3.24s-10.2-.89-12.26,2.28c5.7,2.74,8.65-.22,8.65-.22s-3.81,3.91-7.25,5.12c0,0,5,4.1,10.72,3.9,0,0-6.38,2.4-10.42,1.25,7.46,2.53,11.23,1.42,11.23,1.42s-4.28,4.7-8.4,3.75c5.91,2.57,11.73.9,16.66,4-8.87-.72-14,1.68-14,1.68s6.45,2.19,10.72,1.17c.47,2.53-9.37,4.66-9.37,4.66l-73.17-42.61s11.42-16.34,8.09-23.76C1827.49,885.8,1826.26,896.7,1826.26,896.7Z"/><path class="cls-38" d="M1905.61,969.35c0,7.51-8.17,13.85-10,20.78-1.92,7.17,1.93,16.74-1.7,23s-13.93,7.8-19.09,13-6.6,15.41-13,19.09-15.84-.21-23,1.7c-6.93,1.85-13.27,10-20.79,10s-13.85-8.17-20.78-10c-7.17-1.91-16.74,1.93-23-1.7s-7.8-13.93-13-19.09-15.41-6.6-19.09-13,.21-15.84-1.7-23c-1.85-6.93-10-13.27-10-20.78s8.17-13.86,10-20.79c1.91-7.17-1.93-16.73,1.7-23s13.92-7.8,19.09-13,6.6-15.41,13-19.09,15.84.21,23-1.7c6.93-1.85,13.27-10,20.78-10s13.86,8.17,20.79,10c7.17,1.91,16.73-1.93,23,1.7s7.8,13.93,13,19.09,15.41,6.6,19.09,13-.22,15.84,1.7,23C1897.44,955.49,1905.61,961.83,1905.61,969.35Z"/><path class="cls-39" d="M1901.23,965a11.92,11.92,0,0,1-1,4.64,32.74,32.74,0,0,1-3.18,5.59c-2.14,3.17-4.46,6.27-5.33,9.52-1.18,4.43,0,9.83-.06,14.7a14.16,14.16,0,0,1-1.56,7.16,9.74,9.74,0,0,1-1.27,1.73c-4.17,4.64-12.46,6.18-16.87,10.58-4.9,4.91-6.26,14.65-12.31,18.14s-15.05-.2-21.86,1.62c-6.58,1.76-12.61,9.52-19.75,9.52s-13.16-7.76-19.74-9.52c-6.81-1.82-15.9,1.84-21.86-1.62s-7.41-13.23-12.32-18.14-14.64-6.26-18.14-12.31a7.24,7.24,0,0,1-.38-.73,14.79,14.79,0,0,1-1.16-6.23c0-4.93,1.13-10.41-.07-14.9-1.76-6.58-9.52-12.61-9.52-19.75s7.76-13.16,9.52-19.74c1.82-6.81-1.84-15.9,1.61-21.86S1759.2,916,1764.11,911s6.27-14.64,12.32-18.14,15,.21,21.86-1.61c6.58-1.76,12.61-9.52,19.74-9.52s13.17,7.76,19.75,9.52c6.81,1.82,15.9-1.84,21.86,1.61s7.33,12.7,11.91,17.72l.4.42c3.53,3.53,9.54,5.22,13.94,8.14a12.62,12.62,0,0,1,4.2,4.18c3.46,6-.2,15,1.62,21.86C1893.47,951.8,1901.23,957.83,1901.23,965Z"/><path class="cls-40" d="M1890,983.57c-1.8,6.74,1.82,15.73-1.59,21.63s-13.09,7.32-17.94,12.18-6.2,14.48-12.18,17.94-14.89-.21-21.62,1.59c-6.51,1.75-12.47,9.42-19.53,9.42s-13-7.67-19.53-9.42c-6.73-1.8-15.72,1.82-21.62-1.59s-7.32-13.09-12.18-17.94-14.48-6.2-17.94-12.18.2-14.89-1.6-21.63c-1.74-6.5-9.41-12.46-9.41-19.52,0-3.66,2.06-7,4.3-10.33a54.19,54.19,0,0,0,4.17-6.71,14.24,14.24,0,0,0,.94-2.49c1.8-6.73-1.81-15.72,1.6-21.62s13.08-7.33,17.94-12.18,6.2-14.48,12.18-17.94,14.89.2,21.62-1.6c6.51-1.74,12.47-9.41,19.53-9.41s13,7.67,19.52,9.41c6.74,1.8,15.73-1.81,21.63,1.6,5.71,3.3,7.19,12.22,11.54,17.25.2.24.42.47.64.69,3.48,3.48,9.42,5.16,13.77,8a12.82,12.82,0,0,1,4.17,4.15c3.41,5.9-.21,14.89,1.59,21.62,1.75,6.51,9.42,12.47,9.42,19.53S1891.73,977.07,1890,983.57Z"/><path class="cls-41" d="M1774.62,950.55a342.24,342.24,0,0,1-35.48,3.17,54.19,54.19,0,0,0,4.17-6.71,296.2,296.2,0,0,0,31,.44A1.56,1.56,0,0,1,1774.62,950.55Z"/><path class="cls-42" d="M1900.22,969.6a32.74,32.74,0,0,1-3.18,5.59c-88.6,2.52-131.7,18.89-151.45,30.65a14.79,14.79,0,0,1-1.16-6.23c1.44-1.7,3-3.55,4.76-5.57C1798.15,975,1874.27,970.58,1900.22,969.6Z"/><path class="cls-43" d="M1891.65,999.41a14.16,14.16,0,0,1-1.56,7.16,9.74,9.74,0,0,1-1.27,1.73c-8.54,2.2-30.4,7.45-51.46,9.53a1.16,1.16,0,0,1-.32-2.29C1858.52,1011.58,1880.11,1003.89,1891.65,999.41Z"/><path class="cls-44" d="M1885.89,919.18c-11,2.91-42.3,10.58-69.27,10.69a1.38,1.38,0,0,1-.26-2.73c21.51-4,43.39-11.9,55.19-16.52l.4.42C1875.48,914.57,1881.49,916.26,1885.89,919.18Z"/><path class="cls-45" d="M1853.92,971.9V954.44h-7.25c-.14-.51-.29-1-.45-1.48a31.25,31.25,0,0,0-2.47-5.57l5.13-5.13-12.34-12.35-5.13,5.13a31.94,31.94,0,0,0-7.05-2.92v-7.24h-17.45v7.24a31.74,31.74,0,0,0-7.05,2.92l-5.13-5.13-12.35,12.35,5.13,5.13a31.47,31.47,0,0,0-2.92,7.05h-7.25V971.9h7.25a31.39,31.39,0,0,0,2.92,7l-5.13,5.13,5.33,5.32,7,7,5.13-5.12a31.74,31.74,0,0,0,7.05,2.92v7.25h17.45v-7.25a31.47,31.47,0,0,0,7.05-2.92l5.13,5.12,12.34-12.34-5.13-5.13a30.93,30.93,0,0,0,2.92-7Zm-38.29,7.88a14.13,14.13,0,0,1-1.46-.07,16.61,16.61,0,1,1,18.07-16.55,16.24,16.24,0,0,1-.74,4.9A16.61,16.61,0,0,1,1815.63,979.78Z"/><g class="cls-46"><path class="cls-11" d="M1846.67,971.9a30.93,30.93,0,0,1-2.92,7l5.13,5.13-12.34,12.34-5.13-5.12a31.47,31.47,0,0,1-7.05,2.92v7.25h-17.45v-7.25a31.74,31.74,0,0,1-7.05-2.92l-5.13,5.12-7-7a104.52,104.52,0,0,0,26.46-9.68,14.13,14.13,0,0,0,1.46.07,16.61,16.61,0,0,0,15.87-11.72,103.7,103.7,0,0,0,14.72-15.1c.16.48.31,1,.45,1.48h7.25V971.9Z"/></g><path class="cls-47" d="M36.15,983.66h.12a1.16,1.16,0,0,1,.87.37l64.45,69.24a1.23,1.23,0,0,1,.32.79,52.35,52.35,0,0,1-.31,5.72c-.52,4.46-1.62,6.63-3.45,6.82H98a1.19,1.19,0,0,1-.87-.33,1.17,1.17,0,0,1-.35-.86,18.71,18.71,0,0,0-1.86-7.09,38.27,38.27,0,0,0,1.86,11,1.18,1.18,0,0,1-2,1.19c-2.69-2.67-3.82-6-4.92-9.26-.4-1.19-.81-2.41-1.3-3.61a18.22,18.22,0,0,1-2.51,5.63,1.19,1.19,0,0,1-.85.5,1.12,1.12,0,0,1-.51-.06,1.19,1.19,0,0,1-.79-1.19,11.92,11.92,0,0,0-.52-3.2,31.34,31.34,0,0,1-.24,3.21,1.19,1.19,0,0,1-1.05,1H82a1.17,1.17,0,0,1-1.19-1c-.73-3.82-3.33-7-5-8.67a32.64,32.64,0,0,1-3.52,7.53,1.18,1.18,0,0,1-.87.53,1.15,1.15,0,0,1-.76-.18,1.17,1.17,0,0,1-.36-1.62c.06-.11,1.53-2.66-.73-6.53-.56,2.73.4,7.81,1.49,11.24a1.18,1.18,0,0,1-.67,1.45,1.23,1.23,0,0,1-.33.08,1.19,1.19,0,0,1-1.17-.62c-.09-.17-2.13-4.09-6.74-14.82-1.15,2.14,0,5.52,0,5.56a1.19,1.19,0,0,1-.72,1.49,1.4,1.4,0,0,1-.28.06,1.17,1.17,0,0,1-1.22-.75,30.73,30.73,0,0,1-1.39-9.4,17.21,17.21,0,0,1-8.6,4.14,5.53,5.53,0,0,1-4-.9,1.17,1.17,0,0,1,.36-2.08,6.78,6.78,0,0,0,4.51-3.62c1.31-2.78.69-6.35.09-8.54-1.36,1.86-3.33,5-3.62,8.19a1.19,1.19,0,0,1-.92,1.05l-.14,0a1.19,1.19,0,0,1-1.14-.58c-1.92-3.27-1.33-8.61-.6-12.22-2.77,2.72-6.07,6.73-6.11,10a1.2,1.2,0,0,1-.82,1.11l-.24,0a1.19,1.19,0,0,1-1.07-.47c-5.37-7.13-2-15,.63-19.26a24.06,24.06,0,0,1-4.24.86c-3.17.33-5.75-.2-7.66-1.57a1.17,1.17,0,0,1,.57-2.13c2.22-.23,4.79-2.57,7-5.18a22,22,0,0,1-5.21,2.41l-.21,0a1.25,1.25,0,0,1-.71-.15,1.2,1.2,0,0,1-.56-.74,3.54,3.54,0,0,1,0-1.58,43.38,43.38,0,0,0-3,6,1.19,1.19,0,0,1-1,.73h-.1a1.17,1.17,0,0,1-1.09-.68c-3.34-7.17,1.63-17.14,4.47-21.9a40,40,0,0,1-5.49,1c-3.75.39-6.48-.13-8.11-1.52a1.17,1.17,0,0,1,.64-2.07,1.09,1.09,0,0,1,.36,0,6.49,6.49,0,0,0,2,.08C23,997.55,35.28,984.18,35.4,984A1.21,1.21,0,0,1,36.15,983.66Z"/><path class="cls-11" d="M32.76,999.77s-9.22,12.92-5.48,21c4.94-11.88,12.84-16,12.84-16S31.19,1013.94,32,1017c5-1.46,9.89-6.31,9.89-6.31s-5.94,10.32-11.08,10.86c4.56,3.26,12.94-.69,12.94-.69s-9.21,10.05-2.62,18.79c.07-5.53,8.39-12,8.39-12s-2.93,9.18-.41,13.47c.44-4.76,4.67-9.42,4.67-9.42s4.82,11.36-4.19,14.08c3.3,2.42,10.94-2.71,11.69-5.07-.29,7.3,1.15,11,1.15,11s-1.75-5.18,1.37-7.2c4.61,10.81,6.64,14.66,6.64,14.66s-3.12-9.75-.48-12.46c3.92,5,1.69,8.49,1.69,8.49s3-4.58,3.39-8.2c0,0,5.11,4,6.18,9.6,0,0,.92-6.76-1.08-10.45,4.1,6.72,3.86,10.65,3.86,10.65s3.64-5.22,1.8-9c3.81,5.2,3.46,11.24,7.63,15.36-2.67-8.49-1.45-14-1.45-14s3.56,5.8,3.51,10.2c2.57-.11,2.48-10.17,2.48-10.17l-57.7-62S26.82,1002,18.84,1000.34C22.39,1003.38,32.76,999.77,32.76,999.77Z"/><path class="cls-48" d="M97.11,1040.32a.5.5,0,0,1,0-.12,1.14,1.14,0,0,1,.56-.76l81.74-47.61a1.2,1.2,0,0,1,.85-.13,50.49,50.49,0,0,1,5.5,1.56c4.24,1.49,6.12,3,5.9,4.87l0,.14a1.16,1.16,0,0,1-.51.78,1.24,1.24,0,0,1-.92.16,18.35,18.35,0,0,0-7.33.25,38.83,38.83,0,0,0,11.12.6,1.19,1.19,0,0,1,1.22.8,1.16,1.16,0,0,1,.05.52,1.17,1.17,0,0,1-.53.85c-3.2,2-6.72,2.41-10.12,2.76-1.26.13-2.53.26-3.81.48a18.46,18.46,0,0,1,4.94,3.68,1.22,1.22,0,0,1,.3.94,1.3,1.3,0,0,1-.17.49,1.2,1.2,0,0,1-1.34.5,11.9,11.9,0,0,0-3.23-.19,31.39,31.39,0,0,1,3.08.94,1.17,1.17,0,0,1,.75,1.24.28.28,0,0,1,0,.09,1.18,1.18,0,0,1-1.2,1c-3.88-.13-7.54,1.72-9.56,3a32.39,32.39,0,0,1,6.57,5.1,1.16,1.16,0,0,1,.32,1,1.13,1.13,0,0,1-.34.7,1.18,1.18,0,0,1-1.67,0c-.09-.09-2.25-2.09-6.52-.74,2.54,1.16,7.7,1.34,11.29,1a1.18,1.18,0,0,1,1.27,1,1.37,1.37,0,0,1,0,.35,1.2,1.2,0,0,1-.87,1c-.19,0-4.46,1.17-15.94,3.31,1.83,1.59,5.37,1.26,5.42,1.26a1.19,1.19,0,0,1,1.29,1,1.41,1.41,0,0,1,0,.29,1.18,1.18,0,0,1-1,1c-.16,0-3.51.48-9.47-.72a17.3,17.3,0,0,1,2.14,9.31,5.55,5.55,0,0,1-1.74,3.65,1.18,1.18,0,0,1-1.23.2,1.2,1.2,0,0,1-.73-1,6.82,6.82,0,0,0-2.53-5.21c-2.42-1.88-6-2.07-8.31-2,1.51,1.73,4.19,4.35,7.19,5.34a1.16,1.16,0,0,1,.81,1.12v.14a1.19,1.19,0,0,1-.82,1c-3.61,1.16-8.7-.6-12-2.11,2,3.31,5.22,7.41,8.42,8.18a1.15,1.15,0,0,1,.9,1,1.13,1.13,0,0,1,0,.26,1.17,1.17,0,0,1-.69.93c-8.14,3.67-15.06-1.3-18.64-4.86a25.54,25.54,0,0,1-.1,4.33c-.38,3.16-1.47,5.56-3.22,7.13a1.2,1.2,0,0,1-1.34.16,1.19,1.19,0,0,1-.62-1.19c.26-2.21-1.45-5.24-3.51-8a21.51,21.51,0,0,1,1.2,5.62,1.47,1.47,0,0,1,0,.21,1.23,1.23,0,0,1-.31.66,1.2,1.2,0,0,1-.84.38,3.52,3.52,0,0,1-1.53-.38,42.58,42.58,0,0,0,5.14,4.25,1.2,1.2,0,0,1,.49,1.11s0,.06,0,.09a1.18,1.18,0,0,1-.9.92c-7.73,1.67-16.37-5.37-20.38-9.19a39.25,39.25,0,0,1-.22,5.58c-.44,3.75-1.55,6.3-3.27,7.58a1.17,1.17,0,0,1-1.44,0,1.18,1.18,0,0,1-.44-1.06,1.33,1.33,0,0,1,.1-.34,6.91,6.91,0,0,0,.51-1.93c1-8.4-9.33-23.31-9.44-23.46A1.16,1.16,0,0,1,97.11,1040.32Z"/><path class="cls-11" d="M112.08,1047.18s10.56,11.84,19.25,10c-10.5-7.43-12.73-16-12.73-16s7,10.73,10.08,10.65c-.31-5.21-4-11-4-11s8.76,8.07,8.14,13.21c4.19-3.73,2.19-12.78,2.19-12.78s7.77,11.19,17.75,6.7c-5.38-1.29-9.88-10.84-9.88-10.84s8.31,4.89,13.05,3.38c-4.54-1.49-8.16-6.64-8.16-6.64s12.15-2.2,12.81,7.19c3.09-2.68-.23-11.26-2.36-12.52,7.06,1.89,11,1.32,11,1.32s-5.44.56-6.73-2.93c11.57-2.11,15.77-3.24,15.77-3.24s-10.2.9-12.26-2.28c5.7-2.73,8.65.22,8.65.22s-3.81-3.9-7.25-5.11c0,0,5-4.1,10.72-3.91,0,0-6.38-2.39-10.42-1.25,7.46-2.52,11.23-1.42,11.23-1.42s-4.28-4.7-8.4-3.75c5.91-2.57,11.73-.9,16.66-4-8.87.73-14-1.67-14-1.67s6.45-2.19,10.72-1.17c.47-2.54-9.37-4.66-9.37-4.66l-73.17,42.61s11.42,16.33,8.09,23.76C113.31,1058.08,112.08,1047.18,112.08,1047.18Z"/><path class="cls-49" d="M36.15,958h.12a1.2,1.2,0,0,0,.87-.38l64.45-69.24a1.21,1.21,0,0,0,.32-.79,52.45,52.45,0,0,0-.31-5.72c-.52-4.46-1.62-6.63-3.45-6.82H98a1.23,1.23,0,0,0-.87.33,1.18,1.18,0,0,0-.35.87,18.8,18.8,0,0,1-1.86,7.09,38.28,38.28,0,0,1,1.86-11,1.19,1.19,0,0,0-.51-1.36,1.22,1.22,0,0,0-1.45.17c-2.69,2.67-3.82,6-4.92,9.26-.4,1.2-.81,2.41-1.3,3.62a18.33,18.33,0,0,0-2.51-5.64,1.17,1.17,0,0,0-.85-.49,1.27,1.27,0,0,0-.51.05,1.2,1.2,0,0,0-.79,1.19,11.92,11.92,0,0,1-.52,3.2,31.65,31.65,0,0,0-.24-3.21,1.17,1.17,0,0,0-1.05-1H82a1.18,1.18,0,0,0-1.19,1c-.73,3.82-3.33,7-5,8.67a32.88,32.88,0,0,0-3.52-7.53,1.22,1.22,0,0,0-.87-.53,1.15,1.15,0,0,0-.76.18,1.18,1.18,0,0,0-.36,1.63c.06.11,1.53,2.65-.73,6.52-.56-2.73.4-7.8,1.49-11.23a1.17,1.17,0,0,0-.67-1.45,1,1,0,0,0-.33-.09,1.18,1.18,0,0,0-1.17.63c-.09.17-2.13,4.08-6.74,14.82-1.15-2.15,0-5.53,0-5.57a1.18,1.18,0,0,0-.72-1.48,1,1,0,0,0-.28-.07,1.18,1.18,0,0,0-1.22.76,30.56,30.56,0,0,0-1.39,9.4,17.21,17.21,0,0,0-8.6-4.14,5.48,5.48,0,0,0-4,.89,1.17,1.17,0,0,0,.36,2.08,6.81,6.81,0,0,1,4.51,3.62c1.31,2.78.69,6.36.09,8.54-1.36-1.86-3.33-5-3.62-8.19a1.18,1.18,0,0,0-.92-1l-.14,0a1.18,1.18,0,0,0-1.14.57c-1.92,3.28-1.33,8.62-.6,12.22-2.77-2.71-6.07-6.72-6.11-10a1.18,1.18,0,0,0-.82-1.1.69.69,0,0,0-.24,0,1.16,1.16,0,0,0-1.07.46c-5.37,7.13-2,15,.63,19.26a25,25,0,0,0-4.24-.86c-3.17-.32-5.75.2-7.66,1.57a1.18,1.18,0,0,0,.57,2.14c2.22.23,4.79,2.57,7,5.18a21.64,21.64,0,0,0-5.21-2.41.78.78,0,0,0-.21,0,1.11,1.11,0,0,0-.71.15,1.15,1.15,0,0,0-.56.73,3.53,3.53,0,0,0,0,1.58,42.81,42.81,0,0,1-3-6,1.18,1.18,0,0,0-1-.72h-.1a1.17,1.17,0,0,0-1.09.68C17.4,926,22.37,936,25.21,940.76a37.22,37.22,0,0,0-5.49-1c-3.75-.39-6.48.12-8.11,1.52a1.18,1.18,0,0,0-.3,1.41,1.21,1.21,0,0,0,.94.66,1.45,1.45,0,0,0,.36,0,6.5,6.5,0,0,1,2-.07c8.42.87,20.68,14.24,20.8,14.37A1.16,1.16,0,0,0,36.15,958Z"/><path class="cls-11" d="M32.76,941.88s-9.22-12.91-5.48-21c4.94,11.88,12.84,15.94,12.84,15.94s-8.93-9.14-8.16-12.18c5,1.46,9.89,6.31,9.89,6.31s-5.94-10.32-11.08-10.85c4.56-3.27,12.94.69,12.94.69S34.5,910.77,41.09,902c.07,5.53,8.39,12,8.39,12s-2.93-9.18-.41-13.46c.44,4.75,4.67,9.41,4.67,9.41s4.82-11.36-4.19-14.08c3.3-2.42,10.94,2.72,11.69,5.07-.29-7.3,1.15-11.05,1.15-11.05s-1.75,5.18,1.37,7.21c4.61-10.82,6.64-14.67,6.64-14.67s-3.12,9.75-.48,12.46c3.92-4.95,1.69-8.48,1.69-8.48s3,4.58,3.39,8.19c0,0,5.11-4,6.18-9.59,0,0,.92,6.75-1.08,10.45,4.1-6.73,3.86-10.65,3.86-10.65s3.64,5.21,1.8,9c3.81-5.19,3.46-11.24,7.63-15.36-2.67,8.5-1.45,14-1.45,14s3.56-5.81,3.51-10.2c2.57.1,2.48,10.16,2.48,10.16l-57.7,62S26.82,939.7,18.84,941.32C22.39,938.27,32.76,941.88,32.76,941.88Z"/><path class="cls-50" d="M97.11,901.34a.52.52,0,0,0,0,.11,1.19,1.19,0,0,0,.56.77l81.74,47.6a1.21,1.21,0,0,0,.85.14,56.27,56.27,0,0,0,5.5-1.56c4.24-1.49,6.12-3,5.9-4.88l0-.14a1.12,1.12,0,0,0-.51-.77,1.15,1.15,0,0,0-.92-.16,18.72,18.72,0,0,1-7.33-.25,38.4,38.4,0,0,1,11.12-.61,1.16,1.16,0,0,0,1.22-.8,1.11,1.11,0,0,0,.05-.51,1.19,1.19,0,0,0-.53-.86c-3.2-2-6.72-2.41-10.12-2.76-1.26-.13-2.53-.26-3.81-.47a18.39,18.39,0,0,0,4.94-3.69,1.18,1.18,0,0,0,.13-1.42,1.19,1.19,0,0,0-1.34-.51,12.09,12.09,0,0,1-3.23.2c1.73-.44,3-.9,3.08-.94a1.18,1.18,0,0,0,.75-1.25.28.28,0,0,0,0-.09,1.18,1.18,0,0,0-1.2-1c-3.88.13-7.54-1.71-9.56-3a33.17,33.17,0,0,0,6.57-5.1,1.19,1.19,0,0,0,.32-1,1.16,1.16,0,0,0-.34-.7,1.18,1.18,0,0,0-1.67,0c-.09.09-2.25,2.08-6.52.73,2.54-1.16,7.7-1.34,11.29-1a1.19,1.19,0,0,0,1.27-1,1.29,1.29,0,0,0,0-.34,1.19,1.19,0,0,0-.87-1c-.19-.05-4.46-1.18-15.94-3.31,1.83-1.6,5.37-1.27,5.42-1.27a1.18,1.18,0,0,0,1.29-1,1.31,1.31,0,0,0,0-.28,1.2,1.2,0,0,0-1-1,30.6,30.6,0,0,0-9.47.72,17.28,17.28,0,0,0,2.14-9.31,5.55,5.55,0,0,0-1.74-3.65,1.19,1.19,0,0,0-2,.81,6.78,6.78,0,0,1-2.53,5.2c-2.42,1.89-6,2.07-8.31,2,1.51-1.73,4.19-4.35,7.19-5.33a1.17,1.17,0,0,0,.81-1.13v-.14a1.19,1.19,0,0,0-.82-1c-3.61-1.15-8.7.6-12,2.11,2-3.3,5.22-7.4,8.42-8.17a1.17,1.17,0,0,0,.9-1,1,1,0,0,0,0-.25,1.17,1.17,0,0,0-.69-.94C148,884.47,141,889.45,137.45,893a25.57,25.57,0,0,0-.1-4.33c-.38-3.16-1.47-5.56-3.22-7.12a1.2,1.2,0,0,0-1.34-.17,1.19,1.19,0,0,0-.62,1.19c.26,2.22-1.45,5.25-3.51,8a21.69,21.69,0,0,0,1.2-5.62,1.47,1.47,0,0,0,0-.21,1.16,1.16,0,0,0-.31-.66,1.12,1.12,0,0,0-.84-.38,3.36,3.36,0,0,0-1.53.37,43.54,43.54,0,0,1,5.14-4.25,1.19,1.19,0,0,0,.49-1.1s0-.07,0-.1a1.18,1.18,0,0,0-.9-.92c-7.73-1.67-16.37,5.37-20.38,9.2a39.2,39.2,0,0,0-.22-5.58c-.44-3.75-1.55-6.3-3.27-7.58a1.18,1.18,0,0,0-1.88,1.08,1.4,1.4,0,0,0,.1.35,6.82,6.82,0,0,1,.51,1.93c1,8.4-9.33,23.3-9.44,23.45A1.19,1.19,0,0,0,97.11,901.34Z"/><path class="cls-11" d="M112.08,894.47s10.56-11.84,19.25-10c-10.5,7.44-12.73,16-12.73,16s7-10.72,10.08-10.65c-.31,5.21-4,11-4,11s8.76-8.07,8.14-13.2c4.19,3.73,2.19,12.77,2.19,12.77s7.77-11.19,17.75-6.7c-5.38,1.3-9.88,10.84-9.88,10.84s8.31-4.89,13.05-3.37c-4.54,1.48-8.16,6.64-8.16,6.64s12.15,2.19,12.81-7.2c3.09,2.69-.23,11.27-2.36,12.53,7.06-1.9,11-1.33,11-1.33s-5.44-.56-6.73,2.94c11.57,2.11,15.77,3.23,15.77,3.23s-10.2-.89-12.26,2.28c5.7,2.74,8.65-.22,8.65-.22s-3.81,3.91-7.25,5.12c0,0,5,4.1,10.72,3.9,0,0-6.38,2.4-10.42,1.25,7.46,2.53,11.23,1.42,11.23,1.42s-4.28,4.7-8.4,3.75c5.91,2.57,11.73.9,16.66,4-8.87-.72-14,1.68-14,1.68s6.45,2.19,10.72,1.17c.47,2.53-9.37,4.66-9.37,4.66l-73.17-42.61s11.42-16.34,8.09-23.76C113.31,883.57,112.08,894.47,112.08,894.47Z"/><path class="cls-51" d="M191.43,967.12c0,7.51-8.17,13.85-10,20.78-1.92,7.17,1.93,16.74-1.7,23s-13.93,7.8-19.1,13-6.59,15.41-13,19.09-15.84-.21-23,1.7c-6.93,1.85-13.27,10-20.79,10s-13.85-8.17-20.78-10c-7.17-1.91-16.74,1.93-23-1.7s-7.8-13.92-13-19.09-15.41-6.6-19.09-13,.21-15.84-1.7-23c-1.86-6.93-10-13.27-10-20.78s8.17-13.86,10-20.79c1.91-7.17-1.94-16.73,1.7-23s13.92-7.8,19.09-13,6.6-15.41,13-19.09,15.84.22,23-1.7c6.93-1.85,13.27-10,20.78-10s13.86,8.17,20.79,10c7.17,1.92,16.73-1.93,23,1.7s7.8,13.93,13,19.09,15.41,6.6,19.09,13-.22,15.84,1.7,23C183.26,953.26,191.43,959.6,191.43,967.12Z"/><path class="cls-52" d="M187.05,962.73a12.1,12.1,0,0,1-1,4.64,32.15,32.15,0,0,1-3.19,5.59c-2.13,3.17-4.45,6.27-5.32,9.52-1.18,4.43-.05,9.83-.06,14.7a14.16,14.16,0,0,1-1.56,7.16,9.74,9.74,0,0,1-1.27,1.73c-4.18,4.64-12.46,6.19-16.87,10.58-4.9,4.92-6.26,14.65-12.31,18.14s-15.05-.2-21.86,1.62c-6.58,1.76-12.61,9.52-19.75,9.52s-13.16-7.76-19.74-9.52c-6.81-1.82-15.9,1.84-21.87-1.62s-7.4-13.22-12.31-18.14-14.64-6.26-18.14-12.31a7.24,7.24,0,0,1-.38-.73,15,15,0,0,1-1.17-6.23c0-4.93,1.14-10.41-.06-14.9-1.76-6.58-9.52-12.61-9.52-19.75s7.76-13.16,9.52-19.74c1.82-6.81-1.84-15.9,1.61-21.86S45,913.72,49.93,908.81s6.27-14.64,12.31-18.14,15.06.21,21.87-1.61c6.58-1.76,12.6-9.52,19.74-9.52s13.17,7.76,19.75,9.52c6.81,1.82,15.9-1.84,21.86,1.61s7.33,12.7,11.91,17.72l.4.42c3.53,3.53,9.54,5.22,13.94,8.14a12.72,12.72,0,0,1,4.2,4.18c3.46,6-.2,15,1.62,21.86C179.29,949.57,187.05,955.6,187.05,962.73Z"/><path class="cls-53" d="M175.8,981.34c-1.8,6.74,1.82,15.73-1.59,21.63s-13.09,7.32-18,12.18-6.19,14.48-12.17,17.94-14.89-.21-21.62,1.6c-6.51,1.74-12.47,9.41-19.53,9.41s-13-7.67-19.53-9.41c-6.74-1.81-15.72,1.81-21.62-1.6s-7.33-13.09-12.18-17.94S35.13,1009,31.67,1003s.2-14.89-1.6-21.63c-1.74-6.5-9.41-12.46-9.41-19.52,0-3.66,2.06-7,4.3-10.33a54.19,54.19,0,0,0,4.17-6.71,14.24,14.24,0,0,0,.94-2.49c1.8-6.73-1.81-15.72,1.6-21.62s13.08-7.32,17.94-12.18,6.2-14.48,12.18-17.94,14.88.2,21.62-1.6c6.51-1.74,12.47-9.41,19.53-9.41s13,7.67,19.52,9.41c6.74,1.8,15.73-1.81,21.63,1.6,5.71,3.3,7.19,12.22,11.54,17.25.2.24.42.47.64.69,3.48,3.48,9.41,5.16,13.77,8a12.82,12.82,0,0,1,4.17,4.15c3.41,5.9-.21,14.89,1.59,21.62,1.75,6.51,9.42,12.47,9.42,19.53S177.55,974.84,175.8,981.34Z"/><path class="cls-54" d="M60.44,948.32A342.24,342.24,0,0,1,25,951.49a54.19,54.19,0,0,0,4.17-6.71,296.2,296.2,0,0,0,31,.44A1.56,1.56,0,0,1,60.44,948.32Z"/><path class="cls-55" d="M186,967.37a32.15,32.15,0,0,1-3.19,5.59c-88.59,2.52-131.69,18.89-151.44,30.65a15,15,0,0,1-1.17-6.23c1.44-1.7,3-3.55,4.77-5.57C84,972.76,160.09,968.35,186,967.37Z"/><path class="cls-56" d="M177.47,997.18a14.16,14.16,0,0,1-1.56,7.16,9.74,9.74,0,0,1-1.27,1.73c-8.54,2.2-30.4,7.45-51.46,9.53a1.16,1.16,0,0,1-.32-2.29C144.34,1009.35,165.92,1001.67,177.47,997.18Z"/><path class="cls-57" d="M171.71,917c-11,2.91-42.3,10.58-69.27,10.69a1.38,1.38,0,0,1-.26-2.73c21.51-4,43.39-11.9,55.19-16.52l.4.42C161.3,912.34,167.31,914,171.71,917Z"/><path class="cls-58" d="M144.14,954.74v22.61a3.72,3.72,0,0,1-3.77,3.66H106.14v7.07a4.68,4.68,0,0,1-7,3.93L71.8,976.73l-12-6.74a4.49,4.49,0,0,1,0-7.89l39.36-22a4.69,4.69,0,0,1,7,3.94v7.06h34.23a3.55,3.55,0,0,1,1.39.27A3.64,3.64,0,0,1,144.14,954.74Z"/><g class="cls-46"><path class="cls-11" d="M144.14,954.74v22.61a3.72,3.72,0,0,1-3.77,3.66H106.14v7.07a4.68,4.68,0,0,1-7,3.93L71.8,976.73c38.31-3.58,59.84-16.87,70-25.38A3.64,3.64,0,0,1,144.14,954.74Z"/></g></svg>