<svg id="Capa_1" data-name="Capa 1" xmlns="http://www.w3.org/2000/svg" viewBox="0 0 427.07 382.5"><defs><style>.cls-1{fill:#faba63;}.cls-2{fill:#f8ab3b;opacity:0.7;}.cls-3{fill:#fccd94;}</style></defs><path class="cls-1" d="M1126.75,421.37c23.91,1.08,49.51,18.26,52.36,35.6S1168,482.6,1159.43,482.8s-33.69,10.36-37.2,6.64S1120.5,423.46,1126.75,421.37Z" transform="translate(-752.42 -355.57)"/><path class="cls-2" d="M1130,442.89s33.73,1.52,49,16.45c1.58,5.42-13.68,16-48.78,17.4-.13,2.65-3.45,6-9,9.33a7.66,7.66,0,0,0,1,3.37c3.51,3.72,28.58-6.43,37.2-6.64s22.53-8.48,19.68-25.83-28.45-34.52-52.36-35.6c-1.45.48-2.65,4.21-3.61,9.66C1127,433.76,1128.65,437.7,1130,442.89Z" transform="translate(-752.42 -355.57)"/><path class="cls-1" d="M1070.57,401c21-3.21,44.41-3.34,52.48,7.7s10.36,78.24,2.38,90.95-42.3,23-51.1,14.32S1055.39,409.84,1070.57,401Z" transform="translate(-752.42 -355.57)"/><path class="cls-2" d="M1125.43,499.68c2.26-3.61,3.7-11.61,4.41-21.46-3.1,7.19-25.1,17.91-50.53,21.75,0,0-13.78-58.21-1.41-72.49,41.2-3.32,48.06,1.28,51.75,14.1-1.1-15.18-3.39-28.45-6.6-32.85-8.07-11-31.43-10.91-52.48-7.7-15.18,8.81-5,104.26,3.76,113S1117.43,512.38,1125.43,499.68Z" transform="translate(-752.42 -355.57)"/><path class="cls-1" d="M974.77,386.62c33.58-8,89.17-13.8,96.11,7.89s16.14,136.68,2.78,146.17-44.42,28.87-59.71,14.53S954.15,406.47,974.77,386.62Z" transform="translate(-752.42 -355.57)"/><path class="cls-2" d="M974.05,427c-.21-8.32,5.55-25.87,36.34-26.86s57.7,1.41,64.7,21.91l.72.45c-1.56-12.72-3.3-22.88-4.93-27.95-6.94-21.69-62.53-15.88-96.11-7.89-10.3,9.92-4.35,48.42,6.1,86.27C976.74,451.47,974.15,430.81,974.05,427Z" transform="translate(-752.42 -355.57)"/><path class="cls-2" d="M1000,525.49a5.32,5.32,0,0,1-2-1.11c6.18,15.54,12,27.15,16,30.83,15.29,14.34,46.35-5,59.71-14.53,3.85-2.73,5.82-14.2,6.52-29.66C1057.14,525.69,1013.26,528.9,1000,525.49Z" transform="translate(-752.42 -355.57)"/><path class="cls-1" d="M877.85,675.53c-1.56,19.52-8.25,43.56-8.21,55.44-24.16,16.72-62.78,1.92-71.39-23.4a205.84,205.84,0,0,1-10-48.54Z" transform="translate(-752.42 -355.57)"/><path class="cls-2" d="M869.64,731a60.31,60.31,0,0,1,.56-7.46c0-.18,0-.35.07-.53.19-1.42.41-2.91.66-4.46a2.23,2.23,0,0,1,0-.23c.11-.69.23-1.4.35-2.12l.09-.51c.11-.64.21-1.16.33-1.81,1.28-7.22,2.94-15.75,4.22-23.29h0s0-.34.06-.45c.05-.28.1-.63.14-.91v0c.73-4.64,1.34-9.25,1.69-13.62l-87.53-16.14c-.66.18-1.31.36-2,.56a207.53,207.53,0,0,0,9.88,47.6C806.86,732.89,845.48,747.69,869.64,731Zm-52.92-11.29c-10.78-5.83-14.5-17.87-10.2-30.74,15.85,6.22,36.38,6.26,54.07,3.91,5.65,3.48,5.35,18,1,28.19C847.92,725.07,824.37,723.81,816.72,719.68Z" transform="translate(-752.42 -355.57)"/><path class="cls-1" d="M914,640.35c-5.71,16.37-11.7,38.66-22.83,39.94S794.35,686.61,758,650.54c-4.92-12.69,1.83-12.39-4-31-3.27-10.42-3.09-50.61,19.42-58.5C800.74,567,871.08,624.76,914,640.35Z" transform="translate(-752.42 -355.57)"/><path class="cls-3" d="M884.27,650.38c-10.93-.07-25.27-2-27.85-3-1.67,7.53-6.58,18.72-3.17,20.56s25.14-1.51,28-2.6S887.66,652.64,884.27,650.38Z" transform="translate(-752.42 -355.57)"/><path class="cls-2" d="M891.14,680.29c11.13-1.28,17.12-23.57,22.83-39.94C871.08,624.76,800.74,567,773.37,561c-22.51,7.89-22.69,48.08-19.42,58.5,5.86,18.66-.89,18.36,4,31C794.35,686.61,880,681.57,891.14,680.29ZM816,670.37c-28.71-3.67-46.25-22.27-42.82-29.83s-3.1-12-2.42-26.23-2.86-22.82,15.32-11.78c13.74,8.34,49.53,30.73,78.71,37.39s31.46,10.32,29.89,17.37,2.5,12-2.64,16.51S844.73,674,816,670.37Z" transform="translate(-752.42 -355.57)"/><path class="cls-1" d="M796.87,468.84c-34.62,16.85-49.53,58.33-33.7,86.95s69.18,82.07,162.89,88.67c6.83-1.48,15.59-30.17,16-39.06S815.94,468.51,796.87,468.84Z" transform="translate(-752.42 -355.57)"/><path class="cls-2" d="M942.08,605.4c.43-8.88-126.14-136.89-145.21-136.56-34.62,16.85-49.53,58.33-33.7,86.95s69.18,82.07,162.89,88.67C932.89,643,941.65,614.29,942.08,605.4ZM802.3,585.45c-19.94-19.9-39.18-54-19.83-85.79s18.08,32.88,85.35,78.06C919,613.27,930,614.36,929.07,620.25s-5.06,15.8-10,15.58S845,630.12,802.3,585.45Z" transform="translate(-752.42 -355.57)"/><path class="cls-1" d="M982.91,409c-5-35.84-10.49-62.8-74.4-50.25s-141,57.17-113.88,118.35,142.81,160.8,183.85,138.3,54.4-32,38.39-69.51C991.55,486.5,991.45,448.52,982.91,409Z" transform="translate(-752.42 -355.57)"/><path class="cls-2" d="M978.48,615.35c41-22.49,54.4-32,38.39-69.51-25.32-59.34-25.42-97.32-34-136.89-5-35.84-10.49-62.8-74.4-50.25s-141,57.17-113.88,118.35S937.44,637.85,978.48,615.35Zm-33.13-14c-63-19.46-129-103.17-131.91-144.86,4.9-63.3,117.89-86.71,122.18-86.52s20.3-.27,27.48,3.62,7.18,9.67,11.28,33.75c4.79,28.12,31,135.57,39.79,156.15S979.43,608.27,945.35,601.39Z" transform="translate(-752.42 -355.57)"/><path class="cls-3" d="M990.6,517.67c7.11,2.11,9.71,24.2,8.36,30.58-6.46,19.3-37.25,38-60.46,38.67-16.58-.3-31.88-14.07-36-23.16S941,554.09,990.6,517.67Z" transform="translate(-752.42 -355.57)"/><path class="cls-3" d="M1063.67,480.27c-12.91,0-43.86,4.55-52.67,8.91-1.74,10.6,5.54,25.18,5.54,25.18l50.89-10.17S1065.93,484.53,1063.67,480.27Z" transform="translate(-752.42 -355.57)"/><path class="cls-3" d="M1121,465c-9.78-1-30.28,3.38-34.51,2s2.17,18.5,2.17,18.5S1123.16,483,1121,465Z" transform="translate(-752.42 -355.57)"/><path class="cls-3" d="M910.29,614.66C899.48,609.42,873,597,869,592.61c-6.73,12.16-12.16,22.6-8,24.57s39.93,13.08,43.73,10.88S910.29,614.66,910.29,614.66Z" transform="translate(-752.42 -355.57)"/></svg>