<svg id="Capa_1" data-name="Capa 1" xmlns="http://www.w3.org/2000/svg" xmlns:xlink="http://www.w3.org/1999/xlink" viewBox="0 0 1920 1080"><defs><style>.cls-1{fill:url(#linear-gradient);}.cls-2{fill:#328164;}.cls-3{fill:url(#linear-gradient-2);}.cls-4{fill:url(#linear-gradient-3);}.cls-21,.cls-34,.cls-5{opacity:0.5;}.cls-5{fill:url(#linear-gradient-4);}.cls-6{fill:url(#linear-gradient-5);}.cls-7{fill:url(#linear-gradient-6);}.cls-8{fill:url(#linear-gradient-7);}.cls-9{fill:url(#linear-gradient-8);}.cls-10{fill:url(#linear-gradient-9);}.cls-11{fill:url(#linear-gradient-10);}.cls-12{fill:url(#linear-gradient-11);}.cls-13{fill:#542911;}.cls-14{fill:url(#linear-gradient-12);}.cls-15{fill:url(#linear-gradient-13);}.cls-16{fill:#974515;opacity:0.49;}.cls-17{fill:#f9be93;opacity:0.55;}.cls-18{fill:url(#linear-gradient-14);}.cls-19{fill:url(#linear-gradient-15);}.cls-20{fill:url(#linear-gradient-16);}.cls-21{fill:url(#linear-gradient-17);}.cls-22{fill:url(#linear-gradient-18);}.cls-23{fill:url(#linear-gradient-19);}.cls-24{fill:url(#linear-gradient-20);}.cls-25{fill:url(#linear-gradient-21);}.cls-26{fill:url(#linear-gradient-22);}.cls-27{fill:url(#linear-gradient-23);}.cls-28{fill:url(#linear-gradient-24);}.cls-29{fill:url(#linear-gradient-25);}.cls-30{fill:url(#linear-gradient-26);}.cls-31{fill:url(#linear-gradient-27);}.cls-32{fill:url(#linear-gradient-28);}.cls-33{fill:url(#linear-gradient-29);}.cls-34{fill:url(#linear-gradient-30);}.cls-35{fill:url(#linear-gradient-31);}.cls-36{fill:url(#linear-gradient-32);}.cls-37{fill:url(#linear-gradient-33);}.cls-38{fill:url(#linear-gradient-34);}.cls-39{fill:url(#linear-gradient-35);}.cls-40{fill:url(#linear-gradient-36);}.cls-41{fill:url(#linear-gradient-37);}.cls-42{fill:url(#linear-gradient-38);}.cls-43{fill:url(#linear-gradient-39);}.cls-44,.cls-45{font-size:71px;font-family:PasseroOne-Regular, Passero One;}.cls-44{fill:#683c11;}.cls-45{fill:#fff;}.cls-46{fill:url(#linear-gradient-40);}.cls-47{fill:url(#linear-gradient-41);}.cls-48{fill:url(#linear-gradient-42);}.cls-49{fill:url(#linear-gradient-43);}.cls-50{fill:url(#linear-gradient-44);}.cls-51{fill:url(#linear-gradient-45);}.cls-52{fill:url(#linear-gradient-46);}.cls-53{fill:url(#linear-gradient-47);}.cls-54{fill:url(#linear-gradient-48);}.cls-55{fill:url(#linear-gradient-49);}.cls-56{fill:url(#linear-gradient-50);}.cls-57{fill:url(#Degradado_sin_nombre_68);}.cls-58{opacity:0.25;}</style><linearGradient id="linear-gradient" x1="-625.43" y1="2255.92" x2="-402.4" y2="2233.07" gradientTransform="matrix(0.17, 0.99, 0.99, -0.17, -1256.12, 1692.07)" gradientUnits="userSpaceOnUse"><stop offset="0" stop-color="#97c449"/><stop offset="0.27" stop-color="#73ac53"/><stop offset="0.58" stop-color="#50955c"/><stop offset="0.83" stop-color="#3a8662"/><stop offset="1" stop-color="#328164"/></linearGradient><linearGradient id="linear-gradient-2" x1="851.83" y1="511.66" x2="1113.88" y2="381.64" gradientTransform="translate(82.82 302.14) rotate(14.09)" xlink:href="#linear-gradient"/><linearGradient id="linear-gradient-3" x1="885" y1="705.13" x2="1097.54" y2="1101.17" gradientUnits="userSpaceOnUse"><stop offset="0" stop-color="#f6a45c"/><stop offset="0.22" stop-color="#c78046"/><stop offset="0.47" stop-color="#965b2f"/><stop offset="0.7" stop-color="#72401f"/><stop offset="0.88" stop-color="#5c2f15"/><stop offset="1" stop-color="#542911"/></linearGradient><linearGradient id="linear-gradient-4" x1="973.27" y1="895.06" x2="1008.75" y2="1132.57" gradientUnits="userSpaceOnUse"><stop offset="0" stop-color="#f6a45c"/><stop offset="0.38" stop-color="#cd7b3d"/><stop offset="0.79" stop-color="#a65420"/><stop offset="1" stop-color="#974515"/></linearGradient><linearGradient id="linear-gradient-5" x1="940.14" y1="718.62" x2="989.35" y2="982.62" xlink:href="#linear-gradient-4"/><linearGradient id="linear-gradient-6" x1="1103.37" y1="900.76" x2="1104.3" y2="917.81" gradientUnits="userSpaceOnUse"><stop offset="0.38" stop-color="#974515"/><stop offset="0.4" stop-color="#9b4918"/><stop offset="0.5" stop-color="#b86528"/></linearGradient><linearGradient id="linear-gradient-7" x1="845.85" y1="913.68" x2="844.77" y2="945.93" xlink:href="#linear-gradient-6"/><linearGradient id="linear-gradient-8" x1="1006.12" y1="937.76" x2="1006.43" y2="948.48" xlink:href="#linear-gradient-6"/><linearGradient id="linear-gradient-9" x1="784.16" y1="833.46" x2="782.86" y2="850.02" xlink:href="#linear-gradient-6"/><linearGradient id="linear-gradient-10" x1="879.17" y1="779.66" x2="879.96" y2="788.49" xlink:href="#linear-gradient-6"/><linearGradient id="linear-gradient-11" x1="1160.27" y1="832.09" x2="1157.48" y2="851" xlink:href="#linear-gradient-6"/><linearGradient id="linear-gradient-12" x1="966.25" y1="819.24" x2="982.57" y2="958.76" xlink:href="#linear-gradient-3"/><linearGradient id="linear-gradient-13" x1="971.57" y1="792.21" x2="971.57" y2="947.64" xlink:href="#linear-gradient-4"/><linearGradient id="linear-gradient-14" x1="-949.94" y1="2313.37" x2="-726.92" y2="2290.52" xlink:href="#linear-gradient"/><linearGradient id="linear-gradient-15" x1="773.44" y1="191.55" x2="1035.49" y2="61.53" gradientTransform="translate(82.82 302.14) rotate(14.09)" xlink:href="#linear-gradient"/><linearGradient id="linear-gradient-16" x1="886.92" y1="375.57" x2="1099.46" y2="771.61" xlink:href="#linear-gradient-3"/><linearGradient id="linear-gradient-17" x1="975.19" y1="565.5" x2="1010.67" y2="803.01" xlink:href="#linear-gradient-4"/><linearGradient id="linear-gradient-18" x1="942.06" y1="389.06" x2="991.26" y2="653.06" xlink:href="#linear-gradient-4"/><linearGradient id="linear-gradient-19" x1="1105.29" y1="571.2" x2="1106.22" y2="588.25" xlink:href="#linear-gradient-6"/><linearGradient id="linear-gradient-20" x1="847.77" y1="584.12" x2="846.68" y2="616.37" xlink:href="#linear-gradient-6"/><linearGradient id="linear-gradient-21" x1="1008.03" y1="608.2" x2="1008.35" y2="618.92" xlink:href="#linear-gradient-6"/><linearGradient id="linear-gradient-22" x1="786.07" y1="503.9" x2="784.77" y2="520.46" xlink:href="#linear-gradient-6"/><linearGradient id="linear-gradient-23" x1="881.09" y1="450.1" x2="881.88" y2="458.93" xlink:href="#linear-gradient-6"/><linearGradient id="linear-gradient-24" x1="1162.18" y1="502.53" x2="1159.39" y2="521.44" xlink:href="#linear-gradient-6"/><linearGradient id="linear-gradient-25" x1="968.16" y1="489.68" x2="984.49" y2="629.2" xlink:href="#linear-gradient-3"/><linearGradient id="linear-gradient-26" x1="973.49" y1="462.65" x2="973.49" y2="618.09" xlink:href="#linear-gradient-4"/><linearGradient id="linear-gradient-27" x1="-1287.52" y1="2370.95" x2="-1064.49" y2="2348.1" xlink:href="#linear-gradient"/><linearGradient id="linear-gradient-28" x1="689.9" y1="-140.56" x2="951.94" y2="-270.58" gradientTransform="translate(82.82 302.14) rotate(14.09)" xlink:href="#linear-gradient"/><linearGradient id="linear-gradient-29" x1="886.76" y1="33.12" x2="1099.3" y2="429.15" xlink:href="#linear-gradient-3"/><linearGradient id="linear-gradient-30" x1="975.03" y1="223.04" x2="1010.51" y2="460.56" xlink:href="#linear-gradient-4"/><linearGradient id="linear-gradient-31" x1="941.9" y1="46.6" x2="991.1" y2="310.6" xlink:href="#linear-gradient-4"/><linearGradient id="linear-gradient-32" x1="1105.13" y1="228.74" x2="1106.06" y2="245.79" xlink:href="#linear-gradient-6"/><linearGradient id="linear-gradient-33" x1="847.61" y1="241.66" x2="846.52" y2="273.91" xlink:href="#linear-gradient-6"/><linearGradient id="linear-gradient-34" x1="1007.88" y1="265.74" x2="1008.19" y2="276.46" xlink:href="#linear-gradient-6"/><linearGradient id="linear-gradient-35" x1="785.91" y1="161.44" x2="784.61" y2="178" xlink:href="#linear-gradient-6"/><linearGradient id="linear-gradient-36" x1="880.93" y1="107.64" x2="881.72" y2="116.47" xlink:href="#linear-gradient-6"/><linearGradient id="linear-gradient-37" x1="1162.02" y1="160.07" x2="1159.23" y2="178.98" xlink:href="#linear-gradient-6"/><linearGradient id="linear-gradient-38" x1="968.01" y1="147.23" x2="984.33" y2="286.74" xlink:href="#linear-gradient-3"/><linearGradient id="linear-gradient-39" x1="973.33" y1="120.19" x2="973.33" y2="275.63" xlink:href="#linear-gradient-4"/><linearGradient id="linear-gradient-40" x1="1729.04" y1="-77.76" x2="1818.87" y2="-86.97" gradientTransform="matrix(0.57, -0.82, 0.82, 0.57, 816.38, 2529.49)" xlink:href="#linear-gradient"/><linearGradient id="linear-gradient-41" x1="3255.78" y1="-481.25" x2="3345.6" y2="-490.45" gradientTransform="matrix(-0.67, -0.74, 0.74, -0.67, 4434.78, 3144.15)" xlink:href="#linear-gradient"/><linearGradient id="linear-gradient-42" x1="2893.19" y1="-892.13" x2="2983.02" y2="-901.33" gradientTransform="matrix(0.57, 0.82, 0.82, -0.57, 816.38, -2009.17)" xlink:href="#linear-gradient"/><linearGradient id="linear-gradient-43" x1="4306.71" y1="474.65" x2="4396.53" y2="465.44" gradientTransform="matrix(-0.67, 0.74, 0.74, 0.67, 4434.78, -2623.83)" xlink:href="#linear-gradient"/><linearGradient id="linear-gradient-44" x1="1794.9" y1="927.65" x2="1849.46" y2="1051.62" xlink:href="#linear-gradient-3"/><linearGradient id="linear-gradient-45" x1="1945.04" y1="1063.8" x2="1777.03" y2="935.64" xlink:href="#linear-gradient-4"/><linearGradient id="linear-gradient-46" x1="1788.87" y1="916.48" x2="1850.88" y2="1041.45" xlink:href="#linear-gradient-4"/><linearGradient id="linear-gradient-47" x1="1751.13" y1="942.07" x2="1752.09" y2="954.75" xlink:href="#linear-gradient-6"/><linearGradient id="linear-gradient-48" x1="1814.83" y1="970.82" x2="1817.22" y2="988.77" xlink:href="#linear-gradient-6"/><linearGradient id="linear-gradient-49" x1="1857.39" y1="1003.07" x2="1860.29" y2="1015.72" xlink:href="#linear-gradient-6"/><linearGradient id="linear-gradient-50" x1="1842.59" y1="911.45" x2="1846.18" y2="928.68" xlink:href="#linear-gradient-6"/><linearGradient id="Degradado_sin_nombre_68" x1="1818.57" y1="981.18" x2="1777.31" y2="885.3" gradientUnits="userSpaceOnUse"><stop offset="0" stop-color="#fff69e"/><stop offset="0.01" stop-color="#fff69e"/><stop offset="0.61" stop-color="#e9edb1"/><stop offset="1" stop-color="#e1eab8"/></linearGradient></defs><path class="cls-1" d="M773.75,886.35l.25.13a2.88,2.88,0,0,0,2.35.08l218.12-87.15A2.93,2.93,0,0,0,996,798a130.58,130.58,0,0,0,5.36-13.16c3.57-10.58,3.41-16.61-.52-19l-.31-.18a3,3,0,0,0-2.31-.17,2.91,2.91,0,0,0-1.71,1.55c-2.35,5.12-7.32,10.18-11.69,14a95.87,95.87,0,0,1,15.82-22.69,2.94,2.94,0,0,0,.29-3.6,2.85,2.85,0,0,0-.93-.9,2.93,2.93,0,0,0-2.49-.25c-8.88,3.13-15,9.46-20.86,15.58-2.18,2.26-4.39,4.55-6.77,6.73a44.69,44.69,0,0,0,.34-15.31,2.93,2.93,0,0,0-5.61-.59,29.74,29.74,0,0,1-4.56,6.63,78.07,78.07,0,0,0,2.86-7.46,2.94,2.94,0,0,0-1.27-3.39l-.2-.11a2.94,2.94,0,0,0-3.69.89c-5.69,7.81-14.88,12.13-20.44,14.17,1.54-9.41.13-20.12.06-20.65a2.93,2.93,0,0,0-5.82.75c0,.32.63,7.59-8.54,13.89,1.62-6.74,9.16-17.12,15.26-23.66a2.92,2.92,0,0,0,0-4,2.88,2.88,0,0,0-.66-.55,2.94,2.94,0,0,0-3.28.17c-.38.29-9.12,6.91-30.85,26.13-.31-6,5.74-12.46,5.81-12.54a2.93,2.93,0,0,0-.05-4.1,2.88,2.88,0,0,0-.56-.43,2.92,2.92,0,0,0-3.54.39c-.29.28-6.31,6.15-13.07,19.64-3-6.83-8.73-14.66-14.94-18.42-3.39-2.05-6.69-2.78-9.81-2.17a2.92,2.92,0,0,0-1.4,5.05c4.24,3.83,6.3,8.06,6.3,12.91,0,7.62-5.2,15-8.87,19.27-1.07-5.62-2.11-14.85.56-22.24a2.94,2.94,0,0,0-1-3.31l-.28-.19a2.94,2.94,0,0,0-3.17.08c-7.79,5.32-12.13,17.94-14.3,26.81-3.35-9-6.5-21.54-3.11-29a2.91,2.91,0,0,0-.66-3.34,2.48,2.48,0,0,0-.49-.38,2.93,2.93,0,0,0-2.88-.09c-19.63,10.32-20.47,31.46-19,43.92a58.9,58.9,0,0,0-8.62-6.42c-6.77-4.1-13.12-5.65-18.86-4.6a2.94,2.94,0,0,0-1,5.4c4.75,2.87,8.06,10.85,10.23,19a54.43,54.43,0,0,0-9.16-10.93,2.53,2.53,0,0,0-.42-.31,2.93,2.93,0,0,0-3.79.64,8.77,8.77,0,0,0-1.61,3.58,109.38,109.38,0,0,1-.46-16.56,2.92,2.92,0,0,0-1.41-2.65l-.21-.11a2.93,2.93,0,0,0-3.18.37c-15.08,12.56-14.51,40.22-13.17,53.92a95.15,95.15,0,0,0-11.24-8.11c-8-4.85-14.69-6.6-19.84-5.19a3,3,0,0,0-2.15,2.87,2.92,2.92,0,0,0,1.41,2.47,3,3,0,0,0,.82.34,16.27,16.27,0,0,1,4.55,2c18,10.87,31.33,53.89,31.46,54.32A2.91,2.91,0,0,0,773.75,886.35Z"/><path class="cls-2" d="M783.2,846.57s-7-38.77,9.95-52.89c-1.51,31.91,11.92,49.42,11.92,49.42s-10.36-30-5.42-36c9.71,8.58,15.53,24.66,15.53,24.66s-2.4-29.48-13.39-36.13c13.71-2.49,28.33,15.26,28.33,15.26s-10-32.32,14-45c-5.7,12.5,6.1,35.89,6.1,35.89s3.15-23.73,13.35-30.68c-4,11.15.52,26.1.52,26.1s22.86-20.4,5.5-36.06c10-1.94,21.69,17.68,20.89,23.78,7.09-16.71,14.28-23.61,14.28-23.61s-9.4,9.78-4.54,17.65c21.81-19.4,30.43-25.9,30.43-25.9s-17.34,18.58-14.27,27.47c14.06-7,12.78-17.26,12.78-17.26s1.82,13.43-1.07,22c0,0,15.74-3.61,24-15,0,0-5.08,16.15-13.5,22.31,16.35-10.74,20-19.81,20-19.81s2.64,15.56-5.51,22.17c14.06-7.62,19.68-21.57,33.39-26.41-15,16.26-18.06,29.87-18.06,29.87s14.14-9.27,18.68-19.18c5.66,3-5.21,25.46-5.21,25.46l-195.24,78s-14.5-47.31-34.12-52.14C763.76,827.49,783.2,846.57,783.2,846.57Z"/><path class="cls-3" d="M862.63,927.9l.18-.19a2.65,2.65,0,0,1,2-.73l210.77,13.33a2.66,2.66,0,0,1,1.73.8,116.11,116.11,0,0,1,8.27,9.74c6,8,7.56,13.23,4.87,16.36l-.21.24a2.67,2.67,0,0,1-1.93.79,2.64,2.64,0,0,1-1.9-.84c-3.43-3.72-9.1-6.65-13.89-8.65a86.18,86.18,0,0,0,19.87,15,2.62,2.62,0,0,1,1.26,3,2.62,2.62,0,0,1-2.6,1.95c-8.47-.19-15.44-3.89-22.19-7.47-2.49-1.32-5-2.66-7.67-3.85a40.22,40.22,0,0,1,4.58,13,2.66,2.66,0,0,1-.6,2.11,2.72,2.72,0,0,1-.92.68,2.63,2.63,0,0,1-3.11-.71,26.2,26.2,0,0,0-5.75-4.39c2.66,3,4.37,5.34,4.54,5.57a2.64,2.64,0,0,1-.14,3.25,1,1,0,0,1-.14.15,2.64,2.64,0,0,1-3.41.28c-7-5.08-16.11-6.2-21.42-6.37,4,7.6,5.74,17.14,5.83,17.62a2.65,2.65,0,0,1-.59,2.2,2.71,2.71,0,0,1-1.51.87,2.64,2.64,0,0,1-3.08-2.09c-.06-.27-1.59-6.66-11.19-9.47,3.28,5.31,12.62,12.06,19.67,15.94a2.64,2.64,0,0,1,1.14,3.37,2.93,2.93,0,0,1-.41.66,2.65,2.65,0,0,1-2.86.77c-.4-.14-9.72-3.35-33.67-13.67,1.42,5.24,8.39,9,8.47,9.08a2.63,2.63,0,0,1,1.11,3.52,2.78,2.78,0,0,1-.35.52,2.62,2.62,0,0,1-3.14.66c-.33-.16-7.12-3.48-16.67-13.12-.63,6.68-3.35,15-7.6,19.93a12.29,12.29,0,0,1-7.77,4.6,2.63,2.63,0,0,1-2.62-3.92c2.56-4.47,3.13-8.65,1.77-12.8-2.15-6.5-8.65-11.35-13-14,.66,5.1,2.36,13.28,6.71,18.84a2.64,2.64,0,0,1,.11,3.1l-.19.24a2.62,2.62,0,0,1-2.73.81c-8.14-2.35-15.39-11.92-19.73-18.89-.33,8.66.48,20.22,5.46,25.63a2.62,2.62,0,0,1,.38,3,2.47,2.47,0,0,1-.31.46,2.67,2.67,0,0,1-2.44.89c-19.66-3.32-26.31-21.14-28.55-32.2a54.08,54.08,0,0,1-5.56,7.9c-4.64,5.4-9.63,8.5-14.83,9.22a2.64,2.64,0,0,1-2.36-4.33c3.25-3.79,3.84-11.53,3.4-19.13A49,49,0,0,1,903,999.06a3.28,3.28,0,0,1-.27.38,2.63,2.63,0,0,1-3.42.51,8,8,0,0,1-2.38-2.61,98,98,0,0,0,4.25,14.28,2.62,2.62,0,0,1-.46,2.66l-.15.15a2.63,2.63,0,0,1-2.82.58c-16.4-6.51-23.67-30.3-26.36-42.38A86.59,86.59,0,0,1,864,982.71c-5.5,6.39-10.71,9.75-15.49,10a2.64,2.64,0,0,1-2.65-1.84,2.62,2.62,0,0,1,.52-2.51,2.74,2.74,0,0,1,.6-.52,15,15,0,0,0,3.34-2.94C862.65,970.56,862,930.07,862,929.67A2.6,2.6,0,0,1,862.63,927.9Z"/><path class="cls-2" d="M878.2,965.68s5.14,37,24.59,44.72c-10.79-28.31-3.86-48-3.86-48s-.48,30.08,5.75,34c6.21-10.6,6.7-26.8,6.7-26.8s6.56,27.27-1.38,36.5c13.09-1.8,21-22.12,21-22.12s.53,32.08,25.94,36.36c-8.82-9.57-5.1-34.13-5.1-34.13s9.84,20.45,21.09,23.7c-6.94-8.86-7.25-23.67-7.25-23.67s26.63,11.62,15.62,30.86c9.56-1.21,14.31-22.34,11.79-27.6,11.32,13,19.84,17,19.84,17s-11.36-6-9.31-14.55c25.38,11,35.08,14.34,35.08,14.34s-21.12-11.62-21-20.54c14.73,2.13,16.62,11.78,16.62,11.78s-2.34-12.64-7.47-19.51c0,0,15.25-1.4,26.09,6.41,0,0-9.35-13.05-18.76-16.11,17.91,4.85,23.84,11.95,23.84,11.95s-2.22-14.8-11.52-18.34c14.92,2.71,24.11,13.61,37.89,13.92-18.31-10.22-25.1-21.57-25.1-21.57s15.48,4.17,22.5,11.76c4.23-4.34-12.21-21.4-12.21-21.4l-199-12.58s.92,46.92-15.33,57.07C866.32,988.62,878.2,965.68,878.2,965.68Z"/><path class="cls-4" d="M1078.66,978.39c-11.42-1-22.29-10.48-33.73-11.15s-23.23,7.5-34.69,7.16-22.8-9.16-34.26-9.16-22.8,8.83-34.26,9.16-23.24-7.82-34.69-7.16-22.3,10.15-33.73,11.15c-8.13.7-15.88-8.26-23.71-9.57-8-1.34-18,4.59-25.37,1.36s-10.44-14.95-16.88-19.95-18-4.61-23.09-11.14-2.44-18.21-5.83-26c-3.29-7.53-13.52-13.06-14.92-21.59,0-.12-.1-.67-.12-.79l-.11-.73c0-.12-.08-.54-.1-.67-1.49-9.07,6.63-18.16,7.93-26.92s-3.77-20.1.1-28.18,15.43-10.45,21.35-17.13c5.72-6.45,7.15-18.84,14.56-23.72,7.07-4.65,18.3-.68,26.67-3.53,7.89-2.68,14.68-12.92,23.5-13.69,13.13-1.15,26.83,6.54,40,5.78s26-10,39.12-10.39,26.44,8.09,39.6,8.09,26.45-8.47,39.61-8.09,26,9.62,39.12,10.39,26.85-6.93,40-5.78c8.82.77,15.62,11,23.5,13.69,8.37,2.85,19.6-1.12,26.68,3.53,7.41,4.87,8.84,17.27,14.55,23.72,5.93,6.69,17.57,9.2,21.36,17.13s-1.22,19.3.1,28.18,9.42,17.85,7.92,26.92c0,.13-.08.55-.1.67l-.11.73c0,.12-.1.67-.12.79-1.39,8.53-11.63,14.06-14.92,21.59-3.39,7.76-.77,19.49-5.83,26s-16.62,6.12-23.09,11.14-9.43,16.68-16.88,19.95-17.36-2.7-25.36-1.36C1094.55,970.13,1086.79,979.09,1078.66,978.39Z"/><path class="cls-5" d="M1178.49,880.9c0,.1-.09.49-.11.62s-.08.56-.1.68-.08.62-.1.72c-1,5.84-6.69,10.17-10.9,14.84a21.18,21.18,0,0,0-3.67,5.2,22.58,22.58,0,0,0-1.69,6.77c-.77,6.16-.46,13-4,17.35-5,6.06-16.22,5.67-22.54,10.34s-9.2,15.47-16.46,18.5-16.94-2.49-24.76-1.25c-7.64,1.21-15.19,9.53-23.13,8.89-11.15-.93-21.75-9.74-32.91-10.36s-22.68,6.95-33.86,6.64-22.25-8.5-33.43-8.5-22.24,8.19-33.43,8.5-22.69-7.26-33.86-6.64-21.77,9.43-32.91,10.36c-7.94.64-15.49-7.68-23.13-8.89-7.82-1.24-17.58,4.27-24.76,1.25s-10.19-13.86-16.47-18.5-17.53-4.28-22.53-10.34-2.39-16.92-5.69-24.12c-3.22-7-13.19-12.11-14.57-20,0-.1-.08-.62-.1-.72s-.11-.58-.11-.68-.08-.52-.1-.62c-1.46-8.42,6.46-16.88,7.74-25s-3.67-18.67.08-26.16,15.06-9.7,20.84-15.91c5.57-6,7-17.5,14.22-22,6.89-4.31,17.85-.64,26-3.28,7.69-2.47,14.32-12,22.94-12.71,12.79-1.05,26.17,6.09,39,5.37s25.34-9.29,38.17-9.64,25.79,7.51,38.65,7.51,25.81-7.86,38.65-7.51,25.33,8.94,38.17,9.64,26.2-6.42,39-5.37c8.62.72,15.24,10.24,22.94,12.71,8.17,2.64,19.13-1,26,3.28,7.24,4.52,8.65,16,14.22,22,5.77,6.21,17.12,8.54,20.84,15.91a16.25,16.25,0,0,1,1.42,7.8,75.07,75.07,0,0,1-.93,8.38,35,35,0,0,0-.41,10C1172,864,1180,872.48,1178.49,880.9Z"/><path class="cls-6" d="M1175.17,880c0,.13-.09.52-.11.62s-.08.56-.1.68-.1.6-.1.72c-1,5.93-6.88,10.26-11.08,15a20.59,20.59,0,0,0-3.37,4.89,24.3,24.3,0,0,0-1.77,7.43c-.66,5.95-.5,12.36-3.88,16.49-5,6-16.1,5.65-22.35,10.27s-9.14,15.36-16.34,18.37-16.82-2.5-24.55-1.26-15.09,9.45-23,8.81c-11.06-.91-21.56-9.63-32.64-10.25s-22.49,6.89-33.57,6.58-22.08-8.44-33.18-8.44S947.1,958,936,958.34s-22.49-7.2-33.57-6.58S880.82,961.1,869.76,962c-7.86.64-15.37-7.59-22.94-8.81-7.76-1.24-17.44,4.23-24.55,1.26s-10.11-13.76-16.35-18.39c-4.08-3-10.25-3.87-15.39-5.83a15.6,15.6,0,0,1-6.95-4.42c-2.5-3-3.08-7.28-3.47-11.7s-.56-8.69-2.19-12.22c-3.17-6.93-13.08-12-14.44-19.87,0-.12-.1-.61-.1-.72s-.11-.55-.13-.68-.06-.49-.08-.62c-1.44-8.33,6.42-16.73,7.68-24.78.59-3.8-.15-8.05-.75-12.26a42.05,42.05,0,0,1-.57-7.67,14.53,14.53,0,0,1,1.4-6c3.67-7.3,14.94-9.61,20.67-15.76,5.53-5.94,6.92-17.35,14.1-21.85,6.85-4.27,17.72-.62,25.81-3.24,7.63-2.48,14.22-11.91,22.76-12.61,9.24-.78,18.8,2.77,28.23,4.5a44.68,44.68,0,0,0,10.46.8c5-.26,10-1.77,15-3.5,7.59-2.64,15.16-5.84,22.86-6.05,12.75-.35,25.61,7.45,38.34,7.45s25.6-7.8,38.34-7.45,25.15,8.85,37.88,9.55,26-6.37,38.69-5.3c8.54.7,15.1,10.13,22.74,12.61,8.1,2.62,19-1,25.83,3.24,7.16,4.5,8.56,15.91,14.09,21.85,5.74,6.15,17,8.46,20.66,15.76,3.75,7.45-1.18,17.77.1,26S1176.61,871.68,1175.17,880Z"/><path class="cls-7" d="M1167.28,897.76a21.18,21.18,0,0,0-3.67,5.2,22.58,22.58,0,0,0-1.69,6.77c-75.89,6.47-120.36-7.21-122.57-7.91C1079.84,909.85,1128.64,904.81,1167.28,897.76Z"/><path class="cls-8" d="M911.34,920.72c-27.81,11.35-90.6,10.63-120.81,9.52a15.6,15.6,0,0,1-6.95-4.42c-2.5-3-3.08-7.28-3.47-11.7C801.51,919,852.82,928.15,911.34,920.72Z"/><path class="cls-9" d="M947.15,942.75s102.05-7.18,112.8-10.86,1.07,0,1.07,0S1012.94,953,947.15,942.75Z"/><path class="cls-10" d="M798.06,840.87a160,160,0,0,1-28,2.1,42.05,42.05,0,0,1-.57-7.67A189.32,189.32,0,0,0,798.06,840.87Z"/><path class="cls-11" d="M908,777.61c-7.35,8.46-37,9.69-57.22,8.06,8.4-.86,21.81-3.36,31.76-5.36a44.68,44.68,0,0,0,10.46.8C898,780.85,903,779.34,908,777.61Z"/><path class="cls-12" d="M1172.09,837.55a75.07,75.07,0,0,1-.93,8.38,80.79,80.79,0,0,1-24.63-8.38Z"/><path class="cls-13" d="M1145.9,876.53c-6.24,40.37-39,68.3-75.11,68.3-2.22,0-4.45-.1-6.71-.32a936,936,0,0,0-183.5,0c-38.68,3.72-75.18-25.13-81.8-68a76.06,76.06,0,0,1-.9-11.61c0-.79,0-1.58,0-2.38a77.79,77.79,0,0,1,70.13-74.67,1065.54,1065.54,0,0,1,208.56,0,77.81,77.81,0,0,1,70.13,74.7A74.8,74.8,0,0,1,1145.9,876.53Z"/><path class="cls-14" d="M1144.56,861.72a75,75,0,0,1-.84,9.61c-6.2,39.91-38.73,67.57-74.6,67.57q-3.34,0-6.71-.31a933.65,933.65,0,0,0-182.35,0c-38.43,3.7-74.71-24.87-81.29-67.26a75,75,0,0,1-.84-9.63,77.09,77.09,0,0,1,69.69-73.88,1063.09,1063.09,0,0,1,207.25,0A77.11,77.11,0,0,1,1144.56,861.72Z"/><path class="cls-15" d="M1139.4,856.83a59.08,59.08,0,0,1-.87,10c-6,35-37.48,59.24-72.21,59.24-2.16,0-4.31-.09-6.47-.28a998.85,998.85,0,0,0-176.53,0c-29.54,2.58-57.8-12.7-71.36-37.69a69.12,69.12,0,0,1-7.35-21.27,60.27,60.27,0,0,1-.86-10c0-33.34,28.14-63.39,67.51-66.88a1137.37,1137.37,0,0,1,200.63,0C1111.32,793.36,1139.44,823.48,1139.4,856.83Z"/><path class="cls-16" d="M1139.4,856.83a59.08,59.08,0,0,1-.87,10c-6,35-37.48,59.24-72.21,59.24-2.16,0-4.31-.09-6.47-.28a998.85,998.85,0,0,0-176.53,0c-29.54,2.58-57.8-12.7-71.36-37.69C918.37,917.48,1112.73,887.93,1139.4,856.83Z"/><ellipse class="cls-17" cx="885.59" cy="804.95" rx="22.15" ry="6.48"/><path class="cls-17" d="M850.72,811.77c.87,2.65-2.45,6.13-7.43,7.77s-9.71.82-10.59-1.83,2.45-6.13,7.43-7.77S849.85,809.12,850.72,811.77Z"/><path class="cls-18" d="M775.66,556.79l.25.14a2.94,2.94,0,0,0,2.36.07l218.12-87.15a2.91,2.91,0,0,0,1.55-1.44,126.82,126.82,0,0,0,5.37-13.16c3.57-10.57,3.4-16.61-.52-19l-.31-.17a2.91,2.91,0,0,0-2.31-.18,3,3,0,0,0-1.72,1.55c-2.34,5.12-7.31,10.18-11.69,14a96,96,0,0,1,15.83-22.69,2.94,2.94,0,0,0,.29-3.6,3.06,3.06,0,0,0-.93-.9,3,3,0,0,0-2.5-.25c-8.88,3.13-15,9.46-20.86,15.58-2.17,2.26-4.38,4.55-6.76,6.73a45,45,0,0,0,.34-15.31,3,3,0,0,0-1.37-2,3,3,0,0,0-4.25,1.43A29,29,0,0,1,962,437a78.62,78.62,0,0,0,2.87-7.46,2.93,2.93,0,0,0-1.28-3.39l-.2-.11a2.94,2.94,0,0,0-3.69.89c-5.68,7.81-14.88,12.14-20.43,14.17,1.54-9.41.13-20.11,0-20.65a2.9,2.9,0,0,0-1.39-2.12,2.93,2.93,0,0,0-4.42,2.87c0,.32.63,7.59-8.54,13.89,1.62-6.74,9.15-17.12,15.25-23.66a2.92,2.92,0,0,0,0-4,3.11,3.11,0,0,0-.66-.55,3,3,0,0,0-3.29.17c-.37.29-9.11,6.92-30.84,26.13-.32-6,5.73-12.46,5.8-12.53a2.94,2.94,0,0,0,0-4.11,3.21,3.21,0,0,0-.56-.43,2.92,2.92,0,0,0-3.54.39c-.3.28-6.32,6.15-13.07,19.64-3-6.83-8.73-14.66-14.94-18.42-3.39-2.05-6.69-2.78-9.81-2.17a2.93,2.93,0,0,0-1.41,5.05c4.25,3.83,6.31,8.06,6.3,12.91,0,7.62-5.19,15-8.86,19.27-1.08-5.62-2.12-14.85.55-22.23a2.92,2.92,0,0,0-1-3.32l-.28-.19a2.94,2.94,0,0,0-3.17.08c-7.79,5.32-12.12,17.94-14.3,26.81-3.34-9-6.5-21.54-3.11-29a2.92,2.92,0,0,0-.65-3.34,2.28,2.28,0,0,0-.5-.38,2.93,2.93,0,0,0-2.88-.09c-19.62,10.32-20.47,31.46-19,43.92a60.75,60.75,0,0,0-8.62-6.42c-6.77-4.1-13.12-5.65-18.87-4.6a2.94,2.94,0,0,0-1,5.4c4.75,2.87,8.05,10.85,10.22,19a54.49,54.49,0,0,0-9.15-10.94,3.11,3.11,0,0,0-.43-.31,2.89,2.89,0,0,0-1.75-.42,3,3,0,0,0-2,1.06,8.7,8.7,0,0,0-1.61,3.58,108.1,108.1,0,0,1-.46-16.56,3,3,0,0,0-1.41-2.65l-.21-.11a3,3,0,0,0-3.19.37c-15.07,12.56-14.51,40.22-13.16,53.92a95.32,95.32,0,0,0-11.25-8.11c-8-4.85-14.69-6.59-19.83-5.19a2.93,2.93,0,0,0-.74,5.34,2.9,2.9,0,0,0,.81.34,16.62,16.62,0,0,1,4.56,1.95c18,10.88,31.33,53.89,31.46,54.32A2.93,2.93,0,0,0,775.66,556.79Z"/><path class="cls-2" d="M785.12,517s-7-38.77,9.94-52.9C793.55,496,807,513.54,807,513.54s-10.37-30-5.42-36c9.7,8.59,15.52,24.66,15.52,24.66s-2.4-29.48-13.38-36.13c13.7-2.49,28.33,15.26,28.33,15.26s-10-32.31,14-45c-5.69,12.49,6.11,35.88,6.11,35.88s3.14-23.73,13.34-30.68c-4,11.15.53,26.1.53,26.1s22.86-20.4,5.5-36.06c10-1.94,21.68,17.68,20.89,23.78,7.08-16.71,14.28-23.61,14.28-23.61s-9.4,9.78-4.55,17.65c21.81-19.4,30.44-25.9,30.44-25.9S915.27,442.1,918.33,451c14.07-7,12.79-17.26,12.79-17.26s1.82,13.43-1.07,22c0,0,15.74-3.61,24-15,0,0-5.08,16.15-13.49,22.31,16.34-10.74,19.95-19.81,19.95-19.81s2.65,15.56-5.5,22.17c14.05-7.62,19.68-21.57,33.39-26.41-15,16.26-18.07,29.87-18.07,29.87S984.5,459.6,989,449.68c5.67,3-5.2,25.46-5.2,25.46l-195.25,78s-14.5-47.31-34.12-52.14C765.68,497.93,785.12,517,785.12,517Z"/><path class="cls-19" d="M864.55,598.34a1.54,1.54,0,0,1,.17-.19,2.64,2.64,0,0,1,2-.72l210.77,13.32a2.62,2.62,0,0,1,1.73.8,114,114,0,0,1,8.27,9.74c6,8,7.57,13.23,4.88,16.36l-.22.24a2.65,2.65,0,0,1-3.82,0c-3.44-3.72-9.1-6.65-13.9-8.65a86.06,86.06,0,0,0,19.88,14.95,2.66,2.66,0,0,1,1.26,3,2.7,2.7,0,0,1-.55,1,2.64,2.64,0,0,1-2.06.92c-8.46-.19-15.44-3.89-22.18-7.46-2.5-1.33-5-2.67-7.67-3.86a40.5,40.5,0,0,1,4.58,13,2.62,2.62,0,0,1-.61,2.11,2.51,2.51,0,0,1-.92.68,2.62,2.62,0,0,1-3.1-.71,26.82,26.82,0,0,0-5.76-4.39c2.67,3,4.37,5.34,4.54,5.57a2.63,2.63,0,0,1-.14,3.26l-.14.15a2.64,2.64,0,0,1-3.4.27c-7-5.08-16.11-6.2-21.43-6.37,4,7.6,5.75,17.14,5.84,17.62a2.64,2.64,0,0,1-5.18,1c-.07-.28-1.59-6.67-11.19-9.48,3.27,5.31,12.62,12.06,19.66,15.94a2.62,2.62,0,0,1,1.14,3.37,2.23,2.23,0,0,1-.41.66,2.63,2.63,0,0,1-2.85.77c-.4-.13-9.73-3.35-33.68-13.67,1.43,5.24,8.39,9,8.48,9.08a2.65,2.65,0,0,1,1.11,3.52,2.41,2.41,0,0,1-.36.52,2.61,2.61,0,0,1-3.13.66c-.34-.16-7.12-3.48-16.68-13.12-.62,6.68-3.34,15-7.6,19.93a12.33,12.33,0,0,1-7.77,4.61,2.65,2.65,0,0,1-2.62-3.93c2.56-4.46,3.14-8.65,1.77-12.79-2.15-6.51-8.64-11.36-13-14,.66,5.1,2.35,13.28,6.7,18.84a2.63,2.63,0,0,1,.11,3.1,2.15,2.15,0,0,1-.18.24,2.65,2.65,0,0,1-2.73.82c-8.15-2.36-15.39-11.93-19.74-18.9-.32,8.66.49,20.22,5.47,25.63a2.63,2.63,0,0,1,.38,3,2.51,2.51,0,0,1-.32.46,2.63,2.63,0,0,1-2.44.89c-19.66-3.32-26.3-21.14-28.54-32.2a54.15,54.15,0,0,1-5.56,7.91c-4.64,5.39-9.63,8.49-14.83,9.21a2.63,2.63,0,0,1-2.36-4.33c3.25-3.79,3.84-11.53,3.39-19.13a49,49,0,0,1-4.75,11.91,2.47,2.47,0,0,1-.28.38,2.59,2.59,0,0,1-1.38.85,2.64,2.64,0,0,1-2-.34,7.69,7.69,0,0,1-2.38-2.61,98,98,0,0,0,4.25,14.28,2.65,2.65,0,0,1-.46,2.66l-.15.16a2.66,2.66,0,0,1-2.83.57c-16.39-6.5-23.66-30.3-26.36-42.38a84.62,84.62,0,0,1-7.33,10.08c-5.49,6.4-10.7,9.76-15.49,10a2.63,2.63,0,0,1-2.13-4.35,2.74,2.74,0,0,1,.6-.52,14.86,14.86,0,0,0,3.35-2.94c12.31-14.33,11.66-54.82,11.65-55.22A2.66,2.66,0,0,1,864.55,598.34Z"/><path class="cls-2" d="M880.11,636.12s5.14,37,24.6,44.72c-10.8-28.31-3.87-48.05-3.87-48.05s-.47,30.08,5.76,34c6.21-10.6,6.7-26.8,6.7-26.8s6.55,27.27-1.38,36.5c13.08-1.8,21-22.12,21-22.12s.53,32.08,25.94,36.36c-8.83-9.57-5.11-34.13-5.11-34.13s9.84,20.45,21.09,23.7c-6.93-8.86-7.24-23.67-7.24-23.67s26.62,11.62,15.61,30.86c9.56-1.21,14.31-22.34,11.8-27.6,11.32,13,19.84,17.05,19.84,17.05s-11.36-6-9.31-14.55c25.38,11,35.07,14.34,35.07,14.34s-21.11-11.62-21-20.54c14.73,2.13,16.62,11.78,16.62,11.78s-2.33-12.64-7.46-19.51c0,0,15.24-1.4,26.08,6.42,0,0-9.35-13.06-18.75-16.12,17.9,4.85,23.83,12,23.83,12s-2.21-14.79-11.51-18.34c14.92,2.71,24.11,13.61,37.89,13.92-18.31-10.22-25.11-21.57-25.11-21.57s15.48,4.17,22.51,11.76c4.22-4.34-12.22-21.4-12.22-21.4L872.57,602.54s.91,46.92-15.33,57.07C868.24,659.06,880.11,636.12,880.11,636.12Z"/><path class="cls-20" d="M1080.58,648.83c-11.43-1-22.29-10.48-33.73-11.15s-23.24,7.5-34.69,7.16-22.8-9.16-34.26-9.16-22.81,8.83-34.26,9.16S920.39,637,909,637.68s-22.31,10.15-33.73,11.15c-8.14.7-15.89-8.26-23.72-9.57-8-1.34-18,4.6-25.37,1.36s-10.43-15-16.87-20-18-4.61-23.09-11.14-2.44-18.21-5.83-26C777.05,576,766.81,570.5,765.41,562c0-.12-.1-.66-.11-.79l-.11-.73c0-.12-.09-.54-.1-.66-1.5-9.08,6.62-18.17,7.92-26.93s-3.76-20.1.1-28.18,15.43-10.45,21.36-17.13c5.71-6.45,7.14-18.84,14.55-23.72,7.07-4.64,18.31-.68,26.67-3.53,7.89-2.68,14.69-12.92,23.51-13.69,13.12-1.15,26.83,6.54,40,5.78s26-10,39.12-10.39,26.44,8.09,39.61,8.09,26.44-8.47,39.6-8.09,26,9.62,39.12,10.39,26.85-6.93,40-5.78c8.82.77,15.61,11,23.5,13.69,8.36,2.85,19.6-1.12,26.67,3.53,7.41,4.88,8.84,17.27,14.56,23.72,5.92,6.69,17.56,9.21,21.35,17.13,3.87,8.08-1.22,19.3.1,28.18s9.42,17.86,7.93,26.93c0,.12-.08.54-.1.66l-.11.73c0,.13-.1.67-.12.79-1.4,8.53-11.63,14.06-14.92,21.59-3.39,7.76-.77,19.49-5.84,26s-16.61,6.12-23.08,11.14-9.43,16.68-16.88,20-17.36-2.7-25.37-1.36C1096.46,640.57,1088.71,649.53,1080.58,648.83Z"/><path class="cls-21" d="M1180.4,551.34c0,.1-.08.5-.1.62s-.08.56-.1.68-.09.62-.11.72c-1,5.84-6.68,10.18-10.89,14.84a20.66,20.66,0,0,0-3.67,5.2,22.58,22.58,0,0,0-1.7,6.77c-.76,6.17-.45,13-4,17.35-5,6.07-16.22,5.67-22.53,10.34s-9.2,15.47-16.47,18.5-16.94-2.49-24.76-1.25c-7.63,1.21-15.18,9.53-23.13,8.89-11.14-.93-21.75-9.74-32.91-10.36s-22.68,7-33.86,6.65-22.24-8.51-33.43-8.51-22.24,8.2-33.42,8.51-22.7-7.27-33.86-6.65-21.77,9.43-32.91,10.36c-7.95.64-15.5-7.68-23.13-8.89-7.82-1.24-17.58,4.27-24.76,1.25s-10.2-13.86-16.47-18.5-17.54-4.27-22.53-10.34-2.4-16.92-5.7-24.12c-3.22-7-13.18-12.11-14.56-20,0-.1-.09-.62-.11-.72s-.1-.58-.1-.68-.08-.52-.1-.62c-1.47-8.42,6.45-16.88,7.73-25s-3.67-18.67.09-26.16,15.06-9.7,20.84-15.91c5.57-6,7-17.5,14.21-22,6.89-4.31,17.85-.64,26-3.28,7.7-2.47,14.32-12,22.95-12.71,12.79-1,26.16,6.09,39,5.37s25.34-9.29,38.18-9.64,25.79,7.51,38.64,7.51,25.82-7.86,38.65-7.51,25.34,8.94,38.17,9.64,26.21-6.42,39-5.37c8.63.73,15.25,10.24,23,12.71,8.17,2.64,19.12-1,26,3.28,7.24,4.52,8.64,16,14.21,22,5.78,6.21,17.13,8.54,20.84,15.91A16.14,16.14,0,0,1,1174,508a77.51,77.51,0,0,1-.93,8.38,35,35,0,0,0-.42,10C1173.94,534.46,1181.87,542.92,1180.4,551.34Z"/><path class="cls-22" d="M1177.08,550.45c0,.13-.08.52-.1.62l-.11.68c0,.11-.1.6-.1.73-1,5.92-6.87,10.25-11.08,15a20.15,20.15,0,0,0-3.36,4.89,24.17,24.17,0,0,0-1.78,7.42c-.66,6-.49,12.36-3.88,16.49-5,6-16.09,5.65-22.34,10.28s-9.14,15.35-16.34,18.36-16.82-2.5-24.56-1.26-15.08,9.45-23,8.81c-11.06-.91-21.57-9.63-32.65-10.25s-22.49,6.89-33.57,6.58-22.08-8.44-33.18-8.44-22.05,8.13-33.16,8.44-22.49-7.2-33.57-6.58-21.6,9.34-32.66,10.25c-7.86.64-15.37-7.59-22.94-8.81-7.76-1.24-17.44,4.23-24.56,1.26s-10.11-13.76-16.34-18.38c-4.09-3-10.26-3.88-15.39-5.84a15.63,15.63,0,0,1-7-4.42c-2.49-3-3.07-7.28-3.46-11.7-.38-4.27-.56-8.69-2.19-12.21-3.18-6.94-13.08-12-14.44-19.87a6.81,6.81,0,0,1-.11-.73c0-.12-.1-.55-.12-.68s-.06-.49-.08-.62c-1.45-8.33,6.41-16.73,7.67-24.78.6-3.79-.14-8-.74-12.25a43.1,43.1,0,0,1-.58-7.68,14.69,14.69,0,0,1,1.4-6c3.68-7.3,14.94-9.61,20.68-15.76,5.53-5.94,6.91-17.35,14.09-21.85,6.85-4.27,17.73-.62,25.81-3.24,7.64-2.48,14.22-11.91,22.76-12.61,9.25-.78,18.8,2.77,28.23,4.5a45.32,45.32,0,0,0,10.46.81c5.06-.27,10-1.78,15-3.51,7.6-2.64,15.17-5.84,22.87-6.05,12.75-.35,25.6,7.45,38.33,7.45s25.61-7.8,38.34-7.45,25.15,8.85,37.88,9.56,26-6.38,38.69-5.31c8.54.7,15.11,10.13,22.74,12.61,8.11,2.62,19-1,25.83,3.24,7.16,4.5,8.57,15.91,14.1,21.85,5.73,6.15,17,8.46,20.65,15.76,3.76,7.45-1.17,17.77.1,26S1178.52,542.12,1177.08,550.45Z"/><path class="cls-23" d="M1169.2,568.2a20.66,20.66,0,0,0-3.67,5.2,22.58,22.58,0,0,0-1.7,6.77c-75.89,6.47-120.35-7.21-122.56-7.91C1081.75,580.29,1130.55,575.25,1169.2,568.2Z"/><path class="cls-24" d="M913.26,591.16c-27.82,11.35-90.61,10.63-120.81,9.52a15.63,15.63,0,0,1-7-4.42c-2.49-3-3.07-7.28-3.46-11.7C803.42,589.43,854.74,598.59,913.26,591.16Z"/><path class="cls-25" d="M949.06,613.19s102.06-7.18,112.8-10.86,1.07,0,1.07,0S1014.85,623.45,949.06,613.19Z"/><path class="cls-26" d="M800,511.31a161.22,161.22,0,0,1-28,2.11,43.1,43.1,0,0,1-.58-7.68A189.48,189.48,0,0,0,800,511.31Z"/><path class="cls-27" d="M909.87,448.05c-7.34,8.46-37,9.7-57.21,8.07,8.39-.87,21.81-3.37,31.75-5.37a45.32,45.32,0,0,0,10.46.81C899.93,451.29,904.9,449.78,909.87,448.05Z"/><path class="cls-28" d="M1174,508a77.51,77.51,0,0,1-.93,8.38,80.91,80.91,0,0,1-24.64-8.38Z"/><path class="cls-13" d="M1147.82,547c-6.24,40.37-39,68.3-75.12,68.3-2.21,0-4.45-.1-6.71-.32a935.94,935.94,0,0,0-183.49,0c-38.68,3.73-75.18-25.13-81.81-68a77.33,77.33,0,0,1-.89-11.61c0-.79,0-1.58,0-2.37A77.79,77.79,0,0,1,870,458.31a1065.64,1065.64,0,0,1,208.57,0,77.81,77.81,0,0,1,70.13,74.7A75.66,75.66,0,0,1,1147.82,547Z"/><path class="cls-29" d="M1146.48,532.16a73.11,73.11,0,0,1-.85,9.61c-6.2,39.91-38.73,67.57-74.6,67.57q-3.33,0-6.71-.31A933.54,933.54,0,0,0,882,609c-38.44,3.7-74.71-24.87-81.29-67.26a73.11,73.11,0,0,1-.85-9.63,77.09,77.09,0,0,1,69.69-73.88,1063.19,1063.19,0,0,1,207.26,0A77.11,77.11,0,0,1,1146.48,532.16Z"/><path class="cls-30" d="M1141.32,527.27a59.08,59.08,0,0,1-.87,10c-6,35-37.48,59.24-72.21,59.24q-3.24,0-6.48-.28a1000.65,1000.65,0,0,0-176.52,0c-29.55,2.58-57.8-12.7-71.37-37.69a69.11,69.11,0,0,1-7.34-21.27,60.2,60.2,0,0,1-.87-10c0-33.34,28.15-63.39,67.51-66.88a1139.29,1139.29,0,0,1,200.63,0C1113.23,463.8,1141.36,493.92,1141.32,527.27Z"/><path class="cls-16" d="M1141.32,527.27a59.08,59.08,0,0,1-.87,10c-6,35-37.48,59.24-72.21,59.24q-3.24,0-6.48-.28a1000.65,1000.65,0,0,0-176.52,0c-29.55,2.58-57.8-12.7-71.37-37.69C920.28,587.92,1114.65,558.37,1141.32,527.27Z"/><ellipse class="cls-17" cx="887.5" cy="475.39" rx="22.15" ry="6.48"/><path class="cls-17" d="M852.64,482.21c.87,2.65-2.46,6.13-7.43,7.77s-9.72.82-10.59-1.83,2.45-6.13,7.42-7.77S851.76,479.56,852.64,482.21Z"/><path class="cls-31" d="M775.51,214.33a2,2,0,0,0,.25.14,3,3,0,0,0,2.35.08L996.23,127.4a2.93,2.93,0,0,0,1.55-1.45,126.82,126.82,0,0,0,5.37-13.16c3.57-10.57,3.4-16.6-.52-19l-.31-.17a2.93,2.93,0,0,0-4,1.38c-2.34,5.12-7.31,10.17-11.69,14a96,96,0,0,1,15.83-22.69,2.94,2.94,0,0,0,.29-3.6,3,3,0,0,0-.93-.89,2.9,2.9,0,0,0-2.49-.26c-8.89,3.13-15,9.46-20.87,15.58-2.17,2.26-4.38,4.55-6.76,6.73a44.92,44.92,0,0,0,.34-15.3,2.93,2.93,0,0,0-5.61-.6,30,30,0,0,1-4.57,6.64,79.38,79.38,0,0,0,2.87-7.47,2.92,2.92,0,0,0-1.28-3.38l-.2-.11a2.93,2.93,0,0,0-3.69.89c-5.68,7.8-14.88,12.13-20.43,14.16,1.54-9.41.13-20.11.06-20.65a3,3,0,0,0-1.4-2.12,2.94,2.94,0,0,0-4.42,2.88c0,.31.63,7.59-8.54,13.88C926.42,85.92,934,75.55,940.05,69a2.94,2.94,0,0,0,0-4,2.79,2.79,0,0,0-.66-.54,3,3,0,0,0-3.29.16c-.37.29-9.11,6.92-30.84,26.13-.31-6,5.73-12.45,5.81-12.53A2.94,2.94,0,0,0,907,74.11c-.3.29-6.31,6.15-13.07,19.65-3-6.84-8.73-14.67-14.94-18.42-3.39-2-6.69-2.79-9.81-2.18a2.93,2.93,0,0,0-1.41,5C872,82.05,874,86.27,874,91.12c0,7.63-5.19,15-8.86,19.27-1.07-5.62-2.11-14.85.56-22.23a3,3,0,0,0-1-3.32l-.29-.19a2.92,2.92,0,0,0-3.16.09c-7.79,5.31-12.13,17.93-14.31,26.81-3.34-9-6.5-21.54-3.1-29a2.94,2.94,0,0,0-.66-3.35,2.64,2.64,0,0,0-.5-.38,3,3,0,0,0-2.88-.09c-19.62,10.33-20.47,31.46-19,43.92a60.94,60.94,0,0,0-8.62-6.42c-6.77-4.1-13.12-5.64-18.87-4.6a2.94,2.94,0,0,0-1,5.4c4.75,2.87,8.05,10.85,10.22,19a54.49,54.49,0,0,0-9.15-10.94,2.61,2.61,0,0,0-.43-.31,2.89,2.89,0,0,0-1.75-.42,3,3,0,0,0-2,1.07,8.58,8.58,0,0,0-1.61,3.58,108.23,108.23,0,0,1-.46-16.57,2.93,2.93,0,0,0-1.41-2.64l-.21-.12a2.93,2.93,0,0,0-3.18.37c-15.08,12.56-14.52,40.23-13.17,53.93A96.48,96.48,0,0,0,758,155.92c-8-4.85-14.69-6.59-19.83-5.18a2.92,2.92,0,0,0-.74,5.33,2.84,2.84,0,0,0,.82.34,16.7,16.7,0,0,1,4.55,2c18,10.88,31.33,53.89,31.46,54.32A2.91,2.91,0,0,0,775.51,214.33Z"/><path class="cls-2" d="M785,174.56s-7-38.77,9.95-52.9c-1.51,31.91,11.92,49.42,11.92,49.42s-10.37-30-5.42-36c9.71,8.59,15.52,24.66,15.52,24.66s-2.39-29.48-13.38-36.12c13.7-2.5,28.33,15.26,28.33,15.26s-10-32.32,14-45c-5.69,12.5,6.11,35.88,6.11,35.88s3.14-23.72,13.35-30.68c-4,11.16.52,26.1.52,26.1s22.86-20.4,5.5-36.06c10-1.93,21.69,17.69,20.89,23.78,7.08-16.7,14.28-23.61,14.28-23.61S897.16,99.1,902,107c21.81-19.4,30.44-25.9,30.44-25.9s-17.34,18.58-14.27,27.47c14.06-7,12.78-17.26,12.78-17.26s1.82,13.43-1.07,22c0,0,15.74-3.61,24-15,0,0-5.09,16.15-13.5,22.32,16.34-10.75,20-19.82,20-19.82s2.64,15.56-5.51,22.17c14-7.62,19.68-21.57,33.39-26.41-15,16.26-18.07,29.87-18.07,29.87s14.15-9.26,18.69-19.18c5.66,3-5.21,25.46-5.21,25.46l-195.25,78s-14.5-47.32-34.11-52.15C765.52,155.47,785,174.56,785,174.56Z"/><path class="cls-32" d="M864.39,255.88a1.57,1.57,0,0,1,.18-.19,2.61,2.61,0,0,1,2-.72l210.76,13.32a2.62,2.62,0,0,1,1.73.8,117.1,117.1,0,0,1,8.28,9.74c6,8,7.56,13.24,4.87,16.36l-.22.24a2.62,2.62,0,0,1-3.82-.05c-3.44-3.72-9.1-6.65-13.9-8.65a86.06,86.06,0,0,0,19.88,14.95,2.64,2.64,0,0,1,1.26,3,2.73,2.73,0,0,1-.55,1,2.61,2.61,0,0,1-2.06.92c-8.46-.19-15.44-3.89-22.18-7.46-2.5-1.32-5-2.66-7.67-3.86a40.22,40.22,0,0,1,4.58,13,2.62,2.62,0,0,1-.61,2.11,2.57,2.57,0,0,1-.92.69,2.64,2.64,0,0,1-3.1-.72,26.48,26.48,0,0,0-5.76-4.39,70.3,70.3,0,0,1,4.54,5.57,2.63,2.63,0,0,1-.14,3.26l-.14.15a2.64,2.64,0,0,1-3.4.27c-7-5.07-16.11-6.19-21.43-6.37,4,7.6,5.75,17.14,5.84,17.62a2.65,2.65,0,0,1-2.1,3.07,2.64,2.64,0,0,1-3.08-2.08c-.06-.28-1.59-6.67-11.19-9.47,3.27,5.3,12.62,12.05,19.66,15.93a2.63,2.63,0,0,1,1.14,3.38,2.31,2.31,0,0,1-.41.65,2.64,2.64,0,0,1-2.85.78c-.4-.14-9.73-3.35-33.68-13.68,1.43,5.24,8.39,9,8.48,9.08a2.64,2.64,0,0,1,1.11,3.52,2.75,2.75,0,0,1-.36.53,2.62,2.62,0,0,1-3.13.65c-.33-.16-7.12-3.48-16.68-13.12-.62,6.68-3.34,15-7.6,19.93a12.33,12.33,0,0,1-7.77,4.61,2.64,2.64,0,0,1-2.61-3.93c2.55-4.46,3.13-8.65,1.76-12.79-2.14-6.51-8.64-11.36-13-14,.66,5.1,2.36,13.28,6.71,18.84a2.64,2.64,0,0,1,.1,3.1,1.5,1.5,0,0,1-.18.24,2.63,2.63,0,0,1-2.73.82c-8.15-2.36-15.39-11.93-19.73-18.9-.33,8.66.48,20.22,5.46,25.63a2.66,2.66,0,0,1,.06,3.51,2.65,2.65,0,0,1-2.44.88c-19.65-3.32-26.3-21.14-28.54-32.2a54.15,54.15,0,0,1-5.56,7.91c-4.64,5.39-9.63,8.49-14.83,9.21a2.63,2.63,0,0,1-2.36-4.33c3.25-3.78,3.84-11.53,3.4-19.13A49.26,49.26,0,0,1,904.72,327a2.07,2.07,0,0,1-.28.38,2.55,2.55,0,0,1-1.38.85,2.6,2.6,0,0,1-2-.34,7.69,7.69,0,0,1-2.38-2.61,98,98,0,0,0,4.25,14.28,2.65,2.65,0,0,1-.46,2.66l-.15.16a2.63,2.63,0,0,1-2.82.57c-16.4-6.5-23.67-30.3-26.37-42.38a84.36,84.36,0,0,1-7.33,10.09c-5.49,6.39-10.7,9.75-15.49,10a2.64,2.64,0,0,1-2.13-4.35,2.46,2.46,0,0,1,.6-.51,14.67,14.67,0,0,0,3.35-2.95c12.31-14.33,11.66-54.81,11.65-55.22A2.66,2.66,0,0,1,864.39,255.88Z"/><path class="cls-2" d="M880,293.66s5.14,37,24.6,44.72c-10.79-28.3-3.87-48.05-3.87-48.05s-.47,30.08,5.76,34.05c6.21-10.61,6.7-26.81,6.7-26.81s6.55,27.27-1.38,36.5c13.08-1.8,21-22.12,21-22.12s.53,32.08,25.94,36.37c-8.83-9.58-5.11-34.13-5.11-34.13s9.85,20.44,21.09,23.69c-6.93-8.86-7.24-23.67-7.24-23.67s26.62,11.63,15.61,30.86c9.57-1.2,14.32-22.34,11.8-27.6,11.32,13,19.84,17,19.84,17s-11.36-6-9.31-14.55c25.38,11,35.07,14.34,35.07,14.34s-21.11-11.62-21-20.53c14.73,2.12,16.63,11.77,16.63,11.77s-2.34-12.64-7.47-19.51c0,0,15.24-1.39,26.09,6.42,0,0-9.36-13-18.76-16.12,17.9,4.85,23.84,12,23.84,12s-2.22-14.8-11.52-18.35c14.92,2.71,24.11,13.62,37.89,13.92-18.31-10.21-25.1-21.57-25.1-21.57s15.48,4.17,22.5,11.76c4.23-4.34-12.22-21.4-12.22-21.4L872.41,260.08s.92,46.92-15.33,57.07C868.08,316.61,880,293.66,880,293.66Z"/><path class="cls-33" d="M1080.42,306.38c-11.43-1-22.29-10.49-33.73-11.15s-23.24,7.49-34.69,7.16-22.8-9.17-34.26-9.17-22.81,8.83-34.26,9.17-23.25-7.83-34.69-7.16-22.31,10.15-33.73,11.15c-8.13.69-15.88-8.27-23.72-9.58-8-1.34-18,4.6-25.36,1.36s-10.44-15-16.88-20-18-4.6-23.09-11.14-2.44-18.21-5.83-26c-3.29-7.52-13.52-13.06-14.92-21.59l-.12-.78L765,218c0-.12-.08-.55-.1-.67-1.5-9.07,6.63-18.17,7.93-26.93s-3.77-20.1.09-28.18c3.8-7.92,15.43-10.44,21.36-17.13,5.71-6.45,7.14-18.84,14.55-23.71,7.08-4.65,18.31-.69,26.68-3.53,7.88-2.69,14.68-12.93,23.5-13.7,13.12-1.15,26.83,6.54,40,5.78s26-10,39.12-10.39,26.44,8.1,39.61,8.1,26.44-8.48,39.61-8.1,26,9.62,39.12,10.39,26.84-6.93,40-5.78c8.82.77,15.61,11,23.5,13.7,8.37,2.84,19.6-1.12,26.67,3.53,7.41,4.87,8.85,17.26,14.56,23.71,5.92,6.69,17.56,9.21,21.35,17.14s-1.22,19.29.1,28.17,9.42,17.86,7.93,26.93c0,.12-.08.55-.1.67l-.11.73-.12.78c-1.4,8.53-11.63,14.07-14.92,21.59-3.39,7.76-.77,19.49-5.83,26s-16.62,6.13-23.09,11.14-9.43,16.68-16.88,20-17.36-2.7-25.37-1.36C1096.3,298.11,1088.55,307.07,1080.42,306.38Z"/><path class="cls-34" d="M1180.24,208.88c0,.11-.08.5-.1.62s-.08.56-.1.68-.09.62-.11.72c-1,5.84-6.68,10.18-10.89,14.84a20.66,20.66,0,0,0-3.67,5.2,22.58,22.58,0,0,0-1.7,6.77c-.76,6.17-.45,13-4,17.35-5,6.07-16.22,5.68-22.53,10.34s-9.2,15.47-16.47,18.51-16.94-2.5-24.76-1.26c-7.63,1.22-15.18,9.53-23.13,8.89-11.14-.93-21.74-9.74-32.91-10.36s-22.67,7-33.86,6.65-22.24-8.5-33.42-8.5-22.25,8.19-33.43,8.5-22.7-7.27-33.86-6.65-21.77,9.43-32.91,10.36c-7.95.64-15.5-7.67-23.13-8.89-7.82-1.24-17.58,4.27-24.76,1.26S814.3,270,808,265.4s-17.54-4.27-22.53-10.34-2.39-16.92-5.7-24.12c-3.21-7-13.18-12.11-14.56-20,0-.1-.09-.61-.11-.72s-.1-.58-.1-.68-.08-.51-.1-.62c-1.47-8.42,6.46-16.88,7.73-25,1.28-8.26-3.67-18.68.09-26.17s15.06-9.7,20.84-15.91c5.57-6,7-17.49,14.21-22,6.9-4.32,17.85-.64,26-3.28,7.7-2.48,14.32-12,22.95-12.71,12.79-1.06,26.16,6.08,39,5.36s25.33-9.29,38.17-9.64,25.79,7.51,38.65,7.51,25.81-7.86,38.64-7.51,25.34,8.94,38.18,9.64,26.2-6.42,39-5.36c8.63.72,15.25,10.23,22.95,12.71,8.17,2.64,19.13-1,26,3.28,7.24,4.52,8.64,16,14.21,22,5.78,6.21,17.13,8.55,20.84,15.91a16.16,16.16,0,0,1,1.43,7.8,75.07,75.07,0,0,1-.93,8.38,34.68,34.68,0,0,0-.41,10C1173.79,192,1181.71,200.46,1180.24,208.88Z"/><path class="cls-35" d="M1176.92,208c0,.12-.08.51-.1.61l-.1.69a5.18,5.18,0,0,0-.11.72c-1,5.92-6.87,10.25-11.08,15a20.54,20.54,0,0,0-3.36,4.89,24.23,24.23,0,0,0-1.78,7.43c-.66,5.94-.49,12.36-3.88,16.48-5,6-16.09,5.66-22.34,10.28s-9.14,15.35-16.34,18.36-16.82-2.49-24.56-1.26c-7.59,1.22-15.08,9.45-23,8.81-11.06-.9-21.57-9.63-32.65-10.25s-22.49,6.89-33.57,6.58-22.07-8.44-33.18-8.44-22,8.13-33.15,8.44-22.5-7.2-33.58-6.58-21.6,9.35-32.66,10.25c-7.86.64-15.37-7.59-22.94-8.81-7.76-1.23-17.44,4.23-24.56,1.26s-10.11-13.76-16.34-18.38c-4.09-3-10.25-3.88-15.39-5.84a15.46,15.46,0,0,1-7-4.42c-2.49-3-3.07-7.28-3.46-11.7-.37-4.27-.56-8.68-2.19-12.21-3.18-6.94-13.08-12-14.44-19.87,0-.13-.11-.62-.11-.72s-.1-.56-.12-.69-.06-.49-.08-.61c-1.45-8.34,6.41-16.74,7.67-24.79.6-3.79-.14-8-.74-12.25a43.1,43.1,0,0,1-.58-7.68,14.65,14.65,0,0,1,1.41-6c3.67-7.31,14.93-9.62,20.67-15.77,5.53-5.94,6.91-17.35,14.09-21.85,6.85-4.27,17.73-.62,25.82-3.24,7.63-2.47,14.21-11.9,22.76-12.61,9.24-.78,18.79,2.77,28.22,4.5a45.32,45.32,0,0,0,10.46.81c5.06-.27,10-1.78,15-3.51,7.6-2.64,15.17-5.84,22.87-6,12.75-.35,25.6,7.45,38.33,7.45s25.61-7.8,38.34-7.45,25.15,8.86,37.89,9.56,26-6.38,38.68-5.31c8.55.71,15.11,10.14,22.74,12.61,8.11,2.62,19-1,25.84,3.24,7.16,4.5,8.56,15.91,14.09,21.85,5.73,6.15,17,8.46,20.65,15.77s-1.17,17.76.11,26S1178.37,199.66,1176.92,208Z"/><path class="cls-36" d="M1169,225.74a20.66,20.66,0,0,0-3.67,5.2,22.58,22.58,0,0,0-1.7,6.77c-75.89,6.48-120.35-7.2-122.56-7.9C1081.59,237.83,1130.39,232.8,1169,225.74Z"/><path class="cls-37" d="M913.1,248.71c-27.82,11.34-90.6,10.62-120.81,9.51a15.46,15.46,0,0,1-7-4.42c-2.49-3-3.07-7.28-3.46-11.7C803.26,247,854.58,256.13,913.1,248.71Z"/><path class="cls-38" d="M948.9,270.73s102.06-7.17,112.81-10.86,1.06,0,1.06,0S1014.69,281,948.9,270.73Z"/><path class="cls-39" d="M799.82,168.85a161.16,161.16,0,0,1-28,2.11,43.1,43.1,0,0,1-.58-7.68A188.49,188.49,0,0,0,799.82,168.85Z"/><path class="cls-40" d="M909.71,105.59c-7.34,8.46-37,9.7-57.21,8.07,8.39-.87,21.81-3.37,31.75-5.37a45.32,45.32,0,0,0,10.46.81C899.77,108.83,904.74,107.32,909.71,105.59Z"/><path class="cls-41" d="M1173.85,165.53a75.07,75.07,0,0,1-.93,8.38,80.91,80.91,0,0,1-24.64-8.38Z"/><path class="cls-13" d="M1147.66,204.52c-6.24,40.36-39,68.3-75.12,68.3q-3.32,0-6.71-.32a935.94,935.94,0,0,0-183.49,0c-38.68,3.72-75.18-25.14-81.81-68a77.57,77.57,0,0,1-.89-11.62c0-.79,0-1.58,0-2.37a77.8,77.8,0,0,1,70.13-74.68,1065.64,1065.64,0,0,1,208.57,0,77.82,77.82,0,0,1,70.13,74.7A75.82,75.82,0,0,1,1147.66,204.52Z"/><path class="cls-42" d="M1146.32,189.7a73.11,73.11,0,0,1-.85,9.61c-6.2,39.92-38.72,67.58-74.6,67.58q-3.33,0-6.71-.32a933.54,933.54,0,0,0-182.34,0c-38.43,3.7-74.71-24.87-81.29-67.26a74.85,74.85,0,0,1-.85-9.63,77.1,77.1,0,0,1,69.69-73.88,1063.19,1063.19,0,0,1,207.26,0A77.12,77.12,0,0,1,1146.32,189.7Z"/><path class="cls-43" d="M1141.16,184.81a59,59,0,0,1-.87,10c-6,35-37.48,59.24-72.21,59.24q-3.24,0-6.48-.28a1000.65,1000.65,0,0,0-176.52,0c-29.55,2.59-57.8-12.69-71.37-37.69a69,69,0,0,1-7.34-21.27,60.2,60.2,0,0,1-.87-10.05c0-33.33,28.15-63.39,67.51-66.88a1139.4,1139.4,0,0,1,200.64,0C1113.07,121.34,1141.2,151.46,1141.16,184.81Z"/><path class="cls-16" d="M1141.16,184.81a59,59,0,0,1-.87,10c-6,35-37.48,59.24-72.21,59.24q-3.24,0-6.48-.28a1000.65,1000.65,0,0,0-176.52,0c-29.55,2.59-57.8-12.69-71.37-37.69C920.12,245.46,1114.49,215.92,1141.16,184.81Z"/><ellipse class="cls-17" cx="887.34" cy="132.93" rx="22.15" ry="6.48"/><path class="cls-17" d="M852.48,139.76c.87,2.65-2.45,6.13-7.43,7.77s-9.72.81-10.59-1.84,2.45-6.13,7.43-7.77S851.6,137.1,852.48,139.76Z"/><text class="cls-44" transform="translate(826.23 204.92)">New game</text><text class="cls-45" transform="translate(824.84 202.78)">New game</text><text class="cls-44" transform="translate(850.61 551.38)">Continue</text><text class="cls-45" transform="translate(848.86 549.93)">Continue</text><text class="cls-44" transform="translate(833.42 881.41)">Exit game</text><text class="cls-45" transform="translate(832.47 879.27)">Exit game</text><path class="cls-46" d="M1744.43,983.34h.11a1.18,1.18,0,0,1,.87.37l64.46,69.24a1.18,1.18,0,0,1,.31.8,51,51,0,0,1-.3,5.71c-.52,4.47-1.62,6.63-3.46,6.82h-.14a1.14,1.14,0,0,1-.87-.33,1.19,1.19,0,0,1-.36-.86,18.39,18.39,0,0,0-1.86-7.09,39,39,0,0,0,1.86,11,1.16,1.16,0,0,1-.51,1.36,1.11,1.11,0,0,1-.49.17,1.14,1.14,0,0,1-1-.34c-2.7-2.66-3.83-6-4.92-9.26-.41-1.19-.82-2.41-1.31-3.61a18,18,0,0,1-2.51,5.63,1.15,1.15,0,0,1-.84.5,1.11,1.11,0,0,1-.51-.06,1.17,1.17,0,0,1-.79-1.19,12,12,0,0,0-.52-3.2,31.34,31.34,0,0,1-.24,3.21,1.19,1.19,0,0,1-1,1h-.09a1.17,1.17,0,0,1-1.19-1c-.73-3.81-3.34-7-5-8.67a32.48,32.48,0,0,1-3.53,7.53,1.21,1.21,0,0,1-.87.54,1.24,1.24,0,0,1-.76-.19,1.19,1.19,0,0,1-.36-1.62c.07-.11,1.54-2.66-.72-6.53-.57,2.74.39,7.81,1.49,11.24a1.18,1.18,0,0,1-.67,1.45,1.35,1.35,0,0,1-.33.09,1.2,1.2,0,0,1-1.17-.63c-.09-.17-2.13-4.09-6.74-14.82-1.15,2.14-.06,5.52,0,5.56a1.19,1.19,0,0,1-.73,1.49l-.27.06a1.18,1.18,0,0,1-1.23-.75,30.41,30.41,0,0,1-1.38-9.4,17.28,17.28,0,0,1-8.61,4.14,5.56,5.56,0,0,1-3.94-.89,1.17,1.17,0,0,1-.47-1.16,1.18,1.18,0,0,1,.82-.93,6.79,6.79,0,0,0,4.52-3.61c1.3-2.78.68-6.36.08-8.55-1.36,1.87-3.32,5.05-3.62,8.2a1.18,1.18,0,0,1-.92,1l-.13,0a1.16,1.16,0,0,1-1.14-.58c-1.93-3.27-1.34-8.61-.6-12.22-2.77,2.72-6.07,6.73-6.12,10a1.17,1.17,0,0,1-.81,1.11,1,1,0,0,1-.25,0,1.19,1.19,0,0,1-1.06-.46c-5.37-7.14-2-15,.63-19.26a24.08,24.08,0,0,1-4.24.85c-3.17.33-5.75-.2-7.67-1.57a1.18,1.18,0,0,1,.57-2.13c2.22-.23,4.8-2.57,7-5.18a21.89,21.89,0,0,1-5.22,2.41l-.21,0a1.15,1.15,0,0,1-.7-.15,1.17,1.17,0,0,1-.56-.74,3.4,3.4,0,0,1,0-1.58,43.52,43.52,0,0,0-3,6,1.18,1.18,0,0,1-1,.72h-.09a1.18,1.18,0,0,1-1.1-.68c-3.33-7.16,1.63-17.14,4.48-21.9a37.72,37.72,0,0,1-5.49,1c-3.76.39-6.49-.12-8.12-1.52a1.18,1.18,0,0,1,.65-2.07,1,1,0,0,1,.35,0,6.92,6.92,0,0,0,2,.07c8.41-.87,20.67-14.24,20.79-14.38A1.23,1.23,0,0,1,1744.43,983.34Z"/><path class="cls-2" d="M1741,999.46s-9.22,12.91-5.47,21c4.94-11.88,12.84-15.95,12.84-15.95s-8.93,9.14-8.17,12.18c5-1.45,9.9-6.31,9.9-6.31s-5.94,10.33-11.09,10.86c4.56,3.26,12.94-.69,12.94-.69s-9.2,10-2.62,18.79c.08-5.53,8.4-12,8.4-12s-2.94,9.18-.42,13.47c.45-4.76,4.68-9.42,4.68-9.42s4.82,11.36-4.2,14.08c3.31,2.42,10.94-2.71,11.7-5.07-.29,7.31,1.14,11.06,1.14,11.06s-1.74-5.18,1.38-7.21c4.61,10.81,6.63,14.66,6.63,14.66s-3.12-9.75-.47-12.46c3.92,5,1.68,8.49,1.68,8.49s3-4.58,3.4-8.2c0,0,5.11,4,6.17,9.6,0,0,.93-6.76-1.08-10.45,4.11,6.72,3.86,10.65,3.86,10.65s3.64-5.21,1.81-9c3.81,5.19,3.46,11.24,7.62,15.35-2.66-8.49-1.44-14-1.44-14s3.55,5.81,3.5,10.2c2.57-.11,2.48-10.17,2.48-10.17l-57.69-62s-13.42,14.73-21.39,13.12C1730.67,1003.07,1741,999.46,1741,999.46Z"/><path class="cls-47" d="M1805.38,1040a.52.52,0,0,0,0-.11,1.19,1.19,0,0,1,.56-.77l81.75-47.61a1.22,1.22,0,0,1,.84-.13,53,53,0,0,1,5.51,1.56c4.24,1.49,6.11,3,5.89,4.87,0,.05,0,.1,0,.14a1.21,1.21,0,0,1-.52.78,1.19,1.19,0,0,1-.92.16,18.49,18.49,0,0,0-7.32.25,38.44,38.44,0,0,0,11.12.6,1.2,1.2,0,0,1,1.22.8,1.32,1.32,0,0,1,0,.52,1.19,1.19,0,0,1-.54.86c-3.2,2-6.71,2.4-10.11,2.75-1.26.13-2.54.26-3.82.48a17.8,17.8,0,0,1,4.94,3.69,1.16,1.16,0,0,1,.3.93,1.11,1.11,0,0,1-.17.49,1.19,1.19,0,0,1-1.33.51,11.76,11.76,0,0,0-3.24-.2,29.44,29.44,0,0,1,3.08.94,1.19,1.19,0,0,1,.76,1.25s0,.06,0,.09a1.19,1.19,0,0,1-1.2.95c-3.89-.14-7.54,1.71-9.56,3a32.19,32.19,0,0,1,6.56,5.1,1.19,1.19,0,0,1,.33,1,1.25,1.25,0,0,1-.34.7,1.19,1.19,0,0,1-1.67,0c-.09-.09-2.25-2.08-6.53-.73,2.55,1.15,7.71,1.33,11.3,1a1.18,1.18,0,0,1,1.26,1,1.38,1.38,0,0,1,0,.35,1.17,1.17,0,0,1-.87,1c-.18,0-4.45,1.18-15.94,3.31,1.84,1.59,5.38,1.27,5.42,1.26a1.19,1.19,0,0,1,1.29,1,1.31,1.31,0,0,1,0,.28,1.18,1.18,0,0,1-1,1,30.9,30.9,0,0,1-9.48-.73,17.21,17.21,0,0,1,2.14,9.31,5.51,5.51,0,0,1-1.74,3.66,1.18,1.18,0,0,1-2-.81,6.78,6.78,0,0,0-2.53-5.2c-2.43-1.89-6.05-2.07-8.32-2,1.52,1.74,4.19,4.36,7.2,5.34a1.19,1.19,0,0,1,.81,1.13.57.57,0,0,1,0,.13,1.19,1.19,0,0,1-.81,1c-3.62,1.15-8.7-.6-12.06-2.11,2,3.3,5.23,7.4,8.43,8.17a1.18,1.18,0,0,1,.9,1,1,1,0,0,1,0,.25,1.19,1.19,0,0,1-.69.93c-8.14,3.67-15.06-1.3-18.65-4.86a24.53,24.53,0,0,1-.1,4.33c-.38,3.17-1.46,5.56-3.22,7.13a1.18,1.18,0,0,1-1.33.16,1.16,1.16,0,0,1-.63-1.18c.27-2.22-1.44-5.25-3.5-8a22.45,22.45,0,0,1,1.2,5.62,1.48,1.48,0,0,1,0,.21,1.17,1.17,0,0,1-1.14,1,3.42,3.42,0,0,1-1.54-.38,44.4,44.4,0,0,0,5.14,4.26,1.16,1.16,0,0,1,.49,1.1s0,.06,0,.1a1.18,1.18,0,0,1-.91.91c-7.72,1.67-16.36-5.37-20.38-9.19a37.67,37.67,0,0,1-.21,5.58c-.45,3.75-1.55,6.3-3.27,7.58a1.18,1.18,0,0,1-1.88-1.09,1.1,1.1,0,0,1,.1-.34,6.5,6.5,0,0,0,.5-1.93c1-8.4-9.33-23.3-9.43-23.45A1.2,1.2,0,0,1,1805.38,1040Z"/><path class="cls-2" d="M1820.35,1046.86s10.57,11.84,19.25,10c-10.5-7.43-12.72-16-12.72-16s6.94,10.73,10.08,10.66c-.32-5.21-4-11-4-11s8.76,8.07,8.15,13.21c4.19-3.73,2.18-12.77,2.18-12.77s7.77,11.19,17.75,6.69c-5.38-1.29-9.87-10.83-9.87-10.83s8.31,4.88,13,3.37c-4.55-1.49-8.16-6.64-8.16-6.64s12.14-2.19,12.81,7.2c3.09-2.69-.24-11.27-2.37-12.53,7.06,1.9,11,1.32,11,1.32s-5.44.56-6.73-2.93c11.56-2.11,15.77-3.23,15.77-3.23s-10.2.89-12.26-2.29c5.7-2.73,8.65.23,8.65.23s-3.82-3.91-7.25-5.12c0,0,5-4.1,10.72-3.91,0,0-6.39-2.39-10.43-1.25,7.46-2.52,11.24-1.42,11.24-1.42s-4.28-4.69-8.4-3.75c5.9-2.57,11.72-.89,16.66-4-8.88.73-14-1.67-14-1.67s6.44-2.19,10.72-1.17c.46-2.53-9.37-4.66-9.37-4.66l-73.17,42.61s11.42,16.34,8.09,23.76C1821.59,1057.77,1820.35,1046.86,1820.35,1046.86Z"/><path class="cls-48" d="M1744.43,957.67h.11a1.15,1.15,0,0,0,.87-.38l64.46-69.23a1.18,1.18,0,0,0,.31-.8,51,51,0,0,0-.3-5.71c-.52-4.47-1.62-6.64-3.46-6.83h-.14a1.2,1.2,0,0,0-1.23,1.2,18.39,18.39,0,0,1-1.86,7.09,39,39,0,0,1,1.86-11,1.16,1.16,0,0,0-.51-1.36,1.11,1.11,0,0,0-.49-.17,1.17,1.17,0,0,0-1,.33c-2.7,2.67-3.83,6-4.92,9.26-.41,1.2-.82,2.42-1.31,3.62a18,18,0,0,0-2.51-5.63,1.15,1.15,0,0,0-.84-.5,1.11,1.11,0,0,0-.51.06,1.17,1.17,0,0,0-.79,1.19,12,12,0,0,1-.52,3.2,31,31,0,0,0-.24-3.21,1.19,1.19,0,0,0-1-1h-.09a1.18,1.18,0,0,0-1.19,1c-.73,3.82-3.34,7-5,8.68a32.48,32.48,0,0,0-3.53-7.53,1.18,1.18,0,0,0-.87-.54,1.23,1.23,0,0,0-.76.18,1.2,1.2,0,0,0-.36,1.63c.07.11,1.54,2.66-.72,6.53-.57-2.74.39-7.81,1.49-11.24a1.17,1.17,0,0,0-.67-1.45,1.35,1.35,0,0,0-.33-.09,1.2,1.2,0,0,0-1.17.63c-.09.17-2.13,4.08-6.74,14.82-1.15-2.15-.06-5.52,0-5.57a1.18,1.18,0,0,0-.73-1.48l-.27-.06a1.18,1.18,0,0,0-1.23.75,30.41,30.41,0,0,0-1.38,9.4,17.28,17.28,0,0,0-8.61-4.14,5.56,5.56,0,0,0-3.94.89,1.16,1.16,0,0,0-.47,1.15,1.18,1.18,0,0,0,.82.94,6.76,6.76,0,0,1,4.52,3.61c1.3,2.78.68,6.36.08,8.55-1.36-1.87-3.32-5-3.62-8.2a1.18,1.18,0,0,0-.92-1l-.13,0a1.17,1.17,0,0,0-1.14.57c-1.93,3.28-1.34,8.62-.6,12.23-2.77-2.72-6.07-6.73-6.12-10a1.17,1.17,0,0,0-.81-1.11,1,1,0,0,0-.25-.05,1.19,1.19,0,0,0-1.06.46c-5.37,7.13-2,15,.63,19.26a24.08,24.08,0,0,0-4.24-.85c-3.17-.33-5.75.2-7.67,1.57a1.18,1.18,0,0,0,.57,2.13c2.22.23,4.8,2.57,7,5.18a21.89,21.89,0,0,0-5.22-2.41l-.21,0a1.08,1.08,0,0,0-.7.15,1.18,1.18,0,0,0-.56.73,3.44,3.44,0,0,0,0,1.59,43.52,43.52,0,0,1-3-6,1.17,1.17,0,0,0-1-.72h-.09a1.19,1.19,0,0,0-1.1.69c-3.33,7.16,1.63,17.14,4.48,21.9a37.72,37.72,0,0,0-5.49-1c-3.76-.39-6.49.12-8.12,1.52a1.18,1.18,0,0,0,.65,2.07,1,1,0,0,0,.35,0,6.92,6.92,0,0,1,2-.07c8.41.87,20.67,14.24,20.79,14.37A1.18,1.18,0,0,0,1744.43,957.67Z"/><path class="cls-2" d="M1741,941.56s-9.22-12.91-5.47-21c4.94,11.88,12.84,15.95,12.84,15.95s-8.93-9.14-8.17-12.19c5,1.46,9.9,6.32,9.9,6.32s-5.94-10.33-11.09-10.86c4.56-3.26,12.94.69,12.94.69s-9.2-10-2.62-18.79c.08,5.53,8.4,12,8.4,12s-2.94-9.18-.42-13.47c.45,4.76,4.68,9.42,4.68,9.42s4.82-11.37-4.2-14.08c3.31-2.42,10.94,2.71,11.7,5.07-.29-7.31,1.14-11.06,1.14-11.06s-1.74,5.18,1.38,7.21c4.61-10.81,6.63-14.66,6.63-14.66s-3.12,9.74-.47,12.45c3.92-5,1.68-8.48,1.68-8.48s3,4.58,3.4,8.2c0,0,5.11-4,6.17-9.6,0,0,.93,6.76-1.08,10.45,4.11-6.73,3.86-10.65,3.86-10.65s3.64,5.21,1.81,9c3.81-5.19,3.46-11.24,7.62-15.36-2.66,8.5-1.44,14-1.44,14s3.55-5.81,3.5-10.2c2.57.1,2.48,10.17,2.48,10.17l-57.69,62s-13.42-14.74-21.39-13.12C1730.67,938,1741,941.56,1741,941.56Z"/><path class="cls-49" d="M1805.38,901a.43.43,0,0,1,0,.11,1.22,1.22,0,0,0,.56.77l81.75,47.6a1.17,1.17,0,0,0,.84.14,53,53,0,0,0,5.51-1.56c4.24-1.49,6.11-3,5.89-4.87,0-.05,0-.1,0-.15a1.21,1.21,0,0,0-.52-.77,1.15,1.15,0,0,0-.92-.16,18.68,18.68,0,0,1-7.32-.25,38.44,38.44,0,0,1,11.12-.6,1.2,1.2,0,0,0,1.22-.8,1.34,1.34,0,0,0,0-.52,1.19,1.19,0,0,0-.54-.86c-3.2-2-6.71-2.4-10.11-2.75-1.26-.13-2.54-.27-3.82-.48a17.8,17.8,0,0,0,4.94-3.69,1.16,1.16,0,0,0,.3-.93,1.11,1.11,0,0,0-.17-.49,1.17,1.17,0,0,0-1.33-.51,11.76,11.76,0,0,1-3.24.2,29.44,29.44,0,0,0,3.08-.94,1.19,1.19,0,0,0,.76-1.25s0-.06,0-.09a1.19,1.19,0,0,0-1.2-.95c-3.89.13-7.54-1.71-9.56-3a32.57,32.57,0,0,0,6.56-5.1,1.2,1.2,0,0,0,.33-1,1.25,1.25,0,0,0-.34-.7,1.19,1.19,0,0,0-1.67,0c-.09.09-2.25,2.08-6.53.73,2.55-1.15,7.71-1.34,11.3-1a1.18,1.18,0,0,0,1.26-1,1.38,1.38,0,0,0,0-.35,1.17,1.17,0,0,0-.87-1c-.18,0-4.45-1.18-15.94-3.31,1.84-1.59,5.38-1.27,5.42-1.26a1.19,1.19,0,0,0,1.29-1,1.31,1.31,0,0,0,0-.28,1.18,1.18,0,0,0-1-1,30.51,30.51,0,0,0-9.48.73,17.21,17.21,0,0,0,2.14-9.31,5.51,5.51,0,0,0-1.74-3.66,1.18,1.18,0,0,0-1.22-.2,1.17,1.17,0,0,0-.73,1,6.78,6.78,0,0,1-2.53,5.2c-2.43,1.89-6.05,2.07-8.32,2,1.52-1.74,4.19-4.36,7.2-5.34a1.19,1.19,0,0,0,.81-1.13.57.57,0,0,0,0-.13,1.18,1.18,0,0,0-.81-1c-3.62-1.15-8.7.6-12.06,2.11,2-3.3,5.23-7.4,8.43-8.17a1.19,1.19,0,0,0,.9-1,1,1,0,0,0,0-.25,1.22,1.22,0,0,0-.69-.94c-8.14-3.66-15.06,1.31-18.65,4.86a24.43,24.43,0,0,0-.1-4.32c-.38-3.17-1.46-5.57-3.22-7.13a1.19,1.19,0,0,0-2,1c.27,2.22-1.44,5.25-3.5,8a22.54,22.54,0,0,0,1.2-5.62,1.48,1.48,0,0,0,0-.21,1.15,1.15,0,0,0-.3-.66,1.18,1.18,0,0,0-.84-.38,3.42,3.42,0,0,0-1.54.38,44.4,44.4,0,0,1,5.14-4.26,1.16,1.16,0,0,0,.49-1.1s0-.07,0-.1a1.17,1.17,0,0,0-.91-.91c-7.72-1.67-16.36,5.37-20.38,9.19a37.67,37.67,0,0,0-.21-5.58c-.45-3.75-1.55-6.3-3.27-7.58a1.18,1.18,0,0,0-1.88,1.09,1.1,1.1,0,0,0,.1.34,6.5,6.5,0,0,1,.5,1.93c1,8.4-9.33,23.3-9.43,23.45A1.2,1.2,0,0,0,1805.38,901Z"/><path class="cls-2" d="M1820.35,894.16s10.57-11.84,19.25-10c-10.5,7.43-12.72,16-12.72,16s6.94-10.72,10.08-10.65c-.32,5.21-4,11-4,11s8.76-8.08,8.15-13.21c4.19,3.73,2.18,12.77,2.18,12.77s7.77-11.19,17.75-6.69c-5.38,1.29-9.87,10.83-9.87,10.83s8.31-4.88,13-3.37c-4.55,1.49-8.16,6.64-8.16,6.64s12.14,2.19,12.81-7.2c3.09,2.69-.24,11.27-2.37,12.53,7.06-1.9,11-1.32,11-1.32s-5.44-.56-6.73,2.93c11.56,2.11,15.77,3.23,15.77,3.23s-10.2-.89-12.26,2.29c5.7,2.73,8.65-.23,8.65-.23s-3.82,3.91-7.25,5.12c0,0,5,4.1,10.72,3.91,0,0-6.39,2.39-10.43,1.25,7.46,2.52,11.24,1.42,11.24,1.42s-4.28,4.69-8.4,3.75c5.9,2.57,11.72.89,16.66,4-8.88-.72-14,1.68-14,1.68s6.44,2.19,10.72,1.17c.46,2.53-9.37,4.66-9.37,4.66l-73.17-42.61s11.42-16.34,8.09-23.76C1821.59,883.25,1820.35,894.16,1820.35,894.16Z"/><path class="cls-50" d="M1899.71,966.8c0,7.51-8.17,13.85-10,20.78-1.92,7.17,1.93,16.74-1.7,23s-13.93,7.79-19.1,13-6.59,15.41-13,19.1-15.85-.22-23,1.7c-6.93,1.85-13.27,10-20.78,10s-13.86-8.17-20.79-10c-7.17-1.92-16.73,1.93-23-1.7s-7.79-13.93-13-19.1-15.41-6.6-19.1-13,.22-15.85-1.7-23c-1.85-6.93-10-13.27-10-20.78s8.17-13.86,10-20.79c1.92-7.17-1.93-16.73,1.7-23s13.93-7.8,19.1-13,6.59-15.41,13-19.1,15.84.22,23-1.7c6.93-1.85,13.27-10,20.79-10s13.85,8.17,20.78,10c7.17,1.92,16.74-1.93,23,1.7s7.79,13.93,13,19.1,15.41,6.59,19.1,13-.22,15.84,1.7,23C1891.54,952.94,1899.71,959.28,1899.71,966.8Z"/><path class="cls-51" d="M1895.33,962.42a12,12,0,0,1-1,4.64,32,32,0,0,1-3.18,5.58c-2.13,3.17-4.46,6.27-5.32,9.52-1.19,4.44-.06,9.83-.07,14.71a14.28,14.28,0,0,1-1.55,7.16,10.19,10.19,0,0,1-1.27,1.72c-4.18,4.64-12.47,6.19-16.87,10.59-4.91,4.91-6.26,14.64-12.31,18.14s-15-.21-21.87,1.62c-6.58,1.75-12.6,9.51-19.74,9.51s-13.16-7.76-19.75-9.51c-6.81-1.83-15.89,1.83-21.86-1.62s-7.4-13.23-12.32-18.14-14.63-6.27-18.14-12.31c-.13-.24-.26-.48-.38-.73a15,15,0,0,1-1.16-6.24c0-4.93,1.13-10.41-.07-14.9-1.76-6.58-9.52-12.6-9.52-19.74s7.76-13.16,9.52-19.75c1.82-6.81-1.84-15.9,1.61-21.86s13.24-7.41,18.14-12.32,6.27-14.64,12.32-18.14,15,.21,21.86-1.61c6.59-1.76,12.61-9.52,19.75-9.52s13.16,7.76,19.74,9.52c6.82,1.82,15.9-1.84,21.87,1.61s7.32,12.7,11.91,17.72a5.33,5.33,0,0,0,.4.42c3.53,3.53,9.53,5.22,13.94,8.14a12.81,12.81,0,0,1,4.2,4.18c3.45,6-.2,15.05,1.62,21.86C1887.57,949.26,1895.33,955.28,1895.33,962.42Z"/><path class="cls-52" d="M1884.08,981c-1.8,6.73,1.82,15.72-1.6,21.62s-13.08,7.33-17.94,12.18-6.19,14.48-12.17,17.94-14.89-.2-21.63,1.6c-6.51,1.74-12.47,9.42-19.52,9.42s-13-7.68-19.53-9.42c-6.74-1.8-15.73,1.81-21.62-1.6s-7.33-13.08-12.18-17.94-14.49-6.2-18-12.18.21-14.89-1.59-21.62c-1.75-6.51-9.42-12.47-9.42-19.53,0-3.66,2.07-7,4.3-10.33a55,55,0,0,0,4.18-6.7,15.8,15.8,0,0,0,.94-2.49c1.8-6.74-1.82-15.73,1.59-21.63s13.09-7.32,18-12.18,6.19-14.48,12.18-17.94,14.88.21,21.62-1.59c6.51-1.75,12.46-9.42,19.53-9.42s13,7.67,19.52,9.42c6.74,1.8,15.72-1.82,21.63,1.59,5.7,3.31,7.19,12.22,11.54,17.25a8.3,8.3,0,0,0,.64.69c3.48,3.49,9.41,5.16,13.76,8a12.6,12.6,0,0,1,4.17,4.14c3.42,5.9-.2,14.89,1.6,21.63,1.74,6.5,9.42,12.46,9.42,19.52S1885.82,974.52,1884.08,981Z"/><path class="cls-53" d="M1768.72,948c-11.59,1.86-26,2.75-35.49,3.17a55,55,0,0,0,4.18-6.7,296.48,296.48,0,0,0,31,.43A1.56,1.56,0,0,1,1768.72,948Z"/><path class="cls-54" d="M1894.31,967.06a32,32,0,0,1-3.18,5.58c-88.59,2.52-131.69,18.89-151.45,30.66a15,15,0,0,1-1.16-6.24c1.44-1.7,3-3.54,4.77-5.56C1792.24,972.44,1868.37,968,1894.31,967.06Z"/><path class="cls-55" d="M1885.74,996.87a14.28,14.28,0,0,1-1.55,7.16,10.19,10.19,0,0,1-1.27,1.72c-8.55,2.2-30.41,7.45-51.47,9.53a1.16,1.16,0,0,1-.32-2.29C1852.62,1009,1874.2,1001.35,1885.74,996.87Z"/><path class="cls-56" d="M1880,916.63c-11,2.91-42.3,10.59-69.27,10.7a1.38,1.38,0,0,1-.27-2.74c21.51-4,43.4-11.9,55.2-16.52a5.33,5.33,0,0,0,.4.42C1869.58,912,1875.58,913.71,1880,916.63Z"/><path class="cls-57" d="M1848,969.35V951.89h-7.24c-.14-.5-.29-1-.45-1.48a31.57,31.57,0,0,0-2.47-5.57l5.12-5.12-12.34-12.35-5.12,5.12a33.14,33.14,0,0,0-7-2.92v-7.24H1801v7.24a32.93,32.93,0,0,0-7,2.92l-5.12-5.12-12.35,12.35,5.12,5.12a32.63,32.63,0,0,0-2.92,7h-7.25v17.46h7.25a32.43,32.43,0,0,0,2.92,7l-5.12,5.12,5.32,5.32,7,7,5.12-5.12a31.94,31.94,0,0,0,7,2.92v7.25h17.46v-7.25a31.66,31.66,0,0,0,7-2.92l5.12,5.12L1843,981.52l-5.12-5.12a31.94,31.94,0,0,0,2.92-7Zm-38.29,7.89a11.91,11.91,0,0,1-1.46-.08,16.39,16.39,0,1,1,1.46.08Z"/><g class="cls-58"><path class="cls-2" d="M1840.77,969.35a31.94,31.94,0,0,1-2.92,7l5.12,5.12-12.34,12.34-5.12-5.12a31.66,31.66,0,0,1-7,2.92v7.25H1801v-7.25a31.94,31.94,0,0,1-7-2.92l-5.12,5.12-7-7a104.38,104.38,0,0,0,26.46-9.68,11.91,11.91,0,0,0,1.46.08,16.62,16.62,0,0,0,15.88-11.73,104.24,104.24,0,0,0,14.72-15.1c.16.48.31,1,.45,1.48H1848v17.46Z"/></g></svg>