<svg id="Capa_1" data-name="Capa 1" xmlns="http://www.w3.org/2000/svg" xmlns:xlink="http://www.w3.org/1999/xlink" viewBox="0 0 1920 1080"><defs><style>.cls-1{fill:url(#linear-gradient);}.cls-2{fill:#328164;}.cls-3{fill:url(#linear-gradient-2);}.cls-4{fill:url(#linear-gradient-3);}.cls-5{fill:url(#linear-gradient-4);}.cls-6{fill:url(#linear-gradient-5);}.cls-7{fill:url(#linear-gradient-6);}.cls-8{fill:url(#linear-gradient-7);}.cls-9{fill:url(#linear-gradient-8);}.cls-10{fill:#974515;opacity:0.2;}.cls-11{fill:url(#linear-gradient-9);}.cls-12{fill:url(#linear-gradient-10);}.cls-13{fill:url(#linear-gradient-11);}.cls-14{fill:url(#linear-gradient-12);}.cls-15{fill:url(#linear-gradient-13);}.cls-16{fill:url(#linear-gradient-14);}.cls-17{fill:url(#linear-gradient-15);}.cls-18,.cls-19{font-size:120px;font-family:PasseroOne-Regular, Passero One;}.cls-18{fill:#683c11;}.cls-19{fill:#fff;}.cls-20{fill:url(#linear-gradient-16);}.cls-21{fill:url(#linear-gradient-17);}.cls-22{fill:url(#linear-gradient-18);}.cls-23{fill:url(#linear-gradient-19);}.cls-24{fill:url(#linear-gradient-20);}.cls-25{fill:url(#linear-gradient-21);}.cls-26{fill:url(#linear-gradient-22);}.cls-27{fill:url(#linear-gradient-23);}.cls-28{fill:url(#linear-gradient-24);}.cls-29{fill:url(#linear-gradient-25);}.cls-30{fill:url(#linear-gradient-26);}.cls-31{fill:#e1eab8;}.cls-32{opacity:0.25;}</style><linearGradient id="linear-gradient" x1="448.2" y1="833.02" x2="721.7" y2="656.47" gradientUnits="userSpaceOnUse"><stop offset="0" stop-color="#97c449"/><stop offset="0.27" stop-color="#73ac53"/><stop offset="0.58" stop-color="#50955c"/><stop offset="0.83" stop-color="#3a8662"/><stop offset="1" stop-color="#328164"/></linearGradient><linearGradient id="linear-gradient-2" x1="414.68" y1="384.85" x2="640.5" y2="361.71" xlink:href="#linear-gradient"/><linearGradient id="linear-gradient-3" x1="1755.53" y1="833.02" x2="2029.03" y2="656.47" gradientTransform="matrix(-1, 0, 0, 1, 3231.9, 0)" xlink:href="#linear-gradient"/><linearGradient id="linear-gradient-4" x1="1722.01" y1="384.85" x2="1947.83" y2="361.71" gradientTransform="matrix(-1, 0, 0, 1, 3231.9, 0)" xlink:href="#linear-gradient"/><linearGradient id="linear-gradient-5" x1="964.71" y1="886.24" x2="967.11" y2="726.45" xlink:href="#linear-gradient"/><linearGradient id="linear-gradient-6" x1="767.95" y1="-22.61" x2="1011.04" y2="593.06" gradientUnits="userSpaceOnUse"><stop offset="0" stop-color="#f6a45c"/><stop offset="0.22" stop-color="#c78046"/><stop offset="0.47" stop-color="#965b2f"/><stop offset="0.7" stop-color="#72401f"/><stop offset="0.88" stop-color="#5c2f15"/><stop offset="1" stop-color="#542911"/></linearGradient><linearGradient id="linear-gradient-7" x1="1128.62" y1="907" x2="877.8" y2="227.81" gradientUnits="userSpaceOnUse"><stop offset="0" stop-color="#f6a45c"/><stop offset="0.38" stop-color="#cd7b3d"/><stop offset="0.79" stop-color="#a65420"/><stop offset="1" stop-color="#974515"/></linearGradient><linearGradient id="linear-gradient-8" x1="881.11" y1="223.35" x2="1136.82" y2="961.18" xlink:href="#linear-gradient-7"/><linearGradient id="linear-gradient-9" x1="1296.96" y1="412.41" x2="1293.91" y2="479.6" gradientUnits="userSpaceOnUse"><stop offset="0.38" stop-color="#974515"/><stop offset="0.4" stop-color="#9b4918"/><stop offset="0.5" stop-color="#b86528"/></linearGradient><linearGradient id="linear-gradient-10" x1="967.46" y1="617.41" x2="968.28" y2="650.8" xlink:href="#linear-gradient-9"/><linearGradient id="linear-gradient-11" x1="885.77" y1="719.97" x2="884.14" y2="742.78" xlink:href="#linear-gradient-9"/><linearGradient id="linear-gradient-12" x1="646.17" y1="474.92" x2="643.73" y2="497.31" xlink:href="#linear-gradient-9"/><linearGradient id="linear-gradient-13" x1="1010.82" y1="534.22" x2="1008.38" y2="595.91" xlink:href="#linear-gradient-9"/><linearGradient id="linear-gradient-14" x1="864.13" y1="335.28" x2="858.43" y2="381.7" xlink:href="#linear-gradient-9"/><linearGradient id="linear-gradient-15" x1="1198.55" y1="288.4" x2="1198.55" y2="306.11" xlink:href="#linear-gradient-9"/><linearGradient id="linear-gradient-16" x1="748.78" y1="-1476.71" x2="838.61" y2="-1485.91" gradientTransform="matrix(0.57, -0.82, 0.82, 0.57, 816.38, 2529.49)" xlink:href="#linear-gradient"/><linearGradient id="linear-gradient-17" x1="4404.1" y1="-1745.74" x2="4493.92" y2="-1754.95" gradientTransform="matrix(-0.67, -0.74, 0.74, -0.67, 4434.78, 3144.15)" xlink:href="#linear-gradient"/><linearGradient id="linear-gradient-18" x1="1915.14" y1="-2292.62" x2="2004.97" y2="-2301.82" gradientTransform="matrix(0.57, 0.82, 0.82, -0.57, 816.38, -2009.17)" xlink:href="#linear-gradient"/><linearGradient id="linear-gradient-19" x1="5457.03" y1="-788.04" x2="5546.85" y2="-797.24" gradientTransform="matrix(-0.67, 0.74, 0.74, 0.67, 4434.78, -2623.83)" xlink:href="#linear-gradient"/><linearGradient id="linear-gradient-20" x1="86.72" y1="929" x2="141.28" y2="1052.97" xlink:href="#linear-gradient-6"/><linearGradient id="linear-gradient-21" x1="236.86" y1="1065.15" x2="68.85" y2="936.99" xlink:href="#linear-gradient-7"/><linearGradient id="linear-gradient-22" x1="80.69" y1="917.82" x2="142.7" y2="1042.8" xlink:href="#linear-gradient-7"/><linearGradient id="linear-gradient-23" x1="42.95" y1="943.42" x2="43.9" y2="956.1" xlink:href="#linear-gradient-9"/><linearGradient id="linear-gradient-24" x1="106.64" y1="972.17" x2="109.04" y2="990.12" xlink:href="#linear-gradient-9"/><linearGradient id="linear-gradient-25" x1="149.21" y1="1004.41" x2="152.11" y2="1017.07" xlink:href="#linear-gradient-9"/><linearGradient id="linear-gradient-26" x1="134.41" y1="912.79" x2="138" y2="930.03" xlink:href="#linear-gradient-9"/></defs><path class="cls-1" d="M554.6,636.14l.25,0a2.59,2.59,0,0,1,1.71,1.19L665.49,814.78a2.55,2.55,0,0,1,.33,1.85,114,114,0,0,1-3.15,12.2c-3.06,9.4-6.37,13.6-10.42,13.21l-.31,0a2.59,2.59,0,0,1-2.13-3.11c1.05-4.88.19-11.1-.92-16.1a84.63,84.63,0,0,0-.76,24.5,2.6,2.6,0,0,1-1.7,2.71,2.59,2.59,0,0,1-3-1c-4.65-6.93-5.63-14.65-6.58-22.12-.35-2.76-.7-5.55-1.24-8.36a40.24,40.24,0,0,1-7.86,11.06,2.58,2.58,0,0,1-2.05.7,2.46,2.46,0,0,1-1.07-.35,2.6,2.6,0,0,1-1.19-2.9,26.31,26.31,0,0,0,.27-7.13c-.88,3.83-1.82,6.55-1.91,6.82a2.6,2.6,0,0,1-2.7,1.73l-.2,0a2.6,2.6,0,0,1-2.16-2.58c.1-8.56-4.15-16.5-7-20.89-3.88,7.5-10.55,14.37-10.88,14.71a2.6,2.6,0,0,1-3.67.05,2.6,2.6,0,0,1-.07-3.67c.19-.2,4.47-5.06,1.28-14.39-2.42,5.65-2.55,17-1.68,24.89a2.61,2.61,0,0,1-2.07,2.84,2.8,2.8,0,0,1-.76,0,2.6,2.6,0,0,1-2.24-1.86c-.12-.4-2.83-9.74-8.1-34.9-3.42,4.12-2.52,11.89-2.51,12a2.6,2.6,0,0,1-5.14.75c-.06-.35-1.23-7.71,1.1-20.88-5.73,3.29-14,5.8-20.37,5.19a12.16,12.16,0,0,1-8.12-3.65,2.59,2.59,0,0,1,1.67-4.33c5-.48,8.75-2.39,11.32-5.85,4-5.42,4.24-13.41,3.89-18.39-3.73,3.43-9.36,9.44-11.37,16.11a2.6,2.6,0,0,1-2.44,1.84,1.51,1.51,0,0,1-.3,0,2.59,2.59,0,0,1-2.2-1.74c-2.73-7.9.87-19.17,4-26.63-7.16,4.66-16,11.87-17.55,19a2.58,2.58,0,0,1-2.24,2,2.53,2.53,0,0,1-.55,0,2.58,2.58,0,0,1-2.09-1.47c-8.49-17.72,2.1-33.19,9.73-41.27a54,54,0,0,1-9.52,0c-7-.67-12.32-2.93-15.85-6.72a2.6,2.6,0,0,1,2.15-4.36c4.9.47,11.47-3.45,17.35-8.13a48.18,48.18,0,0,1-12.3,2.93,1.85,1.85,0,0,1-.47,0,2.57,2.57,0,0,1-1.46-.63,2.6,2.6,0,0,1-.88-1.83,7.67,7.67,0,0,1,.75-3.4,95.8,95.8,0,0,0-9.1,11.53,2.59,2.59,0,0,1-2.4,1.14l-.21,0a2.61,2.61,0,0,1-2.07-2c-4.07-16.91,11-36.28,19.18-45.3a85.59,85.59,0,0,1-12.28-.19c-8.27-.8-13.94-3.09-16.85-6.81a2.6,2.6,0,0,1,2.3-4.19,2.92,2.92,0,0,1,.76.19,14.77,14.77,0,0,0,4.27,1c18.54,1.78,50.79-21.73,51.12-22A2.61,2.61,0,0,1,554.6,636.14Z"/><path class="cls-2" d="M539.85,669.46s-25.58,23.93-21,43c15.87-23.55,34.74-28.91,34.74-28.91s-23.31,15.89-23,22.8c11.48-1,24.16-9.34,24.16-9.34s-17.36,19.75-28.73,18.65c8.45,9.06,28.31,4.17,28.31,4.17s-24.3,17.72-13.87,39.51C543.06,747.41,563.9,737,563.9,737s-10.36,18.58-6.78,29c3-10.1,14.23-18.34,14.23-18.34s5.47,26.69-15.22,28.64c6.09,6.68,24.85-1.1,27.52-5.86-3.82,15.67-2.35,24.41-2.35,24.41s-1.51-12,6.13-15c5.25,25.42,8,34.63,8,34.63s-2.5-22.45,4.41-27.16c6.32,12.43,0,19.09,0,19.09s8.43-8.61,10.92-16.26c0,0,9.3,10.94,9.17,23.47,0,0,4.95-14.22,2.22-23.08,6,16.34,3.71,24.72,3.71,24.72s10.15-9.69,7.85-18.73c6,12.9,2.58,25.83,9.79,36.56-2.06-19.55,3-30.89,3-30.89s5.17,14.11,3.14,23.59c5.61.9,9.8-20.91,9.8-20.91l-97.8-159.29s-35.46,26-52,19.06C515.86,672.75,539.85,669.46,539.85,669.46Z"/><path class="cls-3" d="M590.33,264.06a1.3,1.3,0,0,1,.18.23,2.93,2.93,0,0,1,.48,2.33L541.25,499.19a3,3,0,0,1-1.18,1.79,129.47,129.47,0,0,1-12.22,7.6c-9.94,5.37-16,6.23-19,2.72a3.11,3.11,0,0,1-.23-.28,3,3,0,0,1,.69-4.25c4.71-3.21,8.91-9,11.93-14a97,97,0,0,0-19.94,19.67,3,3,0,0,1-3.54.9,3.05,3.05,0,0,1-1.06-.77,3,3,0,0,1-.68-2.45c1.61-9.4,6.89-16.55,12-23.48,1.88-2.55,3.8-5.15,5.56-7.9a45.62,45.62,0,0,1-15.21,3,3,3,0,0,1-2.25-1,2.92,2.92,0,0,1-.61-1.14,3,3,0,0,1,1.31-3.34,29.83,29.83,0,0,0,5.84-5.68c-3.76,2.47-6.67,4-7,4.13a3,3,0,0,1-3.6-.69l-.14-.18a3,3,0,0,1,.26-3.84c6.81-7,9.56-16.92,10.64-22.81-9.12,3.14-20.05,3.56-20.59,3.58a2.94,2.94,0,0,1-2.35-1,2.87,2.87,0,0,1-.72-1.82,3,3,0,0,1,2.83-3.08c.32,0,7.68-.67,12.4-10.9-6.46,2.77-15.52,12.06-21,19.27a3,3,0,0,1-3.95.71,3,3,0,0,1-.66-.57,3,3,0,0,1-.39-3.3c.22-.43,5.34-10.28,20.81-35.25-6.07.72-11.45,7.85-11.52,7.94a3,3,0,0,1-4.1.65,3.48,3.48,0,0,1-.53-.48,3,3,0,0,1-.21-3.61c.23-.34,5.06-7.34,17.37-16.39-7.33-1.81-16.12-6.21-20.93-11.77-2.62-3-3.92-6.2-3.85-9.42a3,3,0,0,1,4.81-2.26c4.55,3.58,9.11,4.92,14,4.08,7.6-1.31,14.08-7.74,17.71-12.14-5.79-.11-15.18.43-22.09,4.36a3,3,0,0,1-3.47-.4,1.81,1.81,0,0,1-.24-.24,3,3,0,0,1-.46-3.18c4-8.68,15.83-15.16,24.32-18.85-9.59-1.8-22.61-2.81-29.46,1.84a2.94,2.94,0,0,1-3.45-.08,3.12,3.12,0,0,1-.46-.43,3,3,0,0,1-.58-2.86c6.95-21.35,27.91-25.8,40.59-26.46a60.78,60.78,0,0,1-7.88-7.51c-5.25-6.06-7.87-12.13-7.81-18a3,3,0,0,1,5.21-1.91c3.68,4.24,12.21,6.18,20.75,7a55.31,55.31,0,0,1-12.48-7.27,3.32,3.32,0,0,1-.38-.37,3,3,0,0,1,0-3.89,8.9,8.9,0,0,1,3.3-2.22,110.72,110.72,0,0,0-16.61,2.37,3,3,0,0,1-2.88-.95,1.25,1.25,0,0,1-.15-.19,3,3,0,0,1-.18-3.25c10-17.18,37.67-21.34,51.57-22.34a96.38,96.38,0,0,1-10-9.84c-6.21-7.17-9.09-13.53-8.56-18.9a3,3,0,0,1,5.2-1.66,3.12,3.12,0,0,1,.47.76,16.67,16.67,0,0,0,2.73,4.21C542.81,257,588,263,588.47,263.06A2.94,2.94,0,0,1,590.33,264.06Z"/><path class="cls-2" d="M552.25,280.29s-39.89-.39-51.09,18.95c31.59-6.95,51.36,3.46,51.36,3.46s-31.71-5.22-36.87.74c10.23,8.22,27.26,11.28,27.26,11.28s-29.83,2.64-38.34-7.19c-.15,14.11,20.07,25.67,20.07,25.67s-34-4.48-42.48,21.69c11.5-7.82,36.85,0,36.85,0s-23.14,7.18-28.34,18.55c10.44-5.93,26.14-3.93,26.14-3.93s-16.46,26.29-35,11.64c-.23,10.29,21.35,18.63,27.3,16.79-15.47,9.92-21.13,18.28-21.13,18.28s8.16-11.05,16.84-7.55c-15.64,25.08-20.66,34.8-20.66,34.8s15.59-20.48,25-18.94c-4.56,15.23-15.05,15.71-15.05,15.71s13.72-.48,21.78-4.82c0,0-.92,16.32-10.88,26.55,0,0,15.26-7.83,20-17.28C517,462.8,508.55,468,508.55,468s16,0,21.19-9.29C524.53,474,511.57,482,509.08,496.51c13.67-17.74,26.73-23.13,26.73-23.13S529,489.07,519.86,495.3c3.92,5.15,24.51-9.54,24.51-9.54L588.9,277.59s-49.69-6.4-57.87-25.15C529.88,264.14,552.25,280.29,552.25,280.29Z"/><path class="cls-4" d="M1370,636.14l-.25,0a2.59,2.59,0,0,0-1.72,1.19L1259.09,814.78a2.6,2.6,0,0,0-.34,1.85,114,114,0,0,0,3.15,12.2c3.06,9.4,6.37,13.6,10.42,13.21l.31,0a2.59,2.59,0,0,0,2.13-3.11c-1-4.88-.19-11.1.92-16.1a84.63,84.63,0,0,1,.76,24.5,2.6,2.6,0,0,0,1.7,2.71,2.59,2.59,0,0,0,3-1c4.65-6.93,5.63-14.65,6.58-22.12.35-2.76.71-5.55,1.25-8.36a40.08,40.08,0,0,0,7.85,11.06,2.58,2.58,0,0,0,2.05.7,2.46,2.46,0,0,0,1.07-.35,2.58,2.58,0,0,0,1.19-2.9,26.31,26.31,0,0,1-.27-7.13c.89,3.83,1.82,6.55,1.91,6.82a2.61,2.61,0,0,0,2.71,1.73l.19,0a2.6,2.6,0,0,0,2.16-2.58c-.09-8.56,4.15-16.5,7-20.89a71,71,0,0,0,10.89,14.71,2.61,2.61,0,0,0,2.1.77,2.65,2.65,0,0,0,1.56-.72,2.6,2.6,0,0,0,.07-3.67c-.19-.2-4.47-5.06-1.28-14.39,2.42,5.65,2.55,17,1.68,24.89a2.61,2.61,0,0,0,2.07,2.84,2.8,2.8,0,0,0,.76,0,2.62,2.62,0,0,0,2.25-1.86c.11-.4,2.82-9.74,8.1-34.9,3.41,4.12,2.51,11.89,2.5,12a2.6,2.6,0,0,0,5.14.75c.06-.35,1.23-7.71-1.1-20.88,5.73,3.29,14,5.8,20.37,5.19a12.16,12.16,0,0,0,8.12-3.65,2.59,2.59,0,0,0-1.67-4.33c-5-.48-8.75-2.39-11.32-5.85-4-5.42-4.24-13.41-3.89-18.39,3.73,3.43,9.36,9.44,11.37,16.11a2.61,2.61,0,0,0,2.44,1.84,1.51,1.51,0,0,0,.3,0,2.59,2.59,0,0,0,2.2-1.74c2.73-7.9-.87-19.17-4-26.63,7.16,4.66,16,11.87,17.55,19a2.59,2.59,0,0,0,2.24,2,2.53,2.53,0,0,0,.55,0,2.61,2.61,0,0,0,2.1-1.47c8.48-17.72-2.11-33.19-9.74-41.27a54,54,0,0,0,9.52,0c7-.67,12.32-2.93,15.85-6.72a2.6,2.6,0,0,0-2.15-4.36c-4.89.47-11.47-3.45-17.35-8.13a48.18,48.18,0,0,0,12.3,2.93,1.85,1.85,0,0,0,.47,0,2.57,2.57,0,0,0,1.46-.63,2.65,2.65,0,0,0,.89-1.83,7.81,7.81,0,0,0-.75-3.4,96.78,96.78,0,0,1,9.09,11.53,2.59,2.59,0,0,0,2.4,1.14l.21,0a2.61,2.61,0,0,0,2.07-2c4.07-16.91-11-36.28-19.18-45.3a85.75,85.75,0,0,0,12.29-.19c8.26-.8,13.93-3.09,16.84-6.81a2.6,2.6,0,0,0-2.3-4.19,2.92,2.92,0,0,0-.76.19,14.77,14.77,0,0,1-4.27,1c-18.53,1.78-50.79-21.73-51.12-22A2.58,2.58,0,0,0,1370,636.14Z"/><path class="cls-2" d="M1384.72,669.46s25.58,23.93,21,43c-15.86-23.55-34.74-28.91-34.74-28.91s23.32,15.89,23,22.8c-11.49-1-24.17-9.34-24.17-9.34s17.36,19.75,28.73,18.65c-8.45,9.06-28.3,4.17-28.3,4.17s24.3,17.72,13.86,39.51c-2.57-11.93-23.4-22.34-23.4-22.34s10.35,18.58,6.77,29c-3-10.1-14.23-18.34-14.23-18.34s-5.47,26.69,15.22,28.64c-6.09,6.68-24.85-1.1-27.52-5.86,3.82,15.67,2.35,24.41,2.35,24.41s1.51-12-6.12-15c-5.26,25.42-8,34.63-8,34.63s2.49-22.45-4.41-27.16c-6.33,12.43,0,19.09,0,19.09s-8.42-8.61-10.92-16.26c0,0-9.3,10.94-9.17,23.47,0,0-5-14.22-2.22-23.08-6,16.34-3.71,24.72-3.71,24.72s-10.15-9.69-7.85-18.73c-6,12.9-2.58,25.83-9.79,36.56,2.06-19.55-3-30.89-3-30.89s-5.17,14.11-3.14,23.59c-5.61.9-9.8-20.91-9.8-20.91l97.8-159.29s35.46,26,52,19.06C1408.72,672.75,1384.72,669.46,1384.72,669.46Z"/><path class="cls-5" d="M1334.24,264.06l-.18.23a3,3,0,0,0-.48,2.33l49.75,232.57a2.92,2.92,0,0,0,1.18,1.79,127.12,127.12,0,0,0,12.21,7.6c10,5.37,16,6.23,19,2.72a3.11,3.11,0,0,0,.23-.28,3,3,0,0,0-.69-4.25c-4.71-3.21-8.91-9-11.93-14a97,97,0,0,1,19.94,19.67,3,3,0,0,0,5.28-2.32c-1.61-9.4-6.89-16.55-12-23.48-1.88-2.55-3.79-5.15-5.56-7.9a45.66,45.66,0,0,0,15.21,3,3,3,0,0,0,2.25-1,3.08,3.08,0,0,0,.62-1.14,3,3,0,0,0-1.31-3.34,29.67,29.67,0,0,1-5.85-5.68c3.76,2.47,6.67,4,7,4.13a3,3,0,0,0,3.6-.69l.14-.18a3,3,0,0,0-.26-3.84c-6.81-7-9.56-16.92-10.64-22.81,9.12,3.14,20,3.56,20.6,3.58a3,3,0,0,0,.24-5.93c-.33,0-7.69-.67-12.41-10.9,6.46,2.77,15.52,12.06,21,19.27a3,3,0,0,0,4,.71,3,3,0,0,0,.66-.57,3,3,0,0,0,.39-3.3c-.22-.43-5.34-10.28-20.81-35.25,6.07.72,11.45,7.85,11.52,7.94a3,3,0,0,0,4.1.65,3.06,3.06,0,0,0,.53-.48,3,3,0,0,0,.21-3.61c-.23-.34-5.06-7.34-17.37-16.39,7.33-1.81,16.12-6.21,20.93-11.77,2.63-3,3.92-6.2,3.85-9.42a3,3,0,0,0-4.81-2.26c-4.55,3.58-9.11,4.92-14,4.08-7.6-1.31-14.08-7.74-17.71-12.14,5.79-.11,15.18.43,22.09,4.36a3,3,0,0,0,3.47-.4,1.81,1.81,0,0,0,.24-.24,3,3,0,0,0,.46-3.18c-4-8.68-15.83-15.16-24.31-18.85,9.58-1.8,22.6-2.81,29.45,1.84a2.94,2.94,0,0,0,3.45-.08,2.69,2.69,0,0,0,.46-.43,3,3,0,0,0,.58-2.86c-7-21.35-27.9-25.8-40.59-26.46a60.78,60.78,0,0,0,7.88-7.51c5.25-6.06,7.87-12.13,7.81-18a3,3,0,0,0-5.21-1.91c-3.68,4.24-12.21,6.18-20.75,7a55.09,55.09,0,0,0,12.48-7.27,2.67,2.67,0,0,0,.38-.37,2.89,2.89,0,0,0,.71-1.68,2.93,2.93,0,0,0-.71-2.21,8.9,8.9,0,0,0-3.3-2.22,110.72,110.72,0,0,1,16.61,2.37,2.94,2.94,0,0,0,2.88-.95c.06-.06.11-.13.16-.19a3,3,0,0,0,.17-3.25c-10-17.18-37.67-21.34-51.57-22.34a97.4,97.4,0,0,0,10-9.84c6.2-7.17,9.08-13.53,8.56-18.9a3,3,0,0,0-5.2-1.66,2.87,2.87,0,0,0-.48.76,16.67,16.67,0,0,1-2.73,4.21c-13.92,16.09-59.12,22.07-59.58,22.13A2.94,2.94,0,0,0,1334.24,264.06Z"/><path class="cls-2" d="M1372.32,280.29s39.89-.39,51.09,18.95c-31.59-6.95-51.35,3.46-51.35,3.46s31.7-5.22,36.86.74c-10.23,8.22-27.26,11.28-27.26,11.28s29.83,2.64,38.34-7.19c.15,14.11-20.07,25.67-20.07,25.67s34-4.48,42.49,21.69c-11.51-7.82-36.86,0-36.86,0s23.14,7.18,28.34,18.55c-10.44-5.93-26.14-3.93-26.14-3.93s16.46,26.29,35,11.64c.23,10.29-21.35,18.63-27.29,16.79,15.46,9.92,21.12,18.28,21.12,18.28s-8.16-11.05-16.84-7.55c15.64,25.08,20.66,34.8,20.66,34.8s-15.59-20.48-25-18.94c4.55,15.23,15,15.71,15,15.71s-13.72-.48-21.78-4.82c0,0,.92,16.32,10.88,26.55,0,0-15.26-7.83-20-17.28C1407.58,462.8,1416,468,1416,468s-16,0-21.19-9.29C1400,474,1413,482,1415.49,496.51c-13.67-17.74-26.73-23.13-26.73-23.13s6.83,15.69,16,21.92c-3.92,5.15-24.51-9.54-24.51-9.54l-44.53-208.17s49.7-6.4,57.87-25.15C1394.69,264.14,1372.32,280.29,1372.32,280.29Z"/><path class="cls-6" d="M853,752.4l.19-.2a2.79,2.79,0,0,1,2.09-.76l222.15,14.31a2.74,2.74,0,0,1,1.82.84,123.05,123.05,0,0,1,8.71,10.27c6.33,8.48,8,14,5.11,17.26-.07.08-.14.17-.22.25a2.82,2.82,0,0,1-2,.83,2.76,2.76,0,0,1-2-.89c-3.62-3.92-9.59-7-14.64-9.13A90.92,90.92,0,0,0,1095.12,801a2.77,2.77,0,0,1,1.32,3.16,2.76,2.76,0,0,1-2.74,2c-8.93-.21-16.27-4.11-23.38-7.89-2.62-1.4-5.29-2.81-8.07-4.07a42.85,42.85,0,0,1,4.81,13.68,2.79,2.79,0,0,1-.65,2.23,2.71,2.71,0,0,1-1,.72,2.78,2.78,0,0,1-3.27-.76,27.41,27.41,0,0,0-6.06-4.63,74.85,74.85,0,0,1,4.78,5.88,2.77,2.77,0,0,1-.15,3.42l-.15.16a2.78,2.78,0,0,1-3.59.28c-7.41-5.35-17-6.54-22.57-6.74,4.15,8,6,18.08,6.12,18.59a2.79,2.79,0,0,1-2.21,3.23,2.78,2.78,0,0,1-3.25-2.2c-.06-.3-1.66-7-11.78-10,3.45,5.6,13.29,12.73,20.71,16.82a2.79,2.79,0,0,1,1.2,3.56,3,3,0,0,1-.44.69,2.78,2.78,0,0,1-3,.81c-.42-.14-10.25-3.54-35.48-14.45,1.5,5.52,8.84,9.53,8.93,9.58a2.77,2.77,0,0,1,1.16,3.71,2.65,2.65,0,0,1-.37.55,2.77,2.77,0,0,1-3.31.69c-.35-.17-7.5-3.68-17.56-13.85-.66,7-3.54,15.78-8,21a13,13,0,0,1-8.2,4.85,2.78,2.78,0,0,1-2.75-4.15c2.7-4.7,3.31-9.11,1.87-13.48-2.25-6.86-9.09-12-13.65-14.75.68,5.38,2.46,14,7,19.87a2.78,2.78,0,0,1,.11,3.27,2.35,2.35,0,0,1-.19.25,2.79,2.79,0,0,1-2.88.86c-8.58-2.5-16.21-12.59-20.78-19.94-.35,9.12.49,21.31,5.73,27a2.77,2.77,0,0,1,.4,3.21,3.21,3.21,0,0,1-.34.48,2.78,2.78,0,0,1-2.57.93c-20.72-3.52-27.7-22.32-30-34a56.91,56.91,0,0,1-5.87,8.32c-4.89,5.69-10.16,8.95-15.64,9.69a2.77,2.77,0,0,1-2.48-4.56c3.43-4,4.06-12.15,3.6-20.16a51.19,51.19,0,0,1-5,12.54,2,2,0,0,1-.29.41,2.77,2.77,0,0,1-3.6.53,8.21,8.21,0,0,1-2.5-2.75,102,102,0,0,0,4.46,15.05,2.79,2.79,0,0,1-.49,2.8,1.29,1.29,0,0,1-.16.17,2.77,2.77,0,0,1-3,.6c-17.28-6.87-24.92-32-27.74-44.7a90.83,90.83,0,0,1-7.74,10.62c-5.8,6.73-11.29,10.27-16.34,10.51a2.78,2.78,0,0,1-2.24-4.59,2.59,2.59,0,0,1,.64-.54,15.94,15.94,0,0,0,3.53-3.1c13-15.09,12.36-57.77,12.35-58.19A2.77,2.77,0,0,1,853,752.4Z"/><path class="cls-2" d="M874.6,783.05s5,36.28,24,43.87c-10.54-27.76-3.73-47.11-3.73-47.11s-.5,29.49,5.61,33.38c6.1-10.39,6.6-26.27,6.6-26.27s6.39,26.74-1.4,35.78C918.56,821,926.35,801,926.35,801s.48,31.45,25.39,35.68c-8.64-9.4-5-33.46-5-33.46s9.63,20,20.65,23.25c-6.79-8.69-7.08-23.22-7.08-23.22s26.09,11.43,15.28,30.28c9.37-1.17,14-21.89,11.59-27,11.08,12.71,19.43,16.73,19.43,16.73s-11.13-5.92-9.11-14.27c24.87,10.84,34.37,14.09,34.37,14.09s-20.69-11.41-20.54-20.15c14.43,2.1,16.28,11.56,16.28,11.56s-2.28-12.39-7.3-19.13c0,0,14.94-1.35,25.56,6.32,0,0-9.15-12.81-18.36-15.82,17.54,4.77,23.35,11.74,23.35,11.74s-2.16-14.51-11.27-18c14.62,2.67,23.62,13.37,37.13,13.69-17.94-10-24.59-21.18-24.59-21.18s15.17,4.11,22,11.55c4.15-4.24-12-21-12-21l-195-12.56s.84,46-15.09,55.92C862.93,805.53,874.6,783.05,874.6,783.05Z"/><path class="cls-7" d="M1397.66,394.66c-1.74,15.72,17.41,33.74,15.68,49.47S1389,473.26,1387.25,489s17.42,33.74,15.68,49.47-24.36,29.13-26.1,44.85,17.42,33.74,15.69,49.46-24.36,29.13-26.09,44.85,17.41,33.74,15.68,49.46-24.37,29.13-26.1,44.85c0,.39-.08.79-.1,1.2-1.45,24.15-24.84,40.37-47.77,32.68a53.17,53.17,0,0,0-12-2.72c-22.06-2-45.86,17.09-68,15.47s-42.84-24-65-25.23-45.21,18.76-67.33,18-43.71-22.42-65.85-22.83-44.48,20.4-66.63,20.4-44.48-20.81-66.63-20.4-43.71,22-65.84,22.83-45.22-19.17-67.33-18-42.87,23.61-65,25.23-45.9-17.5-68-15.47a53.05,53.05,0,0,0-12,2.72c-22.94,7.69-46.32-8.53-47.78-32.68,0-.41,0-.81-.1-1.2-1.73-15.72-24.35-29.13-26.09-44.85s17.42-33.74,15.68-49.46-24.36-29.13-26.1-44.85S551.68,599,550,583.29s-24.36-29.13-26.09-44.85,17.41-33.75,15.68-49.47-24.36-29.13-26.1-44.84,17.42-33.75,15.68-49.47S504.77,365.53,503,349.81s17.42-33.74,15.68-49.46c-.08-.78-.22-1.59-.38-2.41-5-24.28,16.38-45.63,40.78-42.15a1.32,1.32,0,0,1,.33.05,3.62,3.62,0,0,1,.46.06,82.53,82.53,0,0,0,20.61,1.17,53.76,53.76,0,0,0,8.28-1.44l.38-.1a98.33,98.33,0,0,0,16.76-6.31c16.39-7.65,32.54-18.18,49.46-19.42a51.06,51.06,0,0,1,7.82,0h0l.49,0c23,2,46.91,17.21,69.73,16a53,53,0,0,0,8-1.08c.22,0,.43-.08.64-.14,7.66-1.66,15.25-4.8,22.83-8.24,14.71-6.67,29.37-14.5,44.37-15,1.12-.05,2.23-.05,3.35,0h.79c24.28,1.17,49,19.31,73.28,18.87a67.05,67.05,0,0,0,19.64-3.74c17.68-5.77,35.31-16.35,53-17.8.57,0,1.14-.09,1.71-.11l1.56-.06h.74c.77,0,1.54,0,2.3.07.57,0,1.15.07,1.72.11,17.72,1.45,35.34,12,53,17.8q3.54,1.17,7.08,2a58.84,58.84,0,0,0,12.56,1.71c23.88.44,48.24-17.14,72.16-18.8l1.13-.07h0c1.38,0,2.75-.07,4.12,0,18.08.65,35.69,11.91,53.49,18.95a88.13,88.13,0,0,0,14,4.39l.39.08a53.36,53.36,0,0,0,8,1.08c22.33,1.24,45.69-13.34,68.27-15.81.49-.06,1-.11,1.47-.14a50.39,50.39,0,0,1,8.33-.09c19.13,1.41,37.28,14.68,55.9,22.24a81.34,81.34,0,0,0,9.86,3.36l.84.23a53.42,53.42,0,0,0,8.27,1.44,80.16,80.16,0,0,0,19.35-1l1.26-.2a3.78,3.78,0,0,1,.47-.06c24.52-3.71,46.07,17.71,41.1,42.1-.16.82-.29,1.63-.38,2.41-1.73,15.72,17.42,33.75,15.69,49.46S1399.39,379,1397.66,394.66Z"/><path class="cls-8" d="M1379.52,387.31c-1.47,13.33,12.74,28.4,14.88,42.13a20.74,20.74,0,0,1,.16,5.27c-1,8.85-8.87,16.94-15.55,25.17-4.68,5.76-8.77,11.59-9.46,17.8-1.67,15.06,16.69,32.34,15,47.4a20.42,20.42,0,0,1-1.4,5.32c-3,7.45-10,14.48-15.58,21.63-4.06,5.19-7.42,10.45-8,16-1.66,15.06,16.69,32.33,15,47.4s-23.34,27.91-25,43,16.69,32.34,15,47.4-23.34,27.91-25,43c0,.38-.08.76-.1,1.15-1.39,23.14-23.8,38.69-45.78,31.31a51.75,51.75,0,0,0-11.53-2.6c-21.13-1.94-43.94,16.38-65.11,14.83s-41.06-23-62.24-24.18-43.32,18-64.53,17.2-41.87-21.49-63.09-21.88-42.63,19.55-63.85,19.55-42.63-19.94-63.85-19.55-41.88,21.1-63.09,21.88-43.33-18.36-64.52-17.2-41.08,22.62-62.25,24.18-44-16.77-65.11-14.83a51.87,51.87,0,0,0-11.53,2.6,34.71,34.71,0,0,1-45.66-29.93.13.13,0,0,1,0-.06c0-.44-.08-.87-.11-1.32s0-.77-.1-1.15-.08-.64-.13-1a0,0,0,0,1,0,0c-2.46-14.64-23.24-27.25-24.86-42,0-.42-.07-.83-.09-1.25h0c-.18-4.53,1.33-9.27,3.47-14.06,1-2.25,2.14-4.5,3.31-6.77,4.42-8.62,9.23-17.28,8.34-25.31,0-.36-.09-.7-.15-1a0,0,0,0,0,0,0c-2.54-14.6-23.23-27.2-24.85-41.89q-.06-.62-.09-1.23v0c-.27-6.75,3.23-13.94,6.93-21.14,4.38-8.51,9.07-17.06,8.19-25,0-.33-.08-.65-.13-1-2.45-14.66-23.25-27.27-24.87-42-.05-.4-.07-.79-.09-1.19-.55-12.9,12.59-27.3,14.88-40.5a20,20,0,0,0,.23-5.71c0-.28-.07-.57-.11-.85-2.37-14.7-23.27-27.35-24.89-42.12-.05-.47-.08-.93-.09-1.39-.47-14.73,16.73-31.41,15.12-46,0-.35-.09-.71-.15-1.06-2.53-14.61-23.23-27.21-24.86-41.92a18.57,18.57,0,0,1-.11-2.24V342c.3-14.5,16.71-30.75,15.14-45,0-.46-.11-.92-.2-1.39l-.15-.84c0-.1,0-.22-.07-.33-.09-.48-.18-1-.25-1.46-2.56-16.8,7.9-31.84,22.83-37.07a35,35,0,0,1,17.32-1.5,98.5,98.5,0,0,0,12,1.29,53.16,53.16,0,0,0,21-3.16c18.09-6.15,35.59-19.44,53.93-22.58,1.51-.26,3-.45,4.53-.56a50.34,50.34,0,0,1,6.5,0l.66.05c19,1.35,38.52,12.35,57.55,14.91l.42.06a54.83,54.83,0,0,0,8.07.45c.54,0,1.08,0,1.61-.06,7.51-.41,14.93-2.69,22.31-5.68,16-6.45,31.82-16.24,48-17.67h0c.76-.06,1.53-.11,2.3-.14.55,0,1.11,0,1.66,0h.17c22.57.09,45.57,16.48,68.18,18H886c1.31.09,2.64.12,4,.1a60.82,60.82,0,0,0,16.43-2.84c17.68-5.3,35.31-16.28,53-17.8.57,0,1.14-.09,1.71-.11l1.56-.06h.74c.77,0,1.54,0,2.3.07.57,0,1.15.07,1.72.11,17.72,1.52,35.34,12.5,53,17.8a62.74,62.74,0,0,0,14.75,2.77h0c.54,0,1.09.06,1.64.07,23.62.43,47.76-17.57,71.42-18.13h.18c.87,0,1.73,0,2.59,0s1.53.08,2.3.14h0c19.33,1.71,38.13,15.29,57.27,21a57.06,57.06,0,0,0,12.66,2.38l.41,0,1.61.06c22.7.47,46.44-15.27,69.18-15.55q2,0,4,.12c1.52.11,3,.3,4.54.56,20.8,3.57,40.53,20.19,61.27,24.65a50.37,50.37,0,0,0,6,.93l1,.07a58,58,0,0,0,6.74.09,98.71,98.71,0,0,0,12-1.29,35.63,35.63,0,0,1,5.87-.47,34.9,34.9,0,0,1,11.45,2,34.51,34.51,0,0,1,22.94,27.85,33.44,33.44,0,0,1-.42,10.93c-.16.79-.28,1.56-.37,2.31a21.78,21.78,0,0,0,.54,7.19c3,13.21,15.9,27.5,14.5,40.21C1402.87,359.39,1381.19,372.24,1379.52,387.31Z"/><path class="cls-9" d="M1376.7,386.75c-1.42,13,12,27.55,14.64,41a18.39,18.39,0,0,1,.29,1.91c0,.2,0,.41.07.61s0,.6.07.92,0,.56,0,.84a19.34,19.34,0,0,1-.11,2c0,.28-.07.56-.12.84s-.07.43-.11.66-.08.4-.14.59-.08.35-.12.53-.1.37-.16.55a23.39,23.39,0,0,1-1.19,3.2c-.08.17-.16.35-.25.52a32.66,32.66,0,0,1-1.6,2.95c-.16.27-.33.54-.5.8-.61,1-1.29,1.95-2,2.91-.25.35-.5.69-.76,1-2.78,3.7-6,7.34-9,11-.85,1-1.66,2.09-2.44,3.15-.21.28-.41.56-.62.83a46.64,46.64,0,0,0-3.18,5c-.13.22-.24.44-.35.66s-.23.46-.34.68c-.33.67-.62,1.36-.88,2-.09.24-.17.48-.25.72s-.16.44-.22.66-.14.46-.2.69-.13.46-.17.69-.11.45-.14.67a14.13,14.13,0,0,0-.22,1.43c-1.66,15,16.63,32.23,15,47.23a16.45,16.45,0,0,1-.36,2.1l-.12.52c0,.17-.09.35-.15.52a23.82,23.82,0,0,1-1.2,3.23l-.39.83-.32.61q-.56,1.07-1.2,2.13c-.2.33-.41.66-.62,1a84.81,84.81,0,0,1-6.11,8.11l-.89,1.08c-.57.68-1.15,1.36-1.71,2.05l-.87,1-.15.17-1,1.21-.08.1c-.36.43-.7.86-1,1.29h0c-.34.44-.69.87-1,1.32l0,.07c-.36.46-.71.93-1.06,1.39h0c-1.1,1.48-2.12,3-3,4.49q-.45.78-.87,1.56c-.23.42-.44.85-.64,1.28l-.24.53a14.69,14.69,0,0,0-.57,1.37c-.09.22-.17.43-.24.65l0,.08c-.07.21-.14.42-.2.63-.14.47-.27.93-.37,1.39a5.25,5.25,0,0,0-.13.57c0,.21-.08.42-.11.64s-.09.58-.13.89c-1.56,14.19,14.7,30.36,15.08,44.76a18.49,18.49,0,0,1-.1,2.47c-.73,6.59-5.3,12.76-10.34,18.89-6.45,7.8-13.65,15.54-14.58,24-1.65,15,16.64,32.22,15,47.24s-23.27,27.83-24.93,42.84c0,.37-.07.75-.1,1.14-1.38,23.06-23.71,38.57-45.62,31.21a51.3,51.3,0,0,0-11.49-2.6c-21.07-1.93-43.8,16.33-64.89,14.79s-40.93-23-62-24.1-43.17,17.92-64.31,17.14-41.73-21.42-62.88-21.81-42.49,19.49-63.64,19.49-42.49-19.87-63.64-19.49-41.74,21-62.88,21.81-43.19-18.3-64.31-17.14-41,22.54-62.05,24.1-43.82-16.72-64.89-14.79a51.42,51.42,0,0,0-11.49,2.6,34.76,34.76,0,0,1-12.15,1.83c-.22,0-.43,0-.66,0-.85-.05-1.7-.12-2.55-.22-.51-.07-1-.14-1.52-.23-.27,0-.54-.09-.8-.15l-.48-.1c-.23,0-.45-.09-.68-.15-.4-.09-.81-.19-1.21-.3a5.61,5.61,0,0,1-.62-.18c-.37-.1-.74-.22-1.11-.34l-.72-.25-.72-.26c-.47-.18-.93-.36-1.4-.57a35.08,35.08,0,0,1-4.7-2.47l-.53-.34a35.31,35.31,0,0,1-7-6.07c-.32-.36-.64-.74-.95-1.12-.16-.2-.33-.4-.48-.61s-.31-.41-.46-.61-.31-.42-.45-.62-.28-.4-.42-.6c-.44-.65-.86-1.32-1.26-2-.13-.22-.26-.45-.38-.68s-.25-.45-.37-.68-.24-.46-.35-.7c-.24-.47-.46-.94-.67-1.42-.32-.72-.61-1.45-.89-2.2h0a37.43,37.43,0,0,1-1.15-3.86l-.18-.79c-.11-.53-.21-1.07-.31-1.61,0-.25-.08-.5-.11-.76a.13.13,0,0,1,0-.06c-.07-.43-.13-.86-.17-1.3,0-.14,0-.28-.05-.42,0-.46-.08-.9-.1-1.35l0-.39c0-.25,0-.5-.07-.75a18.29,18.29,0,0,0-.74-3.48c-.13-.44-.28-.89-.45-1.33a29.41,29.41,0,0,0-2-4.1c-.24-.42-.48-.84-.74-1.26a.14.14,0,0,1-.05-.08l-.8-1.24c-1.32-2-2.81-3.92-4.38-5.88-.17-.21-.35-.42-.52-.65l-.54-.64c-.21-.27-.43-.54-.65-.8-1.81-2.18-3.66-4.35-5.4-6.54-.18-.21-.35-.43-.52-.65-1.2-1.52-2.35-3.06-3.38-4.61-.15-.22-.29-.44-.43-.66s-.18-.28-.26-.41l-.35-.55c-.08-.12-.15-.25-.22-.38s-.27-.44-.39-.67a27.57,27.57,0,0,1-2.09-4.45c-.08-.22-.15-.43-.22-.65a20.33,20.33,0,0,1-.7-2.79c0-.2-.06-.4-.09-.59,0,0,0,0,0-.07h0c0-.12,0-.24,0-.35-.48-4.38.72-8.94,2.65-13.58.92-2.22,2-4.45,3.13-6.69,2.8-5.55,5.93-11.14,7.75-16.58.09-.26.17-.51.25-.77v0c.2-.67.39-1.34.55-2,0-.19.1-.39.14-.58a21.5,21.5,0,0,0,.52-6.64c0-.13,0-.24,0-.37-.06-.47-.13-.94-.22-1.4s-.19-.92-.32-1.39c-.06-.23-.13-.46-.2-.69-.17-.55-.37-1.11-.59-1.66-.13-.35-.28-.71-.44-1.06-.42-.94-.9-1.88-1.43-2.81-.11-.19-.22-.38-.34-.57s-.26-.42-.39-.65-.26-.4-.38-.61c-3.14-4.88-7.47-9.64-11.35-14.44l-.84-1.05a50.16,50.16,0,0,1-6.65-10.29l-.3-.69a22,22,0,0,1-.92-2.66c0-.14-.08-.29-.11-.44a15.93,15.93,0,0,1-.34-1.64c0-.17-.05-.34-.07-.51l0-.19v0s0,0,0-.06c-.74-6.78,2.59-14,6.31-21.3,4.46-8.75,9.5-17.58,8.69-25.75,0-.06,0-.12,0-.18-1.65-15-23.26-27.83-24.92-42.85,0-.06,0-.11,0-.17-1.27-12.82,11.85-27.24,14.61-40.52a20.74,20.74,0,0,0,.39-6.54c-.55-4.94-3.24-9.63-6.67-14.23-7-9.43-17.14-18.53-18.26-28.6,0-.23,0-.46-.05-.68-1.06-14.85,16.67-31.78,15-46.57,0-.17,0-.33-.06-.5-2.07-14.8-23.22-27.49-24.86-42.33-.06-.61-.1-1.22-.11-1.83V342c0-14.55,16.67-30.93,15.09-45.3-.05-.37-.09-.75-.15-1.13l-.15-.84c0-.1,0-.22-.07-.33-.09-.48-.18-1-.25-1.46-2.69-16.76,7.66-31.81,22.5-37.12a35,35,0,0,1,17.47-1.57,96.64,96.64,0,0,0,12.59,1.31,53.26,53.26,0,0,0,20.44-3.21h0c18-6.15,35.37-19.33,53.59-22.47h0c1.51-.26,3-.44,4.54-.56a49.27,49.27,0,0,1,7,0l.66.05c19,1.52,38.54,12.58,57.55,14.91l.42.06a52,52,0,0,0,8.71.31h.24c7.74-.42,15.37-2.84,23-6,15.74-6.47,31.34-16,47.33-17.32.71-.07,1.41-.11,2.12-.14.88,0,1.75,0,2.63,0h.17c22.58.55,45.6,17,68.18,18H886c.91,0,1.83.05,2.74,0,24.47-.45,48.77-20.75,73.24-20.75h.72c21.68.35,43.2,16.31,64.85,20a50.93,50.93,0,0,0,7.67.74h0c24.17.41,48.88-18.51,73.06-18.06h.83c1,0,2.07.12,3.11.22,19.67,2.06,38.79,16.21,58.34,21.38a55.45,55.45,0,0,0,11,1.82c.58,0,1.17,0,1.76.06h1.63c22.88-.37,46.77-16.34,69.57-15.47.53,0,1.06,0,1.6.08a44.66,44.66,0,0,1,5.49.74c21.14,4,41.19,21.23,62.37,24.82,1.21.22,2.43.38,3.66.49s2.4.18,3.63.2a58.65,58.65,0,0,0,5.9-.14,98.92,98.92,0,0,0,10.14-1.18,35.18,35.18,0,0,1,8.6-.35,34.71,34.71,0,0,1,31.59,30.07,33,33,0,0,1-.47,10.43c-.16.79-.29,1.56-.38,2.3a22,22,0,0,0,.61,7.48c3.16,13.08,15.77,27.2,14.37,39.77C1400,358.93,1378.36,371.74,1376.7,386.75Z"/><path class="cls-10" d="M1366.76,476.83c-1.66,15,16.63,32.23,15,47.23s-23.26,27.83-24.92,42.85c-1.56,14.19,14.7,30.36,15.08,44.76a18.49,18.49,0,0,1-.1,2.47c-.73,6.59-5.3,12.76-10.34,18.89-6.45,7.8-13.65,15.54-14.58,24-1.65,15,16.64,32.22,15,47.24s-23.27,27.83-24.93,42.84c0,.37-.07.75-.1,1.14-1.38,23.06-23.71,38.57-45.62,31.21a51.3,51.3,0,0,0-11.49-2.6c-21.07-1.93-43.8,16.33-64.89,14.79s-40.93-23-62-24.1-43.17,17.92-64.31,17.14-41.73-21.42-62.88-21.81-42.49,19.49-63.64,19.49-42.49-19.87-63.64-19.49-41.74,21-62.88,21.81-43.19-18.3-64.31-17.14-41,22.54-62.05,24.1-43.82-16.72-64.89-14.79a51.42,51.42,0,0,0-11.49,2.6c-21.91,7.36-44.25-8.15-45.63-31.21,0-.39-.06-.77-.1-1.14-1.65-15-23.26-27.83-24.92-42.84-.48-4.38.72-8.94,2.65-13.58.92-2.22,2-4.45,3.13-6.69,4.62-9.17,10.14-18.42,9.2-27-1.66-15-23.27-27.82-24.93-42.84-.74-6.78,2.59-14,6.31-21.3C628.26,617.61,720.44,683,911.67,674.1c214.88-10,197.49-138.28,479.67-246.39a20.62,20.62,0,0,1,.34,6.29C1390,449,1368.42,461.81,1366.76,476.83Z"/><path class="cls-11" d="M1394.56,434.71c-1,8.85-8.87,16.94-15.55,25.17-62.29-5.32-135.86-13.57-179.86-25.24a2.34,2.34,0,0,1,.74-4.59,1614.28,1614.28,0,0,0,194.51-.61A20.74,20.74,0,0,1,1394.56,434.71Z"/><path class="cls-12" d="M1371.89,611.67a18.49,18.49,0,0,1-.1,2.47c-.73,6.59-5.3,12.76-10.34,18.89-87.12.78-331,2.8-388.1,1.68-109.09-2.13-297.18,38.76-408.67,55.93.92-2.22,2-4.45,3.13-6.69,82.3-16.24,308.43-58.59,443.16-61.68C1158.45,618.87,1323,613.35,1371.89,611.67Z"/><path class="cls-13" d="M758.47,717.26s136.81,11.78,254.61,5.26C953.15,740.35,824.3,739.2,758.47,717.26Z"/><path class="cls-14" d="M742.81,478.85c-31.55,15-136.06,8.62-186.08,4.52a20.74,20.74,0,0,0,.39-6.54c-.55-4.94-3.24-9.63-6.67-14.23C579.94,469.53,664.26,486.83,742.81,478.85Z"/><path class="cls-15" d="M1383.18,530.4c-3,7.45-10,14.48-15.58,21.63-86,16.73-334.29,33.91-399.32,14C898.27,544.51,638,548.58,638,548.58s160-17.7,350.18,10.09C1169.8,585.2,1235.55,531.26,1383.18,530.4Z"/><path class="cls-16" d="M612.22,357.41s111.77-39,319.72,0c131.61,24.7,177.22,11.82,177.22,11.82s-133.69,14.44-206-5.7S612.22,357.41,612.22,357.41Z"/><path class="cls-17" d="M1390,304.12c-36.07.28-273.78,1.14-383.5-23.66,111.52,23.72,306,10.1,383.75,3.23a33.44,33.44,0,0,1-.42,10.93c-.16.79-.28,1.56-.37,2.31A21.78,21.78,0,0,0,1390,304.12Z"/><text class="cls-18" transform="translate(588.54 435.5)">Music</text><text class="cls-19" transform="translate(586.33 432.85)">Music</text><text class="cls-18" transform="translate(645.66 652.99)">SFX</text><text class="cls-19" transform="translate(644.06 649.21)">SFX</text><path class="cls-20" d="M36.25,984.69h.11a1.14,1.14,0,0,1,.87.37l64.46,69.24a1.17,1.17,0,0,1,.31.79,52.35,52.35,0,0,1-.31,5.72c-.51,4.46-1.61,6.63-3.45,6.82H98.1a1.14,1.14,0,0,1-.87-.33,1.22,1.22,0,0,1-.36-.86,18.35,18.35,0,0,0-1.86-7.09,39,39,0,0,0,1.86,11,1.16,1.16,0,0,1-.51,1.36,1.11,1.11,0,0,1-.49.17,1.18,1.18,0,0,1-1-.34c-2.7-2.67-3.83-6-4.92-9.26-.41-1.19-.82-2.41-1.31-3.61a18,18,0,0,1-2.51,5.63,1.18,1.18,0,0,1-.84.5,1.11,1.11,0,0,1-.51-.06,1.18,1.18,0,0,1-.79-1.19,11.92,11.92,0,0,0-.52-3.2,31.34,31.34,0,0,1-.24,3.21,1.2,1.2,0,0,1-1,1h-.09a1.17,1.17,0,0,1-1.19-1c-.73-3.82-3.34-7-5-8.67a32.48,32.48,0,0,1-3.53,7.53,1.19,1.19,0,0,1-1.63.35,1.18,1.18,0,0,1-.36-1.62c.07-.11,1.54-2.66-.72-6.53-.57,2.73.39,7.81,1.49,11.24a1.19,1.19,0,0,1-.67,1.45,1.3,1.3,0,0,1-.34.08,1.18,1.18,0,0,1-1.16-.62c-.09-.17-2.13-4.09-6.74-14.82-1.16,2.14-.06,5.52,0,5.56a1.19,1.19,0,0,1-.73,1.49l-.27.06a1.19,1.19,0,0,1-1.23-.75,30.58,30.58,0,0,1-1.38-9.4A17.28,17.28,0,0,1,50,1053.1a5.5,5.5,0,0,1-3.94-.9,1.15,1.15,0,0,1-.47-1.15,1.17,1.17,0,0,1,.82-.93A6.8,6.8,0,0,0,51,1046.5c1.3-2.78.68-6.35.08-8.54-1.36,1.86-3.32,5-3.62,8.2a1.18,1.18,0,0,1-.92,1l-.13,0a1.17,1.17,0,0,1-1.14-.58c-1.93-3.27-1.34-8.61-.6-12.22-2.77,2.72-6.07,6.73-6.12,10a1.18,1.18,0,0,1-.81,1.11l-.25,0a1.17,1.17,0,0,1-1.06-.47c-5.37-7.13-2.05-15,.63-19.26a24.06,24.06,0,0,1-4.24.86c-3.18.33-5.75-.2-7.67-1.57a1.18,1.18,0,0,1,.57-2.13c2.22-.23,4.8-2.57,7-5.18a22.28,22.28,0,0,1-5.22,2.41l-.21,0a1.27,1.27,0,0,1-.71-.15,1.22,1.22,0,0,1-.55-.74,3.4,3.4,0,0,1,0-1.58,43.37,43.37,0,0,0-3,5.95,1.19,1.19,0,0,1-1,.73h-.09a1.19,1.19,0,0,1-1.1-.68c-3.33-7.17,1.63-17.14,4.48-21.9a40.61,40.61,0,0,1-5.49,1c-3.76.39-6.49-.13-8.12-1.52a1.18,1.18,0,0,1,.65-2.07,1,1,0,0,1,.35,0,6.57,6.57,0,0,0,2,.08c8.41-.87,20.67-14.24,20.79-14.38A1.23,1.23,0,0,1,36.25,984.69Z"/><path class="cls-2" d="M32.85,1000.8s-9.22,12.92-5.47,21c4.94-11.88,12.84-15.95,12.84-15.95S31.29,1015,32.05,1018c5-1.46,9.9-6.31,9.9-6.31s-6,10.32-11.09,10.86c4.56,3.26,12.94-.69,12.94-.69s-9.2,10.05-2.62,18.79c.08-5.53,8.4-12,8.4-12s-2.94,9.18-.42,13.47c.45-4.76,4.68-9.42,4.68-9.42s4.82,11.36-4.2,14.08c3.3,2.42,10.94-2.71,11.7-5.07-.29,7.3,1.14,11,1.14,11s-1.74-5.17,1.38-7.2c4.61,10.81,6.63,14.66,6.63,14.66s-3.12-9.75-.47-12.46c3.92,5,1.68,8.49,1.68,8.49s3-4.58,3.4-8.2c0,0,5.11,4,6.17,9.6,0,0,.93-6.76-1.08-10.45,4.11,6.72,3.86,10.65,3.86,10.65s3.64-5.22,1.81-9c3.81,5.2,3.46,11.24,7.62,15.36-2.66-8.49-1.44-14-1.44-14s3.55,5.8,3.5,10.2c2.57-.11,2.48-10.17,2.48-10.17l-57.69-62S26.91,1003,18.94,1001.37C22.49,1004.41,32.85,1000.8,32.85,1000.8Z"/><path class="cls-21" d="M97.2,1041.35a.5.5,0,0,0,0-.12,1.17,1.17,0,0,1,.56-.76l81.75-47.61a1.17,1.17,0,0,1,.84-.13,50.33,50.33,0,0,1,5.51,1.56c4.24,1.49,6.11,3,5.89,4.87,0,.05,0,.1,0,.14a1.21,1.21,0,0,1-.52.78,1.23,1.23,0,0,1-.92.16,18.31,18.31,0,0,0-7.32.25,38.8,38.8,0,0,0,11.12.6,1.18,1.18,0,0,1,1.21.8,1.15,1.15,0,0,1-.48,1.37c-3.2,2-6.71,2.41-10.12,2.76-1.25.13-2.53.26-3.81.48a18.08,18.08,0,0,1,4.94,3.68,1.18,1.18,0,0,1,.3.94,1.11,1.11,0,0,1-.17.49,1.18,1.18,0,0,1-1.33.5,12.08,12.08,0,0,0-3.24-.19,29.44,29.44,0,0,1,3.08.94,1.19,1.19,0,0,1,.76,1.24.29.29,0,0,1,0,.09,1.17,1.17,0,0,1-1.19.95c-3.89-.13-7.54,1.72-9.56,3a32.19,32.19,0,0,1,6.56,5.1,1.17,1.17,0,0,1,.33,1,1.18,1.18,0,0,1-2,.7c-.09-.09-2.25-2.09-6.53-.74,2.55,1.16,7.71,1.34,11.3,1a1.17,1.17,0,0,1,1.26,1,1.37,1.37,0,0,1,0,.35,1.2,1.2,0,0,1-.87,1c-.18,0-4.45,1.17-15.94,3.31,1.84,1.59,5.38,1.26,5.42,1.26a1.19,1.19,0,0,1,1.29,1,1.4,1.4,0,0,1,0,.29,1.16,1.16,0,0,1-1,1,30.27,30.27,0,0,1-9.48-.72A17.3,17.3,0,0,1,167,1043a5.5,5.5,0,0,1-1.74,3.65,1.18,1.18,0,0,1-1.95-.8,6.82,6.82,0,0,0-2.53-5.21c-2.43-1.88-6.05-2.07-8.32-2,1.52,1.73,4.19,4.35,7.2,5.34a1.18,1.18,0,0,1,.81,1.12.66.66,0,0,1,0,.14,1.18,1.18,0,0,1-.81,1c-3.62,1.16-8.7-.6-12.06-2.11,2,3.31,5.23,7.41,8.43,8.18a1.17,1.17,0,0,1,.9,1,1.13,1.13,0,0,1,0,.26,1.19,1.19,0,0,1-.69.93c-8.14,3.67-15.06-1.3-18.65-4.86a24.55,24.55,0,0,1-.1,4.33c-.38,3.16-1.46,5.56-3.22,7.13a1.19,1.19,0,0,1-2-1c.27-2.21-1.44-5.24-3.5-8a22.35,22.35,0,0,1,1.2,5.62,1.48,1.48,0,0,1,0,.21,1.17,1.17,0,0,1-1.14,1,3.56,3.56,0,0,1-1.54-.38,43.38,43.38,0,0,0,5.14,4.25,1.19,1.19,0,0,1,.49,1.11s0,.06,0,.09a1.19,1.19,0,0,1-.91.92c-7.72,1.67-16.36-5.37-20.38-9.19a37.72,37.72,0,0,1-.21,5.58c-.45,3.75-1.55,6.3-3.27,7.58a1.18,1.18,0,0,1-1.88-1.09,1,1,0,0,1,.09-.34,6.29,6.29,0,0,0,.51-1.93c1-8.4-9.33-23.31-9.43-23.46A1.17,1.17,0,0,1,97.2,1041.35Z"/><path class="cls-2" d="M112.17,1048.21s10.56,11.84,19.25,10c-10.5-7.43-12.72-16-12.72-16s6.94,10.73,10.08,10.65c-.32-5.21-4-11-4-11s8.76,8.07,8.15,13.21c4.19-3.73,2.18-12.78,2.18-12.78s7.77,11.2,17.75,6.7C147.5,1047.58,143,1038,143,1038s8.31,4.89,13,3.38c-4.54-1.49-8.15-6.64-8.15-6.64s12.14-2.2,12.81,7.2c3.09-2.69-.24-11.27-2.37-12.53,7.06,1.89,11,1.32,11,1.32s-5.43.56-6.72-2.93c11.56-2.11,15.76-3.24,15.76-3.24s-10.19.9-12.25-2.28c5.7-2.73,8.65.22,8.65.22s-3.82-3.9-7.25-5.11c0,0,5.05-4.1,10.72-3.91,0,0-6.39-2.39-10.43-1.25,7.46-2.52,11.24-1.42,11.24-1.42s-4.29-4.7-8.4-3.75c5.9-2.57,11.72-.9,16.66-4.05-8.88.73-14-1.67-14-1.67s6.44-2.19,10.72-1.17c.46-2.54-9.37-4.66-9.37-4.66l-73.17,42.61s11.42,16.33,8.08,23.76C113.41,1059.11,112.17,1048.21,112.17,1048.21Z"/><path class="cls-22" d="M36.25,959h.11a1.19,1.19,0,0,0,.87-.38l64.46-69.24a1.15,1.15,0,0,0,.31-.79,52.22,52.22,0,0,0-.31-5.71c-.51-4.47-1.61-6.64-3.45-6.83H98.1a1.18,1.18,0,0,0-1.23,1.2A18.44,18.44,0,0,1,95,884.36a39,39,0,0,1,1.86-11,1.17,1.17,0,0,0-.51-1.36,1.09,1.09,0,0,0-.49-.16,1.17,1.17,0,0,0-1,.33c-2.7,2.67-3.83,6-4.92,9.26-.41,1.2-.82,2.41-1.31,3.62a18.08,18.08,0,0,0-2.51-5.64,1.17,1.17,0,0,0-.84-.49,1.11,1.11,0,0,0-.51.06,1.17,1.17,0,0,0-.79,1.18,11.87,11.87,0,0,1-.52,3.2,31.65,31.65,0,0,0-.24-3.21,1.18,1.18,0,0,0-1-1h-.09a1.18,1.18,0,0,0-1.19,1c-.73,3.82-3.34,7-5,8.67a32.72,32.72,0,0,0-3.53-7.53,1.2,1.2,0,0,0-.87-.53,1.23,1.23,0,0,0-.76.18,1.19,1.19,0,0,0-.36,1.63c.07.11,1.54,2.65-.72,6.52-.57-2.73.39-7.8,1.49-11.23a1.18,1.18,0,0,0-.67-1.45,1,1,0,0,0-.34-.09,1.18,1.18,0,0,0-1.16.63c-.09.17-2.13,4.08-6.74,14.82-1.16-2.15-.06-5.53,0-5.57a1.17,1.17,0,0,0-.73-1.48.9.9,0,0,0-.27-.07,1.2,1.2,0,0,0-1.23.76,30.41,30.41,0,0,0-1.38,9.4A17.28,17.28,0,0,0,50,890.62a5.45,5.45,0,0,0-3.94.89,1.15,1.15,0,0,0-.47,1.15,1.17,1.17,0,0,0,.82.93A6.83,6.83,0,0,1,51,897.21c1.3,2.78.68,6.36.08,8.54-1.36-1.86-3.32-5-3.62-8.19a1.18,1.18,0,0,0-.92-1l-.13,0a1.17,1.17,0,0,0-1.14.57c-1.93,3.28-1.34,8.62-.6,12.22-2.77-2.71-6.07-6.72-6.12-10a1.16,1.16,0,0,0-.81-1.1.7.7,0,0,0-.25,0,1.14,1.14,0,0,0-1.06.46c-5.37,7.13-2.05,15,.63,19.26a25,25,0,0,0-4.24-.86c-3.18-.32-5.75.2-7.67,1.57a1.19,1.19,0,0,0,.57,2.14c2.22.23,4.8,2.57,7,5.18a21.89,21.89,0,0,0-5.22-2.41.78.78,0,0,0-.21,0,1.12,1.12,0,0,0-.71.15,1.2,1.2,0,0,0-.55.73,3.4,3.4,0,0,0,0,1.58,42.81,42.81,0,0,1-3-6,1.18,1.18,0,0,0-1-.72h-.09a1.19,1.19,0,0,0-1.1.68c-3.33,7.17,1.63,17.15,4.48,21.91a37.72,37.72,0,0,0-5.49-1c-3.76-.39-6.49.12-8.12,1.52a1.17,1.17,0,0,0-.29,1.41,1.18,1.18,0,0,0,.94.66,1.4,1.4,0,0,0,.35,0,6.58,6.58,0,0,1,2-.07c8.41.87,20.67,14.24,20.79,14.37A1.18,1.18,0,0,0,36.25,959Z"/><path class="cls-2" d="M32.85,942.91s-9.22-12.91-5.47-21c4.94,11.88,12.84,15.95,12.84,15.95s-8.93-9.15-8.17-12.19c5,1.46,9.9,6.31,9.9,6.31s-6-10.32-11.09-10.85c4.56-3.27,12.94.69,12.94.69s-9.2-10.05-2.62-18.79c.08,5.53,8.4,12,8.4,12s-2.94-9.18-.42-13.46c.45,4.75,4.68,9.41,4.68,9.41s4.82-11.36-4.2-14.08c3.3-2.42,10.94,2.72,11.7,5.07-.29-7.3,1.14-11,1.14-11s-1.74,5.18,1.38,7.21c4.61-10.81,6.63-14.67,6.63-14.67S67.37,893.25,70,896c3.92-5,1.68-8.48,1.68-8.48s3,4.58,3.4,8.2c0,0,5.11-4,6.17-9.6,0,0,.93,6.75-1.08,10.45,4.11-6.73,3.86-10.65,3.86-10.65s3.64,5.21,1.81,9c3.81-5.19,3.46-11.24,7.62-15.36-2.66,8.5-1.44,14-1.44,14s3.55-5.81,3.5-10.2c2.57.1,2.48,10.16,2.48,10.16l-57.69,62s-13.42-14.74-21.39-13.12C22.49,939.3,32.85,942.91,32.85,942.91Z"/><path class="cls-23" d="M97.2,902.37a.36.36,0,0,1,0,.11,1.22,1.22,0,0,0,.56.77l81.75,47.6a1.17,1.17,0,0,0,.84.14,56.05,56.05,0,0,0,5.51-1.56c4.24-1.49,6.11-3,5.89-4.88,0,0,0-.09,0-.14a1.16,1.16,0,0,0-.52-.77,1.15,1.15,0,0,0-.92-.16,18.68,18.68,0,0,1-7.32-.25,38.37,38.37,0,0,1,11.12-.61,1.16,1.16,0,0,0,1.21-.8,1.12,1.12,0,0,0,.06-.51,1.17,1.17,0,0,0-.54-.86c-3.2-2-6.71-2.4-10.12-2.76-1.25-.13-2.53-.26-3.81-.47a18,18,0,0,0,4.94-3.69,1.17,1.17,0,0,0,.3-.94,1.07,1.07,0,0,0-.17-.48,1.17,1.17,0,0,0-1.33-.51,12.28,12.28,0,0,1-3.24.2c1.74-.44,3-.9,3.08-.94a1.2,1.2,0,0,0,.76-1.25.29.29,0,0,0,0-.09,1.17,1.17,0,0,0-1.19-.95c-3.89.13-7.54-1.71-9.56-3a33,33,0,0,0,6.56-5.1,1.2,1.2,0,0,0,.33-1,1.22,1.22,0,0,0-.34-.7,1.18,1.18,0,0,0-1.67,0c-.09.09-2.25,2.08-6.53.73,2.55-1.16,7.71-1.34,11.3-1a1.18,1.18,0,0,0,1.26-1,1.29,1.29,0,0,0,0-.34,1.19,1.19,0,0,0-.87-1c-.18-.05-4.45-1.18-15.94-3.31,1.84-1.6,5.38-1.27,5.42-1.27a1.17,1.17,0,0,0,1.29-1,1.31,1.31,0,0,0,0-.28,1.18,1.18,0,0,0-1-1,30.66,30.66,0,0,0-9.48.72,17.28,17.28,0,0,0,2.14-9.31,5.5,5.5,0,0,0-1.74-3.65,1.18,1.18,0,0,0-1.22-.2,1.17,1.17,0,0,0-.73,1,6.78,6.78,0,0,1-2.53,5.2c-2.43,1.89-6.05,2.07-8.32,2,1.52-1.73,4.19-4.35,7.2-5.33a1.2,1.2,0,0,0,.81-1.13.71.71,0,0,0,0-.14,1.18,1.18,0,0,0-.81-1c-3.62-1.15-8.7.6-12.06,2.11,2-3.3,5.23-7.4,8.43-8.17a1.19,1.19,0,0,0,.9-1,1,1,0,0,0,0-.25,1.19,1.19,0,0,0-.69-.94c-8.14-3.67-15.06,1.31-18.65,4.86a24.56,24.56,0,0,0-.1-4.33c-.38-3.16-1.46-5.56-3.22-7.12a1.18,1.18,0,0,0-2,1c.27,2.22-1.44,5.25-3.5,8A22.54,22.54,0,0,0,130,886a1.48,1.48,0,0,0,0-.21,1.17,1.17,0,0,0-1.14-1,3.4,3.4,0,0,0-1.54.37,44.37,44.37,0,0,1,5.14-4.25,1.17,1.17,0,0,0,.49-1.1s0-.07,0-.1a1.19,1.19,0,0,0-.91-.92c-7.72-1.67-16.36,5.37-20.38,9.2a37.67,37.67,0,0,0-.21-5.58c-.45-3.75-1.55-6.3-3.27-7.58a1.2,1.2,0,0,0-1.45,0,1.19,1.19,0,0,0-.43,1.06,1.06,1.06,0,0,0,.09.35,6.21,6.21,0,0,1,.51,1.93c1,8.4-9.33,23.3-9.43,23.45A1.2,1.2,0,0,0,97.2,902.37Z"/><path class="cls-2" d="M112.17,895.5s10.56-11.84,19.25-10c-10.5,7.44-12.72,16-12.72,16s6.94-10.72,10.08-10.65c-.32,5.21-4,11-4,11s8.76-8.07,8.15-13.2c4.19,3.73,2.18,12.77,2.18,12.77s7.77-11.19,17.75-6.7c-5.38,1.3-9.87,10.84-9.87,10.84s8.31-4.89,13-3.37c-4.54,1.48-8.15,6.64-8.15,6.64s12.14,2.19,12.81-7.2c3.09,2.69-.24,11.27-2.37,12.53,7.06-1.9,11-1.33,11-1.33s-5.43-.56-6.72,2.94c11.56,2.11,15.76,3.23,15.76,3.23s-10.19-.89-12.25,2.28c5.7,2.74,8.65-.22,8.65-.22s-3.82,3.91-7.25,5.12c0,0,5.05,4.1,10.72,3.9,0,0-6.39,2.4-10.43,1.25,7.46,2.53,11.24,1.42,11.24,1.42s-4.29,4.7-8.4,3.75c5.9,2.58,11.72.9,16.66,4-8.88-.72-14,1.68-14,1.68s6.44,2.19,10.72,1.17c.46,2.53-9.37,4.66-9.37,4.66l-73.17-42.61s11.42-16.34,8.08-23.76C113.41,884.6,112.17,895.5,112.17,895.5Z"/><path class="cls-24" d="M191.53,968.15c0,7.51-8.17,13.85-10,20.78-1.92,7.17,1.93,16.74-1.7,23s-13.93,7.8-19.1,13-6.6,15.41-13,19.09-15.85-.21-23,1.7c-6.93,1.86-13.27,10-20.78,10s-13.86-8.16-20.79-10c-7.17-1.91-16.73,1.94-23-1.7s-7.8-13.92-13-19.09-15.41-6.6-19.1-13,.22-15.84-1.7-23c-1.85-6.93-10-13.27-10-20.78s8.17-13.86,10-20.79c1.92-7.17-1.93-16.73,1.7-23s13.93-7.8,19.1-13,6.59-15.41,13-19.09,15.84.22,23-1.7c6.93-1.85,13.27-10,20.79-10s13.85,8.17,20.78,10c7.17,1.92,16.74-1.93,23,1.7s7.79,13.93,13,19.09,15.41,6.6,19.1,13-.22,15.84,1.7,23C183.36,954.29,191.53,960.63,191.53,968.15Z"/><path class="cls-25" d="M187.14,963.77a11.91,11.91,0,0,1-1,4.63A32.74,32.74,0,0,1,183,974c-2.14,3.17-4.46,6.27-5.32,9.52-1.19,4.43-.06,9.83-.07,14.7a14.26,14.26,0,0,1-1.55,7.16,9.8,9.8,0,0,1-1.28,1.73c-4.17,4.64-12.46,6.19-16.86,10.58-4.91,4.92-6.26,14.65-12.31,18.14s-15.05-.2-21.87,1.62c-6.58,1.76-12.6,9.52-19.74,9.52s-13.16-7.76-19.75-9.52c-6.81-1.82-15.9,1.84-21.86-1.62S54.93,1022.6,50,1017.68s-14.63-6.26-18.14-12.31c-.13-.24-.26-.48-.38-.73a14.79,14.79,0,0,1-1.16-6.23c-.05-4.93,1.13-10.41-.07-14.9-1.76-6.58-9.52-12.61-9.52-19.74S28.51,950.6,30.27,944c1.82-6.81-1.84-15.9,1.61-21.86S45.12,914.75,50,909.84s6.27-14.64,12.32-18.14,15,.21,21.86-1.61c6.59-1.76,12.61-9.52,19.75-9.52s13.16,7.76,19.74,9.52c6.82,1.82,15.9-1.84,21.87,1.61s7.32,12.7,11.91,17.72l.4.42c3.53,3.53,9.53,5.22,13.94,8.14a12.81,12.81,0,0,1,4.2,4.18c3.45,6-.21,15.05,1.62,21.86C179.38,950.6,187.14,956.63,187.14,963.77Z"/><path class="cls-26" d="M175.9,982.38c-1.8,6.73,1.81,15.72-1.6,21.62s-13.08,7.32-17.94,12.18-6.19,14.48-12.18,17.94-14.88-.21-21.62,1.6c-6.51,1.74-12.47,9.41-19.52,9.41s-13-7.67-19.53-9.41c-6.74-1.81-15.73,1.81-21.62-1.6s-7.33-13.08-12.18-17.94S35.22,1010,31.76,1004s.21-14.89-1.59-21.62c-1.75-6.51-9.42-12.47-9.42-19.53,0-3.66,2.07-7,4.3-10.33a54.29,54.29,0,0,0,4.18-6.71,15.09,15.09,0,0,0,.94-2.49c1.8-6.73-1.82-15.72,1.59-21.62s13.09-7.32,18-12.18S55.9,895,61.89,891.58s14.88.2,21.62-1.6C90,888.24,96,880.57,103,880.57s13,7.67,19.52,9.41c6.74,1.8,15.72-1.81,21.62,1.6,5.71,3.3,7.2,12.22,11.55,17.25a8.3,8.3,0,0,0,.64.69c3.48,3.48,9.41,5.16,13.76,8a12.72,12.72,0,0,1,4.17,4.15c3.41,5.9-.2,14.89,1.6,21.62,1.74,6.51,9.42,12.47,9.42,19.53S177.64,975.87,175.9,982.38Z"/><path class="cls-27" d="M60.54,949.35c-11.59,1.85-26,2.75-35.49,3.17a54.29,54.29,0,0,0,4.18-6.71,293.47,293.47,0,0,0,31,.44A1.56,1.56,0,0,1,60.54,949.35Z"/><path class="cls-28" d="M186.13,968.4A32.74,32.74,0,0,1,183,974c-88.59,2.52-131.69,18.89-151.45,30.65a14.79,14.79,0,0,1-1.16-6.23c1.44-1.7,3-3.55,4.77-5.57C84.06,973.79,160.19,969.38,186.13,968.4Z"/><path class="cls-29" d="M177.56,998.21a14.26,14.26,0,0,1-1.55,7.16,9.8,9.8,0,0,1-1.28,1.73c-8.54,2.2-30.4,7.45-51.46,9.53a1.16,1.16,0,0,1-.32-2.29C144.44,1010.38,166,1002.7,177.56,998.21Z"/><path class="cls-30" d="M171.81,918c-11,2.91-42.3,10.58-69.27,10.69a1.38,1.38,0,0,1-.27-2.73c21.51-4,43.4-11.9,55.2-16.52l.4.42C161.4,913.37,167.4,915.06,171.81,918Z"/><path class="cls-31" d="M144.23,955.77v22.61a3.71,3.71,0,0,1-3.77,3.66H106.24v7.07a4.68,4.68,0,0,1-7,3.93L71.89,977.76l-12-6.74a4.49,4.49,0,0,1,0-7.89l39.36-22a4.69,4.69,0,0,1,7,3.94v7.06h34.22a3.77,3.77,0,0,1,3.77,3.66Z"/><g class="cls-32"><path class="cls-2" d="M144.23,955.77v22.61a3.71,3.71,0,0,1-3.77,3.66H106.24v7.07a4.68,4.68,0,0,1-7,3.93L71.89,977.76c38.32-3.58,59.84-16.87,70-25.38A3.63,3.63,0,0,1,144.23,955.77Z"/></g></svg>