<svg id="Capa_1" data-name="Capa 1" xmlns="http://www.w3.org/2000/svg" xmlns:xlink="http://www.w3.org/1999/xlink" viewBox="0 0 1219.43 1023.33"><defs><style>.cls-1{fill:url(#linear-gradient);}.cls-2{fill:#328164;}.cls-3{fill:url(#linear-gradient-2);}.cls-4{fill:url(#linear-gradient-3);}.cls-5{opacity:0.5;fill:url(#linear-gradient-4);}.cls-6{fill:url(#linear-gradient-5);}.cls-7{fill:url(#linear-gradient-6);}.cls-8{fill:url(#linear-gradient-7);}.cls-9{fill:url(#linear-gradient-8);}.cls-10{fill:url(#linear-gradient-9);}.cls-11{fill:url(#linear-gradient-10);}.cls-12{fill:url(#linear-gradient-11);}.cls-13{fill:#542911;}.cls-14{fill:url(#linear-gradient-12);}.cls-15{fill:url(#linear-gradient-13);}.cls-16,.cls-28{fill:#974515;}.cls-16{opacity:0.49;}.cls-17{fill:#f9be93;opacity:0.55;}.cls-18,.cls-19{font-size:96px;}.cls-18{fill:#754d29;}.cls-18,.cls-19,.cls-36,.cls-37{font-family:PasseroOne-Regular, Passero One;}.cls-19,.cls-37{fill:#fff;}.cls-20{fill:url(#linear-gradient-14);}.cls-21{fill:url(#linear-gradient-15);}.cls-22{fill:url(#linear-gradient-16);}.cls-23{fill:url(#linear-gradient-17);}.cls-24{fill:url(#linear-gradient-18);}.cls-25{fill:url(#linear-gradient-19);}.cls-26{fill:url(#linear-gradient-20);}.cls-27{fill:url(#linear-gradient-21);}.cls-28{opacity:0.2;}.cls-29{fill:url(#linear-gradient-22);}.cls-30{fill:url(#linear-gradient-23);}.cls-31{fill:url(#linear-gradient-24);}.cls-32{fill:url(#linear-gradient-25);}.cls-33{fill:url(#linear-gradient-26);}.cls-34{fill:url(#linear-gradient-27);}.cls-35{fill:url(#linear-gradient-28);}.cls-36,.cls-37{font-size:170px;}.cls-36{fill:#683c11;}</style><linearGradient id="linear-gradient" x1="-595.38" y1="2247.74" x2="-372.35" y2="2224.88" gradientTransform="matrix(0.17, 0.99, 0.99, -0.17, -1256.12, 1692.07)" gradientUnits="userSpaceOnUse"><stop offset="0" stop-color="#97c449"/><stop offset="0.27" stop-color="#73ac53"/><stop offset="0.58" stop-color="#50955c"/><stop offset="0.83" stop-color="#3a8662"/><stop offset="1" stop-color="#328164"/></linearGradient><linearGradient id="linear-gradient-2" x1="856.47" y1="542.45" x2="1118.52" y2="412.44" gradientTransform="translate(82.82 302.14) rotate(14.09)" xlink:href="#linear-gradient"/><linearGradient id="linear-gradient-3" x1="882" y1="736.13" x2="1094.54" y2="1132.17" gradientUnits="userSpaceOnUse"><stop offset="0" stop-color="#f6a45c"/><stop offset="0.22" stop-color="#c78046"/><stop offset="0.47" stop-color="#965b2f"/><stop offset="0.7" stop-color="#72401f"/><stop offset="0.88" stop-color="#5c2f15"/><stop offset="1" stop-color="#542911"/></linearGradient><linearGradient id="linear-gradient-4" x1="970.27" y1="926.06" x2="1005.75" y2="1163.57" gradientUnits="userSpaceOnUse"><stop offset="0" stop-color="#f6a45c"/><stop offset="0.38" stop-color="#cd7b3d"/><stop offset="0.79" stop-color="#a65420"/><stop offset="1" stop-color="#974515"/></linearGradient><linearGradient id="linear-gradient-5" x1="937.14" y1="749.62" x2="986.35" y2="1013.62" xlink:href="#linear-gradient-4"/><linearGradient id="linear-gradient-6" x1="1100.37" y1="931.76" x2="1101.3" y2="948.81" gradientUnits="userSpaceOnUse"><stop offset="0.38" stop-color="#974515"/><stop offset="0.4" stop-color="#9b4918"/><stop offset="0.5" stop-color="#b86528"/></linearGradient><linearGradient id="linear-gradient-7" x1="842.85" y1="944.68" x2="841.77" y2="976.93" xlink:href="#linear-gradient-6"/><linearGradient id="linear-gradient-8" x1="1003.12" y1="968.76" x2="1003.43" y2="979.48" xlink:href="#linear-gradient-6"/><linearGradient id="linear-gradient-9" x1="781.16" y1="864.46" x2="779.86" y2="881.02" xlink:href="#linear-gradient-6"/><linearGradient id="linear-gradient-10" x1="876.17" y1="810.66" x2="876.96" y2="819.49" xlink:href="#linear-gradient-6"/><linearGradient id="linear-gradient-11" x1="1157.27" y1="863.09" x2="1154.48" y2="882" xlink:href="#linear-gradient-6"/><linearGradient id="linear-gradient-12" x1="963.25" y1="850.24" x2="979.57" y2="989.76" xlink:href="#linear-gradient-3"/><linearGradient id="linear-gradient-13" x1="968.57" y1="823.21" x2="968.57" y2="978.64" xlink:href="#linear-gradient-4"/><linearGradient id="linear-gradient-14" x1="331.26" y1="597.61" x2="677.78" y2="373.92" gradientTransform="matrix(1, 0, 0, 1, 0, 0)" xlink:href="#linear-gradient"/><linearGradient id="linear-gradient-15" x1="296.65" y1="181.52" x2="562.97" y2="154.23" gradientTransform="matrix(1, 0, 0, 1, 0, 0)" xlink:href="#linear-gradient"/><linearGradient id="linear-gradient-16" x1="1635.91" y1="597.61" x2="1982.44" y2="373.92" gradientTransform="matrix(-1, 0, 0, 1, 3231.9, 0)" xlink:href="#linear-gradient"/><linearGradient id="linear-gradient-17" x1="1601.3" y1="181.52" x2="1867.62" y2="154.23" gradientTransform="matrix(-1, 0, 0, 1, 3231.9, 0)" xlink:href="#linear-gradient"/><linearGradient id="linear-gradient-18" x1="967.01" y1="614.63" x2="969.08" y2="476.32" gradientTransform="matrix(1, 0, 0, 1, 0, 0)" xlink:href="#linear-gradient"/><linearGradient id="linear-gradient-19" x1="769.94" y1="-251.42" x2="1013.27" y2="364.86" xlink:href="#linear-gradient-3"/><linearGradient id="linear-gradient-20" x1="1130.28" y1="678.69" x2="880.65" y2="2.75" xlink:href="#linear-gradient-4"/><linearGradient id="linear-gradient-21" x1="884.49" y1="-0.03" x2="1137.61" y2="730.33" xlink:href="#linear-gradient-4"/><linearGradient id="linear-gradient-22" x1="1374.05" y1="200.51" x2="1371.37" y2="259.54" xlink:href="#linear-gradient-6"/><linearGradient id="linear-gradient-23" x1="970.32" y1="382.93" x2="970.96" y2="408.96" xlink:href="#linear-gradient-6"/><linearGradient id="linear-gradient-24" x1="869.87" y1="468" x2="868.14" y2="492.32" xlink:href="#linear-gradient-6"/><linearGradient id="linear-gradient-25" x1="576.07" y1="254.82" x2="573.23" y2="280.85" xlink:href="#linear-gradient-6"/><linearGradient id="linear-gradient-26" x1="1023.25" y1="304.6" x2="1020.91" y2="363.64" xlink:href="#linear-gradient-6"/><linearGradient id="linear-gradient-27" x1="843.47" y1="122.65" x2="835.99" y2="183.59" xlink:href="#linear-gradient-6"/><linearGradient id="linear-gradient-28" x1="1253.55" y1="94.24" x2="1253.55" y2="109.66" xlink:href="#linear-gradient-6"/></defs><path class="cls-1" d="M770.75,917.35l.25.13a2.88,2.88,0,0,0,2.35.08l218.12-87.15A2.93,2.93,0,0,0,993,829a130.58,130.58,0,0,0,5.36-13.16c3.57-10.58,3.41-16.61-.52-19l-.31-.18a3,3,0,0,0-2.31-.17,2.91,2.91,0,0,0-1.71,1.55c-2.35,5.12-7.32,10.18-11.69,14a95.87,95.87,0,0,1,15.82-22.69,2.94,2.94,0,0,0,.29-3.6,2.85,2.85,0,0,0-.93-.9,2.93,2.93,0,0,0-2.49-.25c-8.88,3.13-15,9.46-20.86,15.58-2.18,2.26-4.39,4.55-6.77,6.73a44.69,44.69,0,0,0,.34-15.31,2.93,2.93,0,0,0-5.61-.59,29.74,29.74,0,0,1-4.56,6.63,78.07,78.07,0,0,0,2.86-7.46,2.94,2.94,0,0,0-1.27-3.39l-.2-.11a2.94,2.94,0,0,0-3.69.89c-5.69,7.81-14.88,12.13-20.44,14.17,1.54-9.41.13-20.12.06-20.65a2.93,2.93,0,0,0-5.82.75c0,.32.63,7.59-8.54,13.89,1.62-6.74,9.16-17.12,15.26-23.66a2.92,2.92,0,0,0,0-4,2.88,2.88,0,0,0-.66-.55,2.94,2.94,0,0,0-3.28.17c-.38.29-9.12,6.91-30.85,26.13-.31-6,5.74-12.46,5.81-12.54a2.93,2.93,0,0,0-.05-4.1,2.88,2.88,0,0,0-.56-.43,2.92,2.92,0,0,0-3.54.39c-.29.28-6.31,6.15-13.07,19.64-3-6.83-8.73-14.66-14.94-18.42-3.39-2.05-6.69-2.78-9.81-2.17a2.92,2.92,0,0,0-1.4,5.05c4.24,3.83,6.3,8.06,6.3,12.91,0,7.62-5.2,15-8.87,19.27-1.07-5.62-2.11-14.85.56-22.24a2.94,2.94,0,0,0-1-3.31l-.28-.19a2.94,2.94,0,0,0-3.17.08c-7.79,5.32-12.13,17.94-14.3,26.81-3.35-9-6.5-21.54-3.11-29a2.91,2.91,0,0,0-.66-3.34,2.48,2.48,0,0,0-.49-.38,2.93,2.93,0,0,0-2.88-.09c-19.63,10.32-20.47,31.46-19,43.92a58.9,58.9,0,0,0-8.62-6.42c-6.77-4.1-13.12-5.65-18.86-4.6a2.94,2.94,0,0,0-1,5.4c4.75,2.87,8.06,10.85,10.23,19a54.43,54.43,0,0,0-9.16-10.93,2.53,2.53,0,0,0-.42-.31,2.93,2.93,0,0,0-3.79.64,8.77,8.77,0,0,0-1.61,3.58,109.38,109.38,0,0,1-.46-16.56,2.92,2.92,0,0,0-1.41-2.65l-.21-.11a2.93,2.93,0,0,0-3.18.37c-15.08,12.56-14.51,40.22-13.17,53.92a95.15,95.15,0,0,0-11.24-8.11c-8-4.85-14.69-6.6-19.84-5.19a3,3,0,0,0-2.15,2.87,2.92,2.92,0,0,0,1.41,2.47,3,3,0,0,0,.82.34,16.27,16.27,0,0,1,4.55,2c18,10.87,31.33,53.89,31.46,54.32A2.91,2.91,0,0,0,770.75,917.35Z" transform="translate(-353.91 -33.39)"/><path class="cls-2" d="M780.2,877.57s-7-38.77,9.95-52.89c-1.51,31.91,11.92,49.42,11.92,49.42s-10.36-30-5.42-36c9.71,8.58,15.53,24.66,15.53,24.66s-2.4-29.48-13.39-36.13c13.71-2.49,28.33,15.26,28.33,15.26s-10-32.32,14-45c-5.7,12.5,6.1,35.89,6.1,35.89s3.15-23.73,13.35-30.68c-4,11.15.52,26.1.52,26.1s22.86-20.4,5.5-36.06c10-1.94,21.69,17.68,20.89,23.78,7.09-16.71,14.28-23.61,14.28-23.61s-9.4,9.78-4.54,17.65c21.81-19.4,30.43-25.9,30.43-25.9s-17.34,18.58-14.27,27.47c14.06-7,12.78-17.26,12.78-17.26s1.82,13.43-1.07,22c0,0,15.74-3.61,24-15,0,0-5.08,16.15-13.5,22.31,16.35-10.74,20-19.81,20-19.81s2.64,15.56-5.51,22.17c14.06-7.62,19.68-21.57,33.39-26.41-15,16.26-18.06,29.87-18.06,29.87s14.14-9.27,18.68-19.18c5.66,3-5.21,25.46-5.21,25.46l-195.24,78s-14.5-47.31-34.12-52.14C760.76,858.49,780.2,877.57,780.2,877.57Z" transform="translate(-353.91 -33.39)"/><path class="cls-3" d="M859.63,958.9l.18-.19a2.65,2.65,0,0,1,2-.73l210.77,13.33a2.66,2.66,0,0,1,1.73.8,116.11,116.11,0,0,1,8.27,9.74c6,8,7.56,13.23,4.87,16.36l-.21.24a2.67,2.67,0,0,1-1.93.79,2.64,2.64,0,0,1-1.9-.84c-3.43-3.72-9.1-6.65-13.89-8.65a86.18,86.18,0,0,0,19.87,15,2.62,2.62,0,0,1,1.26,3,2.62,2.62,0,0,1-2.6,1.95c-8.47-.19-15.44-3.89-22.19-7.47-2.49-1.32-5-2.66-7.67-3.85a40.22,40.22,0,0,1,4.58,13,2.66,2.66,0,0,1-.6,2.11,2.72,2.72,0,0,1-.92.68,2.63,2.63,0,0,1-3.11-.71,26.2,26.2,0,0,0-5.75-4.39c2.66,3,4.37,5.34,4.54,5.57a2.64,2.64,0,0,1-.14,3.25,1,1,0,0,1-.14.15,2.64,2.64,0,0,1-3.41.28c-7-5.08-16.11-6.2-21.42-6.37,4,7.6,5.74,17.14,5.83,17.62a2.65,2.65,0,0,1-.59,2.2,2.71,2.71,0,0,1-1.51.87,2.64,2.64,0,0,1-3.08-2.09c-.06-.27-1.59-6.66-11.19-9.47,3.28,5.31,12.62,12.06,19.67,15.94a2.64,2.64,0,0,1,1.14,3.37,2.93,2.93,0,0,1-.41.66,2.65,2.65,0,0,1-2.86.77c-.4-.14-9.72-3.35-33.67-13.67,1.42,5.24,8.39,9,8.47,9.08a2.63,2.63,0,0,1,1.11,3.52,2.78,2.78,0,0,1-.35.52,2.62,2.62,0,0,1-3.14.66c-.33-.16-7.12-3.48-16.67-13.12-.63,6.68-3.35,15-7.6,19.93a12.29,12.29,0,0,1-7.77,4.6,2.63,2.63,0,0,1-2.62-3.92c2.56-4.47,3.13-8.65,1.77-12.8-2.15-6.5-8.65-11.35-13-14,.66,5.1,2.36,13.28,6.71,18.84a2.64,2.64,0,0,1,.11,3.1l-.19.24a2.62,2.62,0,0,1-2.73.81c-8.14-2.35-15.39-11.92-19.73-18.89-.33,8.66.48,20.22,5.46,25.63a2.62,2.62,0,0,1,.38,3,2.47,2.47,0,0,1-.31.46,2.67,2.67,0,0,1-2.44.89c-19.66-3.32-26.31-21.14-28.55-32.2a54.08,54.08,0,0,1-5.56,7.9c-4.64,5.4-9.63,8.5-14.83,9.22a2.64,2.64,0,0,1-2.36-4.33c3.25-3.79,3.84-11.53,3.4-19.13a49,49,0,0,1-4.76,11.91,3.28,3.28,0,0,1-.27.38,2.63,2.63,0,0,1-3.42.51,8,8,0,0,1-2.38-2.61,98,98,0,0,0,4.25,14.28,2.62,2.62,0,0,1-.46,2.66l-.15.15a2.63,2.63,0,0,1-2.82.58c-16.4-6.51-23.67-30.3-26.36-42.38a86.59,86.59,0,0,1-7.33,10.08c-5.5,6.39-10.71,9.75-15.49,10a2.64,2.64,0,0,1-2.65-1.84,2.62,2.62,0,0,1,.52-2.51,2.74,2.74,0,0,1,.6-.52,15,15,0,0,0,3.34-2.94c12.31-14.33,11.66-54.82,11.66-55.22A2.6,2.6,0,0,1,859.63,958.9Z" transform="translate(-353.91 -33.39)"/><path class="cls-2" d="M875.2,996.68s5.14,37,24.59,44.72c-10.79-28.31-3.86-48.05-3.86-48.05s-.48,30.08,5.75,34c6.21-10.6,6.7-26.8,6.7-26.8s6.56,27.27-1.38,36.5c13.09-1.8,21-22.12,21-22.12s.53,32.08,25.94,36.36c-8.82-9.57-5.1-34.13-5.1-34.13s9.84,20.45,21.09,23.7c-6.94-8.86-7.25-23.67-7.25-23.67s26.63,11.62,15.62,30.86c9.56-1.21,14.31-22.34,11.79-27.6,11.32,13,19.84,17,19.84,17s-11.36-6-9.31-14.55c25.38,11,35.08,14.34,35.08,14.34s-21.12-11.62-21-20.54c14.73,2.13,16.62,11.78,16.62,11.78s-2.34-12.64-7.47-19.51c0,0,15.25-1.4,26.09,6.41,0,0-9.35-13.05-18.76-16.11,17.91,4.85,23.84,11.95,23.84,11.95s-2.22-14.8-11.52-18.34c14.92,2.71,24.11,13.61,37.89,13.92-18.31-10.22-25.1-21.57-25.1-21.57s15.48,4.17,22.5,11.76c4.23-4.34-12.21-21.4-12.21-21.4l-199-12.58s.92,46.92-15.33,57.07C863.32,1019.62,875.2,996.68,875.2,996.68Z" transform="translate(-353.91 -33.39)"/><path class="cls-4" d="M1075.66,1009.39c-11.42-1-22.29-10.48-33.73-11.15s-23.23,7.5-34.69,7.16-22.8-9.16-34.26-9.16-22.8,8.83-34.26,9.16-23.24-7.82-34.69-7.16-22.3,10.15-33.73,11.15c-8.13.7-15.88-8.26-23.71-9.57-8-1.34-18,4.59-25.37,1.36s-10.44-14.95-16.88-19.95-18-4.61-23.09-11.14-2.44-18.21-5.83-26c-3.29-7.53-13.52-13.06-14.92-21.59,0-.12-.1-.67-.12-.79l-.11-.73c0-.12-.08-.54-.1-.67-1.49-9.07,6.63-18.16,7.93-26.92s-3.77-20.1.1-28.18,15.43-10.45,21.35-17.13c5.72-6.45,7.15-18.84,14.56-23.72,7.07-4.65,18.3-.68,26.67-3.53,7.89-2.68,14.68-12.92,23.5-13.69,13.13-1.15,26.83,6.54,40,5.78s26-10,39.12-10.39,26.44,8.09,39.6,8.09,26.45-8.47,39.61-8.09,26,9.62,39.12,10.39,26.85-6.93,40-5.78c8.82.77,15.62,11,23.5,13.69,8.37,2.85,19.6-1.12,26.68,3.53,7.41,4.87,8.84,17.27,14.55,23.72,5.93,6.69,17.57,9.2,21.36,17.13s-1.22,19.3.1,28.18,9.42,17.85,7.92,26.92c0,.13-.08.55-.1.67l-.11.73c0,.12-.1.67-.12.79-1.39,8.53-11.63,14.06-14.92,21.59-3.39,7.76-.77,19.49-5.83,26s-16.62,6.12-23.09,11.14-9.43,16.68-16.88,19.95-17.36-2.7-25.36-1.36C1091.55,1001.13,1083.79,1010.09,1075.66,1009.39Z" transform="translate(-353.91 -33.39)"/><path class="cls-5" d="M1175.49,911.9c0,.1-.09.49-.11.62s-.08.56-.1.68-.08.62-.1.72c-1,5.84-6.69,10.17-10.9,14.84a21.18,21.18,0,0,0-3.67,5.2,22.58,22.58,0,0,0-1.69,6.77c-.77,6.16-.46,13-4,17.35-5,6.06-16.22,5.67-22.54,10.34s-9.2,15.47-16.46,18.5-16.94-2.49-24.76-1.25c-7.64,1.21-15.19,9.53-23.13,8.89-11.15-.93-21.75-9.74-32.91-10.36s-22.68,6.95-33.86,6.64-22.25-8.5-33.43-8.5-22.24,8.19-33.43,8.5-22.69-7.26-33.86-6.64-21.77,9.43-32.91,10.36c-7.94.64-15.49-7.68-23.13-8.89-7.82-1.24-17.58,4.27-24.76,1.25s-10.19-13.86-16.47-18.5-17.53-4.28-22.53-10.34-2.39-16.92-5.69-24.12c-3.22-7-13.19-12.11-14.57-20,0-.1-.08-.62-.1-.72s-.11-.58-.11-.68-.08-.52-.1-.62c-1.46-8.42,6.46-16.88,7.74-25s-3.67-18.67.08-26.16,15.06-9.7,20.84-15.91c5.57-6,7-17.5,14.22-22,6.89-4.31,17.85-.64,26-3.28,7.69-2.47,14.32-12,22.94-12.71,12.79-1.05,26.17,6.09,39,5.37s25.34-9.29,38.17-9.64,25.79,7.51,38.65,7.51,25.81-7.86,38.65-7.51,25.33,8.94,38.17,9.64,26.2-6.42,39-5.37c8.62.72,15.24,10.24,22.94,12.71,8.17,2.64,19.13-1,26,3.28,7.24,4.52,8.65,16,14.22,22,5.77,6.21,17.12,8.54,20.84,15.91a16.25,16.25,0,0,1,1.42,7.8,75.07,75.07,0,0,1-.93,8.38,35,35,0,0,0-.41,10C1169,895,1177,903.48,1175.49,911.9Z" transform="translate(-353.91 -33.39)"/><path class="cls-6" d="M1172.17,911c0,.13-.09.52-.11.62s-.08.56-.1.68-.1.6-.1.72c-1,5.93-6.88,10.26-11.08,15a20.59,20.59,0,0,0-3.37,4.89,24.3,24.3,0,0,0-1.77,7.43c-.66,5.95-.5,12.36-3.88,16.49-5,6-16.1,5.65-22.35,10.27s-9.14,15.36-16.34,18.37-16.82-2.5-24.55-1.26-15.09,9.45-23,8.81c-11.06-.91-21.56-9.63-32.64-10.25s-22.49,6.89-33.57,6.58-22.08-8.44-33.18-8.44S944.1,989,933,989.34s-22.49-7.2-33.57-6.58S877.82,992.1,866.76,993c-7.86.64-15.37-7.59-22.94-8.81-7.76-1.24-17.44,4.23-24.55,1.26s-10.11-13.76-16.35-18.39c-4.08-3-10.25-3.87-15.39-5.83a15.6,15.6,0,0,1-6.95-4.42c-2.5-3-3.08-7.28-3.47-11.7s-.56-8.69-2.19-12.22c-3.17-6.93-13.08-12-14.44-19.87,0-.12-.1-.61-.1-.72s-.11-.55-.13-.68-.06-.49-.08-.62c-1.44-8.33,6.42-16.73,7.68-24.78.59-3.8-.15-8.05-.75-12.26a42.05,42.05,0,0,1-.57-7.67,14.53,14.53,0,0,1,1.4-6c3.67-7.3,14.94-9.61,20.67-15.76,5.53-5.94,6.92-17.35,14.1-21.85,6.85-4.27,17.72-.62,25.81-3.24,7.63-2.48,14.22-11.91,22.76-12.61,9.24-.78,18.8,2.77,28.23,4.5a44.68,44.68,0,0,0,10.46.8c5-.26,10-1.77,15-3.5,7.59-2.64,15.16-5.84,22.86-6.05,12.75-.35,25.61,7.45,38.34,7.45s25.6-7.8,38.34-7.45,25.15,8.85,37.88,9.55,26-6.37,38.69-5.3c8.54.7,15.1,10.13,22.74,12.61,8.1,2.62,19-1,25.83,3.24,7.16,4.5,8.56,15.91,14.09,21.85,5.74,6.15,17,8.46,20.66,15.76,3.75,7.45-1.18,17.77.1,26S1173.61,902.68,1172.17,911Z" transform="translate(-353.91 -33.39)"/><path class="cls-7" d="M1164.28,928.76a21.18,21.18,0,0,0-3.67,5.2,22.58,22.58,0,0,0-1.69,6.77c-75.89,6.47-120.36-7.21-122.57-7.91C1076.84,940.85,1125.64,935.81,1164.28,928.76Z" transform="translate(-353.91 -33.39)"/><path class="cls-8" d="M908.34,951.72c-27.81,11.35-90.6,10.63-120.81,9.52a15.6,15.6,0,0,1-6.95-4.42c-2.5-3-3.08-7.28-3.47-11.7C798.51,950,849.82,959.15,908.34,951.72Z" transform="translate(-353.91 -33.39)"/><path class="cls-9" d="M944.15,973.75s102.05-7.18,112.8-10.86,1.07,0,1.07,0S1009.94,984,944.15,973.75Z" transform="translate(-353.91 -33.39)"/><path class="cls-10" d="M795.06,871.87a160,160,0,0,1-28,2.1,42.05,42.05,0,0,1-.57-7.67A189.32,189.32,0,0,0,795.06,871.87Z" transform="translate(-353.91 -33.39)"/><path class="cls-11" d="M905,808.61c-7.35,8.46-37,9.69-57.22,8.06,8.4-.86,21.81-3.36,31.76-5.36a44.68,44.68,0,0,0,10.46.8C895,811.85,900,810.34,905,808.61Z" transform="translate(-353.91 -33.39)"/><path class="cls-12" d="M1169.09,868.55a75.07,75.07,0,0,1-.93,8.38,80.79,80.79,0,0,1-24.63-8.38Z" transform="translate(-353.91 -33.39)"/><path class="cls-13" d="M1142.9,907.53c-6.24,40.37-39,68.3-75.11,68.3-2.22,0-4.45-.1-6.71-.32a936,936,0,0,0-183.5,0c-38.68,3.72-75.18-25.13-81.8-68a76.06,76.06,0,0,1-.9-11.61c0-.79,0-1.58,0-2.38a77.79,77.79,0,0,1,70.13-74.67,1065.54,1065.54,0,0,1,208.56,0,77.81,77.81,0,0,1,70.13,74.7A74.8,74.8,0,0,1,1142.9,907.53Z" transform="translate(-353.91 -33.39)"/><path class="cls-14" d="M1141.56,892.72a75,75,0,0,1-.84,9.61c-6.2,39.91-38.73,67.57-74.6,67.57q-3.34,0-6.71-.31a933.65,933.65,0,0,0-182.35,0c-38.43,3.7-74.71-24.87-81.29-67.26a75,75,0,0,1-.84-9.63,77.09,77.09,0,0,1,69.69-73.88,1063.09,1063.09,0,0,1,207.25,0A77.11,77.11,0,0,1,1141.56,892.72Z" transform="translate(-353.91 -33.39)"/><path class="cls-15" d="M1136.4,887.83a59.08,59.08,0,0,1-.87,10c-6,35-37.48,59.24-72.21,59.24-2.16,0-4.31-.09-6.47-.28a998.85,998.85,0,0,0-176.53,0c-29.54,2.58-57.8-12.7-71.36-37.69a69.12,69.12,0,0,1-7.35-21.27,60.27,60.27,0,0,1-.86-10c0-33.34,28.14-63.39,67.51-66.88a1137.37,1137.37,0,0,1,200.63,0C1108.32,824.36,1136.44,854.48,1136.4,887.83Z" transform="translate(-353.91 -33.39)"/><path class="cls-16" d="M1136.4,887.83a59.08,59.08,0,0,1-.87,10c-6,35-37.48,59.24-72.21,59.24-2.16,0-4.31-.09-6.47-.28a998.85,998.85,0,0,0-176.53,0c-29.54,2.58-57.8-12.7-71.36-37.69C915.37,948.48,1109.73,918.93,1136.4,887.83Z" transform="translate(-353.91 -33.39)"/><ellipse class="cls-17" cx="528.68" cy="802.56" rx="22.15" ry="6.48"/><path class="cls-17" d="M847.72,842.77c.87,2.65-2.45,6.13-7.43,7.77s-9.71.82-10.59-1.83,2.45-6.13,7.43-7.77S846.85,840.12,847.72,842.77Z" transform="translate(-353.91 -33.39)"/><text class="cls-18" transform="translate(518.23 886.85)">Start</text><text class="cls-19" transform="translate(516.63 883.92)">Start</text><path class="cls-20" d="M463.34,397l.31,0a3.39,3.39,0,0,1,2.1,1L599.41,552.49a1.73,1.73,0,0,1,.42,1.61A77.48,77.48,0,0,1,596,564.72c-3.75,8.19-7.81,11.84-12.78,11.5l-.38,0a3.47,3.47,0,0,1-2.13-1,1.74,1.74,0,0,1-.49-1.75c1.28-4.25.23-9.67-1.13-14a52.92,52.92,0,0,0-.94,21.33c.16,1-.7,2-2.08,2.36a4.38,4.38,0,0,1-1.39.13,3.57,3.57,0,0,1-2.35-1c-5.71-6-6.91-12.76-8.07-19.26-.43-2.4-.87-4.83-1.53-7.28a38.41,38.41,0,0,1-9.65,9.63,4.08,4.08,0,0,1-2.51.62,4.48,4.48,0,0,1-1.31-.31c-1.23-.52-1.83-1.55-1.46-2.53a16.49,16.49,0,0,0,.33-6.21,48.06,48.06,0,0,1-2.35,5.94,3.4,3.4,0,0,1-3.31,1.51l-.25,0c-1.54-.2-2.65-1.15-2.64-2.26.11-7.44-5.1-14.36-8.62-18.18-4.77,6.53-13,12.51-13.37,12.81a4.08,4.08,0,0,1-2.58.67,3.84,3.84,0,0,1-1.91-.63,1.83,1.83,0,0,1-.09-3.19c.23-.18,5.48-4.41,1.57-12.53-3,4.92-3.13,14.81-2.06,21.67.18,1.17-.92,2.24-2.54,2.47a4.87,4.87,0,0,1-.93,0,3.13,3.13,0,0,1-2.76-1.62c-.14-.35-3.46-8.48-9.94-30.38-4.19,3.59-3.09,10.35-3.07,10.43.21,1.22-1,2.34-2.71,2.52a4,4,0,0,1-.77,0,2.94,2.94,0,0,1-2.83-1.87c-.08-.31-1.51-6.72,1.35-18.18-7,2.86-17.13,5.05-25,4.51-4.29-.29-7.65-1.36-10-3.17a1.78,1.78,0,0,1-.62-2.34,3.24,3.24,0,0,1,2.67-1.44c6.2-.41,10.74-2.07,13.89-5.08,4.94-4.72,5.21-11.68,4.78-16-4.59,3-11.49,8.22-14,14a3.24,3.24,0,0,1-3,1.6,2.29,2.29,0,0,1-.37,0,3.2,3.2,0,0,1-2.71-1.51c-3.34-6.88,1.08-16.69,4.94-23.18-8.79,4-19.66,10.33-21.53,16.5a3,3,0,0,1-2.75,1.77,5.17,5.17,0,0,1-.68,0,3.38,3.38,0,0,1-2.57-1.28C421,495.11,434,481.64,443.37,474.6a91,91,0,0,1-11.69,0c-8.57-.59-15.11-2.56-19.44-5.85a1.79,1.79,0,0,1-.53-2.55,3.61,3.61,0,0,1,3.17-1.25c6,.41,14.07-3,21.28-7.07a80.64,80.64,0,0,1-15.09,2.55h-.57a4.09,4.09,0,0,1-1.8-.55,2.1,2.1,0,0,1-1.08-1.6,5.14,5.14,0,0,1,.92-3,96.3,96.3,0,0,0-11.16,10,3.75,3.75,0,0,1-2.95,1l-.26,0a3,3,0,0,1-2.54-1.7c-5-14.72,13.47-31.58,23.54-39.44a145.86,145.86,0,0,1-15.08-.16c-10.14-.69-17.09-2.69-20.66-5.93a1.76,1.76,0,0,1,0-2.77,3.88,3.88,0,0,1,2.84-.88,4.34,4.34,0,0,1,.93.17,23.81,23.81,0,0,0,5.24.89c22.74,1.56,62.33-18.91,62.72-19.12A4.26,4.26,0,0,1,463.34,397Z" transform="translate(-353.91 -33.39)"/><path class="cls-2" d="M445.25,426s-31.4,20.83-25.76,37.44c19.47-20.51,42.63-25.17,42.63-25.17s-28.61,13.83-28.21,19.85c14.09-.85,29.65-8.14,29.65-8.14s-21.3,17.2-35.24,16.24c10.36,7.89,34.73,3.63,34.73,3.63s-29.82,15.43-17,34.4c3.16-10.39,28.72-19.45,28.72-19.45S462,501,466.44,510c3.74-8.79,17.46-16,17.46-16s6.71,23.23-18.68,24.92c7.47,5.82,30.5-1,33.78-5.1-4.69,13.64-2.89,21.26-2.89,21.26s-1.86-10.42,7.52-13.06c6.44,22.12,9.75,30.15,9.75,30.15s-3.06-19.56,5.41-23.66c7.77,10.83-.06,16.63-.06,16.63s10.35-7.5,13.4-14.15c0,0,11.42,9.51,11.26,20.42,0,0,6.08-12.38,2.73-20.09,7.3,14.22,4.55,21.52,4.55,21.52s12.45-8.43,9.63-16.31c7.33,11.23,3.16,22.49,12,31.83-2.53-17,3.65-26.89,3.65-26.89s6.34,12.29,3.85,20.54c6.89.78,12-18.21,12-18.21l-120-138.67s-43.52,22.67-63.83,16.6C415.8,428.85,445.25,426,445.25,426Z" transform="translate(-353.91 -33.39)"/><path class="cls-21" d="M507.19,73.05l.22.2a2,2,0,0,1,.59,2L447,277.74a2.75,2.75,0,0,1-1.45,1.57c-.29.14-7.22,3.64-15,6.61-12.2,4.68-19.63,5.43-23.36,2.37l-.27-.24a2.05,2.05,0,0,1-.7-2,2.69,2.69,0,0,1,1.54-1.72c5.78-2.8,10.94-7.87,14.64-12.23a110.76,110.76,0,0,0-24.47,17.12,4.67,4.67,0,0,1-4.35.79,4,4,0,0,1-1.29-.68,2.11,2.11,0,0,1-.83-2.13c2-8.18,8.45-14.41,14.7-20.44,2.32-2.22,4.66-4.48,6.83-6.88a76.52,76.52,0,0,1-18.67,2.57,4.33,4.33,0,0,1-2.76-.89,2.47,2.47,0,0,1-.75-1c-.44-1.11.21-2.3,1.61-2.91a35.15,35.15,0,0,0,7.17-5c-4.61,2.16-8.18,3.47-8.54,3.61a4.77,4.77,0,0,1-4.42-.61l-.18-.16a2.06,2.06,0,0,1,.32-3.34c8.37-6.09,11.74-14.73,13.07-19.86-11.2,2.74-24.61,3.1-25.28,3.12a4.42,4.42,0,0,1-2.88-.89,2.28,2.28,0,0,1-.89-1.59c-.08-1.42,1.48-2.62,3.48-2.68a20.61,20.61,0,0,0,15.22-9.49c-7.92,2.41-19,10.5-25.78,16.77a4.68,4.68,0,0,1-4.85.62,3.49,3.49,0,0,1-.8-.49,2,2,0,0,1-.49-2.88c.28-.37,6.56-9,25.54-30.68-7.45.62-14.05,6.83-14.13,6.91a4.7,4.7,0,0,1-5,.56,3.3,3.3,0,0,1-.65-.42,2,2,0,0,1-.26-3.13c.29-.3,6.21-6.4,21.32-14.28-9-1.57-19.78-5.4-25.69-10.24-3.22-2.64-4.81-5.4-4.72-8.2A2.71,2.71,0,0,1,356,173.1a4.88,4.88,0,0,1,3.81.31A27.26,27.26,0,0,0,376.94,177c9.33-1.14,17.28-6.74,21.74-10.56-7.11-.1-18.63.37-27.11,3.79a4.85,4.85,0,0,1-4.26-.35,2.28,2.28,0,0,1-.3-.21,2,2,0,0,1-.56-2.77c4.88-7.55,19.43-13.2,29.84-16.41-11.77-1.56-27.74-2.44-36.14,1.61a4.92,4.92,0,0,1-4.24-.07,2.89,2.89,0,0,1-.56-.38,2,2,0,0,1-.71-2.49c8.53-18.58,34.24-22.46,49.8-23a70,70,0,0,1-9.67-6.54c-6.44-5.27-9.66-10.56-9.58-15.71a2.83,2.83,0,0,1,2.39-2.4,4.7,4.7,0,0,1,4,.74c4.51,3.69,15,5.38,25.46,6a77.49,77.49,0,0,1-15.32-6.33,3.88,3.88,0,0,1-.47-.32,2.33,2.33,0,0,1-.87-1.46,2.15,2.15,0,0,1,.87-1.92,11.85,11.85,0,0,1,4.05-1.94,187.45,187.45,0,0,0-20.38,2.07,4.61,4.61,0,0,1-3.54-.84l-.18-.16a2,2,0,0,1-.21-2.82c12.22-15,46.22-18.59,63.28-19.46A110,110,0,0,1,432,66.49c-7.62-6.25-11.16-11.78-10.51-16.46.16-1.17,1.42-2.12,3.06-2.3a4.55,4.55,0,0,1,3.32.86,2.8,2.8,0,0,1,.59.66,15.11,15.11,0,0,0,3.34,3.67c17.08,14,72.56,19.21,73.11,19.26A4.18,4.18,0,0,1,507.19,73.05Z" transform="translate(-353.91 -33.39)"/><path class="cls-2" d="M460.46,87.18s-48.95-.33-62.7,16.5c38.77-6.06,63,3,63,3s-38.9-4.54-45.24.64c12.55,7.16,33.45,9.83,33.45,9.83s-36.6,2.3-47-6.26c-.19,12.27,24.62,22.34,24.62,22.34s-41.68-3.9-52.13,18.88c14.11-6.8,45.22,0,45.22,0s-28.4,6.25-34.78,16.15c12.82-5.17,32.08-3.43,32.08-3.43s-20.2,22.9-43,10.14c-.28,9,26.2,16.22,33.5,14.62-19,8.64-25.92,15.91-25.92,15.91s10-9.62,20.65-6.57c-19.18,21.83-25.34,30.29-25.34,30.29S396,211.39,407.5,212.73A22,22,0,0,1,389,226.4s16.83-.41,26.73-4.2c0,0-1.13,14.21-13.35,23.12,0,0,18.72-6.82,24.51-15-9.74,15.8-20.09,20.29-20.09,20.29s19.61,0,26-8.08c-6.39,13.34-22.3,20.3-25.35,32.93,16.77-15.44,32.8-20.13,32.8-20.13s-8.39,13.66-19.58,19.08c4.81,4.48,30.09-8.31,30.09-8.31L505.44,84.83s-61-5.57-71-21.9C433,73.12,460.46,87.18,460.46,87.18Z" transform="translate(-353.91 -33.39)"/><path class="cls-22" d="M1463.91,397l-.31,0a3.36,3.36,0,0,0-2.1,1L1327.83,552.49a1.75,1.75,0,0,0-.41,1.61,76.7,76.7,0,0,0,3.86,10.62c3.76,8.19,7.82,11.84,12.79,11.5l.38,0a3.47,3.47,0,0,0,2.13-1,1.76,1.76,0,0,0,.49-1.75c-1.28-4.25-.23-9.67,1.13-14a52.92,52.92,0,0,1,.94,21.33c-.16,1,.7,2,2.08,2.36a4.38,4.38,0,0,0,1.39.13,3.52,3.52,0,0,0,2.34-1c5.72-6,6.92-12.76,8.08-19.26.43-2.4.87-4.83,1.53-7.28a38.61,38.61,0,0,0,9.64,9.63,4.12,4.12,0,0,0,2.51.62,4.47,4.47,0,0,0,1.32-.31c1.23-.52,1.83-1.55,1.46-2.53a16.23,16.23,0,0,1-.33-6.21,46.31,46.31,0,0,0,2.35,5.94,3.4,3.4,0,0,0,3.31,1.51l.25,0c1.53-.2,2.65-1.15,2.64-2.26-.11-7.44,5.1-14.36,8.62-18.18,4.77,6.53,13,12.51,13.37,12.81a4.08,4.08,0,0,0,2.58.67,3.87,3.87,0,0,0,1.91-.63,1.84,1.84,0,0,0,.09-3.19c-.23-.18-5.48-4.41-1.57-12.53,3,4.92,3.13,14.81,2.06,21.67-.19,1.17.92,2.24,2.54,2.47a4.85,4.85,0,0,0,.93,0,3.13,3.13,0,0,0,2.76-1.62c.14-.35,3.46-8.48,9.94-30.38,4.19,3.59,3.08,10.35,3.07,10.43-.21,1.22,1,2.34,2.71,2.52a3.87,3.87,0,0,0,.76,0,2.94,2.94,0,0,0,2.84-1.87c.07-.31,1.51-6.72-1.36-18.18,7,2.86,17.14,5.05,25,4.51,4.29-.29,7.64-1.36,10-3.17a1.78,1.78,0,0,0,.62-2.34,3.26,3.26,0,0,0-2.68-1.44c-6.19-.41-10.73-2.07-13.88-5.08-4.94-4.72-5.21-11.68-4.78-16,4.59,3,11.49,8.22,14,14a3.23,3.23,0,0,0,3,1.6,2.29,2.29,0,0,0,.37,0,3.18,3.18,0,0,0,2.7-1.51c3.35-6.88-1.07-16.69-4.93-23.18,8.78,4,19.66,10.33,21.53,16.5a3,3,0,0,0,2.75,1.77,5.15,5.15,0,0,0,.68,0,3.38,3.38,0,0,0,2.57-1.28c10.41-15.43-2.58-28.9-11.95-35.94a91,91,0,0,0,11.69,0c8.57-.59,15.11-2.56,19.44-5.85a1.8,1.8,0,0,0,.53-2.55,3.61,3.61,0,0,0-3.17-1.25c-6,.41-14.07-3-21.28-7.07a80.64,80.64,0,0,0,15.09,2.55h.57a4.09,4.09,0,0,0,1.8-.55,2.1,2.1,0,0,0,1.08-1.6,5.14,5.14,0,0,0-.92-3,97.13,97.13,0,0,1,11.16,10,3.75,3.75,0,0,0,3,1l.26,0a3,3,0,0,0,2.53-1.7c5-14.72-13.47-31.58-23.54-39.44a145.81,145.81,0,0,0,15.08-.16c10.15-.69,17.1-2.69,20.67-5.93a1.77,1.77,0,0,0,0-2.77,3.88,3.88,0,0,0-2.84-.88,4.23,4.23,0,0,0-.93.17,23.92,23.92,0,0,1-5.24.89c-22.74,1.56-62.33-18.91-62.73-19.12A4.21,4.21,0,0,0,1463.91,397Z" transform="translate(-353.91 -33.39)"/><path class="cls-2" d="M1482,426s31.4,20.83,25.76,37.44c-19.47-20.51-42.63-25.17-42.63-25.17s28.61,13.83,28.21,19.85c-14.09-.85-29.66-8.14-29.66-8.14s21.31,17.2,35.25,16.24c-10.36,7.89-34.73,3.63-34.73,3.63s29.82,15.43,17,34.4c-3.16-10.39-28.72-19.45-28.72-19.45s12.71,16.17,8.31,25.21c-3.74-8.79-17.47-16-17.47-16s-6.7,23.23,18.69,24.92c-7.47,5.82-30.5-1-33.78-5.1,4.69,13.64,2.89,21.26,2.89,21.26s1.86-10.42-7.52-13.06c-6.45,22.12-9.75,30.15-9.75,30.15s3.06-19.56-5.42-23.66c-7.76,10.83.06,16.63.06,16.63s-10.34-7.5-13.4-14.15c0,0-11.41,9.51-11.25,20.42,0,0-6.08-12.38-2.73-20.09-7.3,14.22-4.55,21.52-4.55,21.52s-12.45-8.43-9.63-16.31c-7.33,11.23-3.16,22.49-12,31.83,2.53-17-3.65-26.89-3.65-26.89s-6.34,12.29-3.85,20.54c-6.89.78-12-18.21-12-18.21l120-138.67s43.52,22.67,63.83,16.6C1511.45,428.85,1482,426,1482,426Z" transform="translate(-353.91 -33.39)"/><path class="cls-23" d="M1420.05,73.05c-.07.07-.15.13-.21.2a2,2,0,0,0-.59,2l61,202.46a2.75,2.75,0,0,0,1.45,1.57c.29.14,7.22,3.64,15,6.61,12.2,4.68,19.62,5.43,23.35,2.37l.28-.24a2.05,2.05,0,0,0,.7-2,2.69,2.69,0,0,0-1.54-1.72c-5.78-2.8-10.94-7.87-14.64-12.23a111,111,0,0,1,24.47,17.12,4.66,4.66,0,0,0,4.34.79,4,4,0,0,0,1.3-.68,2.11,2.11,0,0,0,.83-2.13c-2-8.18-8.45-14.41-14.71-20.44-2.31-2.22-4.66-4.48-6.82-6.88a76.52,76.52,0,0,0,18.67,2.57,4.33,4.33,0,0,0,2.76-.89,2.47,2.47,0,0,0,.75-1c.44-1.11-.22-2.3-1.61-2.91a34.83,34.83,0,0,1-7.17-5c4.61,2.16,8.18,3.47,8.54,3.61a4.78,4.78,0,0,0,4.42-.61,1.29,1.29,0,0,0,.17-.16,2.06,2.06,0,0,0-.32-3.34c-8.36-6.09-11.73-14.73-13.06-19.86,11.2,2.74,24.6,3.1,25.28,3.12a4.42,4.42,0,0,0,2.88-.89,2.23,2.23,0,0,0,.88-1.59c.08-1.42-1.47-2.62-3.47-2.68a20.61,20.61,0,0,1-15.22-9.49c7.92,2.41,19,10.5,25.78,16.77a4.67,4.67,0,0,0,4.84.62,3.56,3.56,0,0,0,.81-.49,2,2,0,0,0,.48-2.88c-.27-.37-6.55-9-25.53-30.68,7.45.62,14,6.83,14.13,6.91a4.7,4.7,0,0,0,5,.56,3,3,0,0,0,.64-.42,2,2,0,0,0,.26-3.13c-.28-.3-6.2-6.4-21.31-14.28,9-1.57,19.78-5.4,25.68-10.24,3.22-2.64,4.81-5.4,4.73-8.2a2.71,2.71,0,0,0-2.09-2.28,4.88,4.88,0,0,0-3.81.31,27.26,27.26,0,0,1-17.13,3.55c-9.33-1.14-17.28-6.74-21.74-10.56,7.1-.1,18.63.37,27.11,3.79a4.85,4.85,0,0,0,4.26-.35,2.28,2.28,0,0,0,.3-.21,2,2,0,0,0,.55-2.77c-4.87-7.55-19.42-13.2-29.83-16.41,11.77-1.56,27.74-2.44,36.14,1.61a4.92,4.92,0,0,0,4.24-.07,2.89,2.89,0,0,0,.56-.38,2,2,0,0,0,.71-2.49c-8.53-18.58-34.24-22.46-49.8-23a70.65,70.65,0,0,0,9.67-6.54c6.43-5.27,9.66-10.56,9.58-15.71a2.83,2.83,0,0,0-2.39-2.4,4.7,4.7,0,0,0-4,.74c-4.51,3.69-15,5.38-25.46,6a77.4,77.4,0,0,0,15.31-6.33,3.23,3.23,0,0,0,.47-.32,2.3,2.3,0,0,0,.88-1.46,2.13,2.13,0,0,0-.88-1.92,11.7,11.7,0,0,0-4-1.94,187.7,187.7,0,0,1,20.38,2.07,4.58,4.58,0,0,0,3.53-.84l.19-.16a2,2,0,0,0,.21-2.82C1534,79.54,1500,75.92,1483,75.05a110,110,0,0,0,12.29-8.56c7.62-6.25,11.15-11.78,10.51-16.46-.17-1.17-1.42-2.12-3.06-2.3a4.59,4.59,0,0,0-3.33.86,3,3,0,0,0-.58.66,15,15,0,0,1-3.35,3.67c-17.08,14-72.55,19.21-73.11,19.26A4.25,4.25,0,0,0,1420.05,73.05Z" transform="translate(-353.91 -33.39)"/><path class="cls-2" d="M1466.79,87.18s48.94-.33,62.69,16.5c-38.76-6.06-63,3-63,3s38.9-4.54,45.24.64c-12.55,7.16-33.45,9.83-33.45,9.83s36.6,2.3,47-6.26c.19,12.27-24.62,22.34-24.62,22.34s41.68-3.9,52.13,18.88c-14.11-6.8-45.22,0-45.22,0s28.39,6.25,34.78,16.15c-12.82-5.17-32.08-3.43-32.08-3.43s20.2,22.9,43,10.14c.28,9-26.2,16.22-33.5,14.62,19,8.64,25.92,15.91,25.92,15.91s-10-9.62-20.65-6.57c19.18,21.83,25.34,30.29,25.34,30.29s-19.13-17.82-30.66-16.48a22,22,0,0,0,18.47,13.67s-16.84-.41-26.73-4.2c0,0,1.13,14.21,13.34,23.12,0,0-18.71-6.82-24.5-15,9.74,15.8,20.09,20.29,20.09,20.29s-19.61,0-26-8.08c6.39,13.34,22.3,20.3,25.35,32.93C1503,260,1487,255.28,1487,255.28s8.39,13.66,19.58,19.08c-4.81,4.48-30.09-8.31-30.09-8.31L1421.81,84.83s61-5.57,71-21.9C1494.24,73.12,1466.79,87.18,1466.79,87.18Z" transform="translate(-353.91 -33.39)"/><path class="cls-24" d="M829.53,498.18l.23-.17a4.37,4.37,0,0,1,2.57-.66l272.6,12.45a4.1,4.1,0,0,1,2.24.74,126,126,0,0,1,10.68,8.94c7.77,7.38,9.76,12.15,6.28,15l-.28.22a4.23,4.23,0,0,1-2.49.73,4.11,4.11,0,0,1-2.45-.78c-4.45-3.42-11.77-6.11-18-7.95a115.7,115.7,0,0,0,25.69,13.74c1.37.54,2,1.67,1.62,2.75a2.32,2.32,0,0,1-.7.94,4.22,4.22,0,0,1-2.67.84c-11-.18-20-3.59-28.68-6.87-3.23-1.22-6.49-2.45-9.91-3.55a30.25,30.25,0,0,1,5.9,11.91,2,2,0,0,1-.79,1.94,3.63,3.63,0,0,1-1.19.63,4.41,4.41,0,0,1-4-.66,34.39,34.39,0,0,0-7.44-4,76.16,76.16,0,0,1,5.86,5.11,1.91,1.91,0,0,1-.18,3l-.18.13a4.52,4.52,0,0,1-4.41.25c-9.1-4.66-20.83-5.7-27.7-5.87a53.85,53.85,0,0,1,7.52,16.18,2,2,0,0,1-.77,2,3.84,3.84,0,0,1-2,.79c-1.85.25-3.62-.61-4-1.91-.08-.26-2-6.12-14.46-8.7,4.23,4.87,16.3,11.07,25.41,14.64,1.55.61,2.19,2,1.47,3.1a2.72,2.72,0,0,1-.53.6,4.42,4.42,0,0,1-3.69.71c-.53-.13-12.58-3.09-43.54-12.59,1.83,4.81,10.84,8.3,10.95,8.34,1.63.62,2.27,2.06,1.42,3.23a2.27,2.27,0,0,1-.45.48,4.38,4.38,0,0,1-4.06.6c-.43-.14-9.2-3.2-21.55-12.05-.82,6.12-4.35,13.73-9.86,18.27A18,18,0,0,1,984,584.9a4,4,0,0,1-3.27-1.06,1.84,1.84,0,0,1-.11-2.54c3.31-4.09,4.06-7.93,2.3-11.74-2.77-6-11.16-10.43-16.76-12.84.84,4.68,3,12.19,8.65,17.3a1.87,1.87,0,0,1,.13,2.84,1.7,1.7,0,0,1-.24.22,4.33,4.33,0,0,1-3.53.75c-10.53-2.17-19.89-11-25.5-17.36-.43,7.94.6,18.56,7,23.52a1.91,1.91,0,0,1,.49,2.8,3.25,3.25,0,0,1-.41.42,4.31,4.31,0,0,1-3.16.81c-25.42-3.07-34-19.43-36.87-29.58a53.83,53.83,0,0,1-7.2,7.25c-6,4.95-12.47,7.79-19.2,8.44a4,4,0,0,1-3.46-1.25,1.89,1.89,0,0,1,.41-2.73c4.21-3.47,5-10.57,4.43-17.55a38.73,38.73,0,0,1-6.17,10.92,3.06,3.06,0,0,1-.36.36,3.86,3.86,0,0,1-1.78.77,4.71,4.71,0,0,1-2.64-.31,8.89,8.89,0,0,1-3.07-2.4,70.92,70.92,0,0,0,5.48,13.11,1.92,1.92,0,0,1-.61,2.44,1.33,1.33,0,0,1-.19.14,4.47,4.47,0,0,1-3.65.53c-21.2-6-30.57-27.83-34-38.92a87.16,87.16,0,0,1-9.5,9.25c-7.12,5.85-13.86,8.93-20,9.14a3.52,3.52,0,0,1-3.42-1.69,1.9,1.9,0,0,1,.67-2.3,3.3,3.3,0,0,1,.78-.47,19.12,19.12,0,0,0,4.33-2.7c15.94-13.14,15.16-50.29,15.15-50.66A2.07,2.07,0,0,1,829.53,498.18Z" transform="translate(-353.91 -33.39)"/><path class="cls-2" d="M856,524.87s6.13,31.58,29.52,38.19c-12.94-24.17-4.58-41-4.58-41s-.61,25.67,6.88,29.06c7.48-9.05,8.1-22.87,8.1-22.87s7.84,23.28-1.72,31.15c15.74-1.53,25.31-18.86,25.31-18.86s.59,27.38,31.15,31.06c-10.6-8.18-6.09-29.13-6.09-29.13s11.81,17.45,25.34,20.24c-8.33-7.57-8.69-20.21-8.69-20.21s32,10,18.74,26.36c11.51-1,17.25-19.06,14.23-23.54,13.6,11.06,23.84,14.56,23.84,14.56s-13.66-5.16-11.18-12.42c30.52,9.43,42.18,12.27,42.18,12.27s-25.39-9.94-25.21-17.55c17.71,1.83,20,10.07,20,10.07s-2.79-10.79-9-16.66c0,0,18.34-1.17,31.37,5.5,0,0-11.23-11.14-22.54-13.77,21.53,4.16,28.66,10.23,28.66,10.23s-2.65-12.63-13.83-15.67c18,2.33,29,11.64,45.56,11.92-22-8.74-30.17-18.44-30.17-18.44s18.62,3.58,27.06,10.06c5.09-3.7-14.67-18.27-14.67-18.27L847,496.21s1,40-18.52,48.68C841.71,544.44,856,524.87,856,524.87Z" transform="translate(-353.91 -33.39)"/><path class="cls-25" d="M1497.88,186.75c-2.13,13.68,21.37,29.37,19.25,43.06s-29.9,25.36-32,39,21.38,29.38,19.25,43.07-29.89,25.36-32,39,21.38,29.37,19.26,43.06-29.9,25.36-32,39,21.37,29.38,19.25,43.07-29.9,25.35-32,39c0,.34-.09.69-.12,1-1.78,21-30.48,35.15-58.63,28.45a89.06,89.06,0,0,0-14.76-2.37c-27.06-1.76-56.27,14.88-83.38,13.47s-52.57-20.9-79.71-22-55.47,16.33-82.63,15.63-53.62-19.53-80.8-19.88S992.16,547.31,965,547.31s-54.59-18.12-81.77-17.76-53.63,19.17-80.79,19.88-55.49-16.69-82.62-15.63-52.61,20.55-79.71,22-56.32-15.23-83.39-13.47a89.06,89.06,0,0,0-14.76,2.37c-28.14,6.7-56.84-7.42-58.63-28.45,0-.35-.07-.7-.12-1-2.12-13.69-29.89-25.36-32-39s21.37-29.38,19.24-43.07-29.89-25.36-32-39,21.37-29.38,19.25-43.06-29.9-25.36-32-39,21.36-29.38,19.24-43.07-29.89-25.36-32-39,21.37-29.38,19.24-43.06-29.89-25.36-32-39,21.37-29.38,19.25-43.07a18.84,18.84,0,0,0-.47-2.09c-6.08-21.14,20.1-39.72,50-36.7a3.19,3.19,0,0,1,.42.05,5.29,5.29,0,0,1,.56,0,142.22,142.22,0,0,0,25.29,1,91.52,91.52,0,0,0,10.16-1.26l.47-.09a152.49,152.49,0,0,0,20.57-5.49c20.11-6.66,39.93-15.82,60.68-16.91a87.87,87.87,0,0,1,9.6.05h0l.59,0c28.27,1.72,57.58,15,85.58,13.89a90.11,90.11,0,0,0,9.82-.94l.78-.12c9.39-1.45,18.71-4.18,28-7.18,18.06-5.8,36.05-12.62,54.45-13.09,1.37,0,2.73,0,4.11,0h1c29.79,1,60.17,16.82,89.93,16.43A112.55,112.55,0,0,0,895,49c21.69-5,43.32-14.23,65.07-15.49.69,0,1.4-.08,2.1-.1s1.27,0,1.91-.05H965c.94,0,1.89,0,2.82.06.7,0,1.41.06,2.11.1C991.65,34.81,1013.28,44,1035,49q4.33,1,8.68,1.77a100.37,100.37,0,0,0,15.42,1.49c29.29.38,59.19-14.93,88.54-16.37.47,0,.93,0,1.39-.06h0c1.69,0,3.37-.06,5,0,22.19.57,43.8,10.37,65.64,16.5a142.34,142.34,0,0,0,17.12,3.82l.48.07a90.16,90.16,0,0,0,9.81.94c27.41,1.08,56.07-11.62,83.78-13.77.6,0,1.2-.09,1.8-.12a89.41,89.41,0,0,1,10.22-.08c23.48,1.23,45.75,12.79,68.6,19.37,4,1.16,8,2.16,12.1,2.93l1,.19A91.05,91.05,0,0,0,1434.82,67a138.38,138.38,0,0,0,23.74-.85l1.55-.17a5.67,5.67,0,0,1,.58,0c30.09-3.24,56.53,15.42,50.43,36.65a21.41,21.41,0,0,0-.47,2.09c-2.12,13.69,21.38,29.38,19.26,43.07S1500,173.07,1497.88,186.75Z" transform="translate(-353.91 -33.39)"/><path class="cls-26" d="M1475.63,180.35c-1.81,11.6,15.63,24.72,18.25,36.68a12.65,12.65,0,0,1,.19,4.58c-1.2,7.71-10.88,14.75-19.08,21.91-5.74,5-10.76,10.1-11.6,15.5-2.05,13.11,20.48,28.15,18.43,41.26a13.38,13.38,0,0,1-1.71,4.63c-3.68,6.5-12.23,12.61-19.12,18.84-5,4.52-9.1,9.1-9.85,13.95-2,13.11,20.49,28.15,18.45,41.26s-28.65,24.31-30.69,37.42,20.48,28.15,18.44,41.26-28.64,24.3-30.68,37.41c-.05.33-.1.66-.12,1-1.71,20.15-29.21,33.68-56.18,27.26a86.62,86.62,0,0,0-14.15-2.27c-25.93-1.69-53.92,14.27-79.9,12.91s-50.38-20-76.38-21-53.16,15.65-79.17,15-51.39-18.71-77.43-19.05-52.31,17-78.35,17-52.31-17.36-78.35-17-51.39,18.37-77.42,19.05-53.17-16-79.18-15-50.4,19.69-76.38,21-54-14.6-79.9-12.91a87,87,0,0,0-14.15,2.27c-26.43,6.29-53.37-6.58-56-26.06,0,0,0,0,0-.05-.05-.38-.09-.76-.13-1.15a13.54,13.54,0,0,0-.28-1.84s0,0,0,0c-3-12.74-28.51-23.73-30.51-36.55-.05-.37-.09-.72-.11-1.08v0c-.22-3.94,1.64-8.06,4.26-12.24,1.23-1.95,2.63-3.92,4.06-5.89,5.42-7.5,11.33-15.05,10.24-22-.06-.31-.11-.61-.19-.92a0,0,0,0,0,0,0c-3.11-12.7-28.5-23.67-30.5-36.47-.05-.35-.08-.71-.1-1.06v0c-.33-5.88,4-12.13,8.49-18.4,5.39-7.41,11.14-14.86,10.06-21.77,0-.28-.1-.56-.16-.84-3-12.76-28.53-23.75-30.52-36.58a8.77,8.77,0,0,1-.11-1c-.68-11.23,15.45-23.76,18.26-35.26a12.7,12.7,0,0,0,.28-5c0-.24-.08-.49-.14-.74-2.9-12.79-28.54-23.81-30.54-36.67a9.71,9.71,0,0,1-.11-1.21c-.57-12.82,20.53-27.34,18.56-40.05a9.37,9.37,0,0,0-.19-.92c-3.1-12.72-28.5-23.69-30.5-36.5a11.48,11.48,0,0,1-.14-2v-.11c.38-12.61,20.51-26.76,18.58-39.2a11,11,0,0,0-.25-1.22c0-.23-.12-.47-.18-.72,0-.09-.05-.2-.08-.29-.12-.42-.23-.85-.32-1.27-3.13-14.63,9.7-27.72,28-32.27a59.35,59.35,0,0,1,21.24-1.31c5,.59,10,1,14.77,1.12,3.23.1,6.39.06,9.45-.14A96.29,96.29,0,0,0,531.07,63c22.2-5.36,43.68-16.93,66.17-19.67,1.86-.22,3.71-.39,5.57-.49,2.65-.13,5.31-.13,8,0l.8,0c23.26,1.17,47.27,10.75,70.62,13l.52,0a91.53,91.53,0,0,0,9.91.4c.65,0,1.31,0,2,0,9.22-.36,18.31-2.34,27.38-5,19.61-5.61,39-14.13,58.93-15.38h0c.93,0,1.88-.1,2.82-.12.67,0,1.36,0,2,0H786c27.69.07,55.92,14.34,83.66,15.69H870c1.61.07,3.24.1,4.86.08A102.78,102.78,0,0,0,895,49c21.69-4.61,43.32-14.17,65.07-15.49.69,0,1.4-.08,2.1-.1s1.27,0,1.91-.05H965c.94,0,1.89,0,2.82.06.7,0,1.41.06,2.11.1C991.65,34.87,1013.28,44.43,1035,49a106.75,106.75,0,0,0,18.09,2.42h.07c.66,0,1.34,0,2,0,29,.38,58.61-15.29,87.65-15.78h.23c1,0,2.11,0,3.17,0s1.88.07,2.82.12h0c23.72,1.49,46.79,13.31,70.28,18.24a95.29,95.29,0,0,0,15.52,2.07l.52,0c.65,0,1.31,0,2,0,27.85.41,57-13.3,84.89-13.54,1.64,0,3.29,0,4.93.1,1.86.1,3.72.27,5.57.49,25.53,3.11,49.74,17.58,75.19,21.47,2.42.37,4.86.64,7.3.8.39,0,.78.05,1.19.06,2.69.15,5.44.16,8.27.08,4.78-.12,9.73-.53,14.76-1.12a60.76,60.76,0,0,1,7.2-.41,58.79,58.79,0,0,1,14.06,1.72c14.87,3.7,26.14,13,28.15,24.24a20.78,20.78,0,0,1-.52,9.52,17.41,17.41,0,0,0-.45,2,13.57,13.57,0,0,0,.66,6.26c3.73,11.5,19.51,23.94,17.79,35C1504.27,156.05,1477.67,167.23,1475.63,180.35Z" transform="translate(-353.91 -33.39)"/><path class="cls-27" d="M1472.16,179.86c-1.74,11.28,14.72,24,18,35.66a14.52,14.52,0,0,1,.36,1.66c0,.18,0,.36.07.53a7.25,7.25,0,0,1,.09.8c0,.25,0,.49,0,.74a11.32,11.32,0,0,1-.13,1.74c0,.25-.09.49-.14.74s-.09.38-.14.57a5.25,5.25,0,0,1-.17.52,4,4,0,0,1-.15.45c-.06.16-.12.33-.19.49a19,19,0,0,1-1.46,2.78l-.31.45a26.65,26.65,0,0,1-2,2.57c-.2.24-.4.47-.61.7-.75.85-1.58,1.69-2.44,2.54-.31.3-.61.59-.94.89-3.41,3.22-7.38,6.39-11,9.59q-1.56,1.35-3,2.73l-.75.73a43,43,0,0,0-3.91,4.37,5.79,5.79,0,0,0-.43.58c-.15.19-.28.39-.41.58a18.79,18.79,0,0,0-1.08,1.78c-.11.21-.22.42-.32.63s-.18.38-.26.57-.17.4-.25.6-.15.41-.21.61a5.54,5.54,0,0,0-.17.58,8.85,8.85,0,0,0-.27,1.24c-2,13.07,20.42,28.06,18.38,41.12a11.1,11.1,0,0,1-.45,1.83c0,.15-.1.31-.15.45s-.11.3-.18.45a16.15,16.15,0,0,1-1.48,2.81q-.22.36-.48.72l-.38.54c-.46.62-1,1.23-1.48,1.85-.24.29-.5.57-.75.86a83,83,0,0,1-7.51,7.06l-1.09.94-2.1,1.79-1.06.9-.18.15-1.22,1.06a.39.39,0,0,0-.1.08l-1.29,1.13h0c-.42.38-.85.75-1.26,1.14l-.07.06c-.43.41-.87.81-1.29,1.22h0a46.3,46.3,0,0,0-3.71,3.91c-.37.45-.73.9-1.07,1.35s-.54.74-.79,1.11l-.3.47a11.09,11.09,0,0,0-.69,1.19q-.16.28-.3.57l0,.06c-.09.19-.17.37-.25.56a11.8,11.8,0,0,0-.46,1.2,4.74,4.74,0,0,0-.15.5,5.09,5.09,0,0,0-.14.56c-.07.25-.11.51-.16.77-1.91,12.36,18,26.43,18.5,39a11,11,0,0,1-.11,2.15c-.9,5.74-6.51,11.11-12.7,16.44-7.91,6.8-16.74,13.53-17.89,20.86-2,13.07,20.42,28.05,18.38,41.12s-28.54,24.22-30.58,37.29q-.07.5-.12,1c-1.7,20.09-29.1,33.58-56,27.18a85.28,85.28,0,0,0-14.1-2.26c-25.86-1.69-53.76,14.21-79.64,12.87s-50.22-20-76.14-21-53,15.6-78.91,14.92-51.21-18.65-77.17-19-52.13,17-78.1,17-52.13-17.3-78.08-17-51.22,18.31-77.17,19S755,510.32,729,511.33s-50.25,19.62-76.14,21-53.78-14.56-79.64-12.87a85.28,85.28,0,0,0-14.1,2.26,59.16,59.16,0,0,1-14.9,1.59c-.27,0-.54,0-.81,0-1,0-2.09-.1-3.12-.18-.64-.07-1.26-.13-1.88-.21-.33,0-.65-.08-1-.13l-.59-.08-.84-.13c-.49-.09-1-.17-1.48-.27-.26,0-.51-.1-.76-.15-.45-.09-.91-.19-1.36-.3l-.89-.22-.88-.22c-.58-.16-1.14-.32-1.71-.5a50.77,50.77,0,0,1-5.77-2.15l-.66-.3a41.94,41.94,0,0,1-8.6-5.28c-.4-.31-.79-.65-1.17-1l-.59-.52-.57-.54c-.19-.18-.38-.36-.55-.54s-.34-.35-.51-.52c-.55-.57-1.06-1.15-1.55-1.74-.15-.2-.32-.39-.47-.59l-.45-.6c-.15-.2-.29-.4-.43-.61-.3-.41-.57-.82-.82-1.23-.39-.63-.75-1.26-1.09-1.91h0a24.83,24.83,0,0,1-1.41-3.36c-.08-.23-.16-.45-.22-.68-.14-.47-.26-.94-.38-1.41l-.15-.66s0,0,0-.05c-.07-.37-.15-.75-.2-1.13a2.38,2.38,0,0,1-.06-.37c-.05-.4-.1-.78-.13-1.18,0-.1,0-.22,0-.33s-.06-.44-.09-.66a12.64,12.64,0,0,0-.9-3c-.17-.38-.35-.77-.56-1.15a23.32,23.32,0,0,0-2.4-3.58c-.29-.36-.58-.72-.9-1.09l-.07-.07c-.31-.36-.64-.72-1-1.08-1.61-1.72-3.44-3.41-5.37-5.11-.2-.19-.42-.38-.64-.57l-.65-.56-.81-.7c-2.22-1.89-4.49-3.79-6.62-5.69-.22-.18-.43-.38-.64-.56-1.48-1.33-2.88-2.67-4.15-4l-.53-.57-.32-.36-.42-.48a2.78,2.78,0,0,1-.27-.33c-.17-.19-.33-.39-.48-.58a22.49,22.49,0,0,1-2.56-3.87c-.1-.2-.19-.38-.28-.58a13.47,13.47,0,0,1-.86-2.42c0-.17-.07-.35-.11-.52a.43.43,0,0,0,0-.05v0c0-.1,0-.2-.05-.3-.59-3.81.89-7.79,3.26-11.82,1.12-1.93,2.44-3.88,3.83-5.83,3.44-4.83,7.28-9.69,9.51-14.43.11-.22.21-.45.31-.67v0c.25-.59.48-1.16.67-1.74a5.17,5.17,0,0,0,.18-.51,13.49,13.49,0,0,0,.64-5.79,1.63,1.63,0,0,0,0-.31c-.07-.41-.15-.82-.26-1.22a10.71,10.71,0,0,0-.4-1.21c-.07-.2-.16-.4-.25-.6a13.83,13.83,0,0,0-.71-1.45c-.17-.31-.35-.62-.55-.93a25.14,25.14,0,0,0-1.75-2.44c-.13-.17-.28-.33-.42-.49s-.31-.37-.48-.57-.31-.35-.47-.53c-3.84-4.25-9.16-8.4-13.92-12.58l-1-.91a45.12,45.12,0,0,1-8.16-9l-.36-.59a17.06,17.06,0,0,1-1.13-2.32c-.05-.13-.1-.26-.14-.39a10.41,10.41,0,0,1-.41-1.42,3.58,3.58,0,0,1-.09-.45l0-.16v0s0,0,0-.05c-.91-5.9,3.18-12.2,7.74-18.54,5.48-7.62,11.66-15.31,10.67-22.42,0-.05,0-.11,0-.16-2-13.07-28.55-24.23-30.59-37.3,0,0,0-.1,0-.15C446.47,288.09,462.58,275.53,466,264a12.84,12.84,0,0,0,.48-5.7c-.66-4.3-4-8.38-8.18-12.39-8.62-8.21-21-16.12-22.4-24.9a5.6,5.6,0,0,1-.07-.59c-1.29-12.93,20.45-27.66,18.45-40.54a3.58,3.58,0,0,0-.08-.43c-2.54-12.89-28.49-23.93-30.5-36.86a14,14,0,0,1-.14-1.59v-.11c0-12.66,20.46-26.92,18.52-39.43-.06-.32-.11-.65-.19-1s-.12-.47-.18-.72c0-.09-.05-.2-.08-.29-.12-.42-.23-.85-.32-1.27-3.29-14.6,9.41-27.69,27.61-32.32a59.56,59.56,0,0,1,21.45-1.36c5.28.61,10.44,1,15.45,1.13,3,.07,5.86,0,8.68-.16a94.63,94.63,0,0,0,16.4-2.63h0c22.06-5.35,43.41-16.82,65.76-19.56h0c1.85-.22,3.7-.39,5.56-.49,2.85-.14,5.7-.14,8.58,0l.8,0c23.28,1.32,47.29,10.94,70.62,13l.52,0a89,89,0,0,0,10.69.28h.29c9.49-.36,18.86-2.46,28.2-5.18C741.23,45.31,760.37,37,780,35.86c.87-.06,1.73-.1,2.6-.12,1.08,0,2.15,0,3.22,0H786c27.71.48,56,14.82,83.66,15.69H870c1.12,0,2.25,0,3.37,0,30-.4,59.84-18.07,89.86-18.07h.9c26.59.3,53,14.2,79.57,17.41a87.5,87.5,0,0,0,9.41.65h.07c29.66.35,60-16.12,89.65-15.73h1c1.28,0,2.54.1,3.81.19,24.14,1.79,47.61,14.11,71.59,18.61a91.76,91.76,0,0,0,13.48,1.58c.72,0,1.43.05,2.15.06h2c28.08-.32,57.39-14.22,85.37-13.47.65,0,1.3,0,2,.07,2.25.12,4.51.34,6.74.64,25.94,3.51,50.55,18.49,76.53,21.62,1.49.18,3,.32,4.49.42s3,.16,4.46.17c2.36.05,4.78,0,7.24-.11,4.06-.17,8.22-.54,12.45-1a60.34,60.34,0,0,1,10.54-.31,57.84,57.84,0,0,1,11.93,1.94c14.36,3.95,25.07,13.22,26.84,24.24a20.61,20.61,0,0,1-.58,9.08,19.71,19.71,0,0,0-.46,2,13.77,13.77,0,0,0,.74,6.51c3.88,11.39,19.35,23.68,17.64,34.62C1500.72,155.64,1474.2,166.79,1472.16,179.86Z" transform="translate(-353.91 -33.39)"/><path class="cls-28" d="M1460,258.28c-2,13.07,20.42,28.06,18.38,41.12s-28.55,24.23-30.59,37.3c-1.91,12.36,18,26.43,18.5,39a11,11,0,0,1-.11,2.15c-.9,5.74-6.51,11.11-12.7,16.44-7.91,6.8-16.74,13.53-17.89,20.86-2,13.07,20.42,28.05,18.38,41.12s-28.54,24.22-30.58,37.29q-.07.5-.12,1c-1.7,20.09-29.1,33.58-56,27.18a85.28,85.28,0,0,0-14.1-2.26c-25.86-1.69-53.76,14.21-79.64,12.87s-50.22-20-76.14-21-53,15.6-78.91,14.92-51.21-18.65-77.17-19-52.13,17-78.1,17-52.13-17.3-78.08-17-51.22,18.31-77.17,19S755,510.32,729,511.33s-50.25,19.62-76.14,21-53.78-14.56-79.64-12.87a85.28,85.28,0,0,0-14.1,2.26c-26.88,6.4-54.29-7.09-56-27.18a8.36,8.36,0,0,0-.12-1c-2-13.07-28.54-24.22-30.58-37.29-.59-3.81.89-7.79,3.26-11.82,1.12-1.93,2.44-3.88,3.83-5.83,5.68-8,12.44-16,11.29-23.47-2-13.07-28.55-24.23-30.59-37.3-.91-5.9,3.18-12.2,7.74-18.54,85.75,21.56,198.86,78.46,433.52,70.74,263.68-8.66,242.34-120.39,588.62-214.5a13,13,0,0,1,.41,5.47C1488.51,234.06,1462,245.21,1460,258.28Z" transform="translate(-353.91 -33.39)"/><path class="cls-29" d="M1494.07,221.61c-1.2,7.71-10.88,14.75-19.08,21.91-76.43-4.63-166.71-11.81-220.71-22-3.34-.64-2.54-4.14.92-4,92.63,3.81,175.15,2.33,238.68-.53A12.65,12.65,0,0,1,1494.07,221.61Z" transform="translate(-353.91 -33.39)"/><path class="cls-30" d="M1466.25,375.67a11,11,0,0,1-.11,2.15c-.9,5.74-6.51,11.11-12.7,16.44-106.89.68-406.19,2.44-476.23,1.47-133.88-1.85-364.69,33.74-501.49,48.69,1.12-1.93,2.44-3.88,3.83-5.83,101-14.14,378.49-51,543.82-53.7C1204.35,381.94,1406.3,377.13,1466.25,375.67Z" transform="translate(-353.91 -33.39)"/><path class="cls-31" d="M713.52,467.59S881.4,477.84,1026,472.17C952.42,487.69,794.29,486.7,713.52,467.59Z" transform="translate(-353.91 -33.39)"/><path class="cls-32" d="M694.3,260c-38.71,13-167,7.5-228.35,3.94a12.84,12.84,0,0,0,.48-5.7c-.66-4.3-4-8.38-8.18-12.39C494.43,251.93,597.91,267,694.3,260Z" transform="translate(-353.91 -33.39)"/><path class="cls-33" d="M1480.11,304.91c-3.68,6.5-12.23,12.61-19.12,18.84-105.52,14.56-410.22,29.52-490,12.15-85.92-18.7-405.26-15.16-405.26-15.16s196.38-15.4,429.72,8.79C1218.27,352.62,1299,305.66,1480.11,304.91Z" transform="translate(-353.91 -33.39)"/><path class="cls-34" d="M534.05,154.32s137.15-34,392.34,0c161.5,21.51,217.46,10.29,217.46,10.29s-164,12.57-252.83-5S534.05,154.32,534.05,154.32Z" transform="translate(-353.91 -33.39)"/><path class="cls-35" d="M1488.53,107.93c-44.26.24-336,1-470.6-20.6,136.84,20.65,375.44,8.8,470.91,2.81a20.78,20.78,0,0,1-.52,9.52,17.41,17.41,0,0,0-.45,2A13.57,13.57,0,0,0,1488.53,107.93Z" transform="translate(-353.91 -33.39)"/><text class="cls-36" transform="translate(308.96 192.16)">Capybara<tspan x="-101.85" y="204">Bonsai Shop</tspan></text><text class="cls-37" transform="translate(304.94 187.77)">Capybara<tspan x="-101.85" y="204">Bonsai Shop</tspan></text></svg>