<svg id="Capa_1" data-name="Capa 1" xmlns="http://www.w3.org/2000/svg" viewBox="0 0 422.84 17.1"><defs><style>.cls-1{fill:#683c11;}.cls-2{fill:#dbe27e;}</style></defs><g id="Slider_SFX"><path class="cls-1" d="M914,620.64h357.69c16.48,0,33.12.69,49.59,0h.72c9.65,0,9.67-15,0-15H964.31c-16.48,0-33.12-.69-49.59,0H914c-9.65,0-9.67,15,0,15Z" transform="translate(-906.4 -603.85)"/><path class="cls-2" d="M913.29,618.41H1271c16.47,0,33.12.7,49.58,0h.73c9.16,0,9.18-14.25,0-14.25H963.59c-16.47,0-33.12-.7-49.58,0h-.72c-9.17,0-9.19,14.25,0,14.25Z" transform="translate(-906.4 -603.85)"/></g></svg>